<?xml version="1.0" standalone="no"?>
<!DOCTYPE svg PUBLIC "-//W3C//DTD SVG 1.1//EN" "http://www.w3.org/Graphics/SVG/1.1/DTD/svg11.dtd" >
<svg xmlns="http://www.w3.org/2000/svg" xmlns:xlink="http://www.w3.org/1999/xlink" version="1.1">
<metadata></metadata>
<defs>
<font id="malcommedium" horiz-adv-x="598" >
<font-face units-per-em="1000" ascent="800" descent="-200" />
<missing-glyph horiz-adv-x="252" />
<glyph unicode=" "  horiz-adv-x="252" />
<glyph unicode="&#x09;" horiz-adv-x="252" />
<glyph unicode="&#xa0;" horiz-adv-x="252" />
<glyph unicode="!" horiz-adv-x="349" d="M214 213h-100l-29 544h157zM241 66q0 -32 -22.5 -54.5t-54.5 -22.5t-55 22.5t-23 54.5q0 31 23 54.5t55 23.5t54.5 -23.5t22.5 -54.5z" />
<glyph unicode="&#x22;" horiz-adv-x="438" d="M357 462h-82l-33 311h148zM162 462h-82l-32 311h147z" />
<glyph unicode="#" horiz-adv-x="707" d="M530 427l-8 -118h126v-118h-131l-10 -151h-124l10 151h-99l-10 -151h-123l10 151h-127v118h132l8 118h-126v118h132l9 141h122l-9 -141h100l9 141h123l-9 -141h127v-118h-132zM307 427l-8 -118h100l8 118h-100z" />
<glyph unicode="$" horiz-adv-x="555" d="M504 192q0 -51 -25 -93.5t-73 -70.5q-31 -19 -70 -28v-138h-118v130q-47 5 -84.5 18.5t-67.5 29.5l12 107q45 -23 89 -36t84 -13q24 0 46 5.5t39 17.5q14 10 22.5 24.5t8.5 35.5q0 20 -10 32t-26 23q-16 10 -37 18.5t-43.5 16.5t-46 17t-45.5 20q-59 32 -82.5 76 t-23.5 93q0 74 48 121.5t126 61.5v106h118v-104q72 -10 131 -48l-26 -97q-37 18 -78.5 30t-73.5 12q-54 0 -81.5 -20.5t-27.5 -50.5q0 -26 18 -42.5t44 -28.5q38 -19 84.5 -35.5t88.5 -42.5q14 -9 28.5 -21.5t26 -30t18.5 -41t7 -54.5z" />
<glyph unicode="%" horiz-adv-x="876" d="M381 505q0 -48 -17 -85.5t-45 -63.5q-45 -42 -109 -42q-34 0 -64.5 12.5t-52.5 36.5t-35 58t-13 77t14 78t37 60t53.5 38.5t64.5 13.5q40 0 74 -16t57 -47q36 -47 36 -120zM256 -29l-114 32l471 697l115 -32zM827 180q0 -48 -16.5 -85.5t-44.5 -63.5q-47 -42 -109 -42 q-35 0 -65 12.5t-52.5 36.5t-35 58t-12.5 77t14 78t37 60t53.5 38.5t64.5 13.5q40 0 73.5 -15.5t56.5 -47.5q36 -47 36 -120zM269 503q0 46 -14 67q-13 24 -43 24q-28 0 -41 -27q-6 -11 -10 -28.5t-4 -36.5q0 -44 14 -69q14 -22 41 -22q17 0 29 11t18 25q10 23 10 56z M716 178q0 46 -14 67q-13 24 -43 24q-28 0 -42 -27q-6 -11 -10 -28.5t-4 -36.5q0 -22 4 -39t11 -29q14 -23 41 -23q17 0 29 11t18 25q10 23 10 56z" />
<glyph unicode="&#x26;" horiz-adv-x="795" d="M694 -29q-69 34 -107 60t-58 43q-7 -5 -29.5 -18.5t-57.5 -28t-82.5 -25.5t-104.5 -11q-67 0 -108.5 22.5t-65 54t-32 66t-8.5 58.5q0 28 6.5 53t22 50t41.5 51.5t65 57.5q-6 7 -20.5 23t-30 38.5t-27 51t-11.5 59.5q0 36 14.5 66t40 51.5t60.5 33.5t75 12 q21 0 51.5 -6.5t58.5 -23t48 -45.5t20 -75q0 -33 -13.5 -61t-32 -50.5t-38.5 -39t-33 -26.5l27.5 -27.5t49.5 -48.5t59 -55t56 -47q3 8 13.5 28.5t21 51.5t19 69.5t8.5 81.5h131q-6 -55 -16 -98t-22.5 -78t-29 -64.5t-36.5 -59.5l16 -12t30.5 -21t42.5 -25.5t53 -25.5z M330 576q0 33 -16.5 51.5t-41.5 18.5q-23 0 -42 -16t-19 -48q0 -15 8.5 -32t19 -31.5t20 -25.5t12.5 -15q8 7 18.5 17t19.5 22.5t15 27.5t6 31zM441 142q-7 6 -28.5 25t-50 45.5t-61 57.5t-62.5 61q-22 -20 -43 -52t-21 -79q0 -49 27 -77.5t74 -28.5q59 0 97.5 16t67.5 32z " />
<glyph unicode="'" horiz-adv-x="243" d="M162 462h-82l-32 311h147z" />
<glyph unicode="(" horiz-adv-x="350" d="M281 -189q-35 40 -63.5 74.5t-52.5 69.5q-52 80 -82 166t-30 187t30.5 188.5t81.5 165.5q24 37 53 71.5t64 75.5l96 -49q-46 -56 -83 -108t-63 -110q-23 -51 -36.5 -108.5t-13.5 -122.5q0 -94 25 -169.5t65 -139.5q22 -35 47 -68t60 -75z" />
<glyph unicode=")" horiz-adv-x="350" d="M301 308q0 -101 -30 -187t-82 -166q-25 -35 -53 -69.5t-63 -74.5l-98 48q34 42 59.5 75t47.5 68q40 64 65 139.5t25 169.5q0 65 -13.5 122.5t-36.5 108.5q-26 58 -63 110t-83 108l96 49q35 -41 63.5 -75.5t53.5 -71.5q51 -78 81.5 -165.5t30.5 -188.5z" />
<glyph unicode="*" horiz-adv-x="553" d="M358 493l93 -159l-60 -44l-123 139l-140 -130l-51 63l108 131l-165 77l37 75l165 -55l12 179h83l11 -179l167 55l34 -75z" />
<glyph unicode="+" horiz-adv-x="647" d="M386 217v-212h-127v212h-216v123h216v212h127v-212h218v-123h-218z" />
<glyph unicode="," horiz-adv-x="369" d="M248 27q0 -51 -39 -107t-106 -105l-44 51q34 34 49.5 59t23.5 50q-20 15 -30.5 43t-10.5 51q0 12 4.5 25.5t13 24t21.5 17.5t30 7q11 0 26 -4.5t28.5 -17t23.5 -35t10 -59.5z" />
<glyph unicode="-" horiz-adv-x="420" d="M53 214v122h313v-122h-313z" />
<glyph unicode="." horiz-adv-x="313" d="M225 70q0 -32 -24 -56t-56 -24t-56 24t-24 56t24 56.5t56 24.5t56 -24.5t24 -56.5z" />
<glyph unicode="/" horiz-adv-x="464" d="M137 -15h-130l324 701h129z" />
<glyph unicode="0" horiz-adv-x="648" d="M599 265q0 -63 -22 -114.5t-60 -87.5t-89 -55.5t-110 -19.5q-57 0 -106 16.5t-85 49.5t-57 83.5t-21 117.5q0 63 22 114t60 86.5t88 54.5t107 19q69 0 120 -20.5t85 -56t51 -83.5t17 -104zM469 259q0 36 -9.5 66.5t-28 53t-46.5 35.5t-64 13q-30 0 -56 -12t-45 -34.5 t-30 -53.5t-11 -70q0 -36 9 -67t27 -54t46 -36t65 -13q30 0 56.5 12.5t45.5 35t30 54t11 70.5z" />
<glyph unicode="1" horiz-adv-x="396" d="M96 0v87l55 3v306l-89 -19l-21 83l146 64h96v-434l54 -3v-87h-241z" />
<glyph unicode="2" horiz-adv-x="517" d="M51 0v86l139 117q28 23 50 42t37.5 36.5t23.5 35t8 38.5q0 34 -22.5 55.5t-65.5 21.5q-23 0 -44 -10t-38 -22q-20 -14 -37 -32l-64 66q21 27 51 49q27 20 63.5 34.5t87.5 14.5q103 0 154.5 -41.5t51.5 -119.5q0 -60 -32.5 -110.5t-101.5 -106.5l-61 -50q18 0 37 0.5 t43.5 0.5t58 0.5t79.5 0.5v-106h-418z" />
<glyph unicode="3" horiz-adv-x="496" d="M443 36q0 -52 -18 -95t-52.5 -73.5t-85.5 -47.5t-117 -17q-25 0 -48 4t-42 8q-21 6 -40 13l28 95q19 -5 39 -9q18 -3 36.5 -5.5t34.5 -2.5q67 0 98 33.5t31 84.5q0 32 -13 54.5t-35.5 36t-51.5 19.5t-61 6h-68v96h63q27 0 54.5 7.5t49.5 22.5t35.5 36.5t13.5 49.5 q0 38 -25.5 59t-67.5 21q-21 0 -40.5 -8.5t-35.5 -18.5q-18 -12 -34 -27l-61 72q21 23 49 41q25 16 59 28t79 12q51 0 90.5 -12t66.5 -34t40.5 -52t13.5 -65q0 -60 -30 -100t-75 -63v-4q54 -14 87 -56t33 -109z" />
<glyph unicode="4" horiz-adv-x="579" d="M447 0v-192h-128v192h-305v84l286 441h147v-419h120v-106h-120zM320 359h-5l-159 -254q12 0 21.5 0.5t36.5 0.5h106v253z" />
<glyph unicode="5" horiz-adv-x="502" d="M454 54q0 -59 -21.5 -105.5t-59 -78.5t-89.5 -49.5t-114 -17.5q-25 0 -48 3.5t-42 7.5q-21 6 -40 12l28 97q19 -5 39 -9q18 -3 36.5 -5.5t34.5 -2.5q34 0 60 11.5t44 30.5t27.5 43t9.5 49q0 66 -39 98.5t-131 32.5h-73v353h357v-113h-233v-129h14q62 -1 107.5 -21.5 t75 -52t43.5 -72t14 -82.5z" />
<glyph unicode="6" horiz-adv-x="617" d="M570 235q0 -55 -20.5 -100.5t-56 -77.5t-83.5 -49.5t-102 -17.5q-112 0 -178 74t-66 219q0 212 105 324.5t302 112.5q18 0 66 -3v-111q-30 5 -45.5 6t-29.5 1q-59 0 -104.5 -17t-77.5 -45.5t-51 -66t-25 -78.5l4 -2q14 18 52 33.5t83 15.5q53 0 95.5 -16t71.5 -44.5 t44.5 -68.5t15.5 -89zM435 218q0 59 -29 94t-83 35q-27 0 -48.5 -10t-37 -26.5t-23.5 -38t-8 -43.5q0 -23 6.5 -47t20.5 -44t35.5 -33t51.5 -13q54 0 84.5 35t30.5 91z" />
<glyph unicode="7" horiz-adv-x="494" d="M467 440q-31 -69 -61.5 -141.5t-58 -150.5t-50.5 -163t-40 -179h-142q20 105 44 190t50.5 157t54.5 135.5t55 126.5q-13 -1 -33 -2.5t-52 -1.5h-211v113h444v-84z" />
<glyph unicode="8" horiz-adv-x="586" d="M530 190q0 -52 -21.5 -90t-57 -62.5t-80 -36t-89.5 -11.5t-86.5 10t-73 32.5t-50 58t-18.5 85.5q0 39 13.5 69t33 51.5t41.5 36.5t40 24q-22 11 -43.5 28t-38 39t-26.5 49t-10 57q0 35 13 69t41.5 61.5t72.5 44.5t105 17q36 0 75 -8t71.5 -28.5t53.5 -55t21 -87.5 q0 -35 -11.5 -62t-28.5 -47.5t-38 -35.5t-41 -25q21 -11 44.5 -26t43 -36.5t32 -51t12.5 -69.5zM386 544q0 32 -25 54.5t-69 22.5q-18 0 -35.5 -5.5t-31 -16t-21.5 -25.5t-8 -35t10.5 -38t25.5 -33t32 -26t30 -17q16 8 32.5 20t29.5 27.5t21.5 34t8.5 37.5zM397 171 q0 26 -11.5 48t-28.5 39t-36.5 29.5t-36.5 18.5q-17 -7 -34 -20t-30.5 -30t-22 -36.5t-8.5 -39.5q0 -24 9 -41t24 -27.5t33 -15t36 -4.5t37 4t34.5 13.5t25 24.5t9.5 37z" />
<glyph unicode="9" horiz-adv-x="617" d="M549 239q0 -212 -105.5 -324.5t-302.5 -112.5q-17 0 -65 3v111q30 -5 45.5 -6t28.5 -1q59 0 105.5 17.5t79.5 46.5t51.5 66t22.5 77l-4 2q-14 -18 -52.5 -33.5t-83.5 -15.5q-53 0 -95 16t-71 44.5t-44.5 68.5t-15.5 89q0 56 20.5 101t56 77t83 49.5t101.5 17.5 q113 0 179 -73.5t66 -219.5zM407 293q0 23 -6.5 47t-21 44t-36 33t-51.5 13q-54 0 -84 -35t-30 -91q0 -59 29 -94t82 -35q27 0 49 10t37 26.5t23.5 38t8.5 43.5z" />
<glyph unicode=":" horiz-adv-x="327" d="M233 393q0 -32 -24.5 -55.5t-56.5 -23.5t-56 23.5t-24 55.5t24 56.5t56 24.5t56.5 -24.5t24.5 -56.5zM233 70q0 -32 -24.5 -56t-56.5 -24t-56 24t-24 56t24 56.5t56 24.5t56.5 -24.5t24.5 -56.5z" />
<glyph unicode=";" horiz-adv-x="383" d="M257 393q0 -32 -24.5 -55.5t-56.5 -23.5t-56 23.5t-24 55.5t24 56.5t56 24.5t56.5 -24.5t24.5 -56.5zM255 27q0 -51 -39 -107t-106 -105l-44 51q34 34 49.5 59t23.5 50q-20 15 -30.5 43t-10.5 51q0 12 4.5 25.5t13 24t21.5 17.5t30 7q11 0 26 -4.5t28.5 -17t23.5 -35 t10 -59.5z" />
<glyph unicode="&#x3c;" horiz-adv-x="561" d="M451 -56l-407 347l406 349l65 -65l-267 -283l267 -280z" />
<glyph unicode="=" horiz-adv-x="548" d="M65 314v122h417v-122h-417zM65 117v122h417v-122h-417z" />
<glyph unicode="&#x3e;" horiz-adv-x="561" d="M111 -54l-66 65l267 283l-267 280l65 66l407 -346z" />
<glyph unicode="?" horiz-adv-x="522" d="M442 526q0 -34 -12 -59.5t-30 -47t-39 -40t-39 -39t-30 -45t-12 -56.5v-56h-100q-2 11 -4 23q-2 10 -3 21.5t-1 22.5q0 45 22.5 78.5t49 62.5t49 56.5t22.5 59.5q0 51 -25.5 78.5t-77.5 27.5q-26 0 -52.5 -13.5t-50.5 -37.5l-56 67q36 40 84.5 61.5t93.5 21.5 q103 0 157 -44.5t54 -141.5zM312 66q0 -32 -22.5 -54.5t-54.5 -22.5t-55 22.5t-23 54.5q0 31 23 54.5t55 23.5t54.5 -23.5t22.5 -54.5z" />
<glyph unicode="@" horiz-adv-x="893" d="M854 407q0 -75 -20 -131t-68 -100q-35 -32 -75.5 -49.5t-77.5 -17.5l-57 56q-6 -7 -18 -17.5t-28 -19.5t-35 -15.5t-40 -6.5q-38 0 -72 14t-59.5 40.5t-40.5 65.5t-15 90q0 54 16.5 97t45.5 72.5t69 45.5t87 16q23 0 52 -5t52 -19l11 16h75v-332q19 4 36.5 20.5t31 42.5 t21.5 60t8 73q0 49 -15 89q-11 34 -32.5 62t-50.5 48q-65 45 -158 45q-68 0 -127.5 -26.5t-104 -72t-70 -107t-25.5 -131.5q0 -77 26.5 -137.5t75.5 -98.5q36 -29 83 -45t103 -16q69 0 121 15t106 46l20 -81q-67 -41 -132.5 -59t-124.5 -18q-79 0 -145.5 23t-117.5 65 q-66 52 -102.5 128.5t-36.5 171.5q0 94 35 175t95.5 141t141.5 94.5t172 34.5q85 0 152.5 -27t115.5 -75q47 -45 71.5 -106.5t24.5 -133.5zM545 330q0 49 -4 77.5t-9 32.5q-14 11 -29.5 14t-32.5 3q-50 0 -77.5 -39t-27.5 -99q0 -19 4 -40.5t14 -40t26 -30.5t41 -12 q15 0 32 8t31 24.5t23 42t9 59.5z" />
<glyph unicode="A" horiz-adv-x="618" d="M460 0l-46 143h-225l-45 -143h-130l230 671h123l233 -671h-140zM310 493q-2 8 -3.5 15t-2.5 13l-2 12h-2q-1 -7 -3 -14q-1 -6 -2.5 -13t-3.5 -14l-73 -246h168z" />
<glyph unicode="B" horiz-adv-x="595" d="M545 206q0 -49 -26 -94t-76 -77q-26 -17 -64 -26t-95 -9h-88h-72.5h-51.5v671h233q51 0 95 -11t76 -49q18 -21 28.5 -48.5t10.5 -59.5q0 -42 -22.5 -77.5t-54.5 -57.5q11 -6 29 -17.5t35.5 -30.5t30 -47t12.5 -67zM383 490q0 11 -4 24.5t-13.5 24.5t-27 18.5t-44.5 7.5 h-92v-158h61q62 0 91 23t29 60zM413 210q0 30 -11.5 49t-30 29.5t-41 14.5t-44.5 4h-35h-28.5h-20.5v-201h90q54 0 87.5 28.5t33.5 75.5z" />
<glyph unicode="C" horiz-adv-x="602" d="M573 84q-45 -45 -101.5 -69t-116.5 -24q-76 0 -133.5 24.5t-96.5 69t-58.5 106t-19.5 135.5q0 78 20.5 143t61 112t100 73.5t137.5 26.5q38 0 93.5 -19t109.5 -66l-54 -83q-47 35 -87.5 45.5t-63.5 10.5q-48 0 -84.5 -22t-59.5 -64q-33 -60 -33 -149q0 -76 23 -128 q21 -51 62 -77.5t96 -26.5q29 0 70 13t81 50z" />
<glyph unicode="D" horiz-adv-x="650" d="M603 339q0 -86 -28.5 -147.5t-79.5 -107.5q-47 -43 -109.5 -63.5t-136.5 -20.5h-177v671h193q66 0 120.5 -15.5t96.5 -47.5q58 -44 89.5 -109t31.5 -160zM464 336q0 68 -20 111.5t-50.5 69.5t-66 36t-66.5 10h-59v-455h52q45 0 83 14t66.5 42.5t44.5 71.5t16 100z" />
<glyph unicode="E" horiz-adv-x="505" d="M72 0v671h369v-108h-239v-152h233v-107h-233v-195h239v-109h-369z" />
<glyph unicode="F" horiz-adv-x="489" d="M202 563v-155h242v-107h-242v-301h-130v671h379v-108h-249z" />
<glyph unicode="G" horiz-adv-x="652" d="M492 0l-14 20q-27 -11 -61.5 -20t-61.5 -9q-76 0 -133.5 24.5t-96.5 69t-58.5 106t-19.5 135.5q0 78 20.5 143t61 112t100 73.5t137.5 26.5q38 0 93.5 -19t109.5 -66l-53 -84q-54 38 -91.5 47.5t-60.5 9.5q-48 0 -84.5 -22t-59.5 -64q-33 -60 -33 -149q0 -76 23 -128 q21 -51 62 -77.5t96 -26.5q19 0 42.5 4.5t46.5 15.5v157l-56 6v69h186v-129v-225h-95z" />
<glyph unicode="H" horiz-adv-x="660" d="M457 0v304h-255v-304h-130v671h130v-259h255v259h131v-671h-131z" />
<glyph unicode="I" horiz-adv-x="386" d="M72 0v87l55 3v491l-55 3v87h241v-87l-55 -3v-491l55 -3v-87h-241z" />
<glyph unicode="J" horiz-adv-x="363" d="M292 225q0 -65 -19 -112q-7 -17 -20 -38.5t-35.5 -40t-55.5 -31t-81 -12.5q-33 0 -62.5 9t-61.5 28l32 97q28 -14 49 -19.5t40 -5.5q38 0 60.5 25.5t22.5 87.5v473h131v-461z" />
<glyph unicode="K" horiz-adv-x="602" d="M429 0l-227 284v-284h-130v671h130v-270l223 270h162l-271 -326l282 -345h-169z" />
<glyph unicode="L" horiz-adv-x="412" d="M72 0v671h130v-561h216v-110h-346z" />
<glyph unicode="M" horiz-adv-x="811" d="M628 0l-35 414q-1 -5 -3 -8q-1 -4 -2 -7t-2 -4q-3 -8 -8.5 -22.5t-12.5 -31.5l-124 -306h-80l-118 297q-4 10 -8.5 22l-9 24t-7.5 21.5t-4 13.5v-25l-33 -388h-129l52 671h125l145 -340q4 -9 8.5 -22.5t8.5 -27t7 -24t4 -14.5h4q1 5 4.5 16t8 25t9 27.5l7.5 22.5l144 337 h126l53 -671h-130z" />
<glyph unicode="N" horiz-adv-x="664" d="M467 0l-218 340q-6 8 -14.5 23.5t-17.5 31t-16.5 29t-9.5 17.5q0 -7 1 -34t2 -65.5t1.5 -84t0.5 -89.5v-168h-124v671h125l219 -340l15 -25t17.5 -30t15 -27t9.5 -17q0 8 -1 37t-1.5 70t-1 88t-0.5 91v153h123v-671h-125z" />
<glyph unicode="O" horiz-adv-x="663" d="M618 339q0 -47 -12.5 -107.5t-45.5 -114t-89.5 -90.5t-144.5 -37q-59 0 -110 21t-89 63.5t-60 106.5t-22 150q0 81 21.5 146t60 110.5t92 70t117.5 24.5q65 0 117 -24t88.5 -68.5t56.5 -108t20 -142.5zM481 334q0 39 -7 80.5t-24 76.5t-46 57.5t-73 22.5 q-43 0 -71.5 -23.5t-45.5 -59t-24.5 -76t-7.5 -74.5q0 -48 9 -91t27 -75.5t46 -51.5t66 -19q36 0 64.5 19t47.5 51.5t29 74.5t10 88z" />
<glyph unicode="P" horiz-adv-x="572" d="M538 463q0 -51 -17.5 -93t-51 -71t-81 -45t-107.5 -15h-32q-14 0 -27 0.5t-20 0.5v-240h-130v671h219q117 0 182 -52t65 -156zM405 458q0 50 -29 76q-31 30 -90 30h-84v-215q7 -1 20 -1.5t27 -0.5h33t39.5 5t40 18t31 34.5t12.5 53.5z" />
<glyph unicode="Q" horiz-adv-x="663" d="M618 339q0 -44 -11 -100t-39.5 -107.5t-76.5 -90t-123 -48.5q8 -2 18.5 -5.5t19.5 -3.5q5 0 19.5 -1t34.5 0q15 1 33 1.5t34 1.5l38 2v-94q-21 -2 -43 -4q-20 -1 -42.5 -2t-44.5 -1q-34 0 -62 4.5t-48 9.5q-24 7 -42 15l9 75q-48 4 -92.5 26.5t-79 64.5t-55 103.5 t-20.5 145.5q0 82 21.5 147t60 110.5t92 69.5t117.5 24q65 0 117 -23t88.5 -67t56.5 -108t20 -145zM481 334q0 39 -7 80.5t-24 76.5t-46 57.5t-73 22.5q-43 0 -71.5 -23.5t-45.5 -59t-24.5 -76t-7.5 -74.5q0 -48 9 -91t27 -75.5t46 -51.5t66 -19q36 0 64.5 19t47.5 51.5 t29 74.5t10 88z" />
<glyph unicode="R" horiz-adv-x="587" d="M418 0l-192 259h-24v-259h-130v671h99q14 0 43 0.5t64.5 -1.5t71.5 -8t63 -20q27 -13 46 -33.5t30 -43t16 -45.5t5 -41q0 -17 -3 -42.5t-17.5 -52.5t-44 -54t-83.5 -47l220 -283h-164zM384 470q0 33 -14.5 52t-34 28.5t-38.5 12t-29 2.5h-66v-198h40q14 0 28.5 0.5 t20.5 2.5q38 5 65.5 30t27.5 70z" />
<glyph unicode="S" horiz-adv-x="506" d="M478 199q0 -52 -23.5 -95.5t-68.5 -71.5q-33 -21 -76.5 -31.5t-90.5 -10.5q-30 0 -57.5 5.5t-50.5 14t-40.5 17t-28.5 14.5l12 108q41 -22 84 -35.5t87 -13.5q23 0 44 4.5t38 15.5q15 11 25 26t10 38q0 24 -13.5 39t-33.5 27q-35 20 -81.5 35.5t-88.5 40.5 q-33 20 -51.5 43t-27.5 45t-11 41.5t-2 32.5q0 45 18 81t50 61t77 38t99 13q45 0 90 -12.5t86 -39.5l-27 -98q-39 20 -81 31t-69 11q-51 0 -80 -19.5t-29 -53.5q0 -29 21.5 -47.5t52.5 -32.5q39 -19 83 -37t86 -46q9 -6 21 -16.5t22.5 -27t17.5 -39.5t7 -55z" />
<glyph unicode="T" horiz-adv-x="513" d="M321 562v-562h-130v562h-192v109h514v-109h-192z" />
<glyph unicode="U" horiz-adv-x="657" d="M585 266q0 -88 -30.5 -148t-85.5 -92q-61 -36 -145 -36q-87 0 -142 33.5t-84 90.5q-15 29 -20.5 63.5t-5.5 72.5v421h130v-432q0 -23 3 -44t12 -37q16 -27 42 -43.5t68 -16.5q67 0 101 43q27 33 27 107v423h130v-405z" />
<glyph unicode="V" horiz-adv-x="564" d="M322 -7h-84l-265 678h142l166 -454l171 454h139z" />
<glyph unicode="W" horiz-adv-x="842" d="M642 -7h-90l-108 343q-2 6 -5.5 20.5t-7.5 30t-7 28.5t-3 17h-3q-1 -4 -3.5 -17t-6 -28t-7 -29t-5.5 -20l-107 -345h-90l-214 678h138l76 -263q6 -22 14.5 -53t15.5 -60q8 -33 17 -68q5 24 11 51q6 25 13 53t16 58l84 282h96l84 -268q8 -26 16.5 -55.5t15.5 -55 t11.5 -43.5l5.5 -22q6 25 14 53q6 26 14.5 56t17.5 63l78 272h134z" />
<glyph unicode="X" horiz-adv-x="555" d="M416 0l-141 225l-140 -225h-153l215 346l-203 325h152l129 -212l127 212h153l-202 -324l219 -347h-156z" />
<glyph unicode="Y" horiz-adv-x="523" d="M325 251v-251h-130v251l-226 420h148l81 -150q15 -28 26.5 -52.5t20.5 -43.5q9 -22 16 -41q8 20 18 44q10 21 22 46t28 54l80 143h145z" />
<glyph unicode="Z" horiz-adv-x="524" d="M45 0v52l225 437q5 10 13 23t15 25q8 14 17 28q-14 -1 -32 -2q-17 -2 -38 -2.5t-49 -0.5h-144v111h426v-50l-233 -448q-6 -11 -12.5 -23t-13.5 -22l-14 -22q17 2 38 3q19 1 42.5 2t51.5 1h142v-112h-434z" />
<glyph unicode="[" horiz-adv-x="360" d="M72 -183v957h239v-104h-112v-747h112v-106h-239z" />
<glyph unicode="\" horiz-adv-x="459" d="M333 -15l-324 701h116l325 -701h-117z" />
<glyph unicode="]" horiz-adv-x="360" d="M48 -183v106h113v747h-113v104h239v-957h-239z" />
<glyph unicode="^" horiz-adv-x="633" d="M485 334l-178 199l-176 -199l-72 38l211 314h75l216 -315z" />
<glyph unicode="_" horiz-adv-x="505" d="M-26 -197v121h557v-121h-557z" />
<glyph unicode="`" horiz-adv-x="495" d="M346 577l-239 162l91 102l188 -215z" />
<glyph unicode="a" horiz-adv-x="600" d="M431 0l-13 66q-7 -6 -20 -18.5t-32.5 -25t-45 -22t-57.5 -9.5q-48 0 -88.5 16.5t-70.5 49t-46.5 79.5t-16.5 107q0 65 19.5 116t54 86.5t82.5 54.5t104 19q29 0 65 -7t62 -27l14 24h85v-392l10 -117h-106zM401 259q0 60 -5.5 95.5t-12.5 41.5q-18 14 -37 17.5t-41 3.5 q-30 0 -54.5 -13t-41 -35.5t-25.5 -53.5t-9 -68q0 -23 5 -50t17.5 -50t33 -38t50.5 -15q19 0 40 10t39 30t29.5 51.5t11.5 73.5z" />
<glyph unicode="b" horiz-adv-x="589" d="M551 267q0 -64 -19 -115.5t-53 -87t-81 -54.5t-103 -19q-38 0 -71.5 11t-61.5 31l-21 -33h-69v754h129v-233q0 -3 -0.5 -14t-0.5 -22q0 -14 -1 -30q5 5 17 16t30 21.5t41.5 18.5t52.5 8q48 0 86.5 -16.5t66.5 -49t43 -79.5t15 -107zM417 263q0 23 -4.5 50t-16 50 t-31.5 38t-50 15q-19 0 -39.5 -10t-37 -30t-27 -51.5t-10.5 -73.5q0 -60 5 -95.5t12 -40.5q17 -14 34.5 -18t38.5 -4q30 0 53.5 13t39.5 35.5t24.5 53.5t8.5 68z" />
<glyph unicode="c" horiz-adv-x="472" d="M463 68q-37 -36 -84 -56.5t-101 -20.5t-101.5 18t-80.5 57q-29 34 -44.5 76.5t-15.5 103.5q0 75 25 129.5t72 92.5q65 51 160 51q47 0 91.5 -18t76.5 -51l-51 -80q-23 17 -38.5 25.5t-30.5 13.5q-22 6 -45 6q-59 0 -91 -44q-34 -45 -34 -119q0 -33 7.5 -61.5t22.5 -49.5 t38 -33t54 -12q28 0 59.5 10.5t59.5 38.5z" />
<glyph unicode="d" horiz-adv-x="589" d="M414 0l-13 61q-10 -10 -24.5 -22.5t-33.5 -23t-43 -17.5t-52 -7q-46 0 -84 16.5t-65.5 49t-42.5 79.5t-15 107q0 65 19 116t52.5 86.5t80.5 54.5t103 19q52 0 94 -21q0 3 -0.5 10.5t-1 16.5t-0.5 17.5v12.5v199h129v-754h-103zM391 259q0 60 -5.5 95.5t-12.5 41.5 q-17 14 -34 17.5t-39 3.5q-30 0 -53.5 -13t-39.5 -35.5t-24 -53.5t-8 -68q0 -23 4.5 -50t15.5 -50t31 -38t50 -15q19 0 39.5 10t37 30t27.5 51.5t11 73.5z" />
<glyph unicode="e" horiz-adv-x="564" d="M520 284q0 -12 -2 -24.5t-3 -16.5h-343v-13q0 -22 7.5 -44t22.5 -41q19 -23 46 -35.5t66 -12.5t75.5 12.5t72.5 34.5l44 -81q-44 -34 -95.5 -53.5t-108.5 -19.5q-64 0 -113.5 18.5t-83.5 53t-51.5 83t-17.5 107.5q0 64 21.5 113.5t55.5 83.5q70 70 176 70q45 0 83 -11 t67 -34q38 -29 60.5 -77t20.5 -113zM384 331q0 3 -0.5 8t-1.5 10q-5 33 -28 52t-61 19q-36 0 -67 -22.5t-42 -66.5h200z" />
<glyph unicode="f" horiz-adv-x="430" d="M432 634q-18 7 -41.5 13t-43.5 6q-38 0 -61 -24.5t-23 -78.5v-41h147v-105h-147v-404h-129v404h-112v105h112v43q0 63 20.5 105t46.5 63t57 30t68 9q35 0 67.5 -8t58.5 -19z" />
<glyph unicode="g" horiz-adv-x="589" d="M517 35q0 -82 -24.5 -135t-60.5 -83.5t-77.5 -42.5t-76.5 -12q-70 0 -111.5 13.5t-69.5 33.5l14 102q12 -7 30 -14.5t39 -14t43 -11t42 -4.5q17 0 38.5 6t40.5 20.5t31.5 39.5t12.5 63v15t1 20v25q-5 -6 -15.5 -17t-28 -21.5t-41.5 -18.5t-55 -8q-43 0 -81 16.5t-66.5 49 t-44.5 79.5t-16 107q0 65 19 116t52.5 86.5t80.5 54.5t103 19q29 0 63 -9.5t58 -31.5l14 31h86v-474zM391 259q0 60 -5.5 95.5t-12.5 41.5q-17 14 -34 17.5t-39 3.5q-30 0 -53.5 -13t-39.5 -35.5t-24 -53.5t-8 -68q0 -23 4.5 -50t15.5 -50t31 -38t50 -15q19 0 39.5 10t37 30 t27.5 51.5t11 73.5z" />
<glyph unicode="h" d="M402 0v301q0 54 -21 83.5t-63 29.5q-24 0 -45.5 -11t-37 -30.5t-25 -45.5t-9.5 -56v-271h-129v754h129v-213q0 -6 -0.5 -20.5t-0.5 -29.5q-1 -18 -2 -38q4 5 18 17t25 19q21 14 48 22.5t56 8.5q30 0 59 -7t58 -29q27 -20 48.5 -63t21.5 -120v-301h-130z" />
<glyph unicode="i" horiz-adv-x="273" d="M214 680q0 -32 -22.5 -54.5t-55.5 -22.5q-32 0 -54.5 22.5t-22.5 54.5t22.5 54.5t54.5 22.5q33 0 55.5 -22.5t22.5 -54.5zM72 0v509h129v-509h-129z" />
<glyph unicode="j" horiz-adv-x="276" d="M217 680q0 -32 -22.5 -54.5t-54.5 -22.5t-55 22.5t-23 54.5t23 54.5t55 22.5t54.5 -22.5t22.5 -54.5zM204 -20q0 -26 -3 -53.5t-8 -47.5q-31 -117 -172 -117q-52 0 -103 32l15 88q19 -9 38 -14.5t37 -5.5q35 0 51 21.5t16 75.5v550h129v-529z" />
<glyph unicode="k" horiz-adv-x="557" d="M391 -4l-190 212v-212h-129v758h129v-430l181 185h166l-233 -238l252 -275h-176z" />
<glyph unicode="l" horiz-adv-x="273" d="M72 0v754h129v-754h-129z" />
<glyph unicode="m" horiz-adv-x="806" d="M604 0v335q0 36 -13.5 57t-42.5 21q-19 0 -35.5 -9.5t-27.5 -29.5q-16 -28 -18 -71v-303h-129v335q0 19 -3.5 35t-11.5 26q-14 17 -40 17q-35 0 -58.5 -32t-23.5 -82v-299h-129v509h102l12 -58q25 35 59 51.5t63 16.5q46 0 77 -20t49 -57q8 9 19 22.5t27.5 25.5 t38.5 20.5t51 8.5q36 0 66 -10.5t51.5 -33.5t34 -61t12.5 -94v-320h-130z" />
<glyph unicode="n" d="M402 0v301q0 54 -21 83.5t-63 29.5q-24 0 -45.5 -10.5t-37 -28.5t-25 -43.5t-9.5 -55.5v-276h-129v509h102l14 -65q8 9 21.5 22t32.5 24.5t43 20t54 8.5q32 0 66.5 -9t63.5 -35q63 -57 63 -178v-297h-130z" />
<glyph unicode="o" horiz-adv-x="583" d="M546 259q0 -46 -15.5 -93.5t-48 -86.5t-81.5 -64t-116 -25q-54 0 -100 16.5t-79 49.5t-52 82t-19 114q0 59 19 108t53.5 84.5t82.5 55t105 19.5q54 0 100 -16.5t79.5 -49.5t52.5 -81.5t19 -112.5zM412 256q0 32 -7.5 61t-22.5 50.5t-37.5 34.5t-53.5 13 q-36 0 -59.5 -17.5t-37 -42t-19 -51.5t-5.5 -47q0 -25 5.5 -53.5t19.5 -52.5t37 -40t59 -16q38 0 61.5 18.5t37 44.5t18 53t4.5 45z" />
<glyph unicode="p" horiz-adv-x="589" d="M551 267q0 -64 -19 -115.5t-53 -87t-81 -54.5t-103 -19q-51 0 -94 20v-246h-129v744h102l14 -65q5 5 17 17.5t31.5 25t45.5 22.5t57 10q48 0 87 -16.5t66.5 -49t43 -79.5t15.5 -107zM417 263q0 23 -4.5 50t-16 50t-31.5 38t-50 15q-19 0 -39 -10t-36.5 -30t-27.5 -51.5 t-11 -73.5q0 -60 5 -95.5t12 -40.5q17 -14 34.5 -18t38.5 -4q30 0 53.5 13t39.5 35.5t24.5 53.5t8.5 68z" />
<glyph unicode="q" horiz-adv-x="589" d="M388 -235v219v17t0.5 23t1 21.5t0.5 12.5q-8 -10 -22 -22t-33 -22t-42 -16.5t-48 -6.5q-46 0 -84 16.5t-65.5 49t-42.5 79.5t-15 107q0 65 19 116t52.5 86.5t80.5 54.5t103 19q29 0 63.5 -8.5t62.5 -31.5l15 30h83v-744h-129zM388 259q0 60 -5.5 95.5t-12.5 41.5 q-17 14 -34 17.5t-39 3.5q-30 0 -53.5 -13t-39.5 -35.5t-24 -53.5t-8 -68q0 -23 4.5 -50t15.5 -50t31 -38t50 -15q19 0 39.5 10t37 30t27.5 51.5t11 73.5z" />
<glyph unicode="r" horiz-adv-x="376" d="M354 380q-82 16 -117.5 -10t-35.5 -99v-271h-129v509h102l14 -69q3 5 8.5 10.5t10.5 9.5q29 29 63.5 44.5t83.5 15.5v-140z" />
<glyph unicode="s" horiz-adv-x="467" d="M426 152q0 -40 -16.5 -70.5t-46.5 -51t-70.5 -31t-88.5 -10.5q-38 0 -77 10.5t-74 30.5l10 99q32 -15 69.5 -27t69.5 -12q36 0 63.5 12.5t27.5 38.5q0 12 -5.5 20t-15.5 14q-16 11 -37.5 18.5t-45 15.5t-46.5 18t-43 25t-30.5 31.5t-15.5 32.5t-6 29t-1 22q0 34 15 62 t42 48t65.5 31t86.5 11q49 0 87 -15t64 -29l-22 -89q-23 12 -54.5 23t-66.5 11q-40 0 -62.5 -11t-22.5 -34q0 -8 6 -18t25 -21q17 -9 38.5 -16.5t44 -15.5t44 -18.5t38.5 -24.5q23 -18 37 -44.5t14 -64.5z" />
<glyph unicode="t" horiz-adv-x="440" d="M250 404v-221q0 -51 17.5 -71.5t49.5 -20.5q20 0 33.5 4t41.5 14l8 -86q-55 -32 -116 -32q-30 0 -57 5.5t-47 19.5q-32 23 -45.5 58t-13.5 95v235h-101v105h101v163l5 7l124 11v-181h153v-105h-153z" />
<glyph unicode="u" d="M423 0l-14 64q-8 -11 -20 -20q-26 -22 -61.5 -38t-73.5 -16q-29 0 -60 7.5t-54 24.5q-32 23 -53 66.5t-21 120.5v300h130v-301q0 -54 20.5 -83.5t62.5 -29.5q24 0 45.5 11t37.5 30.5t25.5 45.5t9.5 56v271h129v-509h-103z" />
<glyph unicode="v" horiz-adv-x="498" d="M290 -4h-85l-213 513h142l77 -214q7 -20 13.5 -40t11.5 -36q6 -19 12 -37h2q2 7 4 15q2 7 4 14.5t5 15.5l102 282h140z" />
<glyph unicode="w" horiz-adv-x="763" d="M580 -7h-90l-92 245q-2 7 -5.5 18.5t-6.5 23.5q-3 13 -7 28q-3 -14 -7 -27q-3 -12 -6 -23.5t-5 -18.5l-91 -246h-89l-195 516h137l89 -242q4 -11 7.5 -23.5t6.5 -23.5q3 -13 6 -25q4 18 9 36q5 16 10 33.5t11 33.5l76 211h86l78 -206q5 -12 10 -30t9 -36q5 -20 10 -42 q3 14 6 27l6 24t7 22l89 241h138z" />
<glyph unicode="x" horiz-adv-x="514" d="M361 0l-107 160l-108 -160h-152l188 260l-177 249h151l101 -148l103 148h147l-176 -247l185 -262h-155z" />
<glyph unicode="y" horiz-adv-x="495" d="M197 -237h-137l121 280l-188 466h142l78 -206q5 -14 11.5 -31.5t11.5 -33.5q7 -19 13 -39q11 31 21 59q9 26 17.5 49.5t14.5 37.5l60 164h140z" />
<glyph unicode="z" horiz-adv-x="478" d="M39 0v45l214 356q-5 0 -32 -1t-65 -1h-112v110h391v-48l-212 -352q2 0 12.5 0.5t24.5 1t30.5 1t30.5 0.5h114v-112h-396z" />
<glyph unicode="{" horiz-adv-x="425" d="M305 -142q-66 0 -107.5 41t-41.5 126v166q0 31 -10.5 50t-22.5 30q-15 12 -34 18v86q19 6 34 18q13 12 23 30.5t10 49.5v166q0 85 41.5 126t107.5 41h58v-95h-31q-26 0 -37 -23.5t-11 -55.5v-176q0 -30 -10 -52t-23 -37t-26 -23t-20 -11q7 -4 20 -13t26 -24t23 -36.5 t10 -51.5v-176q0 -32 10.5 -55.5t36.5 -23.5h32v-95h-58z" />
<glyph unicode="|" horiz-adv-x="283" d="M81 -251v1030h120v-1030h-120z" />
<glyph unicode="}" horiz-adv-x="425" d="M338 289q-19 -6 -33 -18t-24 -30.5t-10 -49.5v-166q0 -85 -42.5 -126t-107.5 -41h-58v95h32q26 0 36.5 23.5t10.5 55.5v176q0 30 10 51.5t23.5 36.5t26.5 24t20 13q-7 3 -20 11t-26.5 23t-23.5 37t-10 52v176q0 32 -11 55.5t-37 23.5h-31v95h58q65 0 107.5 -41t42.5 -126 v-166q0 -31 10.5 -50t23.5 -30q14 -12 33 -18v-86z" />
<glyph unicode="~" horiz-adv-x="600" d="M551 344q-10 -43 -29.5 -72.5t-42.5 -47.5t-48 -26t-47 -8q-20 0 -44.5 10t-50.5 22.5t-51.5 22.5t-47.5 10q-14 0 -24 -6t-17 -15.5t-13 -20.5t-12 -21l-76 41q11 38 29.5 66t41 46t47 27t48.5 9q22 0 46.5 -10t49.5 -22t49 -22t45 -10q16 0 27 7t19 17.5t14 23t12 22.5 z" />
<glyph unicode="&#xa1;" horiz-adv-x="349" d="M240 478q0 -32 -23 -55t-55 -23t-55 23t-23 55q0 31 23 54t55 23t55 -23t23 -54zM84 -213l28 544h100l28 -544h-156z" />
<glyph unicode="&#xa2;" horiz-adv-x="482" d="M469 124q-55 -57 -129 -72v-156h-120v158q-73 16 -117 67q-31 34 -47 77t-16 103q0 74 27.5 128.5t77.5 92.5q35 24 75 34v151h120v-145q36 -7 69 -23.5t58 -42.5l-50 -79q-24 19 -42 28t-35 13q-20 5 -38 5q-55 0 -89 -39q-18 -22 -28 -52t-10 -67q0 -32 8 -60t23.5 -49 t39 -33t54.5 -12q28 0 59 11t60 39z" />
<glyph unicode="&#xa3;" horiz-adv-x="557" d="M58 0v103q33 3 60 17q24 12 41.5 37t17.5 71q0 8 -0.5 21t-1 26.5t-1 24t-0.5 14.5h-115v107h109q-1 12 -2 26t-1 25q0 57 15 97t42 66t65 38t84 12q19 0 37.5 -3.5t33.5 -8.5q18 -5 34 -12l-28 -92q-14 4 -29 8q-13 3 -28.5 5t-31.5 2q-32 0 -46 -22.5t-18 -51t-1 -55 t4 -34.5h172v-107h-166q1 -6 1.5 -17.5t0.5 -23v-21v-12.5q0 -35 -9 -66t-27 -65q6 0 27 0.5t59 0.5h152v-110h-450z" />
<glyph unicode="&#xa4;" horiz-adv-x="602" d="M573 84q-45 -45 -101.5 -69t-116.5 -24q-115 0 -187.5 54.5t-101.5 148.5h-56v115h37v17q0 11 0.5 21t1.5 21h-39v115h63q32 91 106 144.5t187 53.5q38 0 93.5 -19t109.5 -66l-54 -83q-47 35 -87.5 45.5t-63.5 10.5q-48 0 -84.5 -22t-59.5 -64h275v-115h-307 q-1 -8 -1 -16.5v-17.5v-13t1 -12h307v-115h-280q23 -45 62 -68.5t91 -23.5q29 0 70 13t81 50z" />
<glyph unicode="&#xa5;" horiz-adv-x="523" d="M409 410h123v-110h-181l-26 -49v-25h207v-110h-207v-116h-130v116h-206v110h206v25l-25 49h-181v110h123l-143 261h148l84 -156q21 -39 38 -74t23 -47q11 23 23 46q10 20 20.5 40.5t19.5 37.5l84 153h145z" />
<glyph unicode="&#xa7;" horiz-adv-x="502" d="M439 256q0 -39 -12.5 -64t-26.5 -41q13 -22 16.5 -46t3.5 -44q0 -46 -19.5 -76t-49 -47.5t-64.5 -24t-67 -6.5q-35 0 -69.5 11t-65.5 30l12 105q45 -23 73.5 -32t52.5 -9q32 0 53.5 14t21.5 40t-24.5 45.5t-56.5 41.5q-26 17 -52.5 36t-49.5 42q-26 27 -42 60t-16 75 q0 32 10.5 59.5t29.5 47.5q-10 16 -15.5 36.5t-5.5 43.5q0 72 53 115t148 43q35 0 73.5 -13.5t64.5 -31.5l-28 -91q-37 18 -62.5 26.5t-48.5 8.5q-32 0 -49.5 -13.5t-17.5 -37.5q0 -13 8.5 -24t22.5 -21t31 -20.5t34 -23.5q38 -28 64 -53.5t41.5 -51t22 -52t6.5 -57.5z M331 245q-2 23 -17 46t-32 41q-11 13 -27 29.5t-30 30.5l-50 -11q2 -23 15.5 -43.5t24.5 -33.5q16 -17 35.5 -38t31.5 -32z" />
<glyph unicode="&#xa8;" horiz-adv-x="639" d="M492 666q0 -31 -21 -51.5t-52 -20.5q-30 0 -51 20.5t-21 51.5q0 30 21 51t51 21q31 0 52 -21t21 -51zM283 666q0 -31 -21.5 -51.5t-51.5 -20.5t-51 20.5t-21 51.5q0 30 21 51t51 21t51.5 -21t21.5 -51z" />
<glyph unicode="&#xa9;" horiz-adv-x="855" d="M837 335q0 -85 -32.5 -160t-88 -130.5t-130.5 -88t-160 -32.5q-86 0 -160.5 32t-130 87.5t-87.5 130.5t-32 160t32 159.5t87.5 130t130.5 88t160 32.5q86 0 160.5 -32t130.5 -87.5t88 -130t32 -159.5zM726 334q0 62 -23.5 116.5t-64.5 95.5t-96 65t-117 24t-116.5 -23.5 t-95.5 -64.5t-64.5 -95.5t-23.5 -116.5t23.5 -117t64.5 -96t95.5 -65t116.5 -24t117 23.5t96 64.5t64.5 96t23.5 117zM591 191q-40 -42 -77.5 -59.5t-79.5 -17.5q-49 0 -87 17t-64.5 46t-40 69t-13.5 85t13.5 85.5t40.5 71.5t67 49t92 18q44 0 77 -17t70 -56l-45 -67 q-26 20 -47 29.5t-47 9.5q-23 0 -40 -10t-28.5 -26.5t-17.5 -38.5t-6 -46t6 -46t17 -38.5t28 -26.5t38 -10q24 0 48 8.5t50 32.5z" />
<glyph unicode="&#xab;" horiz-adv-x="731" d="M612 -4l-305 293l307 294l72 -51l-191 -242l191 -241zM345 -4l-300 293l301 295l73 -51l-188 -243l188 -242z" />
<glyph unicode="&#xac;" horiz-adv-x="574" d="M395 61v192h-347v123h472v-315h-125z" />
<glyph unicode="&#xae;" horiz-adv-x="758" d="M731 432q0 -72 -27.5 -136t-75.5 -112t-112.5 -76t-137.5 -28t-137 27.5t-112 75.5t-75.5 112t-27.5 137t27.5 137t75.5 112t112 75.5t137 27.5q74 0 138 -27.5t112 -75.5t75.5 -112t27.5 -137zM631 431q0 53 -20 99.5t-54.5 81t-80.5 55t-99 20.5q-52 0 -98.5 -20 t-81 -54.5t-54.5 -80.5t-20 -99q0 -52 20 -99t54.5 -81.5t81 -55t98.5 -20.5q53 0 99 20t80.5 54.5t54.5 81t20 98.5zM438 254l-100 135h-1v-135h-83v364h59h23t33.5 -1.5t37.5 -5t35 -10.5q32 -15 44 -42.5t12 -47.5q0 -9 -1.5 -22.5t-8.5 -28t-22 -29t-41 -26.5l118 -151 h-105zM416 506q0 15 -6.5 23t-15 12t-17 5t-13.5 1h-27v-88q7 0 17 1h9q20 0 36.5 10.5t16.5 35.5z" />
<glyph unicode="&#xaf;" horiz-adv-x="558" d="M124 654v119h307v-119h-307z" />
<glyph unicode="&#xb0;" horiz-adv-x="443" d="M389 553q0 -42 -19 -76t-49 -57q-46 -33 -102 -33q-36 0 -66.5 12.5t-53 34.5t-35 52t-12.5 66t14 66.5t37.5 52.5t54 34.5t64.5 12.5q39 0 71 -14.5t54 -38.5q42 -47 42 -112zM276 552q0 26 -15 45q-15 21 -40 21q-14 0 -24 -6t-18 -16q-13 -19 -13 -44q0 -29 17 -49 q15 -17 37 -17q17 0 28.5 8.5t17.5 20.5q10 16 10 37z" />
<glyph unicode="&#xb1;" horiz-adv-x="653" d="M390 311v-167h-128v167h-210v123h210v166h128v-166h210v-123h-210zM55 -34v123h543v-123h-543z" />
<glyph unicode="&#xb4;" horiz-adv-x="505" d="M153 577l-39 48l187 216l92 -102z" />
<glyph unicode="&#xb5;" d="M423 0l-13 63q-4 -4 -7 -8q-4 -3 -7.5 -6.5t-6.5 -5.5q-29 -23 -61 -38.5t-70 -15.5q-15 0 -31.5 3t-30.5 8v-215h-130v724h130v-301q0 -54 20.5 -83.5t62.5 -29.5q24 0 45.5 11t37.5 30.5t25.5 45.5t9.5 56v271h129v-509h-103z" />
<glyph unicode="&#xb6;" horiz-adv-x="584" d="M421 -98v685h-51v-685h-97v337h-19q-45 0 -84.5 17t-69.5 47t-47 71t-17 89q0 97 57 152.5t175 55.5h250v-769h-97z" />
<glyph unicode="&#xb7;" horiz-adv-x="316" d="M245 327q0 -36 -25 -61.5t-63 -25.5q-36 0 -61 25.5t-25 61.5t25 62t61 26q38 0 63 -26t25 -62z" />
<glyph unicode="&#xb8;" horiz-adv-x="566" d="M372 -164q0 -24 -12.5 -45t-33 -36t-46 -23.5t-51.5 -8.5q-16 0 -33 4t-32 10t-27.5 13.5t-18.5 14.5l31 52q7 -4 21.5 -11.5t37.5 -7.5q24 0 36 14t12 29q0 18 -7.5 27t-16.5 14q-11 5 -24 5l41 123h78l-9 -98q23 -7 38.5 -27t15.5 -49z" />
<glyph unicode="&#xbb;" horiz-adv-x="731" d="M385 -4l-73 51l188 243l-188 243l74 51l301 -293zM118 -4l-72 53l190 241l-191 242l74 51l306 -292z" />
<glyph unicode="&#xbf;" horiz-adv-x="522" d="M377 483q0 -31 -23 -54.5t-55 -23.5t-54.5 23.5t-22.5 54.5t22.5 54t54.5 23t55 -23t23 -54zM481 -80q-36 -40 -84.5 -61.5t-93.5 -21.5q-103 0 -157 44.5t-54 140.5q0 34 12 59.5t30 47t39 40t39 39t30 45t12 56.5v57h100q2 -11 4 -23q2 -11 3 -22.5t1 -22.5 q0 -45 -22 -78.5t-49 -62.5t-49 -56t-22 -59q0 -51 25 -78.5t77 -27.5q26 0 52.5 13.5t50.5 37.5z" />
<glyph unicode="&#xc0;" horiz-adv-x="618" d="M460 0l-46 143h-225l-45 -143h-130l230 671h123l233 -671h-140zM310 493q-2 8 -3.5 15t-2.5 13l-2 12h-2q-1 -7 -3 -14q-1 -6 -2.5 -13t-3.5 -14l-73 -246h168zM342 724l-239 162l91 102l188 -215z" />
<glyph unicode="&#xc1;" horiz-adv-x="618" d="M460 0l-46 143h-225l-45 -143h-130l230 671h123l233 -671h-140zM310 493q-2 8 -3.5 15t-2.5 13l-2 12h-2q-1 -7 -3 -14q-1 -6 -2.5 -13t-3.5 -14l-73 -246h168zM268 723l-39 48l187 216l92 -102z" />
<glyph unicode="&#xc2;" horiz-adv-x="618" d="M460 0l-46 143h-225l-45 -143h-130l230 671h123l233 -671h-140zM310 493q-2 8 -3.5 15t-2.5 13l-2 12h-2q-1 -7 -3 -14q-1 -6 -2.5 -13t-3.5 -14l-73 -246h168zM461 733l-155 103l-153 -102l-40 52l185 182h26l180 -181z" />
<glyph unicode="&#xc3;" horiz-adv-x="618" d="M460 0l-46 143h-225l-45 -143h-130l230 671h123l233 -671h-140zM310 493q-2 8 -3.5 15t-2.5 13l-2 12h-2q-1 -7 -3 -14q-1 -6 -2.5 -13t-3.5 -14l-73 -246h168zM518 899q-14 -45 -34 -79q-12 -22 -22 -34t-23 -22.5t-28.5 -17t-33.5 -6.5q-22 0 -40.5 10.5t-36.5 23 t-38 23t-45 10.5q-11 0 -20.5 -6.5t-18 -15.5t-15 -19.5t-10.5 -18.5l-55 32q5 31 19 58t32 47t39.5 31.5t41.5 11.5q19 0 38.5 -10t39 -22.5t39.5 -22.5t40 -10q14 0 26 10.5t20 24.5q11 15 19 34z" />
<glyph unicode="&#xc4;" horiz-adv-x="618" d="M460 0l-46 143h-225l-45 -143h-130l230 671h123l233 -671h-140zM310 493q-2 8 -3.5 15t-2.5 13l-2 12h-2q-1 -7 -3 -14q-1 -6 -2.5 -13t-3.5 -14l-73 -246h168zM487 807q0 -31 -21 -51.5t-52 -20.5q-30 0 -51 20.5t-21 51.5q0 30 21 51t51 21q31 0 52 -21t21 -51z M278 807q0 -31 -21.5 -51.5t-51.5 -20.5t-51 20.5t-21 51.5q0 30 21 51t51 21t51.5 -21t21.5 -51z" />
<glyph unicode="&#xc5;" horiz-adv-x="618" d="M460 0l-46 143h-225l-45 -143h-130l230 671h123l233 -671h-140zM310 493q-2 8 -3.5 15t-2.5 13l-2 12h-2q-1 -7 -3 -14q-1 -6 -2.5 -13t-3.5 -14l-73 -246h168zM462 843q0 -31 -12 -59t-33 -48.5t-49 -32.5t-61 -12q-32 0 -60 12t-49 32.5t-33 48t-12 59.5t12 60t33 49 t49 33t60 12q33 0 61 -12t49 -33t33 -49t12 -60zM359 843q0 22 -13 42.5t-39 20.5q-23 0 -36.5 -21t-13.5 -42t13 -41t37 -20q25 0 38.5 20t13.5 41z" />
<glyph unicode="&#xc6;" horiz-adv-x="776" d="M349 0v143h-165l-71 -143h-131l319 671h77h340v-108h-239v-152h233v-107h-233v-195h239v-109h-369zM350 521h-2q-1 0 -2 -1q-1 -3 -6.5 -19t-13.5 -35l-100 -220h123v206z" />
<glyph unicode="&#xc7;" horiz-adv-x="602" d="M573 84q-45 -45 -101.5 -69t-116.5 -24q-76 0 -133.5 24.5t-96.5 69t-58.5 106t-19.5 135.5q0 78 20.5 143t61 112t100 73.5t137.5 26.5q38 0 93.5 -19t109.5 -66l-54 -83q-47 35 -87.5 45.5t-63.5 10.5q-48 0 -84.5 -22t-59.5 -64q-33 -60 -33 -149q0 -76 23 -128 q21 -51 62 -77.5t96 -26.5q29 0 70 13t81 50zM424 -136q0 -24 -12.5 -45t-33 -36t-46 -23.5t-51.5 -8.5q-16 0 -33 4t-32 10t-27.5 13.5t-18.5 14.5l31 52q7 -4 21.5 -11.5t37.5 -7.5q24 0 36 14t12 29q0 18 -7.5 27t-16.5 14q-11 5 -24 5l41 123h78l-9 -98q23 -7 38.5 -27 t15.5 -49z" />
<glyph unicode="&#xc8;" horiz-adv-x="505" d="M72 0v671h369v-108h-239v-152h233v-107h-233v-195h239v-109h-369zM308 730l-239 162l91 102l188 -215z" />
<glyph unicode="&#xc9;" horiz-adv-x="505" d="M72 0v671h369v-108h-239v-152h233v-107h-233v-195h239v-109h-369zM198 723l-39 48l187 216l92 -102z" />
<glyph unicode="&#xca;" horiz-adv-x="505" d="M72 0v671h369v-108h-239v-152h233v-107h-233v-195h239v-109h-369zM409 736l-155 103l-153 -102l-40 52l185 182h26l180 -181z" />
<glyph unicode="&#xcb;" horiz-adv-x="505" d="M72 0v671h369v-108h-239v-152h233v-107h-233v-195h239v-109h-369zM438 807q0 -31 -21 -51.5t-52 -20.5q-30 0 -51 20.5t-21 51.5q0 30 21 51t51 21q31 0 52 -21t21 -51zM229 807q0 -31 -21.5 -51.5t-51.5 -20.5t-51 20.5t-21 51.5q0 30 21 51t51 21t51.5 -21t21.5 -51z " />
<glyph unicode="&#xcc;" horiz-adv-x="386" d="M72 0v87l55 3v491l-55 3v87h241v-87l-55 -3v-491l55 -3v-87h-241zM258 713l-239 162l91 102l188 -215z" />
<glyph unicode="&#xcd;" horiz-adv-x="386" d="M72 0v87l55 3v491l-55 3v87h241v-87l-55 -3v-491l55 -3v-87h-241zM149 713l-39 48l187 216l92 -102z" />
<glyph unicode="&#xce;" horiz-adv-x="386" d="M72 0v87l55 3v491l-55 3v87h241v-87l-55 -3v-491l55 -3v-87h-241zM348 720l-155 103l-153 -102l-40 52l185 182h26l180 -181z" />
<glyph unicode="&#xcf;" horiz-adv-x="386" d="M72 0v87l55 3v491l-55 3v87h241v-87l-55 -3v-491l55 -3v-87h-241zM371 794q0 -31 -21 -51.5t-52 -20.5q-30 0 -51 20.5t-21 51.5q0 30 21 51t51 21q31 0 52 -21t21 -51zM162 794q0 -31 -21.5 -51.5t-51.5 -20.5t-51 20.5t-21 51.5q0 30 21 51t51 21t51.5 -21t21.5 -51z " />
<glyph unicode="&#xd1;" horiz-adv-x="664" d="M467 0l-218 340q-6 8 -14.5 23.5t-17.5 31t-16.5 29t-9.5 17.5q0 -7 1 -34t2 -65.5t1.5 -84t0.5 -89.5v-168h-124v671h125l219 -340l15 -25t17.5 -30t15 -27t9.5 -17q0 8 -1 37t-1.5 70t-1 88t-0.5 91v153h123v-671h-125zM544 896q-14 -45 -34 -79q-12 -22 -22 -34 t-23 -22.5t-28.5 -17t-33.5 -6.5q-22 0 -40.5 10.5t-36.5 23t-38 23t-45 10.5q-11 0 -20.5 -6.5t-18 -15.5t-15 -19.5t-10.5 -18.5l-55 32q5 31 19 58t32 47t39.5 31.5t41.5 11.5q19 0 38.5 -10t39 -22.5t39.5 -22.5t40 -10q14 0 26 10.5t20 24.5q11 15 19 34z" />
<glyph unicode="&#xd2;" horiz-adv-x="663" d="M618 339q0 -47 -12.5 -107.5t-45.5 -114t-89.5 -90.5t-144.5 -37q-59 0 -110 21t-89 63.5t-60 106.5t-22 150q0 81 21.5 146t60 110.5t92 70t117.5 24.5q65 0 117 -24t88.5 -68.5t56.5 -108t20 -142.5zM481 334q0 39 -7 80.5t-24 76.5t-46 57.5t-73 22.5 q-43 0 -71.5 -23.5t-45.5 -59t-24.5 -76t-7.5 -74.5q0 -48 9 -91t27 -75.5t46 -51.5t66 -19q36 0 64.5 19t47.5 51.5t29 74.5t10 88zM365 730l-239 162l91 102l188 -215z" />
<glyph unicode="&#xd3;" horiz-adv-x="663" d="M618 339q0 -47 -12.5 -107.5t-45.5 -114t-89.5 -90.5t-144.5 -37q-59 0 -110 21t-89 63.5t-60 106.5t-22 150q0 81 21.5 146t60 110.5t92 70t117.5 24.5q65 0 117 -24t88.5 -68.5t56.5 -108t20 -142.5zM481 334q0 39 -7 80.5t-24 76.5t-46 57.5t-73 22.5 q-43 0 -71.5 -23.5t-45.5 -59t-24.5 -76t-7.5 -74.5q0 -48 9 -91t27 -75.5t46 -51.5t66 -19q36 0 64.5 19t47.5 51.5t29 74.5t10 88zM293 731l-39 48l187 216l92 -102z" />
<glyph unicode="&#xd4;" horiz-adv-x="663" d="M618 339q0 -47 -12.5 -107.5t-45.5 -114t-89.5 -90.5t-144.5 -37q-59 0 -110 21t-89 63.5t-60 106.5t-22 150q0 81 21.5 146t60 110.5t92 70t117.5 24.5q65 0 117 -24t88.5 -68.5t56.5 -108t20 -142.5zM481 334q0 39 -7 80.5t-24 76.5t-46 57.5t-73 22.5 q-43 0 -71.5 -23.5t-45.5 -59t-24.5 -76t-7.5 -74.5q0 -48 9 -91t27 -75.5t46 -51.5t66 -19q36 0 64.5 19t47.5 51.5t29 74.5t10 88zM494 738l-155 103l-153 -102l-40 52l185 182h26l180 -181z" />
<glyph unicode="&#xd5;" horiz-adv-x="663" d="M618 339q0 -47 -12.5 -107.5t-45.5 -114t-89.5 -90.5t-144.5 -37q-59 0 -110 21t-89 63.5t-60 106.5t-22 150q0 81 21.5 146t60 110.5t92 70t117.5 24.5q65 0 117 -24t88.5 -68.5t56.5 -108t20 -142.5zM481 334q0 39 -7 80.5t-24 76.5t-46 57.5t-73 22.5 q-43 0 -71.5 -23.5t-45.5 -59t-24.5 -76t-7.5 -74.5q0 -48 9 -91t27 -75.5t46 -51.5t66 -19q36 0 64.5 19t47.5 51.5t29 74.5t10 88zM543 897q-14 -45 -34 -79q-12 -22 -22 -34t-23 -22.5t-28.5 -17t-33.5 -6.5q-22 0 -40.5 10.5t-36.5 23t-38 23t-45 10.5q-11 0 -20.5 -6.5 t-18 -15.5t-15 -19.5t-10.5 -18.5l-55 32q5 31 19 58t32 47t39.5 31.5t41.5 11.5q19 0 38.5 -10t39 -22.5t39.5 -22.5t40 -10q14 0 26 10.5t20 24.5q11 15 19 34z" />
<glyph unicode="&#xd6;" horiz-adv-x="663" d="M618 339q0 -47 -12.5 -107.5t-45.5 -114t-89.5 -90.5t-144.5 -37q-59 0 -110 21t-89 63.5t-60 106.5t-22 150q0 81 21.5 146t60 110.5t92 70t117.5 24.5q65 0 117 -24t88.5 -68.5t56.5 -108t20 -142.5zM481 334q0 39 -7 80.5t-24 76.5t-46 57.5t-73 22.5 q-43 0 -71.5 -23.5t-45.5 -59t-24.5 -76t-7.5 -74.5q0 -48 9 -91t27 -75.5t46 -51.5t66 -19q36 0 64.5 19t47.5 51.5t29 74.5t10 88zM506 807q0 -31 -21 -51.5t-52 -20.5q-30 0 -51 20.5t-21 51.5q0 30 21 51t51 21q31 0 52 -21t21 -51zM297 807q0 -31 -21.5 -51.5 t-51.5 -20.5t-51 20.5t-21 51.5q0 30 21 51t51 21t51.5 -21t21.5 -51z" />
<glyph unicode="&#xd8;" horiz-adv-x="663" d="M561 564q57 -88 57 -225q0 -47 -12.5 -107.5t-45.5 -114t-89.5 -90.5t-144.5 -37q-84 0 -153 47l-38 -52h-134l95 131q-23 41 -37 95t-14 120q0 81 21.5 146t60 110.5t92 70t117.5 24.5q83 0 147 -42l45 61h133zM410 542q-15 14 -34.5 21.5t-44.5 7.5q-43 0 -71.5 -23.5 t-45.5 -59t-24.5 -76t-7.5 -74.5q0 -48 11 -92zM481 334q0 25 -3 51.5t-11 51.5l-220 -301q17 -17 37 -26t46 -9q36 0 64.5 19t47.5 51.5t29 74.5t10 88z" />
<glyph unicode="&#xd9;" horiz-adv-x="657" d="M585 266q0 -88 -30.5 -148t-85.5 -92q-61 -36 -145 -36q-87 0 -142 33.5t-84 90.5q-15 29 -20.5 63.5t-5.5 72.5v421h130v-432q0 -23 3 -44t12 -37q16 -27 42 -43.5t68 -16.5q67 0 101 43q27 33 27 107v423h130v-405zM361 729l-239 162l91 102l188 -215z" />
<glyph unicode="&#xda;" horiz-adv-x="657" d="M585 266q0 -88 -30.5 -148t-85.5 -92q-61 -36 -145 -36q-87 0 -142 33.5t-84 90.5q-15 29 -20.5 63.5t-5.5 72.5v421h130v-432q0 -23 3 -44t12 -37q16 -27 42 -43.5t68 -16.5q67 0 101 43q27 33 27 107v423h130v-405zM298 728l-39 48l187 216l92 -102z" />
<glyph unicode="&#xdb;" horiz-adv-x="657" d="M585 266q0 -88 -30.5 -148t-85.5 -92q-61 -36 -145 -36q-87 0 -142 33.5t-84 90.5q-15 29 -20.5 63.5t-5.5 72.5v421h130v-432q0 -23 3 -44t12 -37q16 -27 42 -43.5t68 -16.5q67 0 101 43q27 33 27 107v423h130v-405zM483 743l-155 103l-153 -102l-40 52l185 182h26 l180 -181z" />
<glyph unicode="&#xdc;" horiz-adv-x="657" d="M585 266q0 -88 -30.5 -148t-85.5 -92q-61 -36 -145 -36q-87 0 -142 33.5t-84 90.5q-15 29 -20.5 63.5t-5.5 72.5v421h130v-432q0 -23 3 -44t12 -37q16 -27 42 -43.5t68 -16.5q67 0 101 43q27 33 27 107v423h130v-405zM502 807q0 -31 -21 -51.5t-52 -20.5q-30 0 -51 20.5 t-21 51.5q0 30 21 51t51 21q31 0 52 -21t21 -51zM293 807q0 -31 -21.5 -51.5t-51.5 -20.5t-51 20.5t-21 51.5q0 30 21 51t51 21t51.5 -21t21.5 -51z" />
<glyph unicode="&#xdf;" horiz-adv-x="607" d="M576 165q0 -91 -79 -143q-27 -18 -62 -25t-70 -7q-34 0 -62.5 7.5t-56.5 21.5l14 100q26 -13 55 -18.5t50 -5.5q38 0 60 19t22 45q0 21 -9 36.5t-24 27.5t-34 21t-39 18q-12 6 -25 10.5t-23 7.5q-13 4 -24 7v123q19 5 41 13.5t39 20.5q19 14 30.5 36t11.5 48q0 35 -25 55 t-61 20q-46 0 -74 -28q-12 -13 -18.5 -29t-9 -32.5t-2.5 -30.5v-22v-461h-129v476q0 9 1.5 24.5t5 33.5t9 36t14.5 31q36 57 87.5 83t117.5 26q44 0 83 -12.5t68.5 -36t46.5 -57.5t17 -78q0 -26 -11 -50.5t-29.5 -46t-42.5 -39t-49 -28.5q12 -5 27.5 -13t31.5 -16.5t31 -17 t25 -16.5q29 -23 50 -54.5t21 -79.5z" />
<glyph unicode="&#xe0;" horiz-adv-x="600" d="M431 0l-13 66q-7 -6 -20 -18.5t-32.5 -25t-45 -22t-57.5 -9.5q-48 0 -88.5 16.5t-70.5 49t-46.5 79.5t-16.5 107q0 65 19.5 116t54 86.5t82.5 54.5t104 19q29 0 65 -7t62 -27l14 24h85v-392l10 -117h-106zM401 259q0 60 -5.5 95.5t-12.5 41.5q-18 14 -37 17.5t-41 3.5 q-30 0 -54.5 -13t-41 -35.5t-25.5 -53.5t-9 -68q0 -23 5 -50t17.5 -50t33 -38t50.5 -15q19 0 40 10t39 30t29.5 51.5t11.5 73.5zM369 577l-239 162l91 102l188 -215z" />
<glyph unicode="&#xe1;" horiz-adv-x="600" d="M431 0l-13 66q-7 -6 -20 -18.5t-32.5 -25t-45 -22t-57.5 -9.5q-48 0 -88.5 16.5t-70.5 49t-46.5 79.5t-16.5 107q0 65 19.5 116t54 86.5t82.5 54.5t104 19q29 0 65 -7t62 -27l14 24h85v-392l10 -117h-106zM401 259q0 60 -5.5 95.5t-12.5 41.5q-18 14 -37 17.5t-41 3.5 q-30 0 -54.5 -13t-41 -35.5t-25.5 -53.5t-9 -68q0 -23 5 -50t17.5 -50t33 -38t50.5 -15q19 0 40 10t39 30t29.5 51.5t11.5 73.5zM239 577l-39 48l187 216l92 -102z" />
<glyph unicode="&#xe2;" horiz-adv-x="600" d="M431 0l-13 66q-7 -6 -20 -18.5t-32.5 -25t-45 -22t-57.5 -9.5q-48 0 -88.5 16.5t-70.5 49t-46.5 79.5t-16.5 107q0 65 19.5 116t54 86.5t82.5 54.5t104 19q29 0 65 -7t62 -27l14 24h85v-392l10 -117h-106zM401 259q0 60 -5.5 95.5t-12.5 41.5q-18 14 -37 17.5t-41 3.5 q-30 0 -54.5 -13t-41 -35.5t-25.5 -53.5t-9 -68q0 -23 5 -50t17.5 -50t33 -38t50.5 -15q19 0 40 10t39 30t29.5 51.5t11.5 73.5zM466 582l-155 103l-153 -102l-40 52l185 182h26l180 -181z" />
<glyph unicode="&#xe3;" horiz-adv-x="600" d="M431 0l-13 66q-7 -6 -20 -18.5t-32.5 -25t-45 -22t-57.5 -9.5q-48 0 -88.5 16.5t-70.5 49t-46.5 79.5t-16.5 107q0 65 19.5 116t54 86.5t82.5 54.5t104 19q29 0 65 -7t62 -27l14 24h85v-392l10 -117h-106zM401 259q0 60 -5.5 95.5t-12.5 41.5q-18 14 -37 17.5t-41 3.5 q-30 0 -54.5 -13t-41 -35.5t-25.5 -53.5t-9 -68q0 -23 5 -50t17.5 -50t33 -38t50.5 -15q19 0 40 10t39 30t29.5 51.5t11.5 73.5zM500 748q-14 -45 -34 -79q-12 -22 -22 -34t-23 -22.5t-28.5 -17t-33.5 -6.5q-22 0 -40.5 10.5t-36.5 23t-38 23t-45 10.5q-11 0 -20.5 -6.5 t-18 -15.5t-15 -19.5t-10.5 -18.5l-55 32q5 31 19 58t32 47t39.5 31.5t41.5 11.5q19 0 38.5 -10t39 -22.5t39.5 -22.5t40 -10q14 0 26 10.5t20 24.5q11 15 19 34z" />
<glyph unicode="&#xe4;" horiz-adv-x="600" d="M431 0l-13 66q-7 -6 -20 -18.5t-32.5 -25t-45 -22t-57.5 -9.5q-48 0 -88.5 16.5t-70.5 49t-46.5 79.5t-16.5 107q0 65 19.5 116t54 86.5t82.5 54.5t104 19q29 0 65 -7t62 -27l14 24h85v-392l10 -117h-106zM401 259q0 60 -5.5 95.5t-12.5 41.5q-18 14 -37 17.5t-41 3.5 q-30 0 -54.5 -13t-41 -35.5t-25.5 -53.5t-9 -68q0 -23 5 -50t17.5 -50t33 -38t50.5 -15q19 0 40 10t39 30t29.5 51.5t11.5 73.5zM480 660q0 -31 -21 -51.5t-52 -20.5q-30 0 -51 20.5t-21 51.5q0 30 21 51t51 21q31 0 52 -21t21 -51zM271 660q0 -31 -21.5 -51.5t-51.5 -20.5 t-51 20.5t-21 51.5q0 30 21 51t51 21t51.5 -21t21.5 -51z" />
<glyph unicode="&#xe5;" horiz-adv-x="600" d="M431 0l-13 66q-7 -6 -20 -18.5t-32.5 -25t-45 -22t-57.5 -9.5q-48 0 -88.5 16.5t-70.5 49t-46.5 79.5t-16.5 107q0 65 19.5 116t54 86.5t82.5 54.5t104 19q29 0 65 -7t62 -27l14 24h85v-392l10 -117h-106zM401 259q0 60 -5.5 95.5t-12.5 41.5q-18 14 -37 17.5t-41 3.5 q-30 0 -54.5 -13t-41 -35.5t-25.5 -53.5t-9 -68q0 -23 5 -50t17.5 -50t33 -38t50.5 -15q19 0 40 10t39 30t29.5 51.5t11.5 73.5zM460 703q0 -31 -12 -59t-33 -48.5t-49 -32.5t-61 -12q-32 0 -60 12t-49 32.5t-33 48t-12 59.5t12 60t33 49t49 33t60 12q33 0 61 -12t49 -33 t33 -49t12 -60zM357 703q0 22 -13 42.5t-39 20.5q-23 0 -36.5 -21t-13.5 -42t13 -41t37 -20q25 0 38.5 20t13.5 41z" />
<glyph unicode="&#xe6;" horiz-adv-x="915" d="M875 284q0 -12 -2 -24.5t-3 -16.5h-343v-13q0 -22 7.5 -44t22.5 -41q19 -23 46 -35.5t66 -12.5t75.5 12.5t72.5 34.5l44 -81q-44 -34 -95.5 -53.5t-108.5 -19.5q-32 0 -62 7.5t-60 29.5l2 -27h-110l-13 65q-5 -5 -17.5 -17t-31 -25t-44.5 -22.5t-58 -9.5 q-48 0 -88.5 16.5t-70.5 49t-46.5 79.5t-16.5 107q0 65 19.5 116t54 86.5t82.5 54.5t104 19q29 0 66.5 -7.5t61.5 -26.5l13 24h85v-26q25 17 55.5 26.5t61.5 9.5q45 0 83.5 -10.5t67.5 -33.5q38 -29 60 -77.5t20 -113.5zM739 331q0 3 -0.5 8t-1.5 10q-5 33 -28 52t-61 19 q-36 0 -67 -22.5t-42 -66.5h200zM401 259q0 60 -5.5 95.5t-12.5 41.5q-18 14 -37 17.5t-41 3.5q-30 0 -54.5 -13t-41 -35.5t-25.5 -53.5t-9 -68q0 -23 5 -50t17.5 -50t33 -38t50.5 -15q19 0 40 10t39 30t29.5 51.5t11.5 73.5z" />
<glyph unicode="&#xe7;" horiz-adv-x="472" d="M463 68q-37 -36 -84 -56.5t-101 -20.5t-101.5 18t-80.5 57q-29 34 -44.5 76.5t-15.5 103.5q0 75 25 129.5t72 92.5q65 51 160 51q47 0 91.5 -18t76.5 -51l-51 -80q-23 17 -38.5 25.5t-30.5 13.5q-22 6 -45 6q-59 0 -91 -44q-34 -45 -34 -119q0 -33 7.5 -61.5t22.5 -49.5 t38 -33t54 -12q28 0 59.5 10.5t59.5 38.5zM364 -136q0 -24 -12.5 -45t-33 -36t-46 -23.5t-51.5 -8.5q-16 0 -33 4t-32 10t-27.5 13.5t-18.5 14.5l31 52q7 -4 21.5 -11.5t37.5 -7.5q24 0 36 14t12 29q0 18 -7.5 27t-16.5 14q-11 5 -24 5l41 123h78l-9 -98q23 -7 38.5 -27 t15.5 -49z" />
<glyph unicode="&#xe8;" horiz-adv-x="564" d="M520 284q0 -12 -2 -24.5t-3 -16.5h-343v-13q0 -22 7.5 -44t22.5 -41q19 -23 46 -35.5t66 -12.5t75.5 12.5t72.5 34.5l44 -81q-44 -34 -95.5 -53.5t-108.5 -19.5q-64 0 -113.5 18.5t-83.5 53t-51.5 83t-17.5 107.5q0 64 21.5 113.5t55.5 83.5q70 70 176 70q45 0 83 -11 t67 -34q38 -29 60.5 -77t20.5 -113zM384 331q0 3 -0.5 8t-1.5 10q-5 33 -28 52t-61 19q-36 0 -67 -22.5t-42 -66.5h200zM358 577l-239 162l91 102l188 -215z" />
<glyph unicode="&#xe9;" horiz-adv-x="564" d="M520 284q0 -12 -2 -24.5t-3 -16.5h-343v-13q0 -22 7.5 -44t22.5 -41q19 -23 46 -35.5t66 -12.5t75.5 12.5t72.5 34.5l44 -81q-44 -34 -95.5 -53.5t-108.5 -19.5q-64 0 -113.5 18.5t-83.5 53t-51.5 83t-17.5 107.5q0 64 21.5 113.5t55.5 83.5q70 70 176 70q45 0 83 -11 t67 -34q38 -29 60.5 -77t20.5 -113zM384 331q0 3 -0.5 8t-1.5 10q-5 33 -28 52t-61 19q-36 0 -67 -22.5t-42 -66.5h200zM242 577l-39 48l187 216l92 -102z" />
<glyph unicode="&#xea;" horiz-adv-x="564" d="M520 284q0 -12 -2 -24.5t-3 -16.5h-343v-13q0 -22 7.5 -44t22.5 -41q19 -23 46 -35.5t66 -12.5t75.5 12.5t72.5 34.5l44 -81q-44 -34 -95.5 -53.5t-108.5 -19.5q-64 0 -113.5 18.5t-83.5 53t-51.5 83t-17.5 107.5q0 64 21.5 113.5t55.5 83.5q70 70 176 70q45 0 83 -11 t67 -34q38 -29 60.5 -77t20.5 -113zM384 331q0 3 -0.5 8t-1.5 10q-5 33 -28 52t-61 19q-36 0 -67 -22.5t-42 -66.5h200zM443 582l-155 103l-153 -102l-40 52l185 182h26l180 -181z" />
<glyph unicode="&#xeb;" horiz-adv-x="564" d="M520 284q0 -12 -2 -24.5t-3 -16.5h-343v-13q0 -22 7.5 -44t22.5 -41q19 -23 46 -35.5t66 -12.5t75.5 12.5t72.5 34.5l44 -81q-44 -34 -95.5 -53.5t-108.5 -19.5q-64 0 -113.5 18.5t-83.5 53t-51.5 83t-17.5 107.5q0 64 21.5 113.5t55.5 83.5q70 70 176 70q45 0 83 -11 t67 -34q38 -29 60.5 -77t20.5 -113zM384 331q0 3 -0.5 8t-1.5 10q-5 33 -28 52t-61 19q-36 0 -67 -22.5t-42 -66.5h200zM472 660q0 -31 -21 -51.5t-52 -20.5q-30 0 -51 20.5t-21 51.5q0 30 21 51t51 21q31 0 52 -21t21 -51zM263 660q0 -31 -21.5 -51.5t-51.5 -20.5t-51 20.5 t-21 51.5q0 30 21 51t51 21t51.5 -21t21.5 -51z" />
<glyph unicode="&#xec;" horiz-adv-x="273" d="M72 0v509h129v-509h-129zM190 571l-239 162l91 102l188 -215z" />
<glyph unicode="&#xed;" horiz-adv-x="273" d="M72 0v509h129v-509h-129zM93 563l-39 48l187 216l92 -102z" />
<glyph unicode="&#xee;" horiz-adv-x="273" d="M72 0v509h129v-509h-129zM289 594l-155 103l-153 -102l-40 52l185 182h26l180 -181z" />
<glyph unicode="&#xef;" horiz-adv-x="273" d="M72 0v509h129v-509h-129zM312 680q0 -31 -21 -51.5t-52 -20.5q-30 0 -51 20.5t-21 51.5q0 30 21 51t51 21q31 0 52 -21t21 -51zM103 680q0 -31 -21.5 -51.5t-51.5 -20.5t-51 20.5t-21 51.5q0 30 21 51t51 21t51.5 -21t21.5 -51z" />
<glyph unicode="&#xf1;" d="M402 0v301q0 54 -21 83.5t-63 29.5q-24 0 -45.5 -10.5t-37 -28.5t-25 -43.5t-9.5 -55.5v-276h-129v509h102l14 -65q8 9 21.5 22t32.5 24.5t43 20t54 8.5q32 0 66.5 -9t63.5 -35q63 -57 63 -178v-297h-130zM512 748q-14 -45 -34 -79q-12 -22 -22 -34t-23 -22.5t-28.5 -17 t-33.5 -6.5q-22 0 -40.5 10.5t-36.5 23t-38 23t-45 10.5q-11 0 -20.5 -6.5t-18 -15.5t-15 -19.5t-10.5 -18.5l-55 32q5 31 19 58t32 47t39.5 31.5t41.5 11.5q19 0 38.5 -10t39 -22.5t39.5 -22.5t40 -10q14 0 26 10.5t20 24.5q11 15 19 34z" />
<glyph unicode="&#xf2;" horiz-adv-x="583" d="M546 259q0 -46 -15.5 -93.5t-48 -86.5t-81.5 -64t-116 -25q-54 0 -100 16.5t-79 49.5t-52 82t-19 114q0 59 19 108t53.5 84.5t82.5 55t105 19.5q54 0 100 -16.5t79.5 -49.5t52.5 -81.5t19 -112.5zM412 256q0 32 -7.5 61t-22.5 50.5t-37.5 34.5t-53.5 13 q-36 0 -59.5 -17.5t-37 -42t-19 -51.5t-5.5 -47q0 -25 5.5 -53.5t19.5 -52.5t37 -40t59 -16q38 0 61.5 18.5t37 44.5t18 53t4.5 45zM340 577l-239 162l91 102l188 -215z" />
<glyph unicode="&#xf3;" horiz-adv-x="583" d="M546 259q0 -46 -15.5 -93.5t-48 -86.5t-81.5 -64t-116 -25q-54 0 -100 16.5t-79 49.5t-52 82t-19 114q0 59 19 108t53.5 84.5t82.5 55t105 19.5q54 0 100 -16.5t79.5 -49.5t52.5 -81.5t19 -112.5zM412 256q0 32 -7.5 61t-22.5 50.5t-37.5 34.5t-53.5 13 q-36 0 -59.5 -17.5t-37 -42t-19 -51.5t-5.5 -47q0 -25 5.5 -53.5t19.5 -52.5t37 -40t59 -16q38 0 61.5 18.5t37 44.5t18 53t4.5 45zM261 577l-39 48l187 216l92 -102z" />
<glyph unicode="&#xf4;" horiz-adv-x="583" d="M546 259q0 -46 -15.5 -93.5t-48 -86.5t-81.5 -64t-116 -25q-54 0 -100 16.5t-79 49.5t-52 82t-19 114q0 59 19 108t53.5 84.5t82.5 55t105 19.5q54 0 100 -16.5t79.5 -49.5t52.5 -81.5t19 -112.5zM412 256q0 32 -7.5 61t-22.5 50.5t-37.5 34.5t-53.5 13 q-36 0 -59.5 -17.5t-37 -42t-19 -51.5t-5.5 -47q0 -25 5.5 -53.5t19.5 -52.5t37 -40t59 -16q38 0 61.5 18.5t37 44.5t18 53t4.5 45zM446 582l-155 103l-153 -102l-40 52l185 182h26l180 -181z" />
<glyph unicode="&#xf5;" horiz-adv-x="583" d="M546 259q0 -46 -15.5 -93.5t-48 -86.5t-81.5 -64t-116 -25q-54 0 -100 16.5t-79 49.5t-52 82t-19 114q0 59 19 108t53.5 84.5t82.5 55t105 19.5q54 0 100 -16.5t79.5 -49.5t52.5 -81.5t19 -112.5zM412 256q0 32 -7.5 61t-22.5 50.5t-37.5 34.5t-53.5 13 q-36 0 -59.5 -17.5t-37 -42t-19 -51.5t-5.5 -47q0 -25 5.5 -53.5t19.5 -52.5t37 -40t59 -16q38 0 61.5 18.5t37 44.5t18 53t4.5 45zM506 748q-14 -45 -34 -79q-12 -22 -22 -34t-23 -22.5t-28.5 -17t-33.5 -6.5q-22 0 -40.5 10.5t-36.5 23t-38 23t-45 10.5q-11 0 -20.5 -6.5 t-18 -15.5t-15 -19.5t-10.5 -18.5l-55 32q5 31 19 58t32 47t39.5 31.5t41.5 11.5q19 0 38.5 -10t39 -22.5t39.5 -22.5t40 -10q14 0 26 10.5t20 24.5q11 15 19 34z" />
<glyph unicode="&#xf6;" horiz-adv-x="583" d="M546 259q0 -46 -15.5 -93.5t-48 -86.5t-81.5 -64t-116 -25q-54 0 -100 16.5t-79 49.5t-52 82t-19 114q0 59 19 108t53.5 84.5t82.5 55t105 19.5q54 0 100 -16.5t79.5 -49.5t52.5 -81.5t19 -112.5zM412 256q0 32 -7.5 61t-22.5 50.5t-37.5 34.5t-53.5 13 q-36 0 -59.5 -17.5t-37 -42t-19 -51.5t-5.5 -47q0 -25 5.5 -53.5t19.5 -52.5t37 -40t59 -16q38 0 61.5 18.5t37 44.5t18 53t4.5 45zM471 660q0 -31 -21 -51.5t-52 -20.5q-30 0 -51 20.5t-21 51.5q0 30 21 51t51 21q31 0 52 -21t21 -51zM262 660q0 -31 -21.5 -51.5 t-51.5 -20.5t-51 20.5t-21 51.5q0 30 21 51t51 21t51.5 -21t21.5 -51z" />
<glyph unicode="&#xf7;" horiz-adv-x="549" d="M352 484q0 -34 -22.5 -56.5t-55.5 -22.5q-32 0 -55 22.5t-23 56.5q0 32 23 55t55 23q33 0 55.5 -23t22.5 -55zM52 222v124h444v-124h-444zM352 83q0 -32 -22.5 -55.5t-55.5 -23.5q-32 0 -55 23.5t-23 55.5t23 55.5t55 23.5q33 0 55.5 -23.5t22.5 -55.5z" />
<glyph unicode="&#xf8;" horiz-adv-x="583" d="M546 259q0 -46 -15.5 -93.5t-48 -86.5t-81.5 -64t-116 -25q-29 0 -56 6l-25 -54h-105l41 87q-49 32 -77 87.5t-28 135.5q0 59 19 108t53.5 84.5t82.5 55t105 19.5q33 0 67 -8l26 55h104l-42 -92q45 -32 70.5 -86t25.5 -129zM316 411q-10 2 -19 2.5t-19 -0.5 q-32 -4 -53 -22t-33 -41.5t-17 -49t-5 -43.5q0 -25 6 -52.5t21 -50.5zM412 256q0 52 -20 92l-116 -252q12 -1 24 0q35 3 56.5 21.5t34 43.5t17 51.5t4.5 43.5z" />
<glyph unicode="&#xf9;" d="M423 0l-14 64q-8 -11 -20 -20q-26 -22 -61.5 -38t-73.5 -16q-29 0 -60 7.5t-54 24.5q-32 23 -53 66.5t-21 120.5v300h130v-301q0 -54 20.5 -83.5t62.5 -29.5q24 0 45.5 11t37.5 30.5t25.5 45.5t9.5 56v271h129v-509h-103zM327 577l-239 162l91 102l188 -215z" />
<glyph unicode="&#xfa;" d="M423 0l-14 64q-8 -11 -20 -20q-26 -22 -61.5 -38t-73.5 -16q-29 0 -60 7.5t-54 24.5q-32 23 -53 66.5t-21 120.5v300h130v-301q0 -54 20.5 -83.5t62.5 -29.5q24 0 45.5 11t37.5 30.5t25.5 45.5t9.5 56v271h129v-509h-103zM265 577l-39 48l187 216l92 -102z" />
<glyph unicode="&#xfb;" d="M423 0l-14 64q-8 -11 -20 -20q-26 -22 -61.5 -38t-73.5 -16q-29 0 -60 7.5t-54 24.5q-32 23 -53 66.5t-21 120.5v300h130v-301q0 -54 20.5 -83.5t62.5 -29.5q24 0 45.5 11t37.5 30.5t25.5 45.5t9.5 56v271h129v-509h-103zM445 582l-155 103l-153 -102l-40 52l185 182h26 l180 -181z" />
<glyph unicode="&#xfc;" d="M423 0l-14 64q-8 -11 -20 -20q-26 -22 -61.5 -38t-73.5 -16q-29 0 -60 7.5t-54 24.5q-32 23 -53 66.5t-21 120.5v300h130v-301q0 -54 20.5 -83.5t62.5 -29.5q24 0 45.5 11t37.5 30.5t25.5 45.5t9.5 56v271h129v-509h-103zM472 660q0 -31 -21 -51.5t-52 -20.5 q-30 0 -51 20.5t-21 51.5q0 30 21 51t51 21q31 0 52 -21t21 -51zM263 660q0 -31 -21.5 -51.5t-51.5 -20.5t-51 20.5t-21 51.5q0 30 21 51t51 21t51.5 -21t21.5 -51z" />
<glyph unicode="&#xff;" horiz-adv-x="495" d="M197 -237h-137l121 280l-188 466h142l78 -206q5 -14 11.5 -31.5t11.5 -33.5q7 -19 13 -39q11 31 21 59q9 26 17.5 49.5t14.5 37.5l60 164h140zM419 660q0 -31 -21 -51.5t-52 -20.5q-30 0 -51 20.5t-21 51.5q0 30 21 51t51 21q31 0 52 -21t21 -51zM210 660 q0 -31 -21.5 -51.5t-51.5 -20.5t-51 20.5t-21 51.5q0 30 21 51t51 21t51.5 -21t21.5 -51z" />
<glyph unicode="&#x131;" horiz-adv-x="273" d="M72 0v509h129v-509h-129z" />
<glyph unicode="&#x152;" horiz-adv-x="837" d="M491 0h-165q-59 0 -110 18t-89 57.5t-60 102.5t-22 153q0 82 21.5 145.5t60 106.5t92 65.5t117.5 22.5h172h268v-108h-239v-151h233v-108h-233v-195h239v-109h-285zM407 448q0 39 -1 62t-8 34.5t-22.5 15t-44.5 3.5q-43 0 -71.5 -22.5t-45.5 -56t-24.5 -73t-7.5 -73.5 q0 -48 9 -89.5t27 -73t46 -49.5t66 -18q34 0 50.5 5.5t22.5 18.5t5 35t-1 55v226z" />
<glyph unicode="&#x153;" horiz-adv-x="935" d="M893 284q0 -12 -2 -24.5t-3 -16.5h-343v-13q0 -22 7.5 -44t22.5 -41q19 -23 46 -35.5t66 -12.5t75.5 12.5t72.5 34.5l44 -81q-44 -34 -95.5 -53.5t-108.5 -19.5q-65 0 -117 22t-85 57q-32 -35 -78.5 -57t-109.5 -22q-54 0 -100 16.5t-79 49.5t-52 82t-19 114q0 59 19 108 t53.5 84.5t82.5 55t105 19.5t104 -19t81 -54q5 4 9.5 8.5t9.5 8.5q67 56 163 56q45 0 83.5 -10.5t67.5 -33.5q38 -29 60 -77.5t20 -113.5zM757 331q0 3 -0.5 8t-1.5 10q-5 33 -28 52t-61 19q-36 0 -67 -22.5t-42 -66.5h200zM412 256q0 32 -7.5 61t-22.5 50.5t-37.5 34.5 t-53.5 13q-36 0 -59.5 -17.5t-37 -42t-19 -51.5t-5.5 -47q0 -25 5.5 -53.5t19.5 -52.5t37 -40t59 -16q38 0 61.5 18.5t37 44.5t18 53t4.5 45z" />
<glyph unicode="&#x178;" horiz-adv-x="523" d="M325 251v-251h-130v251l-226 420h148l81 -150q15 -28 26.5 -52.5t20.5 -43.5q9 -22 16 -41q8 20 18 44q10 21 22 46t28 54l80 143h145zM431 807q0 -31 -21 -51.5t-52 -20.5q-30 0 -51 20.5t-21 51.5q0 30 21 51t51 21q31 0 52 -21t21 -51zM222 807q0 -31 -21.5 -51.5 t-51.5 -20.5t-51 20.5t-21 51.5q0 30 21 51t51 21t51.5 -21t21.5 -51z" />
<glyph unicode="&#x192;" horiz-adv-x="842" d="M830 634q-19 7 -42 13t-43 6q-38 0 -61 -24.5t-23 -78.5v-41h147v-105h-147v-404h-130v404h-268v-404h-129v404h-112v105h112v43q0 63 20.5 105t46.5 63t57 30t68 9q35 0 67.5 -8t58.5 -19l-20 -98q-18 7 -41.5 13t-43.5 6q-38 0 -61 -24.5t-23 -78.5v-41h268v43 q0 63 20.5 105t46.5 63t57.5 30t68.5 9q35 0 67 -8t58 -19z" />
<glyph unicode="&#x2c6;" horiz-adv-x="582" d="M444 582l-155 103l-153 -102l-40 52l185 182h26l180 -181z" />
<glyph unicode="&#x2c7;" horiz-adv-x="582" d="M302 581l-29 1l-179 180l41 53l154 -103l154 104l42 -53z" />
<glyph unicode="&#x2d8;" horiz-adv-x="566" d="M483 801q-2 -63 -22 -112q-10 -30 -23 -47t-33 -31.5t-47.5 -24t-64.5 -9.5q-36 0 -63.5 9.5t-47.5 25.5t-33 36t-22 41q-19 49 -20 112h106q3 -29 12 -52q8 -22 24 -37.5t45 -15.5t45 16.5t24 36.5q10 23 12 52h108z" />
<glyph unicode="&#x2d9;" horiz-adv-x="424" d="M275 678q0 -32 -22.5 -55t-55.5 -23q-32 0 -54 23t-22 55t22 54.5t54 22.5t55 -22.5t23 -54.5z" />
<glyph unicode="&#x2da;" horiz-adv-x="557" d="M406 686q0 -31 -12 -59t-33 -48.5t-49 -32.5t-61 -12q-32 0 -60 12t-49 32.5t-33 48t-12 59.5t12 60t33 49t49 33t60 12q33 0 61 -12t49 -33t33 -49t12 -60zM303 686q0 22 -13 42.5t-39 20.5q-23 0 -36.5 -21t-13.5 -42t13 -41t37 -20q25 0 38.5 20t13.5 41z" />
<glyph unicode="&#x2db;" horiz-adv-x="495" d="M375 -246q-26 -25 -60 -38.5t-72 -13.5q-39 0 -69.5 11t-52 30.5t-32.5 45.5t-11 56q0 28 10.5 54.5t30 49t46.5 40t59 27.5l46 -75q-5 -4 -9 -6.5t-8 -4.5q-3 -3 -3.5 -3t0.5 1q-2 0 -6.5 -4t-9.5 -9q-14 -12 -24.5 -28.5t-10.5 -32.5q0 -35 55 -37q9 -1 18.5 -4t18.5 0 q8 2 17.5 0.5t24.5 8.5q2 1 2.5 0.5t2.5 0.5q7 -12 14 -23q6 -10 11.5 -18.5t9.5 -12.5q0 -5 1 -11q0 -2 1 -4z" />
<glyph unicode="&#x2dc;" horiz-adv-x="614" d="M523 748q-14 -45 -34 -79q-12 -22 -22 -34t-23 -22.5t-28.5 -17t-33.5 -6.5q-22 0 -40.5 10.5t-36.5 23t-38 23t-45 10.5q-11 0 -20.5 -6.5t-18 -15.5t-15 -19.5t-10.5 -18.5l-55 32q5 31 19 58t32 47t39.5 31.5t41.5 11.5q19 0 38.5 -10t39 -22.5t39.5 -22.5t40 -10 q14 0 26 10.5t20 24.5q11 15 19 34z" />
<glyph unicode="&#x2dd;" horiz-adv-x="557" d="M442 688l-122 -126l-61 53l151 238l111 -85zM222 681l-128 -119l-57 57l166 229l104 -89z" />
<glyph unicode="&#x2013;" horiz-adv-x="505" d="M-26 232v125h557v-125h-557z" />
<glyph unicode="&#x2014;" horiz-adv-x="866" d="M-26 232v125h918v-125h-918z" />
<glyph unicode="&#x2018;" horiz-adv-x="320" d="M291 727q-34 -34 -49.5 -59t-23.5 -50q20 -15 30.5 -43t10.5 -51q0 -12 -4.5 -25.5t-13.5 -24t-21.5 -17.5t-29.5 -7q-10 0 -25.5 4.5t-29 17t-23.5 35t-10 59.5q0 51 39 107.5t106 105.5z" />
<glyph unicode="&#x2019;" horiz-adv-x="320" d="M248 649q0 -51 -39 -107t-106 -105l-44 52q34 33 49.5 58.5t23.5 50.5q-20 15 -30.5 42.5t-10.5 50.5q0 12 4.5 25.5t13 24t21.5 17.5t30 7q11 0 26 -4.5t28.5 -17t23.5 -35t10 -59.5z" />
<glyph unicode="&#x201a;" horiz-adv-x="344" d="M248 27q0 -51 -39 -107t-106 -105l-44 51q34 34 49.5 59t23.5 50q-20 15 -30.5 43t-10.5 51q0 12 4.5 25.5t13 24t21.5 17.5t30 7q11 0 26 -4.5t28.5 -17t23.5 -35t10 -59.5z" />
<glyph unicode="&#x201c;" horiz-adv-x="582" d="M541 727q-34 -34 -49.5 -59t-23.5 -50q20 -15 30.5 -43t10.5 -51q0 -12 -4.5 -25.5t-13.5 -24t-21.5 -17.5t-29.5 -7q-10 0 -25.5 4.5t-29 17t-23.5 35t-10 59.5q0 51 39 107.5t106 105.5zM291 727q-34 -34 -49.5 -59t-23.5 -50q20 -15 30.5 -43t10.5 -51 q0 -12 -4.5 -25.5t-13.5 -24t-21.5 -17.5t-29.5 -7q-10 0 -25.5 4.5t-29 17t-23.5 35t-10 59.5q0 51 39 107.5t106 105.5z" />
<glyph unicode="&#x201d;" horiz-adv-x="582" d="M498 650q0 -51 -39 -107.5t-106 -105.5l-43 52q33 34 49 59t24 50q-20 15 -30.5 43t-10.5 51q0 12 4.5 25.5t13 24t21.5 17.5t29 7q11 0 26 -4.5t28.5 -17t23.5 -35t10 -59.5zM248 650q0 -51 -39 -107.5t-106 -105.5l-43 52q33 34 49 59t24 50q-20 15 -30.5 43t-10.5 51 q0 12 4.5 25.5t13 24t21.5 17.5t29 7q11 0 26 -4.5t28.5 -17t23.5 -35t10 -59.5z" />
<glyph unicode="&#x201e;" horiz-adv-x="582" d="M499 27q0 -51 -39 -107t-106 -105l-44 51q34 34 49.5 59t23.5 50q-20 15 -30.5 43t-10.5 51q0 12 4.5 25.5t13 24t21.5 17.5t30 7q11 0 26 -4.5t28.5 -17t23.5 -35t10 -59.5zM248 27q0 -51 -39 -107t-106 -105l-44 51q34 34 49.5 59t23.5 50q-20 15 -30.5 43t-10.5 51 q0 12 4.5 25.5t13 24t21.5 17.5t30 7q11 0 26 -4.5t28.5 -17t23.5 -35t10 -59.5z" />
<glyph unicode="&#x2020;" horiz-adv-x="545" d="M322 432l36 -164l-48 -395h-77l-45 395l33 163l-221 18v86l212 17l7 217h106l7 -217l212 -17v-86z" />
<glyph unicode="&#x2021;" horiz-adv-x="545" d="M332 94l-7 -220h-106l-7 220l-212 18v85l218 18l-31 110l31 109l-218 18v86l212 17l7 214h106l7 -214l212 -17v-86l-218 -18l31 -109l-31 -110l218 -18v-85z" />
<glyph unicode="&#x2022;" horiz-adv-x="525" d="M446 312q0 -38 -14.5 -72t-40 -59.5t-59.5 -40t-73 -14.5q-38 0 -72 14.5t-59 40t-39.5 59.5t-14.5 72q0 39 14.5 73t39.5 59.5t59 40t72 14.5q39 0 73 -14.5t59.5 -40t40 -59.5t14.5 -73z" />
<glyph unicode="&#x2026;" horiz-adv-x="976" d="M884 69q0 -32 -24 -55.5t-56 -23.5t-56 23.5t-24 55.5t24 56.5t56 24.5t56 -24.5t24 -56.5zM554 69q0 -32 -24 -55.5t-57 -23.5q-32 0 -55.5 23.5t-23.5 55.5t23.5 56.5t55.5 24.5q33 0 57 -24.5t24 -56.5zM225 69q0 -32 -24 -55.5t-56 -23.5t-56 23.5t-24 55.5t24 56.5 t56 24.5t56 -24.5t24 -56.5z" />
<glyph unicode="&#x2030;" horiz-adv-x="1178" d="M352 505q0 -47 -16 -84.5t-44 -63.5q-45 -42 -108 -42q-34 0 -63.5 12.5t-51 36.5t-34 58t-12.5 77q0 42 13.5 77t36 59.5t53 38.5t63.5 14q39 0 72 -16t56 -47q17 -23 26 -53t9 -67zM223 -29l-114 32l465 697l115 -32zM1148 179q0 -47 -16 -84.5t-44 -63.5 q-45 -42 -108 -42q-34 0 -63.5 12.5t-51 36.5t-34 58t-12.5 77q0 42 13.5 77t36 60t53 38.5t63.5 13.5q39 0 72 -15.5t56 -47.5q35 -46 35 -120zM782 179q0 -47 -16.5 -84.5t-44.5 -63.5q-45 -42 -107 -42q-34 0 -64 12.5t-51.5 36.5t-34 58t-12.5 77q0 42 13.5 77t36 60 t53 38.5t63.5 13.5q40 0 72.5 -15.5t55.5 -47.5q36 -47 36 -120zM241 503q0 44 -12 66q-13 25 -43 25q-27 0 -40 -27q-5 -11 -9 -28.5t-4 -35.5q0 -21 4 -38.5t10 -30.5q13 -23 39 -23q17 0 29 11.5t17 26.5q9 20 9 54zM1036 177q0 23 -2.5 39.5t-9.5 27.5q-12 24 -42 24 q-27 0 -40 -27q-5 -11 -9 -28.5t-4 -35.5q0 -21 4 -38.5t10 -29.5q12 -23 39 -23q17 0 29 11.5t17 25.5q8 21 8 54zM670 177q0 45 -12 67q-13 24 -42 24q-27 0 -40 -27q-6 -11 -9.5 -28.5t-3.5 -35.5q0 -43 14 -68q11 -23 39 -23q17 0 28.5 11.5t16.5 25.5q9 20 9 54z" />
<glyph unicode="&#x2039;" horiz-adv-x="467" d="M232 290l190 -241l-73 -53l-305 295l303 292l76 -51z" />
<glyph unicode="&#x203a;" horiz-adv-x="467" d="M118 -4l-73 52l190 242l-190 242l75 51l303 -292z" />
<glyph unicode="&#x2044;" horiz-adv-x="464" d="M102 -78l-120 23l411 784l119 -24z" />
<glyph unicode="&#x2122;" horiz-adv-x="882" d="M731 265l-19 231l-3 -8q-2 -4 -3.5 -8t-2.5 -7l-75 -187h-55l-72 181q-4 8 -6 15t-4 12l-2 -9l-17 -220h-88l33 412h83l88 -206q3 -6 5 -13t4 -13l4 -14h3q1 8 3 15l4 14t4 12l88 205h84l33 -412h-89zM251 602v-337h-89v337h-115v75h319v-75h-115z" />
<glyph unicode="&#x221e;" horiz-adv-x="1020" d="M967 298q0 -43 -16 -82t-45 -67.5t-69 -45.5t-89 -17q-28 0 -58 11t-61 29t-61.5 41t-59.5 47q-27 -23 -57 -46t-61.5 -41t-63 -29.5t-60.5 -11.5q-49 0 -88.5 16.5t-67.5 45t-43 66.5t-15 80q0 44 16 82.5t45 67.5t69 45.5t87 16.5q29 0 59.5 -11t61.5 -29t62 -41.5 t59 -47.5q27 23 57 46t61.5 41.5t63 30t59.5 11.5q48 0 87.5 -16.5t68 -45t44 -66t15.5 -80.5zM838 296q0 36 -25 60.5t-64 24.5q-19 0 -39 -9.5t-39 -23t-36 -27.5t-29 -24q13 -10 29.5 -25t35.5 -28.5t39.5 -23t40.5 -9.5q38 0 62.5 25t24.5 60zM413 295q-13 11 -30 25.5 t-36 28t-39 23t-40 9.5q-38 0 -62 -25t-24 -60q0 -36 24 -60.5t63 -24.5q20 0 40 9.5t39 22.5t36 27.5t29 24.5z" />
<glyph unicode="&#x2248;" horiz-adv-x="533" d="M365 0l-10 53h-3q-25 -26 -64 -44t-96 -18q-30 0 -57 9.5t-47.5 27.5t-32 43.5t-11.5 58.5q0 76 48.5 117t131.5 54q25 4 45.5 6.5t35.5 3.5q17 2 30 3v14q0 45 -18 68t-72 23q-35 0 -72 -13t-71 -34l-39 87q43 32 97.5 46t106.5 14q58 0 96.5 -13t61 -37t32 -57t9.5 -74 v-221l9 -117h-110zM335 228q-5 0 -31.5 -2.5t-58.5 -8.5q-39 -8 -52.5 -32t-13.5 -45q0 -25 18 -38.5t39 -13.5q14 0 29 4.5t29 13t25 20.5t16 27v75z" />
<glyph unicode="&#x25fc;" horiz-adv-x="510" d="M0 510h510v-510h-510v510z" />
<glyph unicode="&#xfb01;" horiz-adv-x="700" d="M483 0v404h-220v-404h-129v404h-112v105h112v30q0 31 9.5 58.5t24 50.5t33 41t36.5 29q28 17 72 29t89 12q54 0 97 -8t73 -19l-19 -101q-29 10 -66 16t-71 6q-25 0 -51 -5.5t-48 -18.5t-36 -34.5t-14 -53.5v-32h350v-509h-130z" />
<glyph unicode="&#xfb02;" horiz-adv-x="703" d="M489 0v653h-135q-48 0 -69.5 -27.5t-21.5 -81.5v-35h147v-105h-147v-404h-129v404h-112v105h112v28q0 62 18 105.5t50 72.5q25 21 57.5 30t74.5 9h285v-754h-130z" />
</font>
</defs>
</svg>
