<?xml version="1.0" standalone="no"?>
<!DOCTYPE svg PUBLIC "-//W3C//DTD SVG 1.1//EN" "http://www.w3.org/Graphics/SVG/1.1/DTD/svg11.dtd" >
<svg xmlns="http://www.w3.org/2000/svg">
<metadata></metadata>
<defs>
<font id="malcomsemilight" horiz-adv-x="1171" >
<font-face units-per-em="2048" ascent="1638" descent="-410" />
<missing-glyph horiz-adv-x="425" />
<glyph horiz-adv-x="0" />
<glyph horiz-adv-x="0" />
<glyph unicode="&#xd;" horiz-adv-x="512" />
<glyph unicode=" "  horiz-adv-x="425" />
<glyph unicode="&#x09;" horiz-adv-x="425" />
<glyph unicode="&#xa0;" horiz-adv-x="425" />
<glyph unicode="!" horiz-adv-x="634" d="M184 86q0 47 34 81t81 34q49 0 82 -34t33 -81t-33 -80t-82 -33q-47 0 -81 33t-34 80zM193 1544h215l-48 -1124h-118z" />
<glyph unicode="&#x22;" horiz-adv-x="827" d="M117 1579h184l-49 -551h-88zM537 1579h186l-51 -551h-86z" />
<glyph unicode="#" horiz-adv-x="1406" d="M102 444v134h279l27 374h-277v133h281l20 306h143l-18 -306h334l20 306h146l-21 -306h279v-133h-281l-24 -374h276v-134h-280l-21 -325h-147l20 325h-332l-20 -325h-148l21 325h-277zM528 578h334l27 374h-334z" />
<glyph unicode="$" horiz-adv-x="1079" d="M117 979q0 141 103.5 236.5t275.5 123.5v224h137v-220q88 -8 152.5 -28.5t123.5 -50.5l-30 -136q-66 29 -140.5 50.5t-146.5 21.5q-80 0 -137.5 -18.5t-94 -48t-54 -67.5t-17.5 -75q0 -70 51 -116t129 -80.5t167 -67.5t167 -78t129 -110.5t51 -165.5q0 -141 -99.5 -247 t-271.5 -138v-252h-135v244q-104 6 -178 23t-143 52l14 150q80 -35 165 -58.5t163 -23.5q59 0 115.5 13.5t100.5 42t70.5 72.5t26.5 105q0 70 -51 113t-129 78t-167 66.5t-167 77.5t-129 113.5t-51 174.5z" />
<glyph unicode="%" horiz-adv-x="1771" d="M80 1047q0 84 26.5 152.5t70.5 117.5t103.5 75.5t125.5 26.5q76 0 140 -29.5t109 -89.5q33 -45 51.5 -105t18.5 -134q0 -94 -33 -169t-88 -124q-88 -82 -209 -82q-68 0 -125 24.5t-99 71.5t-66.5 114t-24.5 151zM225 1055q0 -104 41 -168q47 -70 133 -70q53 0 92 30 t66 81q25 53 25 129q0 94 -37 149q-45 82 -144 82q-86 0 -139 -88q-23 -35 -30 -68.5t-7 -76.5zM340 14l946 1399l144 -37l-947 -1399zM1047 332q0 84 26.5 152.5t70.5 117.5t103.5 76t126.5 27q74 0 138.5 -30t109.5 -89q33 -47 51.5 -106.5t18.5 -131.5q0 -94 -33 -170 t-88 -125q-43 -41 -96.5 -60.5t-110.5 -19.5q-68 0 -126 25t-100 71t-66.5 112.5t-24.5 150.5zM1190 342q0 -106 43 -168q51 -74 135 -74q51 0 92 31t64 84q24 55 24 127q0 94 -37 152q-45 80 -141 79q-43 0 -80 -22.5t-63 -63.5q-16 -29 -26.5 -66.5t-10.5 -78.5z" />
<glyph unicode="&#x26;" horiz-adv-x="1650" d="M123 373q0 43 7 91t37 104.5t91 124t170 151.5q-57 59 -102 125q-41 61 -72 129.5t-31 140.5t26.5 127t74 94t111 59.5t136.5 20.5q43 0 98.5 -10t105.5 -39t85 -83t35 -140q0 -80 -27.5 -143.5t-66.5 -113.5t-83 -90t-79 -71q88 -90 176 -174q51 -51 87 -85t76 -70 t80 -69.5t75 -62.5q47 76 84 162q35 78 61.5 170t30.5 194h155q-31 -340 -217 -616q35 -29 78 -59q41 -27 89 -58.5t106 -62.5l-80 -131q-61 33 -105.5 60.5t-80 51t-63.5 45t-54 41.5q-70 -57 -162 -102q-84 -41 -194.5 -71.5t-256.5 -30.5q-135 0 -214 45t-121 108.5 t-54 129t-12 108.5zM291 403q0 -135 67.5 -208.5t196.5 -73.5q78 0 147.5 15.5t129 38t107.5 49.5t83 52q-84 72 -172 152q-80 72 -168 154t-174 168q-35 -31 -74 -67t-70.5 -78t-52 -92t-20.5 -110zM377 1227q0 -47 25.5 -97.5t56.5 -93.5q37 -49 82 -98q29 23 63.5 53.5 t64 66.5t50 76t20.5 83q0 53 -15 87.5t-40 56t-56.5 31t-66.5 9.5q-74 0 -129 -41t-55 -133z" />
<glyph unicode="'" horiz-adv-x="405" d="M117 1579h184l-49 -551h-88z" />
<glyph unicode="(" horiz-adv-x="636" d="M115 635q0 211 63.5 390t167.5 341q49 72 103.5 140.5t113.5 133.5l113 -49q-78 -96 -150.5 -200.5t-126.5 -225.5q-51 -117 -85.5 -247t-34.5 -275q0 -211 60 -381t150 -317q41 -70 90.5 -133.5t98.5 -122.5l-117 -51q-117 131 -215 270q-109 166 -170 343t-61 384z" />
<glyph unicode=")" horiz-adv-x="636" d="M-20 -311q49 59 98 122.5t90 133.5q90 147 150.5 317t60.5 381q0 145 -35 275.5t-86 246.5q-53 121 -126 225.5t-150 200.5l112 49q59 -66 113.5 -134t103.5 -140q104 -162 168 -341t64 -390q0 -207 -61.5 -384t-170.5 -343q-98 -139 -215 -270z" />
<glyph unicode="*" horiz-adv-x="1075" d="M63 1225l37 75l375 -131l25 406h84l20 -406l381 131l33 -75l-375 -166l209 -346l-57 -45l-263 307l-299 -285l-53 64l254 301z" />
<glyph unicode="+" horiz-adv-x="1277" d="M98 500v145h467v475h156v-475h469v-145h-469v-477h-156v477h-467z" />
<glyph unicode="," horiz-adv-x="677" d="M145 -328q57 63 89 125t55 133q-47 31 -66.5 78t-19.5 92q0 33 22.5 66t65.5 33q16 0 40.5 -8.5t47 -29t38 -57.5t15.5 -96q0 -45 -18.5 -95t-50 -102.5t-74.5 -101.5t-92 -90z" />
<glyph unicode="-" horiz-adv-x="788" d="M121 494v143h557v-143h-557z" />
<glyph unicode="." horiz-adv-x="557" d="M133 104q0 51 38 89t89 38q53 0 90 -38t37 -89q0 -53 -37 -88.5t-90 -35.5q-51 0 -89 35.5t-38 88.5z" />
<glyph unicode="/" horiz-adv-x="882" d="M53 0l643 1391h152l-639 -1391h-156z" />
<glyph unicode="0" horiz-adv-x="1280" d="M113 522q0 131 43 234.5t116.5 176.5t171 110.5t207.5 37.5q133 0 232.5 -42t165 -113.5t98.5 -169.5t33 -213q0 -133 -42 -239.5t-116 -181.5t-173 -115t-214 -40q-111 0 -206 34t-165.5 102.5t-110.5 173t-40 245.5zM281 526q0 -92 22.5 -167.5t67.5 -131t115.5 -86 t164.5 -30.5q74 0 139.5 28.5t114.5 81.5t78 132t29 177q0 90 -23.5 166t-70 130.5t-116 85t-161.5 30.5q-76 0 -141.5 -27.5t-114.5 -82t-76.5 -131t-27.5 -175.5z" />
<glyph unicode="1" horiz-adv-x="737" d="M102 961l258 112h140v-954l114 -8v-111h-401v111l119 8v780l-207 -51z" />
<glyph unicode="2" horiz-adv-x="997" d="M104 942q10 10 37 34.5t71 50.5t107.5 46.5t145.5 20.5q190 0 287.5 -89.5t97.5 -232.5q0 -117 -64.5 -218t-193.5 -210l-248 -207q37 2 78 3t102.5 2t150.5 2t224 1v-145h-782v131l278 234q68 57 121 104t90 90t55.5 86t18.5 92q0 98 -62.5 157.5t-185.5 59.5 q-45 0 -87 -14t-75.5 -33.5t-57.5 -39t-34 -27.5z" />
<glyph unicode="3" horiz-adv-x="952" d="M80 967q10 8 36.5 27.5t68.5 40t100.5 36.5t130.5 16q96 0 168.5 -25.5t124 -69.5t77 -102.5t25.5 -123.5q0 -111 -57.5 -208t-167.5 -150v-11q123 -35 190.5 -130t67.5 -218q0 -98 -33 -185t-99.5 -150.5t-164.5 -100.5t-232 -37q-78 0 -136 14.5t-75 18.5l31 133 q10 -2 30.5 -6t48.5 -9.5t58.5 -8.5t59.5 -3q162 0 252 87t90 223q0 84 -33 137t-90 85t-131 44t-158 12h-88v137h78q72 0 141.5 18.5t124.5 55.5t90 91t35 126q0 109 -69.5 165t-192.5 56q-41 0 -78 -11t-66.5 -25.5t-51 -30t-31.5 -21.5z" />
<glyph unicode="4" horiz-adv-x="1130" d="M37 0v137l602 938h213v-930h258v-145h-258v-414h-158v414h-657zM201 143h56t36.5 1t42 1h74.5h286v756h-10z" />
<glyph unicode="5" horiz-adv-x="964" d="M104 -391l29 133q10 -2 30.5 -6t48.5 -9.5t59.5 -8.5t60.5 -3q88 0 155.5 30t114.5 78t71.5 109.5t24.5 126.5q0 170 -97 249t-331 79h-100v686h651v-151h-495v-394l67 -2q123 -6 213 -45t147.5 -99t85 -137t27.5 -157q0 -115 -41 -209t-114.5 -161.5t-175 -104.5 t-220.5 -37q-78 0 -136 14.5t-75 18.5z" />
<glyph unicode="6" horiz-adv-x="1212" d="M145 582q0 209 55.5 376.5t160 284.5t257 179.5t347.5 62.5h36.5t45.5 -2v-144q-31 4 -55.5 5.5t-47.5 1.5q-141 0 -249.5 -45.5t-187.5 -125t-125 -188t-60 -233.5l8 -2q59 90 156.5 128t201.5 38q100 0 180 -32t135.5 -89.5t84 -138.5t28.5 -179q0 -109 -37 -201 t-102.5 -158.5t-158.5 -103t-206 -36.5q-244 0 -355.5 159.5t-111.5 442.5zM332 455q0 -61 18.5 -121t56 -108t96 -77.5t136.5 -29.5q135 0 222 88t87 235q0 150 -75.5 241t-223.5 91q-72 0 -130 -28.5t-100 -73.5t-64.5 -102.5t-22.5 -114.5z" />
<glyph unicode="7" horiz-adv-x="948" d="M55 920v153h840v-141q-129 -291 -251 -627t-191 -719h-185q41 215 93.5 395.5t113 341t125 310t131.5 303.5q-66 -4 -124 -10t-154 -6h-398z" />
<glyph unicode="8" horiz-adv-x="1146" d="M123 334q0 86 29.5 151.5t75.5 114.5t99.5 86t100.5 64q-121 59 -202 156.5t-81 226.5q0 63 26 127.5t80 117t137 85t198 32.5q68 0 141.5 -15.5t135 -53t101.5 -103.5t40 -164q0 -74 -25 -133t-66 -105.5t-93 -83t-107 -65.5q53 -27 109.5 -61.5t102.5 -81.5 t75.5 -111.5t29.5 -152.5q0 -100 -42 -173t-108.5 -120t-151.5 -69.5t-171 -22.5t-165 20t-138 63t-95 110t-36 161zM293 360q0 -68 25.5 -113.5t65.5 -74.5t90 -41t101 -12t102.5 14t93.5 42t67.5 70t25.5 97q0 68 -29.5 123t-74.5 97t-97.5 72t-97.5 48q-47 -20 -96 -54 t-88 -75t-63.5 -90t-24.5 -103zM311 1135q0 -55 28 -101.5t70 -84.5t88 -65.5t83 -43.5q47 20 93 50t83 68.5t60.5 86t23.5 100.5q0 92 -69 154.5t-193 62.5q-49 0 -97.5 -14.5t-85.5 -43t-60.5 -71.5t-23.5 -98z" />
<glyph unicode="9" horiz-adv-x="1212" d="M100 592q0 109 37 201t102.5 158.5t159 103.5t205.5 37q244 0 355.5 -160t111.5 -443q0 -209 -55 -375.5t-159.5 -283.5t-257.5 -180.5t-347 -63.5h-36.5t-45.5 2v144q31 -4 55.5 -5t46.5 -1q141 0 252 47t190 127t125 187.5t56 229.5l-8 2q-61 -84 -157.5 -124.5 t-201.5 -40.5q-100 0 -180 31.5t-135 89t-84 138.5t-29 179zM268 629q0 -150 76 -241t223 -91q72 0 131.5 28.5t100.5 73.5t63.5 102.5t22.5 114.5q0 61 -18.5 121t-56.5 108t-95.5 77.5t-136.5 29.5q-135 0 -222.5 -88t-87.5 -235z" />
<glyph unicode=":" horiz-adv-x="587" d="M150 104q0 51 36.5 89t89.5 38t90 -38t37 -89q0 -53 -36.5 -88.5t-90.5 -35.5q-53 0 -89.5 35.5t-36.5 88.5zM150 807q0 53 36.5 90t89.5 37t90 -37t37 -90t-36.5 -89t-90.5 -36q-53 0 -89.5 36t-36.5 89z" />
<glyph unicode=";" horiz-adv-x="708" d="M162 -328q59 63 91 125t54 133q-47 31 -67.5 78t-20.5 92q0 33 22.5 66t67.5 33q16 0 40 -8.5t46.5 -29t39 -57.5t16.5 -96q0 -45 -18.5 -95t-50.5 -102.5t-76 -101.5t-93 -90zM201 807q0 53 36.5 90t90.5 37q53 0 91 -37t38 -90t-38 -89t-91 -36t-90 36t-37 89z" />
<glyph unicode="&#x3c;" horiz-adv-x="1091" d="M133 598l780 672l72 -70l-582 -598l582 -594l-72 -74z" />
<glyph unicode="=" horiz-adv-x="1064" d="M147 285v143h781v-143h-781zM147 709v143h781v-143h-781z" />
<glyph unicode="&#x3e;" horiz-adv-x="1091" d="M117 8l581 596l-581 596l71 70l781 -668l-781 -668z" />
<glyph unicode="?" horiz-adv-x="1007" d="M129 1341q29 35 68 60.5t84 43t91 26t85 8.5q82 0 152.5 -20.5t121.5 -60.5t81 -101.5t30 -141.5q0 -111 -51.5 -193.5t-114 -158.5t-113.5 -155t-51 -181v-105h-137q-2 10 -6 51.5t-4 75.5q0 96 49 179.5t108.5 160t108.5 150.5t49 149q0 106 -58.5 160.5t-187.5 54.5 q-59 0 -127.5 -27.5t-105.5 -64.5zM356 86q0 47 34 81t83 34q47 0 81 -34t34 -81t-34 -80t-81 -33q-49 0 -83 33t-34 80z" />
<glyph unicode="@" horiz-adv-x="1808" d="M104 627q0 190 72 355t195 286t286.5 190.5t348.5 69.5q168 0 306 -51.5t234 -145.5q92 -92 141.5 -216t49.5 -265q0 -150 -47.5 -269.5t-124.5 -197.5q-55 -57 -141.5 -92t-176.5 -35l-76 137q-18 -20 -45.5 -45.5t-64.5 -47t-82 -36t-96 -14.5q-76 0 -138.5 30.5 t-108.5 86t-71.5 133.5t-25.5 172q0 102 30.5 186t85 144.5t130 94t163.5 33.5q47 0 109.5 -12t120.5 -53l34 49l84 -2v-623l4 -118q61 0 119 33.5t102 94t70.5 147.5t26.5 194q0 115 -35 209q-53 166 -197 262q-68 47 -162 76.5t-204 29.5q-160 0 -299 -60.5t-241.5 -166 t-162 -246.5t-59.5 -305q0 -180 64.5 -313t181.5 -228q78 -66 189.5 -100.5t242.5 -34.5q145 0 247.5 34t190.5 81l25 -92q-117 -68 -243 -103t-241 -35q-160 0 -294 47.5t-238 129.5q-133 104 -206 257.5t-73 344.5zM692 678q0 -47 11.5 -100.5t37 -97.5t67.5 -72.5 t105 -28.5q39 0 82 20.5t80 61.5t61.5 100t24.5 139q0 119 -12 175.5t-27 68.5q-35 31 -80 44t-88 13q-121 0 -191.5 -89t-70.5 -234z" />
<glyph unicode="A" horiz-adv-x="1214" d="M45 0l471 1391h180l471 -1391h-180l-104 330h-566l-108 -330h-164zM360 459h478l-195 620q-6 18 -13 41t-14 45q-8 25 -14 49h-8q-6 -27 -14 -51q-6 -25 -12.5 -48t-12.5 -42z" />
<glyph unicode="B" horiz-adv-x="1165" d="M162 0v1391h444q96 0 175 -25t145 -100q35 -43 53 -98.5t18 -110.5q0 -88 -44 -169t-142 -130q25 -8 67 -28.5t84 -59.5t71.5 -100.5t29.5 -153.5q0 -45 -11.5 -94.5t-36 -96.5t-60 -87t-85.5 -68q-72 -41 -139 -55.5t-170 -14.5h-186h-82h-57.5h-47h-26.5zM324 147h254 q150 0 235.5 71t85.5 198q0 80 -34 130t-85 77.5t-108.5 37t-106.5 9.5h-104h-83t-54 -2v-521zM324 813h192q170 0 242.5 62.5t72.5 162.5q0 33 -10 70t-37.5 67.5t-75.5 50.5q-44 18 -112 17h-14h-258v-430z" />
<glyph unicode="C" horiz-adv-x="1181" d="M109 674q0 154 40.5 288t119.5 233t197 156.5t271 57.5q35 0 80 -7t93 -22.5t97.5 -41t92.5 -60.5l-64 -119q-98 61 -174 79.5t-129 18.5q-123 0 -215 -55t-151 -160q-39 -72 -61.5 -158.5t-22.5 -191.5q0 -90 16 -165.5t43 -137.5q55 -129 157.5 -193.5t241.5 -64.5 q66 0 150 24.5t158 82.5l61 -115q-72 -68 -178.5 -104.5t-216.5 -36.5q-150 0 -263.5 53t-189.5 146t-114.5 220t-38.5 273z" />
<glyph unicode="D" horiz-adv-x="1284" d="M162 0v1391h358q260 0 424 -131q117 -86 180.5 -227t63.5 -331q0 -170 -57.5 -304t-159.5 -226q-186 -172 -486 -172h-323zM324 150h172q109 0 204 33.5t165.5 101t110.5 170t40 241.5q0 164 -49 269.5t-125 167t-164 85t-166 23.5h-188v-1091z" />
<glyph unicode="E" horiz-adv-x="970" d="M162 0v1391h678v-150h-516v-424h501v-149h-501v-518h516v-150h-678z" />
<glyph unicode="F" horiz-adv-x="937" d="M162 0v1391h698v-150h-536v-432h522v-150h-522v-659h-162z" />
<glyph unicode="G" horiz-adv-x="1288" d="M109 674q0 154 40.5 288t119.5 233t197 156.5t271 57.5q72 0 173.5 -29.5t191.5 -101.5l-66 -119q-98 61 -174 79.5t-129 18.5q-123 0 -215 -55t-149 -160q-39 -72 -62.5 -158.5t-23.5 -191.5q0 -90 16 -165.5t45 -137.5q53 -127 155.5 -193.5t241.5 -66.5q49 0 116 16.5 t136 53.5v370l-121 11v96h281v-219v-457h-117l-28 53q-72 -33 -153 -52t-140 -19q-150 0 -263.5 53t-189.5 146t-114.5 220t-38.5 273z" />
<glyph unicode="H" horiz-adv-x="1306" d="M162 0v1391h162v-572h669v572h162v-1391h-162v668h-669v-668h-162z" />
<glyph unicode="I" horiz-adv-x="714" d="M162 0v111l119 8v1155l-119 6v111h401v-111l-119 -6v-1155l119 -8v-111h-401z" />
<glyph unicode="J" horiz-adv-x="665" d="M-76 27l39 133q72 -33 154 -33q51 0 94 15.5t74.5 51t50 94t18.5 144.5v959h164v-965q0 -127 -37 -219q-12 -33 -36.5 -72t-66.5 -72.5t-104.5 -57t-150.5 -23.5q-109 0 -199 45z" />
<glyph unicode="K" horiz-adv-x="1181" d="M162 0v1391h162v-658l561 658h202l-581 -674l608 -717h-211l-579 690v-690h-162z" />
<glyph unicode="L" horiz-adv-x="770" d="M162 0v1391h162v-1239h464v-152h-626z" />
<glyph unicode="M" horiz-adv-x="1632" d="M123 0l104 1391h183l295 -727q8 -18 25.5 -60.5t34.5 -87.5t31.5 -81t16.5 -44h8q2 8 17.5 46t34 84t36 89t23.5 62l297 719h184l105 -1391h-160l-86 1122h-6q-29 -76 -56 -139q-25 -59 -44 -110.5t-29 -73.5l-279 -693h-90l-264 648q-8 20 -30.5 79.5t-45.5 122.5 q-29 74 -61 162h-7l-77 -1118h-160z" />
<glyph unicode="N" horiz-adv-x="1314" d="M162 0v1391h176l453 -738q12 -18 43.5 -74.5t67.5 -121t67.5 -121.5t42.5 -78l8 4q0 16 -1 85t-2 155t-1 170v129v590h149v-1391h-176l-450 737q-12 20 -45 77.5t-70 122t-68.5 121t-40.5 72.5l-8 -4q0 -20 1 -89.5t2 -154.5t2 -165t1 -123v-594h-151z" />
<glyph unicode="O" horiz-adv-x="1312" d="M104 686q0 162 41 296t117 230.5t180.5 149.5t231.5 53t228.5 -51t172 -144.5t108.5 -225.5t38 -292q0 -94 -25 -218t-88.5 -236.5t-174 -190t-282.5 -77.5q-117 0 -216 44t-173 131t-116 220t-42 311zM276 700q0 -121 26 -224t74 -180t119.5 -121t163.5 -44q90 0 162 44 t122 121t78 179t28 217q0 100 -20.5 201.5t-65.5 183.5t-119 134.5t-182 52.5q-102 0 -176 -55.5t-120.5 -139.5t-68 -183.5t-21.5 -185.5z" />
<glyph unicode="P" horiz-adv-x="1116" d="M162 0v1391h413q236 0 355 -111.5t119 -308.5q0 -98 -38 -182t-103.5 -145.5t-157.5 -95.5q-86 -32 -183 -32h-12h-96q-43 0 -80 1t-55 3v-520h-162zM324 676q16 -2 54 -4t77 -4q47 0 100 -2h12q39 0 89 11q58 13 107.5 47t84.5 91t35 143q0 133 -80 209 q-39 37 -100.5 56.5t-137.5 19.5h-241v-567z" />
<glyph unicode="Q" horiz-adv-x="1312" d="M104 686q0 162 41 296t117 230.5t180.5 149.5t231.5 53t228.5 -51t172 -144.5t108.5 -225.5t38 -292q0 -88 -20.5 -203.5t-76 -223t-149.5 -189.5t-242 -100q2 0 0 -2t0 -4q37 -10 83 -18.5t87 -8.5q29 0 60.5 3t60.5 6t52.5 7t33.5 4v-131q-16 -4 -68.5 -14t-123.5 -10 q-55 0 -104.5 10t-87.5 24.5t-62.5 26.5t-34.5 17l24 81q-123 2 -224 49.5t-173 136.5t-112 220t-40 303zM276 700q0 -121 26 -224t74 -180t119.5 -121t163.5 -44q90 0 162 44t122 121t78 179t28 217q0 100 -20.5 201.5t-65.5 183.5t-119 134.5t-182 52.5q-102 0 -176 -55.5 t-120.5 -139.5t-68 -183.5t-21.5 -185.5z" />
<glyph unicode="R" horiz-adv-x="1148" d="M162 0v1391h155h88.5t130 -5.5t144.5 -19.5t129 -45q49 -27 84 -67t55.5 -84t29.5 -87t9 -77q0 -35 -8 -92.5t-42 -120t-104.5 -119t-195.5 -88.5l444 -586h-200l-422 567h-135v-567h-162zM324 715q12 -2 38.5 -3t56.5 -1h58.5h44.5q59 0 114.5 15t98.5 49t68.5 86 t25.5 124q0 90 -35.5 141.5t-85 78t-100.5 32.5t-82 6h-37.5h-66.5t-64.5 -1t-33.5 -1v-526z" />
<glyph unicode="S" horiz-adv-x="972" d="M78 1024q0 86 34.5 157.5t96 123t147.5 80t189 28.5q70 0 149.5 -18.5t161.5 -65.5l-33 -137q-72 35 -146.5 53.5t-133.5 18.5q-135 0 -216 -62.5t-81 -154.5q0 -82 54 -132.5t140 -91.5q84 -39 171 -75.5t173 -96.5q16 -12 40 -32.5t45.5 -52t36 -74t14.5 -95.5 q0 -113 -48.5 -196.5t-132.5 -137.5q-129 -83 -315 -83h-4q-55 0 -104.5 9t-90.5 21.5t-72.5 26.5t-50.5 22l13 152q61 -31 144 -56.5t175 -25.5q57 0 111.5 12.5t97.5 40.5q43 29 75 75t32 112q0 68 -39 113.5t-99 80.5q-76 43 -175 80t-185 90q-59 37 -94 77t-52.5 80 t-22.5 74.5t-5 59.5z" />
<glyph unicode="T" horiz-adv-x="1028" d="M4 1241v150h989v-150h-411v-1241h-164v1241h-414z" />
<glyph unicode="U" horiz-adv-x="1298" d="M162 479v912h162v-902q0 -59 9 -110t32 -92q41 -72 112.5 -114t175.5 -42q178 0 267 113q33 41 51 108.5t18 157.5v881h160v-877q0 -170 -57.5 -286.5t-163.5 -178.5q-113 -69 -276 -69h-5q-166 0 -273.5 62t-160.5 173q-29 57 -40 124t-11 140z" />
<glyph unicode="V" horiz-adv-x="1105" d="M-20 1391h182l397 -1102l406 1102h174l-535 -1397h-98z" />
<glyph unicode="W" horiz-adv-x="1697" d="M-2 1391h176l156 -555q12 -45 36.5 -132.5t49.5 -175.5q31 -104 63 -221h2q2 0 2 2q2 6 15.5 55.5l33 121t42 153.5t42.5 156l168 596h129l170 -568q16 -53 41 -137t49.5 -166t42 -143.5t19.5 -69.5h4q2 0 4 2q2 8 16.5 57.5t35 121t46 158.5t48.5 169l157 576h166 l-424 -1397h-106l-219 719q-10 35 -27.5 95t-36 120.5t-32 107.5t-13.5 54h-6q-2 -8 -14.5 -55.5t-30 -108t-33.5 -119.5t-27 -90l-217 -723h-106z" />
<glyph unicode="X" horiz-adv-x="1079" d="M14 0l428 713l-401 678h190l310 -541l311 541h186l-399 -672l436 -719h-194l-340 571l-336 -571h-191z" />
<glyph unicode="Y" horiz-adv-x="1009" d="M-20 1391h182l160 -322q31 -63 64.5 -132t62.5 -128q33 -68 63 -131q31 66 66 133q31 63 64.5 133t68.5 139l155 308h178l-454 -863v-528h-162v528z" />
<glyph unicode="Z" horiz-adv-x="1011" d="M104 0v70l480 929q16 29 37.5 71t42.5 81q23 45 47 94q-35 -2 -84 -2q-45 0 -107.5 -1t-148.5 -1h-252v150h801v-64l-494 -954q-18 -37 -39.5 -76t-38.5 -72q-23 -39 -43 -75q41 2 98 2q51 0 118 1t155 1h246v-154h-818z" />
<glyph unicode="[" horiz-adv-x="659" d="M162 -395v2007h397v-135h-242v-1731h242v-141h-397z" />
<glyph unicode="\" horiz-adv-x="872" d="M53 1391h131l645 -1391h-133z" />
<glyph unicode="]" horiz-adv-x="659" d="M111 -254h243v1731h-243v135h397v-2007h-397v141z" />
<glyph unicode="^" horiz-adv-x="1247" d="M158 786l405 605h96l412 -603l-74 -53l-387 473l-379 -475z" />
<glyph unicode="_" horiz-adv-x="970" d="M-49 -252h1081v-139h-1081v139z" />
<glyph unicode="`" horiz-adv-x="950" d="M266 1575l111 121l344 -353l-53 -61z" />
<glyph unicode="a" horiz-adv-x="1175" d="M94 496q0 125 38 229t105.5 179t159.5 117t201 42q61 0 140 -17.5t149 -72.5l47 69h90v-854l14 -188h-123l-30 178q-14 -20 -44 -53t-76 -64.5t-108.5 -55t-140.5 -23.5q-92 0 -170 36.5t-133 104t-87 163t-32 210.5zM262 506q0 -61 14.5 -129t48 -125t90 -94t138.5 -37 q51 0 107.5 26.5t103.5 79t77.5 129t30.5 176.5q0 154 -15 225.5t-32 88.5q-47 41 -105 59.5t-116 18.5q-76 0 -139.5 -31t-108.5 -86t-69.5 -132t-24.5 -169z" />
<glyph unicode="b" horiz-adv-x="1153" d="M162 0v1569h160v-441q0 -12 -1.5 -52t-1.5 -85q-2 -51 -4 -112q12 16 40 46.5t71 61.5t102.5 53.5t137.5 22.5q92 0 167.5 -37t129 -104.5t83 -162.5t29.5 -212q0 -125 -35.5 -229.5t-100.5 -179.5t-156 -115.5t-199 -40.5q-82 0 -156 26.5t-145 85.5l-52 -94h-69z M322 514q0 -152 14 -223.5t24 -81.5q47 -41 101.5 -64.5t113.5 -23.5q76 0 137.5 30.5t105.5 86t67.5 132.5t23.5 169q0 61 -13 127.5t-46 124t-85 94.5t-132 37q-49 0 -103.5 -24t-100.5 -73t-76.5 -125.5t-30.5 -185.5z" />
<glyph unicode="c" horiz-adv-x="901" d="M84 504q0 145 50 262t142 192q61 49 136 77t168 28q84 0 157.5 -28.5t132.5 -78.5l-65 -110q-51 35 -111 55q-23 8 -53.5 14.5t-58.5 6.5q-147 0 -240 -117q-41 -55 -64.5 -128t-23.5 -161q0 -86 20.5 -157.5t60.5 -124t100.5 -82t139.5 -29.5q63 0 127 22.5t109 59.5 l59 -107q-59 -53 -142 -84.5t-181 -31.5q-102 0 -191.5 36.5t-150.5 112.5q-55 66 -88 159t-33 214z" />
<glyph unicode="d" horiz-adv-x="1153" d="M94 496q0 125 36 229t101.5 179t155.5 117t199 42q63 0 131.5 -15.5t132.5 -58.5q-2 51 -2 94q-2 39 -3 72t-1 45v369h160v-1569h-115l-31 170q-47 -78 -140 -133t-214 -55q-92 0 -167 36.5t-129 104t-84 163t-30 210.5zM262 506q0 -61 14.5 -129t47 -125t87 -94 t132.5 -37q49 0 103 23.5t99.5 72.5t75 126.5t29.5 186.5q0 152 -16.5 231t-30.5 91q-45 37 -97.5 54.5t-109.5 17.5q-76 0 -137.5 -31t-105.5 -86t-67.5 -132t-23.5 -169z" />
<glyph unicode="e" horiz-adv-x="1099" d="M84 516q0 125 39 230.5t113 179.5q61 66 146 101.5t189 35.5q86 0 156 -23.5t125 -66.5q84 -65 125 -173q34 -90 34 -198q0 -21 -1 -43q-2 -8 -2 -17.5t-2 -19.5h-752v-33q0 -57 21.5 -127.5t58.5 -117.5q47 -59 117.5 -91t173.5 -32q84 0 157.5 28.5t128.5 61.5l52 -117 q-72 -51 -165 -82.5t-198 -31.5q-254 0 -385 143t-131 393zM266 653h576q0 33 -3 48.5t-8 31.5q-23 92 -93 143.5t-169 51.5q-45 0 -91 -14.5t-87 -47t-73.5 -85t-51.5 -128.5z" />
<glyph unicode="f" horiz-adv-x="808" d="M53 897v145h242v119q0 231 129 338q43 37 101.5 57.5t125.5 20.5q59 0 109.5 -11.5t91.5 -27.5l-23 -131q-33 10 -69.5 18.5t-77.5 8.5q-106 0 -165.5 -62.5t-59.5 -214.5v-115h315v-145h-315v-897h-162v897h-242z" />
<glyph unicode="g" horiz-adv-x="1153" d="M94 496q0 125 36 229t101.5 179t155.5 117t199 42q31 0 69.5 -5t78.5 -17.5t78 -32t67 -47.5l36 81h89v-1058q0 -158 -45.5 -254.5t-113 -150.5t-147.5 -72.5t-151 -18.5q-127 0 -203 22.5t-123 49.5l17 141q23 -10 54.5 -23.5t69 -24.5t78.5 -19.5t80 -8.5 q47 0 103.5 11.5t105.5 47t82 102.5t33 177q0 16 1 47t1 62q0 37 2 75q-16 -20 -46 -48.5t-73 -55.5t-98.5 -44t-126.5 -17q-92 0 -167 36.5t-129 104t-84 163t-30 210.5zM262 506q0 -61 14.5 -129t47 -125t86 -94t133.5 -37q49 0 103 23.5t99.5 72.5t75 126.5t29.5 186.5 q0 152 -16.5 231t-30.5 91q-45 37 -97.5 54.5t-109.5 17.5q-76 0 -137.5 -31t-105.5 -86t-67.5 -132t-23.5 -169z" />
<glyph unicode="h" d="M162 0v1569h160v-430q0 -37 -1.5 -83t-3.5 -89q-2 -47 -4 -99q31 51 74 88q53 47 124 78t159 31q123 0 207 -55q66 -41 111.5 -127t45.5 -230v-653h-160v616q0 150 -61 227t-178 77q-53 0 -108.5 -25t-101.5 -72t-74.5 -118.5t-28.5 -167.5v-537h-160z" />
<glyph unicode="i" horiz-adv-x="471" d="M133 1438q0 43 32 74.5t77 31.5t76.5 -30.5t31.5 -75.5q0 -43 -31.5 -74t-76.5 -31t-77 30t-32 75zM162 0v1042h160v-1042h-160z" />
<glyph unicode="j" horiz-adv-x="477" d="M-162 -473l17 121q27 -10 55.5 -17.5t56.5 -7.5q98 0 149.5 56.5t51.5 211.5v1151h160v-1144q0 -53 -5.5 -102.5t-17.5 -88.5q-33 -104 -109.5 -161.5t-201.5 -57.5q-84 0 -156 39zM139 1438q0 45 33 75.5t78 30.5t75.5 -30.5t30.5 -75.5q0 -43 -30.5 -74t-75.5 -31 t-78 30t-33 75z" />
<glyph unicode="k" horiz-adv-x="1083" d="M162 0v1569h160v-991l462 464h209l-487 -485l528 -557h-225l-487 528v-528h-160z" />
<glyph unicode="l" horiz-adv-x="471" d="M162 0v1569h160v-1569h-160z" />
<glyph unicode="m" horiz-adv-x="1619" d="M162 0v1042h114l35 -139q31 51 71 83t80 48.5t78 22.5t66 6q94 0 158.5 -45t95.5 -129q18 25 45 55.5t66 57t90 44t117 17.5q133 0 212.5 -88t79.5 -256v-719h-161v686q0 111 -43 172.5t-131 61.5q-55 0 -106.5 -35t-84.5 -88q-20 -35 -34.5 -84t-14.5 -103v-610h-160 v686q0 100 -39 166q-23 31 -55.5 49.5t-79.5 18.5t-91 -25t-77 -67t-52 -99t-19 -125v-604h-160z" />
<glyph unicode="n" d="M162 0v1042h114l31 -178q18 29 49 64t77 64.5t104.5 50t132.5 20.5q123 0 207 -55q61 -39 109 -128t48 -227v-653h-160v616q0 150 -61 227t-178 77q-53 0 -108.5 -25t-101.5 -72t-74.5 -118.5t-28.5 -167.5v-537h-160z" />
<glyph unicode="o" horiz-adv-x="1140" d="M82 516q0 115 37 214t102.5 173t158.5 117t204 43q104 0 192 -37t152.5 -105.5t100.5 -168t36 -222.5q0 -88 -29.5 -185t-92 -179t-157 -134t-223.5 -52q-104 0 -192 36.5t-152.5 106.5t-100.5 169t-36 224zM252 526q0 -63 16.5 -133.5t54 -131t99 -99.5t153.5 -39 q98 0 161 46t98.5 109.5t50 132t14.5 113.5q0 82 -20.5 155t-61.5 126t-101.5 85t-140.5 32q-92 0 -154.5 -43t-100 -104.5t-53 -130.5t-15.5 -118z" />
<glyph unicode="p" horiz-adv-x="1153" d="M162 -506v1548h114l31 -178q12 23 41 56.5t73 65.5t105.5 54.5t139.5 22.5q92 0 167.5 -37t129 -104.5t83 -162.5t29.5 -212q0 -125 -35.5 -229.5t-100.5 -179.5t-156 -115.5t-199 -40.5q-70 0 -133.5 17t-128.5 64v-569h-160zM322 514q0 -152 14 -223.5t24 -81.5 q47 -41 101.5 -64.5t113.5 -23.5q76 0 137.5 30.5t105.5 86t67.5 132.5t23.5 169q0 61 -13 127.5t-46 124t-85 94.5t-132 37q-49 0 -103.5 -24t-100.5 -73t-76.5 -125.5t-30.5 -185.5z" />
<glyph unicode="q" horiz-adv-x="1153" d="M88 496q0 125 36 229t101.5 179t155.5 117t199 42q31 0 69.5 -4t78.5 -16.5t79 -33t72 -53.5l43 86h82v-1548h-160v443v41.5t1 70.5t2 67.5t3 37.5q-51 -66 -140 -119t-212 -53q-92 0 -167 36.5t-129.5 104t-84 163t-29.5 210.5zM256 506q0 -61 14.5 -129t47 -125t86 -94 t133.5 -37q49 0 103 23.5t99 72.5t75 126.5t30 186.5q0 152 -16.5 231t-30.5 91q-45 37 -98.5 54.5t-110.5 17.5q-74 0 -135.5 -31t-105.5 -86t-67.5 -132t-23.5 -169z" />
<glyph unicode="r" horiz-adv-x="692" d="M162 0v1042h114l31 -165q6 10 37 49t68 63q109 74 239 74v-178q-25 3 -49 3q-118 0 -192 -67q-88 -80 -88 -266v-555h-160z" />
<glyph unicode="s" horiz-adv-x="888" d="M109 764q0 141 107.5 220t283.5 79q88 0 149.5 -20.5t110.5 -43.5l-31 -131q-53 25 -108.5 43.5t-126.5 18.5q-111 0 -165.5 -45t-54.5 -111q0 -25 15.5 -59.5t81.5 -69.5q37 -18 82 -34.5t92 -33t92 -38t82 -52.5q39 -29 63.5 -76.5t24.5 -113.5q0 -76 -32 -135.5 t-89 -100.5t-133 -62.5t-166 -21.5q-72 0 -139.5 16.5t-122.5 43.5l10 141q59 -25 127 -44t135 -19q49 0 92 10t77 30.5t53.5 50.5t19.5 68q0 82 -66 123q-33 23 -80 38.5t-99 32.5t-102 37.5t-91 53.5q-35 29 -53.5 58.5t-27.5 57t-10 51.5t-1 38z" />
<glyph unicode="t" horiz-adv-x="831" d="M49 897v145h219v377l6 11l154 14v-402h328v-145h-328v-530q0 -137 43 -193.5t137 -56.5q33 0 67 8t62 18l11 -120q-41 -20 -89.5 -30.5t-97.5 -10.5q-109 0 -180 49q-59 45 -86 119.5t-27 185.5v561h-219z" />
<glyph unicode="u" d="M150 389v653h161v-616q0 -150 60.5 -227.5t177.5 -77.5q53 0 108.5 24.5t101.5 72.5t74.5 121t28.5 167v536h160v-1042h-115l-30 176q-14 -23 -36 -47.5t-44 -44.5q-53 -47 -125 -77t-158 -30q-59 0 -112.5 13.5t-94.5 42.5q-66 41 -111.5 126t-45.5 230z" />
<glyph unicode="v" horiz-adv-x="956" d="M16 1042h177l165 -442q16 -45 38 -102.5t40 -110.5q23 -63 45 -127h4q12 37 27 72q10 31 21.5 63.5t21.5 57.5l227 589h166l-413 -1042h-105z" />
<glyph unicode="w" horiz-adv-x="1527" d="M2 1042h170l201 -565q8 -25 20.5 -60.5t22.5 -70.5q12 -41 26 -84q23 66 43 129q20 59 39 115.5t33 99.5l145 436h129l144 -415q10 -25 29.5 -85.5t39.5 -121.5q23 -74 50 -158h6l24 78q10 37 22.5 74t24.5 69l199 559h168l-387 -1048h-111l-184 500q-10 29 -26.5 78 t-32.5 98q-18 55 -37 118q-18 -61 -37 -118q-14 -51 -29.5 -98.5t-25.5 -75.5l-181 -502h-106z" />
<glyph unicode="x" horiz-adv-x="991" d="M43 0l360 535l-333 507h182l250 -389l252 389h176l-336 -505l354 -537h-184l-270 416l-271 -416h-180z" />
<glyph unicode="y" horiz-adv-x="950" d="M18 1042h181l153 -409q16 -41 38 -101.5t44 -117.5q23 -68 49 -140q37 98 70 187q20 51 32.5 85t26 67.5t23.5 62.5t18 49l117 317h174l-612 -1554h-166l235 578z" />
<glyph unicode="z" horiz-adv-x="913" d="M90 0v53l508 844h-33.5t-70.5 -1t-96.5 -1h-112.5h-183v147h723v-61l-499 -831h37.5t82 1t100.5 1h95h184v-152h-735z" />
<glyph unicode="{" horiz-adv-x="798" d="M152 631v114q10 4 41.5 17.5t65.5 42.5t59.5 76t25.5 118v351q0 154 72.5 226.5t189.5 72.5h66v-103h-35q-72 0 -103.5 -65.5t-31.5 -163.5v-363q0 -72 -33 -121t-74 -81q-47 -37 -106 -62q59 -25 106 -63q43 -35 75 -84t32 -121v-363q0 -98 31.5 -163.5t103.5 -65.5h35 v-104h-66q-117 0 -189.5 73.5t-72.5 227.5v348q0 72 -25.5 119t-59.5 75.5t-65.5 42t-41.5 19.5z" />
<glyph unicode="|" horiz-adv-x="491" d="M180 -508v2099h142v-2099h-142z" />
<glyph unicode="}" horiz-adv-x="798" d="M143 -170h33q72 0 104.5 65.5t32.5 163.5v363q0 72 33 122t74 83q47 39 106 63q-59 25 -106 62q-43 35 -75 83t-32 119v363q0 98 -32.5 163.5t-104.5 65.5h-33v103h64q117 0 190.5 -73t73.5 -226v-351q0 -72 25.5 -118.5t59.5 -75.5t64.5 -42t43.5 -18v-114 q-12 -6 -43 -19.5t-65 -42t-59.5 -76t-25.5 -118.5v-348q0 -154 -73.5 -227.5t-190.5 -73.5h-64v104z" />
<glyph unicode="~" horiz-adv-x="1175" d="M111 510q20 57 54 99t75 70t85 41t85 13q47 0 100 -21.5t106.5 -47t105.5 -47t97 -21.5q39 0 67.5 14.5t49 34t35 42t24.5 38.5l82 -47q-18 -66 -54 -111t-78 -72.5t-86 -40t-83 -12.5q-43 0 -96 21.5t-108.5 48.5t-110.5 48.5t-103 21.5q-37 0 -62.5 -12.5t-45 -30 t-32.5 -37t-25 -35.5z" />
<glyph unicode="&#xa1;" horiz-adv-x="634" d="M182 993q0 47 34 81t81 34q49 0 83 -34t34 -81t-34 -79.5t-83 -32.5q-47 0 -81 32.5t-34 79.5zM193 -463l45 1122h118l47 -1122h-210z" />
<glyph unicode="&#xa2;" horiz-adv-x="921" d="M86 625q0 96 27.5 182t78 153.5t124 114.5t165.5 68v293h142v-281q158 -25 258 -113l-56 -110q-51 37 -109.5 59.5t-121.5 22.5q-74 0 -135.5 -26.5t-106.5 -76t-70.5 -121t-25.5 -161.5q0 -82 22.5 -150.5t65.5 -120t105.5 -80t142.5 -28.5q63 0 125.5 22.5t109.5 61.5 l54 -107q-47 -45 -111.5 -75.5t-146.5 -42.5v-302h-142v306q-190 37 -292.5 173t-102.5 339z" />
<glyph unicode="&#xa3;" horiz-adv-x="1083" d="M131 0v139q18 4 60 16.5t86.5 46.5t78 96t33.5 167q0 23 -1 58.5t-1 70.5q-2 41 -4 84h-250v145h240q-4 53 -7.5 96.5t-3.5 69.5q0 215 105.5 325.5t280.5 110.5q51 0 100 -14l63 -18l-34 -125q-12 4 -54.5 13t-97.5 9q-51 0 -86 -20.5t-58.5 -53t-36 -74.5t-16.5 -85 q-14 -104 4 -236h369v-143h-360q0 -6 2 -29.5t3 -53.5t2 -59.5t1 -46.5q0 -102 -30 -182t-95 -166q39 2 86 4q41 2 93 3.5t114 1.5h266v-150h-852z" />
<glyph unicode="&#xa4;" horiz-adv-x="1181" d="M0 463v149h111q-2 16 -2 30.5v31.5q0 23 1 43t3 43h-113v149h135q27 111 78 202t127 157.5t175 103.5t222 37q35 0 80 -7t93 -22.5t97.5 -41t92.5 -60.5l-64 -119q-98 61 -174 79.5t-129 18.5q-123 0 -215 -55t-151 -160q-16 -31 -29.5 -63.5t-24.5 -69.5h717v-149h-745 q-2 -16 -2 -33.5v-34.5q0 -20 1 -39.5t3 -40.5h743v-149h-715q6 -20 12.5 -38.5t14.5 -35.5q55 -129 157.5 -193.5t241.5 -64.5q66 0 150 24.5t158 82.5l61 -115q-72 -68 -178.5 -104.5t-216.5 -36.5q-121 0 -218.5 35.5t-171 99t-121.5 151.5t-73 195h-131z" />
<glyph unicode="&#xa5;" horiz-adv-x="1009" d="M-20 1391h182l160 -322q25 -51 57.5 -120.5t62.5 -135.5q35 -76 72 -156h4q39 90 76 172q33 74 64.5 143.5t52.5 110.5l155 308h178l-313 -594h303v-146h-379l-65 -123v-100h444v-145h-444v-283h-162v283h-444v145h444v98l-63 125h-381v146h305z" />
<glyph unicode="&#xa7;" horiz-adv-x="964" d="M129 760q0 127 104 223q-63 90 -63 180q0 68 26.5 125.5t74.5 99.5t118 66.5t156 24.5q61 0 115.5 -15.5t111.5 -50.5l-31 -121q-51 23 -100 39.5t-98 16.5q-102 0 -152.5 -47.5t-50.5 -122.5q0 -35 19.5 -65t52 -58.5t73.5 -57t84 -59.5q74 -55 124 -104.5t82 -98.5 t45.5 -100.5t13.5 -110.5q0 -78 -31 -128t-68 -91q41 -57 49.5 -108.5t8.5 -92.5q0 -86 -33 -143t-86 -93t-120 -51.5t-132 -15.5q-119 0 -227 62l12 133q63 -29 117.5 -44t105.5 -15q96 0 157.5 50t61.5 128q0 70 -58.5 124t-141.5 111q-51 37 -106.5 75t-102.5 85 q-47 51 -79 111.5t-32 138.5zM279 819q-8 -78 22.5 -135t65.5 -96q39 -43 88 -85t84 -71l168 39q6 80 -26 141.5t-79 116.5q-29 31 -64.5 62.5t-78.5 70.5z" />
<glyph unicode="&#xa8;" horiz-adv-x="1261" d="M301 1409q0 41 30.5 70.5t71.5 29.5t72 -29.5t31 -70.5q0 -45 -31 -73.5t-72 -28.5t-71.5 28.5t-30.5 73.5zM750 1409q0 41 29.5 70.5t70.5 29.5q43 0 71.5 -29.5t28.5 -70.5q0 -45 -28.5 -73.5t-71.5 -28.5q-41 0 -70.5 28.5t-29.5 73.5z" />
<glyph unicode="&#xa9;" horiz-adv-x="1726" d="M41 692q0 170 64.5 320.5t177 262t262 176.5t321.5 65t322.5 -65t262.5 -176.5t177.5 -261t65.5 -319.5q0 -172 -65.5 -321.5t-178.5 -262t-263.5 -177t-320.5 -64.5q-172 0 -322.5 64.5t-262 176t-176 261t-64.5 321.5zM178 694q0 -143 53.5 -269t146.5 -220t218 -148.5 t268 -54.5t269.5 54.5t219.5 148.5t147 219t54 268q0 141 -54 267t-147 220.5t-219 148.5t-270 54q-143 0 -268 -54t-218 -147.5t-146.5 -219t-53.5 -267.5zM498 686q0 84 25.5 161t76.5 135t127 93t174 35q76 0 136.5 -27.5t109.5 -74.5l-53 -93q-35 23 -84 45.5t-107 22.5 q-115 0 -177 -82t-62 -211q0 -135 62 -209.5t173 -74.5q115 0 199 67l55 -88q-55 -49 -126 -80t-142 -31q-92 0 -165 32t-122 88.5t-74.5 131t-25.5 160.5z" />
<glyph unicode="&#xab;" horiz-adv-x="1458" d="M127 594l573 561l74 -55l-401 -504l401 -500l-76 -57zM696 594l578 559l72 -55l-406 -502l406 -498l-76 -57z" />
<glyph unicode="&#xac;" horiz-adv-x="1120" d="M111 578v145h899v-559h-152v414h-747z" />
<glyph unicode="&#xad;" horiz-adv-x="788" d="M121 494v143h557v-143h-557z" />
<glyph unicode="&#xae;" horiz-adv-x="1517" d="M63 903q0 145 55.5 272.5t151 221.5t223.5 149.5t271 55.5q145 0 272 -54.5t222.5 -149.5t150.5 -222.5t55 -272.5q0 -143 -55 -270t-150.5 -222.5t-222.5 -150.5t-272 -55t-272 54t-222.5 149.5t-151 222.5t-55.5 272zM182 905q0 -119 46 -225.5t124 -186t184.5 -125.5 t225.5 -46q121 0 226.5 46t183 124.5t123.5 184t46 224.5q0 121 -46 226.5t-123.5 185.5t-183 126t-226.5 46q-119 0 -225.5 -46t-184.5 -124t-124 -183.5t-46 -226.5zM530 520v783h103h49t72 -3.5t78.5 -10.5t70.5 -23q29 -14 49.5 -39t33.5 -52.5t19.5 -53t6.5 -44.5 q0 -18 -4 -50t-21.5 -66.5t-52.5 -66.5t-96 -52l243 -322h-157l-226 303h-41v-303h-127zM657 936h60q16 0 33.5 2t27.5 4q41 8 77 37t36 84q0 43 -18.5 67.5t-42 37t-48 15.5t-37.5 3h-38.5t-49.5 -2v-248z" />
<glyph unicode="&#xaf;" horiz-adv-x="1085" d="M274 1444v135h543v-135h-543z" />
<glyph unicode="&#xb0;" horiz-adv-x="837" d="M109 1161q0 68 25.5 125t69.5 98t101 63.5t119 22.5q74 0 133 -26.5t100 -71.5q37 -41 57.5 -95.5t20.5 -113.5q0 -78 -34.5 -141.5t-92.5 -103.5q-41 -31 -89 -46.5t-101 -15.5q-68 0 -124 22.5t-97 63.5t-64.5 97.5t-23.5 121.5zM242 1161q0 -86 61 -141 q23 -18 52.5 -30.5t64.5 -12.5q49 0 87 20.5t60 55.5q37 47 37 108q0 76 -51 133q-45 55 -131 56q-82 0 -131 -60q-23 -25 -36 -56.5t-13 -72.5z" />
<glyph unicode="&#xb1;" horiz-adv-x="1290" d="M119 629v145h452v359h158v-359h453v-145h-453v-361h-158v361h-452zM125 -66v144h1053v-144h-1053z" />
<glyph unicode="&#xb4;" horiz-adv-x="970" d="M254 1343l342 353l109 -119l-402 -295z" />
<glyph unicode="&#xb5;" d="M150 -430v1472h161v-616q0 -147 60.5 -226t177.5 -79q53 0 108.5 24.5t101.5 73.5t74.5 121t28.5 166v536h160v-1042h-113l-32 174q-33 -49 -82 -92q-53 -45 -124 -75t-157 -30q-49 0 -103.5 13.5t-99.5 44.5v-465h-161z" />
<glyph unicode="&#xb6;" horiz-adv-x="997" d="M74 944q0 199 116.5 314.5t358.5 115.5h305v-1575h-125v1479h-90v-1479h-125v690h-20q-88 0 -164 34t-133.5 94.5t-90 144.5t-32.5 182z" />
<glyph unicode="&#xb7;" horiz-adv-x="563" d="M160 676q0 53 36.5 92t90.5 39q55 0 93 -39t38 -92t-38 -90t-93 -37q-53 0 -90 37t-37 90z" />
<glyph unicode="&#xb8;" horiz-adv-x="1103" d="M262 -516l43 72q27 -12 55.5 -22.5t69.5 -10.5q66 0 95.5 35.5t29.5 76.5q0 35 -11.5 56.5t-27.5 35t-31.5 19.5t-25.5 10l53 215h100l-16 -184q55 -16 84 -63.5t29 -100.5q0 -47 -21.5 -85t-57.5 -65.5t-83 -43t-96 -15.5q-55 0 -107.5 22.5t-81.5 47.5z" />
<glyph unicode="&#xbb;" horiz-adv-x="1458" d="M125 96l407 498l-407 502l76 55l577 -555l-579 -557zM698 94l402 500l-402 502l76 57l569 -557l-571 -559z" />
<glyph unicode="&#xbf;" horiz-adv-x="1007" d="M225 4q0 74 24.5 129t61.5 101.5t79 87t79 86t61.5 97.5t24.5 120v104h137q0 -10 5 -51t5 -76q0 -96 -49 -170t-108.5 -138.5t-108.5 -128t-49 -138.5q0 -145 66.5 -212t201.5 -67q59 0 116.5 27.5t94.5 64.5l72 -90q-57 -70 -140 -103.5t-163 -33.5q-410 0 -410 391z M479 1006q0 47 34 79.5t81 32.5t82 -32.5t35 -79.5t-35 -81t-82 -34t-81 33.5t-34 81.5z" />
<glyph unicode="&#xc0;" horiz-adv-x="1214" d="M45 0l471 1391h180l471 -1391h-180l-104 330h-566l-108 -330h-164zM258 1876l111 121l344 -353l-53 -61zM360 459h478l-195 620q-6 18 -13 41t-14 45q-8 25 -14 49h-8q-6 -27 -14 -51q-6 -25 -12.5 -48t-12.5 -42z" />
<glyph unicode="&#xc1;" horiz-adv-x="1214" d="M45 0l471 1391h180l471 -1391h-180l-104 330h-566l-108 -330h-164zM360 459h478l-195 620q-6 18 -13 41t-14 45q-8 25 -14 49h-8q-6 -27 -14 -51q-6 -25 -12.5 -48t-12.5 -42zM490 1642l342 353l109 -119l-402 -295z" />
<glyph unicode="&#xc2;" horiz-adv-x="1214" d="M45 0l471 1391h180l471 -1391h-180l-104 330h-566l-108 -330h-164zM268 1646l328 336h41l313 -334l-53 -63l-289 227l-290 -229zM360 459h478l-195 620q-6 18 -13 41t-14 45q-8 25 -14 49h-8q-6 -27 -14 -51q-6 -25 -12.5 -48t-12.5 -42z" />
<glyph unicode="&#xc3;" horiz-adv-x="1214" d="M45 0l471 1391h180l471 -1391h-180l-104 330h-566l-108 -330h-164zM207 1679q14 47 41 86t60.5 67.5t71.5 45t71 16.5q41 0 83 -22.5t86 -48t87 -48t86 -22.5q31 0 56.5 16.5t46 39t35.5 44t22 29.5l55 -33q-25 -68 -60 -121q-33 -51 -78.5 -87t-111.5 -36 q-49 0 -90 22.5t-82 50.5t-85 50.5t-99 22.5q-27 0 -51.5 -14.5t-43 -34t-31 -37t-16.5 -23.5zM360 459h478l-195 620q-6 18 -13 41t-14 45q-8 25 -14 49h-8q-6 -27 -14 -51q-6 -25 -12.5 -48t-12.5 -42z" />
<glyph unicode="&#xc4;" horiz-adv-x="1214" d="M45 0l471 1391h180l471 -1391h-180l-104 330h-566l-108 -330h-164zM291 1698q0 41 30.5 70.5t71.5 29.5t72 -29.5t31 -70.5q0 -45 -31 -73.5t-72 -28.5t-71.5 28.5t-30.5 73.5zM360 459h478l-195 620q-6 18 -13 41t-14 45q-8 25 -14 49h-8q-6 -27 -14 -51 q-6 -25 -12.5 -48t-12.5 -42zM740 1698q0 41 29.5 70.5t70.5 29.5q43 0 71.5 -29.5t28.5 -70.5q0 -45 -28.5 -73.5t-71.5 -28.5q-41 0 -70.5 28.5t-29.5 73.5z" />
<glyph unicode="&#xc5;" horiz-adv-x="1214" d="M45 0l471 1391h180l471 -1391h-180l-104 330h-566l-108 -330h-164zM330 1745q0 57 21.5 106.5t59.5 86t88 57t105 20.5q57 0 107.5 -20.5t87.5 -57t58.5 -86t21.5 -106.5q0 -55 -21.5 -104.5t-58.5 -86t-87 -57t-108 -20.5q-57 0 -107 20.5t-87 56t-58.5 85t-21.5 106.5z M360 459h478l-195 620q-6 18 -13 41t-14 45q-8 25 -14 49h-8q-6 -27 -14 -51q-6 -25 -12.5 -48t-12.5 -42zM443 1745q0 -68 48 -115t113 -47q70 0 117 47t47 115t-47 117t-117 49q-66 0 -113.5 -49t-47.5 -117z" />
<glyph unicode="&#xc6;" horiz-adv-x="1566" d="M0 0l653 1391h142h641v-150h-514v-424h501v-147h-501v-520h514v-150h-676v332h-441l-155 -332h-164zM377 459h383v782h-27q-8 -23 -20 -49q-10 -25 -22.5 -53.5t-26.5 -59.5z" />
<glyph unicode="&#xc7;" horiz-adv-x="1181" d="M109 674q0 154 40.5 288t119.5 233t197 156.5t271 57.5q35 0 80 -7t93 -22.5t97.5 -41t92.5 -60.5l-64 -119q-98 61 -174 79.5t-129 18.5q-123 0 -215 -55t-151 -160q-39 -72 -61.5 -158.5t-22.5 -191.5q0 -90 16 -165.5t43 -137.5q55 -129 157.5 -193.5t241.5 -64.5 q66 0 150 24.5t158 82.5l61 -115q-72 -68 -178.5 -104.5t-216.5 -36.5q-150 0 -263.5 53t-189.5 146t-114.5 220t-38.5 273zM371 -459l43 72q27 -12 55.5 -22.5t69.5 -10.5q66 0 95.5 35.5t29.5 76.5q0 35 -11.5 56.5t-27.5 35t-31.5 19.5t-25.5 10l53 215h100l-16 -184 q55 -16 84 -63.5t29 -100.5q0 -47 -21.5 -85t-57.5 -65.5t-83 -43t-96 -15.5q-55 0 -107.5 22.5t-81.5 47.5z" />
<glyph unicode="&#xc8;" horiz-adv-x="970" d="M162 0v1391h678v-150h-516v-424h501v-149h-501v-518h516v-150h-678zM188 1888l111 121l344 -353l-53 -61z" />
<glyph unicode="&#xc9;" horiz-adv-x="970" d="M162 0v1391h678v-150h-516v-424h501v-149h-501v-518h516v-150h-678zM346 1642l342 353l109 -119l-402 -295z" />
<glyph unicode="&#xca;" horiz-adv-x="970" d="M161 1652l328 336h41l313 -334l-53 -63l-289 227l-290 -229zM162 0v1391h678v-150h-516v-424h501v-149h-501v-518h516v-150h-678z" />
<glyph unicode="&#xcb;" horiz-adv-x="970" d="M162 0v1391h678v-150h-516v-424h501v-149h-501v-518h516v-150h-678zM190 1698q0 41 30.5 70.5t71.5 29.5t72 -29.5t31 -70.5q0 -45 -31 -73.5t-72 -28.5t-71.5 28.5t-30.5 73.5zM639 1698q0 41 29.5 70.5t70.5 29.5q43 0 71.5 -29.5t28.5 -70.5q0 -45 -28.5 -73.5 t-71.5 -28.5q-41 0 -70.5 28.5t-29.5 73.5z" />
<glyph unicode="&#xcc;" horiz-adv-x="714" d="M86 1813l111 121l344 -353l-53 -61zM162 0v111l119 8v1155l-119 6v111h401v-111l-119 -6v-1155l119 -8v-111h-401z" />
<glyph unicode="&#xcd;" horiz-adv-x="714" d="M162 0v111l119 8v1155l-119 6v111h401v-111l-119 -6v-1155l119 -8v-111h-401zM246 1597l342 353l109 -119l-402 -295z" />
<glyph unicode="&#xce;" horiz-adv-x="714" d="M36 1566l328 336h41l313 -334l-53 -63l-289 227l-290 -229zM162 0v111l119 8v1155l-119 6v111h401v-111l-119 -6v-1155l119 -8v-111h-401z" />
<glyph unicode="&#xcf;" horiz-adv-x="714" d="M53 1638q0 41 30.5 70.5t71.5 29.5t72 -29.5t31 -70.5q0 -45 -31 -73.5t-72 -28.5t-71.5 28.5t-30.5 73.5zM162 0v111l119 8v1155l-119 6v111h401v-111l-119 -6v-1155l119 -8v-111h-401zM502 1638q0 41 29.5 70.5t70.5 29.5q43 0 71.5 -29.5t28.5 -70.5 q0 -45 -28.5 -73.5t-71.5 -28.5q-41 0 -70.5 28.5t-29.5 73.5z" />
<glyph unicode="&#xd1;" horiz-adv-x="1314" d="M162 0v1391h176l453 -738q12 -18 43.5 -74.5t67.5 -121t67.5 -121.5t42.5 -78l8 4q0 16 -1 85t-2 155t-1 170v129v590h149v-1391h-176l-450 737q-12 20 -45 77.5t-70 122t-68.5 121t-40.5 72.5l-8 -4q0 -20 1 -89.5t2 -154.5t2 -165t1 -123v-594h-151zM260 1673 q14 47 41 86t60.5 67.5t71.5 45t71 16.5q41 0 83 -22.5t86 -48t87 -48t86 -22.5q31 0 56.5 16.5t46 39t35.5 44t22 29.5l55 -33q-25 -68 -60 -121q-33 -51 -78.5 -87t-111.5 -36q-49 0 -90 22.5t-82 50.5t-85 50.5t-99 22.5q-27 0 -51.5 -14.5t-43 -34t-31 -37t-16.5 -23.5z " />
<glyph unicode="&#xd2;" horiz-adv-x="1312" d="M104 686q0 162 41 296t117 230.5t180.5 149.5t231.5 53t228.5 -51t172 -144.5t108.5 -225.5t38 -292q0 -94 -25 -218t-88.5 -236.5t-174 -190t-282.5 -77.5q-117 0 -216 44t-173 131t-116 220t-42 311zM276 700q0 -121 26 -224t74 -180t119.5 -121t163.5 -44q90 0 162 44 t122 121t78 179t28 217q0 100 -20.5 201.5t-65.5 183.5t-119 134.5t-182 52.5q-102 0 -176 -55.5t-120.5 -139.5t-68 -183.5t-21.5 -185.5zM305 1888l111 121l344 -353l-53 -61z" />
<glyph unicode="&#xd3;" horiz-adv-x="1312" d="M104 686q0 162 41 296t117 230.5t180.5 149.5t231.5 53t228.5 -51t172 -144.5t108.5 -225.5t38 -292q0 -94 -25 -218t-88.5 -236.5t-174 -190t-282.5 -77.5q-117 0 -216 44t-173 131t-116 220t-42 311zM276 700q0 -121 26 -224t74 -180t119.5 -121t163.5 -44q90 0 162 44 t122 121t78 179t28 217q0 100 -20.5 201.5t-65.5 183.5t-119 134.5t-182 52.5q-102 0 -176 -55.5t-120.5 -139.5t-68 -183.5t-21.5 -185.5zM541 1658l342 353l109 -119l-402 -295z" />
<glyph unicode="&#xd4;" horiz-adv-x="1312" d="M104 686q0 162 41 296t117 230.5t180.5 149.5t231.5 53t228.5 -51t172 -144.5t108.5 -225.5t38 -292q0 -94 -25 -218t-88.5 -236.5t-174 -190t-282.5 -77.5q-117 0 -216 44t-173 131t-116 220t-42 311zM276 700q0 -121 26 -224t74 -180t119.5 -121t163.5 -44q90 0 162 44 t122 121t78 179t28 217q0 100 -20.5 201.5t-65.5 183.5t-119 134.5t-182 52.5q-102 0 -176 -55.5t-120.5 -139.5t-68 -183.5t-21.5 -185.5zM335 1656l328 336h41l313 -334l-53 -63l-289 227l-290 -229z" />
<glyph unicode="&#xd5;" horiz-adv-x="1312" d="M104 686q0 162 41 296t117 230.5t180.5 149.5t231.5 53t228.5 -51t172 -144.5t108.5 -225.5t38 -292q0 -94 -25 -218t-88.5 -236.5t-174 -190t-282.5 -77.5q-117 0 -216 44t-173 131t-116 220t-42 311zM258 1675q14 47 41 86t60.5 67.5t71.5 45t71 16.5q41 0 83 -22.5 t86 -48t87 -48t86 -22.5q31 0 56.5 16.5t46 39t35.5 44t22 29.5l55 -33q-25 -68 -60 -121q-33 -51 -78.5 -87t-111.5 -36q-49 0 -90 22.5t-82 50.5t-85 50.5t-99 22.5q-27 0 -51.5 -14.5t-43 -34t-31 -37t-16.5 -23.5zM276 700q0 -121 26 -224t74 -180t119.5 -121t163.5 -44 q90 0 162 44t122 121t78 179t28 217q0 100 -20.5 201.5t-65.5 183.5t-119 134.5t-182 52.5q-102 0 -176 -55.5t-120.5 -139.5t-68 -183.5t-21.5 -185.5z" />
<glyph unicode="&#xd6;" horiz-adv-x="1312" d="M104 686q0 162 41 296t117 230.5t180.5 149.5t231.5 53t228.5 -51t172 -144.5t108.5 -225.5t38 -292q0 -94 -25 -218t-88.5 -236.5t-174 -190t-282.5 -77.5q-117 0 -216 44t-173 131t-116 220t-42 311zM276 700q0 -121 26 -224t74 -180t119.5 -121t163.5 -44q90 0 162 44 t122 121t78 179t28 217q0 100 -20.5 201.5t-65.5 183.5t-119 134.5t-182 52.5q-102 0 -176 -55.5t-120.5 -139.5t-68 -183.5t-21.5 -185.5zM330 1698q0 41 30.5 70.5t71.5 29.5t72 -29.5t31 -70.5q0 -45 -31 -73.5t-72 -28.5t-71.5 28.5t-30.5 73.5zM779 1698 q0 41 29.5 70.5t70.5 29.5q43 0 71.5 -29.5t28.5 -70.5q0 -45 -28.5 -73.5t-71.5 -28.5q-41 0 -70.5 28.5t-29.5 73.5z" />
<glyph unicode="&#xd8;" horiz-adv-x="1312" d="M68 0l153 211q-53 96 -85 212t-32 263q0 162 41 296t117 230.5t180.5 149.5t231.5 53q92 0 180 -31.5t160 -97.5l102 137h137l-163 -223q131 -205 131 -498q0 -94 -25 -218t-88.5 -236.5t-174 -190t-282.5 -77.5q-92 0 -179 30.5t-177 108.5l-86 -119h-141zM276 700 q0 -86 16.5 -173t47.5 -160l573 782q-53 59 -113.5 87t-137.5 28q-104 0 -178 -57.5t-120.5 -141.5t-67 -182.5t-20.5 -182.5zM401 260q102 -129 258 -129q90 0 162 45t122 122t78 179t28 215q0 74 -14.5 170t-57.5 185z" />
<glyph unicode="&#xd9;" horiz-adv-x="1298" d="M162 479v912h162v-902q0 -59 9 -110t32 -92q41 -72 112.5 -114t175.5 -42q178 0 267 113q33 41 51 108.5t18 157.5v881h160v-877q0 -170 -57.5 -286.5t-163.5 -178.5q-115 -70 -281 -69q-166 0 -273.5 62t-160.5 173q-29 57 -40 124t-11 140zM297 1886l111 121l344 -353 l-53 -61z" />
<glyph unicode="&#xda;" horiz-adv-x="1298" d="M162 479v912h162v-902q0 -59 9 -110t32 -92q41 -72 112.5 -114t175.5 -42q178 0 267 113q33 41 51 108.5t18 157.5v881h160v-877q0 -170 -57.5 -286.5t-163.5 -178.5q-115 -70 -281 -69q-166 0 -273.5 62t-160.5 173q-29 57 -40 124t-11 140zM551 1652l342 353l109 -119 l-402 -295z" />
<glyph unicode="&#xdb;" horiz-adv-x="1298" d="M162 479v912h162v-902q0 -59 9 -110t32 -92q41 -72 112.5 -114t175.5 -42q178 0 267 113q33 41 51 108.5t18 157.5v881h160v-877q0 -170 -57.5 -286.5t-163.5 -178.5q-115 -70 -281 -69q-166 0 -273.5 62t-160.5 173q-29 57 -40 124t-11 140zM313 1646l328 336h41 l313 -334l-53 -63l-289 227l-290 -229z" />
<glyph unicode="&#xdc;" horiz-adv-x="1298" d="M162 479v912h162v-902q0 -59 9 -110t32 -92q41 -72 112.5 -114t175.5 -42q178 0 267 113q33 41 51 108.5t18 157.5v881h160v-877q0 -170 -57.5 -286.5t-163.5 -178.5q-115 -70 -281 -69q-166 0 -273.5 62t-160.5 173q-29 57 -40 124t-11 140zM321 1698q0 41 30.5 70.5 t71.5 29.5t72 -29.5t31 -70.5q0 -45 -31 -73.5t-72 -28.5t-71.5 28.5t-30.5 73.5zM770 1698q0 41 29.5 70.5t70.5 29.5q43 0 71.5 -29.5t28.5 -70.5q0 -45 -28.5 -73.5t-71.5 -28.5q-41 0 -70.5 28.5t-29.5 73.5z" />
<glyph unicode="&#xdf;" horiz-adv-x="1191" d="M162 0v1010q0 16 3 48t10 67.5t18.5 71.5t29.5 60q137 213 387 213q82 0 155 -22.5t128 -65.5t88 -107.5t33 -150.5q0 -51 -22.5 -104t-64.5 -103.5t-102.5 -95.5t-136.5 -80q94 -43 176 -86t135 -84t92 -99t39 -144q0 -92 -43 -163t-124 -124q-43 -29 -102.5 -45 t-125.5 -16q-121 0 -205 43l15 137q45 -18 96 -28.5t94 -10.5q115 0 173.5 58.5t58.5 135.5q0 53 -23.5 91t-62.5 68t-85 53.5t-94 45.5q-20 10 -47.5 22.5t-52.5 25.5q-31 12 -61 26v172q16 6 40.5 18.5t52.5 24.5t51.5 25.5t35.5 21.5q51 37 89 89.5t38 123.5 q0 92 -68.5 147.5t-173.5 55.5q-66 0 -115 -23.5t-90 -62.5q-31 -33 -47 -78t-23 -90t-8 -80t-1 -45v-946h-160z" />
<glyph unicode="&#xe0;" horiz-adv-x="1175" d="M94 496q0 125 38 229t105.5 179t159.5 117t201 42q61 0 140 -17.5t149 -72.5l47 69h90v-854l14 -188h-123l-30 178q-14 -20 -44 -53t-76 -64.5t-108.5 -55t-140.5 -23.5q-92 0 -170 36.5t-133 104t-87 163t-32 210.5zM262 506q0 -61 14.5 -129t48 -125t90 -94t138.5 -37 q51 0 107.5 26.5t103.5 79t77.5 129t30.5 176.5q0 154 -15 225.5t-32 88.5q-47 41 -105 59.5t-116 18.5q-76 0 -139.5 -31t-108.5 -86t-69.5 -132t-24.5 -169zM313 1575l111 121l344 -353l-53 -61z" />
<glyph unicode="&#xe1;" horiz-adv-x="1175" d="M94 496q0 125 38 229t105.5 179t159.5 117t201 42q61 0 140 -17.5t149 -72.5l47 69h90v-854l14 -188h-123l-30 178q-14 -20 -44 -53t-76 -64.5t-108.5 -55t-140.5 -23.5q-92 0 -170 36.5t-133 104t-87 163t-32 210.5zM262 506q0 -61 14.5 -129t48 -125t90 -94t138.5 -37 q51 0 107.5 26.5t103.5 79t77.5 129t30.5 176.5q0 154 -15 225.5t-32 88.5q-47 41 -105 59.5t-116 18.5q-76 0 -139.5 -31t-108.5 -86t-69.5 -132t-24.5 -169zM430 1343l342 353l109 -119l-402 -295z" />
<glyph unicode="&#xe2;" horiz-adv-x="1175" d="M94 496q0 125 38 229t105.5 179t159.5 117t201 42q61 0 140 -17.5t149 -72.5l47 69h90v-854l14 -188h-123l-30 178q-14 -20 -44 -53t-76 -64.5t-108.5 -55t-140.5 -23.5q-92 0 -170 36.5t-133 104t-87 163t-32 210.5zM262 506q0 -61 14.5 -129t48 -125t90 -94t138.5 -37 q51 0 107.5 26.5t103.5 79t77.5 129t30.5 176.5q0 154 -15 225.5t-32 88.5q-47 41 -105 59.5t-116 18.5q-76 0 -139.5 -31t-108.5 -86t-69.5 -132t-24.5 -169zM278 1337l328 336h41l313 -334l-53 -63l-289 227l-290 -229z" />
<glyph unicode="&#xe3;" horiz-adv-x="1175" d="M94 496q0 125 38 229t105.5 179t159.5 117t201 42q61 0 140 -17.5t149 -72.5l47 69h90v-854l14 -188h-123l-30 178q-14 -20 -44 -53t-76 -64.5t-108.5 -55t-140.5 -23.5q-92 0 -170 36.5t-133 104t-87 163t-32 210.5zM170 1370q14 47 41 86t60.5 67.5t71.5 45t71 16.5 q41 0 83 -22.5t86 -48t87 -48t86 -22.5q31 0 56.5 16.5t46 39t35.5 44t22 29.5l55 -33q-25 -68 -60 -121q-33 -51 -78.5 -87t-111.5 -36q-49 0 -90 22.5t-82 50.5t-85 50.5t-99 22.5q-27 0 -51.5 -14.5t-43 -34t-31 -37t-16.5 -23.5zM262 506q0 -61 14.5 -129t48 -125 t90 -94t138.5 -37q51 0 107.5 26.5t103.5 79t77.5 129t30.5 176.5q0 154 -15 225.5t-32 88.5q-47 41 -105 59.5t-116 18.5q-76 0 -139.5 -31t-108.5 -86t-69.5 -132t-24.5 -169z" />
<glyph unicode="&#xe4;" horiz-adv-x="1175" d="M94 496q0 125 38 229t105.5 179t159.5 117t201 42q61 0 140 -17.5t149 -72.5l47 69h90v-854l14 -188h-123l-30 178q-14 -20 -44 -53t-76 -64.5t-108.5 -55t-140.5 -23.5q-92 0 -170 36.5t-133 104t-87 163t-32 210.5zM262 506q0 -61 14.5 -129t48 -125t90 -94t138.5 -37 q51 0 107.5 26.5t103.5 79t77.5 129t30.5 176.5q0 154 -15 225.5t-32 88.5q-47 41 -105 59.5t-116 18.5q-76 0 -139.5 -31t-108.5 -86t-69.5 -132t-24.5 -169zM276 1397q0 41 30.5 70.5t71.5 29.5t72 -29.5t31 -70.5q0 -45 -31 -73.5t-72 -28.5t-71.5 28.5t-30.5 73.5z M725 1397q0 41 29.5 70.5t70.5 29.5q43 0 71.5 -29.5t28.5 -70.5q0 -45 -28.5 -73.5t-71.5 -28.5q-41 0 -70.5 28.5t-29.5 73.5z" />
<glyph unicode="&#xe5;" horiz-adv-x="1175" d="M94 496q0 125 38 229t105.5 179t159.5 117t201 42q61 0 140 -17.5t149 -72.5l47 69h90v-854l14 -188h-123l-30 178q-14 -20 -44 -53t-76 -64.5t-108.5 -55t-140.5 -23.5q-92 0 -170 36.5t-133 104t-87 163t-32 210.5zM262 506q0 -61 14.5 -129t48 -125t90 -94t138.5 -37 q51 0 107.5 26.5t103.5 79t77.5 129t30.5 176.5q0 154 -15 225.5t-32 88.5q-47 41 -105 59.5t-116 18.5q-76 0 -139.5 -31t-108.5 -86t-69.5 -132t-24.5 -169zM334 1475q0 57 21.5 106.5t59.5 86t88 57t105 20.5q57 0 107.5 -20.5t87.5 -57t58.5 -86t21.5 -106.5 q0 -55 -21.5 -104.5t-58.5 -86t-87 -57t-108 -20.5q-57 0 -107 20.5t-87 56t-58.5 85t-21.5 106.5zM447 1475q0 -68 48 -115t113 -47q70 0 117 47t47 115t-47 117t-117 49q-66 0 -113.5 -49t-47.5 -117z" />
<glyph unicode="&#xe6;" horiz-adv-x="1855" d="M94 496q0 125 38 229t105.5 179t159.5 117t201 42q61 0 139 -16.5t150 -73.5l47 69h90v-110q68 76 155 103.5t158 27.5q86 0 156 -23.5t125 -66.5q86 -68 125 -176.5t33 -237.5q0 -8 -1 -17.5t-3 -19.5h-750v-28q0 -68 21.5 -137.5t54.5 -110.5q47 -59 117.5 -92 t175.5 -33q84 0 156.5 28.5t129.5 61.5l52 -117q-72 -51 -165.5 -82.5t-197.5 -31.5q-78 0 -165 18t-167 88l4 -86h-123l-30 178q-12 -18 -42 -51t-76 -65.5t-109.5 -56t-141.5 -23.5q-92 0 -170 36.5t-133 104t-87 163t-32 210.5zM262 506q0 -63 15.5 -132t49 -125t89 -92 t135.5 -36q47 0 103.5 24.5t104.5 74.5t80.5 127t32.5 183q0 152 -14 224.5t-31 89.5q-47 41 -105 60.5t-116 19.5q-78 0 -141.5 -31t-108.5 -86t-69.5 -132t-24.5 -169zM1036 653h572q0 33 -2 44.5t-9 33.5q-27 92 -89 144.5t-173 52.5q-45 0 -91 -15.5t-87 -48.5 t-72.5 -85t-48.5 -126z" />
<glyph unicode="&#xe7;" horiz-adv-x="901" d="M84 504q0 145 50 262t142 192q61 49 136 77t168 28q84 0 157.5 -28.5t132.5 -78.5l-65 -110q-51 35 -111 55q-23 8 -53.5 14.5t-58.5 6.5q-147 0 -240 -117q-41 -55 -64.5 -128t-23.5 -161q0 -86 20.5 -157.5t60.5 -124t100.5 -82t139.5 -29.5q63 0 127 22.5t109 59.5 l59 -107q-59 -53 -142 -84.5t-181 -31.5q-102 0 -191.5 36.5t-150.5 112.5q-55 66 -88 159t-33 214zM246 -459l43 72q27 -12 55.5 -22.5t69.5 -10.5q66 0 95.5 35.5t29.5 76.5q0 35 -11.5 56.5t-27.5 35t-31.5 19.5t-25.5 10l53 215h100l-16 -184q55 -16 84 -63.5t29 -100.5 q0 -47 -21.5 -85t-57.5 -65.5t-83 -43t-96 -15.5q-55 0 -107.5 22.5t-81.5 47.5z" />
<glyph unicode="&#xe8;" horiz-adv-x="1099" d="M84 516q0 125 39 230.5t113 179.5q61 66 146 101.5t189 35.5q86 0 156 -23.5t125 -66.5q84 -66 125 -173.5t33 -240.5q-2 -8 -2 -17.5t-2 -19.5h-752v-33q0 -57 21.5 -127.5t58.5 -117.5q47 -59 117.5 -91t173.5 -32q84 0 157.5 28.5t128.5 61.5l52 -117 q-72 -51 -165 -82.5t-198 -31.5q-254 0 -385 143t-131 393zM266 653h576q0 33 -3 48.5t-8 31.5q-23 92 -93 143.5t-169 51.5q-45 0 -91 -14.5t-87 -47t-73.5 -85t-51.5 -128.5zM291 1575l111 121l344 -353l-53 -61z" />
<glyph unicode="&#xe9;" horiz-adv-x="1099" d="M84 516q0 125 39 230.5t113 179.5q61 66 146 101.5t189 35.5q86 0 156 -23.5t125 -66.5q84 -66 125 -173.5t33 -240.5q-2 -8 -2 -17.5t-2 -19.5h-752v-33q0 -57 21.5 -127.5t58.5 -117.5q47 -59 117.5 -91t173.5 -32q84 0 157.5 28.5t128.5 61.5l52 -117 q-72 -51 -165 -82.5t-198 -31.5q-254 0 -385 143t-131 393zM266 653h576q0 33 -3 48.5t-8 31.5q-23 92 -93 143.5t-169 51.5q-45 0 -91 -14.5t-87 -47t-73.5 -85t-51.5 -128.5zM436 1343l342 353l109 -119l-402 -295z" />
<glyph unicode="&#xea;" horiz-adv-x="1099" d="M84 516q0 125 39 230.5t113 179.5q61 66 146 101.5t189 35.5q86 0 156 -23.5t125 -66.5q84 -66 125 -173.5t33 -240.5q-2 -8 -2 -17.5t-2 -19.5h-752v-33q0 -57 21.5 -127.5t58.5 -117.5q47 -59 117.5 -91t173.5 -32q84 0 157.5 28.5t128.5 61.5l52 -117 q-72 -51 -165 -82.5t-198 -31.5q-254 0 -385 143t-131 393zM231 1337l328 336h41l313 -334l-53 -63l-289 227l-290 -229zM266 653h576q0 33 -3 48.5t-8 31.5q-23 92 -93 143.5t-169 51.5q-45 0 -91 -14.5t-87 -47t-73.5 -85t-51.5 -128.5z" />
<glyph unicode="&#xeb;" horiz-adv-x="1099" d="M84 516q0 125 39 230.5t113 179.5q61 66 146 101.5t189 35.5q86 0 156 -23.5t125 -66.5q84 -66 125 -173.5t33 -240.5q-2 -8 -2 -17.5t-2 -19.5h-752v-33q0 -57 21.5 -127.5t58.5 -117.5q47 -59 117.5 -91t173.5 -32q84 0 157.5 28.5t128.5 61.5l52 -117 q-72 -51 -165 -82.5t-198 -31.5q-254 0 -385 143t-131 393zM260 1397q0 41 30.5 70.5t71.5 29.5t72 -29.5t31 -70.5q0 -45 -31 -73.5t-72 -28.5t-71.5 28.5t-30.5 73.5zM266 653h576q0 33 -3 48.5t-8 31.5q-23 92 -93 143.5t-169 51.5q-45 0 -91 -14.5t-87 -47t-73.5 -85 t-51.5 -128.5zM709 1397q0 41 29.5 70.5t70.5 29.5q43 0 71.5 -29.5t28.5 -70.5q0 -45 -28.5 -73.5t-71.5 -28.5q-41 0 -70.5 28.5t-29.5 73.5z" />
<glyph unicode="&#xec;" horiz-adv-x="471" d="M-53 1518l111 121l344 -353l-53 -61zM162 0v1042h160v-1042h-160z" />
<glyph unicode="&#xed;" horiz-adv-x="471" d="M131 1261l342 353l109 -119l-402 -295zM162 0v1042h160v-1042h-160z" />
<glyph unicode="&#xee;" horiz-adv-x="471" d="M-84 1337l328 336h41l313 -334l-53 -63l-289 227l-290 -229zM162 0v1042h160v-1042h-160z" />
<glyph unicode="&#xef;" horiz-adv-x="471" d="M-68 1409q0 41 30.5 70.5t71.5 29.5t72 -29.5t31 -70.5q0 -45 -31 -73.5t-72 -28.5t-71.5 28.5t-30.5 73.5zM162 0v1042h160v-1042h-160zM381 1409q0 41 29.5 70.5t70.5 29.5q43 0 71.5 -29.5t28.5 -70.5q0 -45 -28.5 -73.5t-71.5 -28.5q-41 0 -70.5 28.5t-29.5 73.5z " />
<glyph unicode="&#xf1;" d="M162 0v1042h114l31 -178q18 29 49 64t77 64.5t104.5 50t132.5 20.5q123 0 207 -55q61 -39 109 -128t48 -227v-653h-160v616q0 150 -61 227t-178 77q-53 0 -108.5 -25t-101.5 -72t-74.5 -118.5t-28.5 -167.5v-537h-160zM194 1370q14 47 41 86t60.5 67.5t71.5 45t71 16.5 q41 0 83 -22.5t86 -48t87 -48t86 -22.5q31 0 56.5 16.5t46 39t35.5 44t22 29.5l55 -33q-25 -68 -60 -121q-33 -51 -78.5 -87t-111.5 -36q-49 0 -90 22.5t-82 50.5t-85 50.5t-99 22.5q-27 0 -51.5 -14.5t-43 -34t-31 -37t-16.5 -23.5z" />
<glyph unicode="&#xf2;" horiz-adv-x="1140" d="M82 516q0 115 37 214t102.5 173t158.5 117t204 43q104 0 192 -37t152.5 -105.5t100.5 -168t36 -222.5q0 -88 -29.5 -185t-92 -179t-157 -134t-223.5 -52q-104 0 -192 36.5t-152.5 106.5t-100.5 169t-36 224zM252 526q0 -63 16.5 -133.5t54 -131t99 -99.5t153.5 -39 q98 0 161 46t98.5 109.5t50 132t14.5 113.5q0 82 -20.5 155t-61.5 126t-101.5 85t-140.5 32q-92 0 -154.5 -43t-100 -104.5t-53 -130.5t-15.5 -118zM254 1575l111 121l344 -353l-53 -61z" />
<glyph unicode="&#xf3;" horiz-adv-x="1140" d="M82 516q0 115 37 214t102.5 173t158.5 117t204 43q104 0 192 -37t152.5 -105.5t100.5 -168t36 -222.5q0 -88 -29.5 -185t-92 -179t-157 -134t-223.5 -52q-104 0 -192 36.5t-152.5 106.5t-100.5 169t-36 224zM252 526q0 -63 16.5 -133.5t54 -131t99 -99.5t153.5 -39 q98 0 161 46t98.5 109.5t50 132t14.5 113.5q0 82 -20.5 155t-61.5 126t-101.5 85t-140.5 32q-92 0 -154.5 -43t-100 -104.5t-53 -130.5t-15.5 -118zM475 1343l342 353l109 -119l-402 -295z" />
<glyph unicode="&#xf4;" horiz-adv-x="1140" d="M82 516q0 115 37 214t102.5 173t158.5 117t204 43q104 0 192 -37t152.5 -105.5t100.5 -168t36 -222.5q0 -88 -29.5 -185t-92 -179t-157 -134t-223.5 -52q-104 0 -192 36.5t-152.5 106.5t-100.5 169t-36 224zM237 1337l328 336h41l313 -334l-53 -63l-289 227l-290 -229z M252 526q0 -63 16.5 -133.5t54 -131t99 -99.5t153.5 -39q98 0 161 46t98.5 109.5t50 132t14.5 113.5q0 82 -20.5 155t-61.5 126t-101.5 85t-140.5 32q-92 0 -154.5 -43t-100 -104.5t-53 -130.5t-15.5 -118z" />
<glyph unicode="&#xf5;" horiz-adv-x="1140" d="M82 516q0 115 37 214t102.5 173t158.5 117t204 43q104 0 192 -37t152.5 -105.5t100.5 -168t36 -222.5q0 -88 -29.5 -185t-92 -179t-157 -134t-223.5 -52q-104 0 -192 36.5t-152.5 106.5t-100.5 169t-36 224zM182 1370q14 47 41 86t60.5 67.5t71.5 45t71 16.5 q41 0 83 -22.5t86 -48t87 -48t86 -22.5q31 0 56.5 16.5t46 39t35.5 44t22 29.5l55 -33q-25 -68 -60 -121q-33 -51 -78.5 -87t-111.5 -36q-49 0 -90 22.5t-82 50.5t-85 50.5t-99 22.5q-27 0 -51.5 -14.5t-43 -34t-31 -37t-16.5 -23.5zM252 526q0 -63 16.5 -133.5t54 -131 t99 -99.5t153.5 -39q98 0 161 46t98.5 109.5t50 132t14.5 113.5q0 82 -20.5 155t-61.5 126t-101.5 85t-140.5 32q-92 0 -154.5 -43t-100 -104.5t-53 -130.5t-15.5 -118z" />
<glyph unicode="&#xf6;" horiz-adv-x="1140" d="M82 516q0 115 37 214t102.5 173t158.5 117t204 43q104 0 192 -37t152.5 -105.5t100.5 -168t36 -222.5q0 -88 -29.5 -185t-92 -179t-157 -134t-223.5 -52q-104 0 -192 36.5t-152.5 106.5t-100.5 169t-36 224zM252 526q0 -63 16.5 -133.5t54 -131t99 -99.5t153.5 -39 q98 0 161 46t98.5 109.5t50 132t14.5 113.5q0 82 -20.5 155t-61.5 126t-101.5 85t-140.5 32q-92 0 -154.5 -43t-100 -104.5t-53 -130.5t-15.5 -118zM258 1397q0 41 30.5 70.5t71.5 29.5t72 -29.5t31 -70.5q0 -45 -31 -73.5t-72 -28.5t-71.5 28.5t-30.5 73.5zM707 1397 q0 41 29.5 70.5t70.5 29.5q43 0 71.5 -29.5t28.5 -70.5q0 -45 -28.5 -73.5t-71.5 -28.5q-41 0 -70.5 28.5t-29.5 73.5z" />
<glyph unicode="&#xf7;" horiz-adv-x="1067" d="M119 500v147h837v-147h-837zM430 152q0 45 32 76.5t77 31.5t76.5 -31.5t31.5 -76.5t-31.5 -78t-76.5 -33t-77 32.5t-32 78.5zM430 993q0 45 32 77t77 32t76.5 -32t31.5 -77q0 -47 -31.5 -77.5t-76.5 -30.5t-77 30.5t-32 77.5z" />
<glyph unicode="&#xf8;" horiz-adv-x="1140" d="M82 516q0 115 37 214t102.5 173t158.5 117t204 43q45 0 94 -7t96 -30l33 76h117l-58 -127q96 -72 147.5 -186t51.5 -259q0 -88 -29.5 -185t-92 -179t-157 -134t-223.5 -52q-33 0 -69.5 4t-77.5 16l-35 -74h-117l55 117q-117 66 -177 189.5t-60 283.5zM252 526 q0 -37 6 -82t21.5 -91t41 -88t64.5 -75l328 701q-35 16 -71 23.5t-67 7.5q-92 0 -154.5 -43t-100 -104.5t-53 -130.5t-15.5 -118zM479 137q29 -10 53.5 -12t42.5 -2q98 0 161 46t98.5 109.5t50 132t14.5 113.5q0 76 -22.5 158t-79.5 141z" />
<glyph unicode="&#xf9;" d="M150 389v653h161v-616q0 -150 60.5 -227.5t177.5 -77.5q53 0 108.5 24.5t101.5 72.5t74.5 121t28.5 167v536h160v-1042h-115l-30 176q-14 -23 -36 -47.5t-44 -44.5q-53 -47 -125 -77t-158 -30q-59 0 -112.5 13.5t-94.5 42.5q-66 41 -111.5 126t-45.5 230zM227 1575 l111 121l344 -353l-53 -61z" />
<glyph unicode="&#xfa;" d="M150 389v653h161v-616q0 -150 60.5 -227.5t177.5 -77.5q53 0 108.5 24.5t101.5 72.5t74.5 121t28.5 167v536h160v-1042h-115l-30 176q-14 -23 -36 -47.5t-44 -44.5q-53 -47 -125 -77t-158 -30q-59 0 -112.5 13.5t-94.5 42.5q-66 41 -111.5 126t-45.5 230zM483 1343 l342 353l109 -119l-402 -295z" />
<glyph unicode="&#xfb;" d="M150 389v653h161v-616q0 -150 60.5 -227.5t177.5 -77.5q53 0 108.5 24.5t101.5 72.5t74.5 121t28.5 167v536h160v-1042h-115l-30 176q-14 -23 -36 -47.5t-44 -44.5q-53 -47 -125 -77t-158 -30q-59 0 -112.5 13.5t-94.5 42.5q-66 41 -111.5 126t-45.5 230zM235 1337 l328 336h41l313 -334l-53 -63l-289 227l-290 -229z" />
<glyph unicode="&#xfc;" d="M150 389v653h161v-616q0 -150 60.5 -227.5t177.5 -77.5q53 0 108.5 24.5t101.5 72.5t74.5 121t28.5 167v536h160v-1042h-115l-30 176q-14 -23 -36 -47.5t-44 -44.5q-53 -47 -125 -77t-158 -30q-59 0 -112.5 13.5t-94.5 42.5q-66 41 -111.5 126t-45.5 230zM260 1397 q0 41 30.5 70.5t71.5 29.5t72 -29.5t31 -70.5q0 -45 -31 -73.5t-72 -28.5t-71.5 28.5t-30.5 73.5zM709 1397q0 41 29.5 70.5t70.5 29.5q43 0 71.5 -29.5t28.5 -70.5q0 -45 -28.5 -73.5t-71.5 -28.5q-41 0 -70.5 28.5t-29.5 73.5z" />
<glyph unicode="&#xff;" horiz-adv-x="950" d="M18 1042h181l153 -409q16 -41 38 -101.5t44 -117.5q23 -68 49 -140q37 98 70 187q20 51 32.5 85t26 67.5t23.5 62.5t18 49l117 317h174l-612 -1554h-166l235 578zM151 1397q0 41 30.5 70.5t71.5 29.5t72 -29.5t31 -70.5q0 -45 -31 -73.5t-72 -28.5t-71.5 28.5t-30.5 73.5 zM600 1397q0 41 29.5 70.5t70.5 29.5q43 0 71.5 -29.5t28.5 -70.5q0 -45 -28.5 -73.5t-71.5 -28.5q-41 0 -70.5 28.5t-29.5 73.5z" />
<glyph unicode="&#x152;" horiz-adv-x="1687" d="M104 686q0 162 41 292t117 222t180.5 141.5t231.5 49.5h370h517v-150h-514v-426h501v-147h-501v-516h514v-152h-553h-357q-117 0 -216 40t-173 125t-116 214t-42 307zM276 700q0 -117 25 -217t74 -175t120.5 -116.5t163.5 -41.5q94 0 141.5 7t66 36.5t18.5 91v172.5v475 q0 117 -4 180.5t-25.5 92t-67 32.5t-126.5 4q-104 0 -178 -53t-120.5 -133t-67 -175.5t-20.5 -179.5z" />
<glyph unicode="&#x153;" horiz-adv-x="1898" d="M82 516q0 115 37 214t102.5 173t158.5 117t204 43q123 0 225 -51t174 -162q18 27 34.5 47.5t24.5 28.5q61 66 146.5 101.5t189.5 35.5q86 0 156 -23.5t125 -66.5q84 -66 125 -174.5t33 -239.5q-2 -8 -2 -17.5t-3 -19.5h-747v-28q0 -72 21.5 -137.5t54.5 -108.5 q41 -59 114.5 -92t176.5 -33q80 0 154.5 26.5t131.5 61.5l51 -117q-72 -51 -165 -82.5t-197 -31.5q-141 0 -257 52t-183 167q-72 -104 -173.5 -161.5t-230.5 -57.5q-104 0 -192 36.5t-152.5 106.5t-100.5 169t-36 224zM256 526q0 -63 15.5 -133.5t52 -130t98 -98.5 t153.5 -39q98 0 160 45t97.5 108.5t49 132t13.5 113.5q0 82 -20.5 154t-60.5 125t-99.5 84t-139.5 31q-92 0 -153.5 -42t-98 -103.5t-52 -129.5t-15.5 -117zM1077 653h565q0 33 -3 49.5t-7 28.5q-16 80 -80.5 136.5t-175.5 56.5q-45 0 -91 -14.5t-86 -46.5t-71.5 -83 t-50.5 -127z" />
<glyph unicode="&#x178;" horiz-adv-x="1009" d="M-20 1391h182l160 -322q31 -63 64.5 -132t62.5 -128q33 -68 63 -131q31 66 66 133q31 63 64.5 133t68.5 139l155 308h178l-454 -863v-528h-162v528zM176 1698q0 41 30.5 70.5t71.5 29.5t72 -29.5t31 -70.5q0 -45 -31 -73.5t-72 -28.5t-71.5 28.5t-30.5 73.5zM625 1698 q0 41 29.5 70.5t70.5 29.5q43 0 71.5 -29.5t28.5 -70.5q0 -45 -28.5 -73.5t-71.5 -28.5q-41 0 -70.5 28.5t-29.5 73.5z" />
<glyph unicode="&#x2c6;" horiz-adv-x="1136" d="M233 1337l328 336h41l313 -334l-53 -63l-289 227l-290 -229z" />
<glyph unicode="&#x2dc;" horiz-adv-x="1206" d="M217 1370q14 47 41 86t60.5 67.5t71.5 45t71 16.5q41 0 83 -22.5t86 -48t87 -48t86 -22.5q31 0 56.5 16.5t46 39t35.5 44t22 29.5l55 -33q-25 -68 -60 -121q-33 -51 -78.5 -87t-111.5 -36q-49 0 -90 22.5t-82 50.5t-85 50.5t-99 22.5q-27 0 -51.5 -14.5t-43 -34t-31 -37 t-16.5 -23.5z" />
<glyph unicode="&#x2000;" horiz-adv-x="1007" />
<glyph unicode="&#x2001;" horiz-adv-x="2015" />
<glyph unicode="&#x2002;" horiz-adv-x="1007" />
<glyph unicode="&#x2003;" horiz-adv-x="2015" />
<glyph unicode="&#x2004;" horiz-adv-x="671" />
<glyph unicode="&#x2005;" horiz-adv-x="503" />
<glyph unicode="&#x2006;" horiz-adv-x="335" />
<glyph unicode="&#x2007;" horiz-adv-x="335" />
<glyph unicode="&#x2008;" horiz-adv-x="251" />
<glyph unicode="&#x2009;" horiz-adv-x="403" />
<glyph unicode="&#x200a;" horiz-adv-x="111" />
<glyph unicode="&#x2010;" horiz-adv-x="788" d="M121 494v143h557v-143h-557z" />
<glyph unicode="&#x2011;" horiz-adv-x="788" d="M121 494v143h557v-143h-557z" />
<glyph unicode="&#x2012;" horiz-adv-x="788" d="M121 494v143h557v-143h-557z" />
<glyph unicode="&#x2013;" horiz-adv-x="970" d="M-49 532v150h1081v-150h-1081z" />
<glyph unicode="&#x2014;" horiz-adv-x="1751" d="M-49 532v150h1861v-150h-1861z" />
<glyph unicode="&#x2018;" horiz-adv-x="571" d="M215 1192q0 45 18.5 96t50 103.5t75.5 101.5t94 90l49 -53q-57 -63 -89 -126t-55 -134q47 -31 66.5 -78t19.5 -90q0 -33 -21.5 -65.5t-66.5 -32.5q-16 0 -40.5 7t-47 28.5t-38 58.5t-15.5 94z" />
<glyph unicode="&#x2019;" horiz-adv-x="571" d="M145 1036q59 63 91 125t55 133q-47 31 -66.5 78t-19.5 90q0 35 21.5 68t66.5 33q16 0 39.5 -8.5t46 -29t39 -57.5t16.5 -96q0 -45 -18.5 -95t-50 -102.5t-75.5 -101.5t-93 -90z" />
<glyph unicode="&#x201a;" horiz-adv-x="677" d="M145 -328q57 63 89 125t55 133q-47 31 -66.5 78t-19.5 92q0 33 22.5 66t65.5 33q16 0 40.5 -8.5t47 -29t38 -57.5t15.5 -96q0 -45 -18.5 -95t-50 -102.5t-74.5 -101.5t-92 -90z" />
<glyph unicode="&#x201c;" horiz-adv-x="1136" d="M215 1192q0 45 18.5 96t50 103.5t75.5 101.5t94 90l49 -53q-57 -63 -89 -126t-55 -134q47 -31 66.5 -78t19.5 -90q0 -33 -21.5 -65.5t-66.5 -32.5q-16 0 -40.5 7t-47 28.5t-38 58.5t-15.5 94zM754 1192q0 45 18.5 96t50 103.5t74.5 101.5t92 90l51 -53 q-57 -63 -88.5 -126t-54.5 -134q47 -31 66.5 -78t19.5 -90q0 -33 -21.5 -65.5t-66.5 -32.5q-16 0 -40 7t-46.5 28.5t-38.5 58.5t-16 94z" />
<glyph unicode="&#x201d;" horiz-adv-x="1136" d="M147 1036q59 63 90 126t54 134q-47 31 -66.5 78t-19.5 90q0 33 22.5 66t65.5 33q16 0 40.5 -8.5t47 -29t38 -57.5t15.5 -94q0 -45 -18.5 -96t-50 -103.5t-74.5 -101.5t-92 -90zM686 1036q59 63 91 126t54 134q-47 31 -67.5 78t-20.5 90q0 33 22.5 66t68.5 33 q16 0 39.5 -8.5t46 -29t38 -57.5t15.5 -94q0 -45 -18.5 -96t-50.5 -103.5t-75 -101.5t-92 -90z" />
<glyph unicode="&#x201e;" horiz-adv-x="1136" d="M145 -328q57 63 89 125t55 133q-47 31 -66.5 78t-19.5 92q0 33 22.5 66t65.5 33q16 0 40.5 -8.5t47 -29t38 -57.5t15.5 -96q0 -45 -18.5 -95t-50 -102.5t-74.5 -101.5t-92 -90zM688 -328q59 63 91 125t55 133q-47 31 -66.5 78t-19.5 92q0 33 21.5 66t66.5 33 q16 0 39.5 -8.5t46 -29t38 -57.5t15.5 -96q0 -45 -18.5 -95t-50.5 -102.5t-75 -101.5t-92 -90z" />
<glyph unicode="&#x2022;" horiz-adv-x="1013" d="M166 645q0 72 26.5 133.5t72.5 108.5t108.5 73.5t132.5 26.5q72 0 134 -26.5t109.5 -73.5t74 -108.5t26.5 -133.5q0 -70 -26.5 -132t-74 -109.5t-109.5 -74t-134 -26.5q-70 0 -132.5 26.5t-108.5 74t-72.5 109.5t-26.5 132z" />
<glyph unicode="&#x2026;" horiz-adv-x="1988" d="M133 102q0 51 37 88t88 37q53 0 90 -37t37 -88t-37 -86.5t-90 -35.5q-51 0 -88 35.5t-37 86.5zM846 102q0 51 36 88t87 37q53 0 90 -37t37 -88t-37 -86.5t-90 -35.5q-49 0 -86 35.5t-37 86.5zM1559 102q0 51 34.5 88t87.5 37q51 0 87 -37t36 -88t-35.5 -86.5t-87.5 -35.5 q-53 0 -87.5 35.5t-34.5 86.5z" />
<glyph unicode="&#x202f;" horiz-adv-x="403" />
<glyph unicode="&#x2039;" horiz-adv-x="888" d="M127 596l573 557l78 -55l-405 -502l405 -500l-76 -55z" />
<glyph unicode="&#x203a;" horiz-adv-x="888" d="M125 94l405 500l-405 502l78 55l573 -555l-577 -557z" />
<glyph unicode="&#x205f;" horiz-adv-x="503" />
<glyph unicode="&#x2122;" horiz-adv-x="1742" d="M104 1257v119h607v-119h-240v-722h-127v722h-240zM758 535l61 841h131l176 -432q4 -10 11.5 -28.5t14.5 -39t14.5 -38t11.5 -27.5h6q4 10 10 28.5t14.5 39t15.5 40t11 27.5l174 430h131l62 -841h-125l-50 589h-4q-10 -29 -22 -63.5t-21 -52.5l-166 -410h-77l-154 387 q-14 31 -28.5 69t-26.5 66h-6l-39 -585h-125z" />
<glyph unicode="&#x25fc;" horiz-adv-x="1044" d="M0 0v1044h1044v-1044h-1044z" />
<glyph unicode="&#xfb01;" horiz-adv-x="1302" d="M55 897v145h242v86q0 70 16.5 127.5t44 103.5t61.5 81t66 55q55 35 135 58.5t168 23.5q98 0 171 -11.5t118 -27.5l-20 -131q-41 10 -106.5 19.5t-131.5 9.5q-68 0 -133 -15.5t-115.5 -51.5t-82 -95.5t-31.5 -149.5v-82h696v-1042h-160v897h-536v-897h-160v897h-242z" />
<glyph unicode="&#xfb02;" horiz-adv-x="1310" d="M53 899v143h242v119q0 117 33.5 201t95.5 137q41 35 104.5 52.5t139.5 17.5h493v-1569h-160v1432h-319q-106 0 -165.5 -61.5t-59.5 -213.5v-115h315v-143h-315v-899h-162v899h-242z" />
</font>
</defs>
</svg>
