<?xml version="1.0" standalone="no"?>
<!DOCTYPE svg PUBLIC "-//W3C//DTD SVG 1.1//EN" "http://www.w3.org/Graphics/SVG/1.1/DTD/svg11.dtd" >
<svg xmlns="http://www.w3.org/2000/svg" xmlns:xlink="http://www.w3.org/1999/xlink" version="1.1">
<metadata></metadata>
<defs>
<font id="malcomregularregular" horiz-adv-x="573" >
<font-face units-per-em="1000" ascent="800" descent="-200" />
<missing-glyph horiz-adv-x="227" />
<glyph unicode=" "  horiz-adv-x="227" />
<glyph unicode="&#x09;" horiz-adv-x="227" />
<glyph unicode="&#xa0;" horiz-adv-x="227" />
<glyph unicode="!" horiz-adv-x="324" d="M187 195h-71l-28 547h126zM217 53q0 -27 -19 -46.5t-47 -19.5t-47.5 19.5t-19.5 46.5t19.5 46.5t47.5 19.5t47 -19.5t19 -46.5z" />
<glyph unicode="&#x22;" horiz-adv-x="413" d="M331 477h-55l-30 281h115zM136 477h-55l-29 281h114z" />
<glyph unicode="#" horiz-adv-x="682" d="M504 442l-10 -148h127v-88h-130l-10 -151h-95l10 151h-128l-10 -151h-94l10 151h-128v88h131l10 148h-127v88h131l9 141h93l-9 -141h129l9 141h94l-9 -141h128v-88h-131zM281 442l-10 -148h129l10 148h-129z" />
<glyph unicode="$" horiz-adv-x="530" d="M481 186q0 -35 -12.5 -65.5t-35 -55t-54.5 -42t-70 -26.5v-120h-89v114q-43 2 -78.5 11.5t-71.5 28.5l10 92q38 -18 81 -29.5t82 -11.5q25 0 48 5.5t41 17.5t29 30t11 43q0 32 -23.5 50.5t-59 31.5t-77 25.5t-77 34t-59 56t-23.5 91.5q0 35 13.5 65t37 53t55.5 39t70 22 v105h89v-103q36 -4 67.5 -14.5t62.5 -27.5l-19 -84q-31 15 -68.5 26.5t-74.5 11.5q-33 0 -56.5 -7.5t-38.5 -20t-22.5 -28t-7.5 -31.5q0 -31 23.5 -50t59.5 -33.5t77 -28.5t77 -35.5t59.5 -54.5t23.5 -85z" />
<glyph unicode="%" horiz-adv-x="851" d="M361 505q0 -47 -16.5 -84t-43.5 -62q-22 -20 -49 -30.5t-57 -10.5q-33 0 -62 12.5t-50.5 36t-34 56.5t-12.5 75t13.5 76t36 58.5t52 38t62.5 13.5q38 0 70.5 -15.5t55.5 -44.5q17 -23 26 -52.5t9 -66.5zM242 -12l-94 24l454 671l94 -24zM809 174q0 -47 -16.5 -84 t-43.5 -62q-44 -41 -105 -41q-34 0 -63 12.5t-50.5 35.5t-34 56.5t-12.5 75.5t13.5 76t36 58.5t52.5 38t63 13.5q38 0 70 -15.5t55 -45.5q17 -23 26 -52.5t9 -65.5zM269 503q0 39 -15 63q-19 31 -56 31q-34 0 -53 -34q-16 -26 -16 -61q0 -44 17 -70q18 -27 51 -27 q20 0 35.5 12t25.5 32q11 24 11 54zM717 171q0 40 -15 64q-19 31 -55 31q-17 0 -31 -9t-24 -25q-15 -24 -15 -61q0 -44 18 -70q19 -28 51 -28q20 0 35.5 12t24.5 33q11 24 11 53z" />
<glyph unicode="&#x26;" horiz-adv-x="795" d="M688 -9q-65 32 -98 54.5t-52 39.5q-32 -26 -75 -47q-39 -19 -90 -33t-118 -14t-106.5 22.5t-60 54t-26.5 64.5t-6 54t3.5 43.5t18 49t42 57.5t75.5 68q-26 27 -46 57q-19 27 -33 59.5t-14 67.5t13.5 63.5t37 48t55.5 30t69 10.5q21 0 49.5 -4.5t53.5 -19.5t42.5 -42.5 t17.5 -72.5q0 -39 -13.5 -69.5t-32 -53.5t-38 -40t-32.5 -29q38 -40 76 -78q22 -22 37.5 -36.5t32.5 -29.5t33.5 -29t31.5 -25q20 33 36 72q15 35 25.5 77t10.5 90h99q-6 -50 -14 -91.5t-20 -76.5t-28 -66.5t-37 -61.5q17 -14 37 -28q19 -12 42.5 -26t52.5 -26zM345 576 q0 42 -22.5 59.5t-50.5 17.5q-29 0 -52.5 -15.5t-23.5 -55.5q0 -20 10.5 -41t24.5 -39q15 -20 34 -40q10 7 23.5 18t26 25.5t21.5 32t9 38.5zM468 139q-38 32 -77 67q-36 32 -74.5 68t-74.5 73q-12 -10 -26.5 -24t-26.5 -32t-20.5 -40.5t-8.5 -50.5q0 -56 27.5 -88.5 t81.5 -32.5q35 0 64.5 6t54.5 15t44.5 19.5t35.5 19.5z" />
<glyph unicode="'" horiz-adv-x="218" d="M136 477h-55l-29 281h114z" />
<glyph unicode="(" horiz-adv-x="325" d="M272 -171q-29 33 -56 66t-51 68q-51 78 -80.5 162t-29.5 183t30 184t80 162q24 36 51.5 69.5t56.5 66.5l69 -35q-38 -46 -74 -97t-62 -110q-23 -53 -37 -112t-14 -125q0 -96 25.5 -173.5t66.5 -143.5q22 -35 46 -67t50 -63z" />
<glyph unicode=")" horiz-adv-x="325" d="M274 308q0 -99 -29.5 -183t-80.5 -162q-24 -35 -51 -68t-56 -66l-71 35q26 31 50 63t46 67q41 66 66.5 143.5t25.5 173.5q0 66 -14 125t-37 112q-26 59 -62 110t-74 97l69 35q29 -33 56.5 -66.5t51.5 -69.5q50 -77 80 -162t30 -184z" />
<glyph unicode="*" horiz-adv-x="528" d="M324 499l95 -161l-38 -28l-124 140l-140 -130l-34 42l113 136l-168 79l24 50l171 -57l12 184h56l11 -184l172 57l23 -50z" />
<glyph unicode="+" horiz-adv-x="622" d="M359 232v-221h-98v221h-216v93h216v221h98v-221h218v-93h-218z" />
<glyph unicode="," horiz-adv-x="344" d="M220 17q0 -24 -10.5 -49.5t-28 -50t-40.5 -48t-49 -44.5l-30 36q31 30 46.5 57.5t23.5 56.5q-18 12 -28.5 36.5t-10.5 47.5q0 20 14 39.5t40 19.5q9 0 21.5 -4t24 -15t19.5 -30.5t8 -51.5z" />
<glyph unicode="-" horiz-adv-x="395" d="M55 229v92h284v-92h-284z" />
<glyph unicode="." horiz-adv-x="288" d="M204 61q0 -29 -21 -50t-50 -21t-50.5 21t-21.5 50t21.5 50.5t50.5 21.5t50 -21.5t21 -50.5z" />
<glyph unicode="/" horiz-adv-x="439" d="M115 0h-97l310 671h96z" />
<glyph unicode="0" horiz-adv-x="623" d="M572 265q0 -65 -20.5 -117t-56.5 -88t-84.5 -55.5t-104.5 -19.5q-54 0 -100.5 16t-81 49.5t-54 84.5t-19.5 120q0 64 21 114.5t57 86t83.5 54t101.5 18.5q65 0 113.5 -20.5t80.5 -55.5t48 -83t16 -104zM471 259q0 39 -10.5 72.5t-31 58t-50.5 38.5t-70 14q-33 0 -62 -13 t-50 -37t-33 -58.5t-12 -76.5q0 -39 10 -73t30 -59t50.5 -39t71.5 -14q33 0 61.5 13t50 37.5t33.5 59t12 77.5z" />
<glyph unicode="1" horiz-adv-x="371" d="M98 0v73l55 3v338l-92 -20l-16 72l132 58h79v-448l54 -3v-73h-212z" />
<glyph unicode="2" horiz-adv-x="492" d="M53 0v79l134 113q30 25 53 45.5t39 39t24 37.5t8 41q0 40 -25.5 66t-76.5 26q-25 0 -46.5 -9t-37.5 -19q-19 -13 -34 -29l-48 60q18 23 45 42q25 16 58.5 28.5t81.5 12.5q95 0 143 -45t48 -117q0 -57 -31.5 -104.5t-97.5 -101.5l-95 -77q20 0 39.5 0.5t46.5 1t65.5 1 t95.5 0.5v-91h-389z" />
<glyph unicode="3" horiz-adv-x="471" d="M416 36q0 -49 -17 -91.5t-49.5 -74t-80.5 -49.5t-111 -18q-24 0 -44.5 3t-35.5 7q-18 4 -33 10l21 82q16 -4 33 -7q16 -3 33 -5t34 -2q75 0 109 38.5t34 94.5q0 36 -14 59t-38 36.5t-56 19t-67 5.5h-54v83h49q30 0 60 8t54 24t38.5 39t14.5 54q0 45 -28.5 70t-78.5 25 q-23 0 -43 -7.5t-34 -15.5q-18 -11 -32 -24l-48 60q19 20 45 36q23 14 54.5 24.5t73.5 10.5q47 0 83.5 -13t61.5 -35.5t38 -52t13 -62.5q0 -55 -29.5 -97.5t-77.5 -65.5v-4q57 -14 89.5 -58.5t32.5 -106.5z" />
<glyph unicode="4" horiz-adv-x="554" d="M420 0v-192h-99v192h-305v80l280 445h124v-434h120v-91h-120zM322 410h-4l-201 -320h14.5t14 0.5t21.5 0.5h35h120v319z" />
<glyph unicode="5" horiz-adv-x="477" d="M427 54q0 -56 -20 -102t-56 -79t-85.5 -51.5t-107.5 -18.5q-24 0 -44.5 3t-35.5 7q-18 4 -33 10l21 82q16 -4 33 -7q16 -3 33 -5t34 -2q38 0 66.5 13t48.5 34t30 48t10 54q0 74 -41.5 110t-142.5 36h-59v338h328v-98h-233v-158l22 -1q59 -3 102.5 -21.5t72 -48t43 -67 t14.5 -76.5z" />
<glyph unicode="6" horiz-adv-x="592" d="M543 235q0 -54 -18 -99t-50.5 -77.5t-78 -50.5t-100.5 -18q-119 0 -174.5 77.5t-55.5 215.5q0 216 102 324t291 108q8 0 22.5 -0.5t28.5 -1.5v-89q-18 3 -32 3.5t-28 0.5q-62 0 -110.5 -17.5t-83 -49t-54.5 -75t-26 -94.5l2 -3q23 28 62.5 45t90.5 17q50 0 89 -15.5 t66.5 -44t42 -68t14.5 -88.5zM437 218q0 66 -33 105t-93 39q-30 0 -54.5 -11.5t-42 -30t-26.5 -42.5t-9 -49t7.5 -52t23.5 -49.5t40.5 -36.5t57.5 -14q60 0 94.5 39t34.5 102z" />
<glyph unicode="7" horiz-adv-x="469" d="M440 442q-30 -68 -60.5 -142t-58 -153t-50.5 -164t-39 -175h-112q20 103 44.5 189t51.5 161t56.5 142t57.5 132q-14 -1 -38.5 -3.5t-69.5 -2.5h-197v98h415v-82z" />
<glyph unicode="8" horiz-adv-x="561" d="M503 182q0 -49 -20.5 -85t-53.5 -60t-75 -35.5t-84 -11.5t-81 10t-68.5 32t-47 55.5t-17.5 80.5q0 42 15 73.5t36 54t43.5 37.5t37.5 24q-21 11 -42.5 28.5t-39.5 40.5t-29 51.5t-11 60.5t12.5 64t39 58t68 42.5t98.5 16.5q33 0 69.5 -8t67 -27t50 -51.5t19.5 -81.5 q0 -37 -12.5 -65.5t-31.5 -50.5t-41 -37t-41 -25q21 -13 45.5 -28.5t45.5 -37t34.5 -52t13.5 -73.5zM388 544q0 38 -28.5 65t-79.5 27q-22 0 -42 -6.5t-35.5 -19t-24.5 -30.5t-9 -41t12.5 -43t30 -36t37 -27.5t33.5 -17.5q18 8 37 20.5t34 29t25 37t10 42.5zM399 171 q0 30 -13 53.5t-32.5 41.5t-41.5 30.5t-40 19.5q-19 -7 -39 -21t-35.5 -32t-25.5 -39t-10 -44q0 -28 10.5 -47.5t27 -32t37.5 -18t42 -5.5t42.5 5.5t38.5 16.5t28 29t11 43z" />
<glyph unicode="9" horiz-adv-x="592" d="M522 239q0 -216 -102 -324t-291 -108q-8 0 -22.5 0.5t-28.5 1.5v89q18 -3 32 -3.5t28 -0.5q62 0 112 18.5t85.5 51t55 75.5t21.5 91l-2 3q-23 -28 -62.5 -45t-90.5 -17q-49 0 -88.5 15.5t-67 44t-42 68t-14.5 88.5q0 54 18 99t50.5 77.5t78 50.5t100.5 18 q119 0 174.5 -77.5t55.5 -215.5zM409 293q0 26 -7.5 52.5t-23.5 49t-40.5 36.5t-57.5 14q-60 0 -94.5 -39t-34.5 -102q0 -66 33 -105t93 -39q30 0 54.5 11.5t42 30.5t26.5 42.5t9 48.5z" />
<glyph unicode=":" horiz-adv-x="302" d="M212 387q0 -29 -21.5 -50t-50.5 -21t-50.5 21t-21.5 50q0 30 21.5 51t50.5 21t50.5 -21t21.5 -51zM212 61q0 -29 -21.5 -50t-50.5 -21t-50.5 21t-21.5 50t21.5 50.5t50.5 21.5t50.5 -21.5t21.5 -50.5z" />
<glyph unicode=";" horiz-adv-x="358" d="M236 387q0 -29 -21.5 -50t-50.5 -21q-30 0 -51 21t-21 50q0 30 21 51t51 21q29 0 50.5 -21t21.5 -51zM228 17q0 -24 -10.5 -49.5t-28 -50t-40.5 -48t-49 -44.5l-30 36q31 30 46.5 57.5t23.5 56.5q-18 12 -28.5 36.5t-10.5 47.5q0 20 14 39.5t40 19.5q9 0 21.5 -4t24 -15 t19.5 -30.5t8 -51.5z" />
<glyph unicode="&#x3c;" horiz-adv-x="536" d="M437 -35l-383 326l383 329l45 -45l-267 -283l267 -280z" />
<glyph unicode="=" horiz-adv-x="523" d="M67 329v92h388v-92h-388zM67 132v92h388v-92h-388z" />
<glyph unicode="&#x3e;" horiz-adv-x="536" d="M99 -34l-46 45l267 283l-267 280l45 46l383 -326z" />
<glyph unicode="?" horiz-adv-x="497" d="M415 517q0 -34 -11.5 -59.5t-29 -47t-37.5 -40.5t-37.5 -39.5t-29 -45t-11.5 -56.5v-61h-85q-2 13 -3 26q-1 11 -2 23t-1 23q0 45 23.5 79t51 64t51 59.5t23.5 64.5q0 60 -29 91.5t-88 31.5q-28 0 -54.5 -14t-46.5 -36l-44 55q27 38 71 57.5t86 19.5q203 0 203 -195z M297 53q0 -27 -19 -46.5t-47 -19.5t-47.5 19.5t-19.5 46.5t19.5 46.5t47.5 19.5t47 -19.5t19 -46.5z" />
<glyph unicode="@" horiz-adv-x="868" d="M827 407q0 -72 -23 -128t-61 -93q-29 -29 -64 -45.5t-73 -16.5l-56 46q-6 -7 -18 -17.5t-29 -20t-37 -16.5t-41 -7q-37 0 -68.5 15t-54 42t-35.5 65.5t-13 84.5q0 50 15 91.5t42 71.5t64 46.5t81 16.5q23 0 52 -5t51 -22l13 19h57v-342q24 0 46.5 15.5t40 43t28.5 66.5 t11 86q0 51 -15 93q-24 75 -89 118q-68 48 -166 48q-72 0 -134 -27.5t-108.5 -75.5t-73 -112t-26.5 -137q0 -81 28 -144t80 -104q38 -30 87 -46t108 -16q72 0 122 18.5t92 42.5l15 -61q-58 -35 -120 -52t-119 -17q-76 0 -140 22t-114 62q-63 51 -98.5 124.5t-35.5 164.5 t34 169.5t92.5 136.5t137 91t166.5 33q81 0 146 -26t111 -71q45 -44 68.5 -102.5t23.5 -127.5zM542 329q0 51 -5.5 80t-11.5 34q-14 11 -31 15t-35 4q-51 0 -81 -40t-30 -103q0 -20 4.5 -42.5t15.5 -42t28.5 -32t43.5 -12.5q16 0 34 8t33 25.5t25 43.5t10 62z" />
<glyph unicode="A" horiz-adv-x="593" d="M463 0l-50 158h-247l-51 -158h-99l226 671h102l228 -671h-109zM300 509q-3 8 -4.5 15.5t-3.5 12.5q-1 7 -2 12h-2q-1 -5 -3 -12q-1 -6 -3 -13t-5 -16l-87 -277h198z" />
<glyph unicode="B" horiz-adv-x="570" d="M518 206q0 -46 -22.5 -93.5t-73.5 -77.5q-27 -17 -61.5 -26t-88.5 -9h-87h-38h-29.5h-26h-17.5v671h219q48 0 88 -14t71 -51q36 -43 36 -103q0 -45 -24.5 -80.5t-61.5 -55.5q3 -2 21.5 -10.5t39.5 -27t38 -48.5t17 -75zM385 495q0 13 -4.5 28t-15.5 28t-31 21t-52 8h-107 v-178h76q71 0 102.5 25.5t31.5 67.5zM415 205q0 34 -14.5 55t-36 32.5t-46 15.5t-44.5 4h-46h-35h-18v-221h105q62 0 98.5 30.5t36.5 83.5z" />
<glyph unicode="C" horiz-adv-x="577" d="M542 71q-37 -37 -89.5 -58.5t-109.5 -21.5q-72 0 -127 26t-92 71t-56 106t-19 132q0 74 20 138.5t58.5 112.5t95.5 75.5t131 27.5q36 0 87.5 -17.5t96.5 -56.5l-40 -73q-47 32 -84 41.5t-62 9.5q-53 0 -92.5 -24.5t-64.5 -69.5q-35 -64 -35 -156q0 -80 24 -134 q23 -55 67.5 -84t104.5 -29q32 0 72.5 12t73.5 44z" />
<glyph unicode="D" horiz-adv-x="625" d="M576 339q0 -82 -28 -146.5t-77 -109.5q-91 -83 -234 -83h-163v671h179q124 0 205 -63q56 -42 87 -110t31 -159zM466 336q0 72 -21.5 119t-53.5 74t-70.5 38t-71.5 11h-74v-485h67q48 0 89 15t71 45.5t47 76t17 106.5z" />
<glyph unicode="E" horiz-adv-x="480" d="M74 0v671h340v-93h-239v-175h233v-92h-233v-217h239v-94h-340z" />
<glyph unicode="F" horiz-adv-x="464" d="M175 578v-177h242v-93h-242v-308h-101v671h350v-93h-249z" />
<glyph unicode="G" horiz-adv-x="627" d="M485 0l-13 23q-26 -11 -63 -21.5t-66 -10.5q-72 0 -127 26t-92 71t-56 106t-19 132q0 74 20 138.5t58.5 112.5t95.5 75.5t131 27.5q36 0 87.5 -17.5t96.5 -56.5l-40 -73q-47 32 -84 41.5t-62 9.5q-53 0 -92.5 -24.5t-64.5 -69.5q-35 -64 -35 -156q0 -80 24 -134 q23 -55 67.5 -84t104.5 -29q22 0 49.5 5.5t53.5 19.5v163l-56 6v58h157v-114v-225h-75z" />
<glyph unicode="H" horiz-adv-x="635" d="M459 0v311h-284v-311h-101v671h101v-266h284v266h102v-671h-102z" />
<glyph unicode="I" horiz-adv-x="361" d="M74 0v73l55 3v519l-55 3v73h212v-73l-55 -3v-519l55 -3v-73h-212z" />
<glyph unicode="J" horiz-adv-x="338" d="M265 210q0 -61 -18 -106q-6 -16 -18.5 -35.5t-33 -37t-51.5 -29t-75 -11.5q-31 0 -57.5 7.5t-49.5 21.5l25 84q17 -8 37.5 -13.5t41.5 -5.5q43 0 70 28.5t27 99.5v458h102v-461z" />
<glyph unicode="K" horiz-adv-x="577" d="M424 0l-249 328v-328h-101v671h101v-313l245 313h124l-260 -326l271 -345h-131z" />
<glyph unicode="L" horiz-adv-x="387" d="M74 0v671h101v-576h216v-95h-317z" />
<glyph unicode="M" horiz-adv-x="786" d="M629 0l-39 482q-8 -23 -16 -43q-7 -19 -13 -35.5t-10 -25.5l-132 -328h-60l-125 308q-3 10 -10 27t-14.5 35t-13.5 34.5t-8 24.5l-33 -479h-100l50 671h102l141 -346q4 -9 10 -24t12 -30.5t11.5 -29.5t6.5 -22h5q2 9 8 23.5t12.5 31t13 31.5t9.5 24l141 342h102l51 -671 h-101z" />
<glyph unicode="N" horiz-adv-x="639" d="M463 0l-214 348q-6 9 -18.5 30t-25.5 43.5t-24.5 42.5t-15.5 28q1 -9 1 -32.5t0.5 -55t1 -67.5t1 -69t0.5 -59.5v-40.5v-168h-95v671h102l215 -348q6 -9 18 -29t25 -42t24.5 -42t15.5 -29q0 11 -0.5 36t-1 57.5t-1 69.5t-0.5 71v61.5v41.5v153h94v-671h-102z" />
<glyph unicode="O" horiz-adv-x="638" d="M591 339q0 -45 -12 -105.5t-43 -114.5t-84.5 -91.5t-137.5 -37.5q-56 0 -105 21t-85 63.5t-56.5 106.5t-20.5 150q0 78 20.5 143t57 111t87.5 71.5t112 25.5q62 0 111 -24.5t84 -69.5t53.5 -108t18.5 -141zM483 334q0 41 -8 85.5t-27 81.5t-50.5 61t-78.5 24 q-46 0 -77.5 -25t-50.5 -62.5t-27.5 -81t-8.5 -79.5q0 -51 10 -96.5t30.5 -80t51 -55t71.5 -20.5q39 0 69.5 20t52 54.5t32.5 79.5t11 94z" />
<glyph unicode="P" horiz-adv-x="547" d="M511 463q0 -48 -17.5 -89.5t-49 -71.5t-76 -47t-99.5 -16h-44q-18 0 -32.5 0.5t-17.5 0.5v-240h-101v671h205q118 0 175 -55.5t57 -152.5zM407 458q0 55 -33 86q-35 35 -100 35h-99v-244q3 -1 18.5 -1.5t32.5 -0.5q20 -1 44 -1q21 -1 45 5t44.5 21t34 39.5t13.5 60.5z " />
<glyph unicode="Q" horiz-adv-x="638" d="M591 339q0 -42 -10.5 -98t-37 -108t-72.5 -91.5t-117 -48.5q17 -4 37 -8t38 -4q17 0 36 2t35 4l38 6v-77q-13 -4 -30 -7q-14 -3 -32 -5t-40 -2q-32 0 -59.5 6.5t-47.5 14.5q-23 10 -42 22l11 45q-53 3 -99 25.5t-79.5 65t-53 105t-19.5 145.5q0 78 20.5 143t57 111 t87.5 71.5t112 25.5q62 0 111 -24.5t84 -69.5t53.5 -108t18.5 -141zM483 334q0 41 -8 85.5t-27 81.5t-50.5 61t-78.5 24q-46 0 -77.5 -25t-50.5 -62.5t-27.5 -81t-8.5 -79.5q0 -51 10 -96.5t30.5 -80t51 -55t71.5 -20.5q39 0 69.5 20t52 54.5t32.5 79.5t11 94z" />
<glyph unicode="R" horiz-adv-x="562" d="M413 0l-195 263h-43v-263h-101v671h85h41t60.5 -2.5t68.5 -9.5t63 -22q25 -13 42.5 -33t28 -42t15.5 -44t5 -39t-3.5 -43.5t-18.5 -55t-46.5 -55.5t-88.5 -45l213 -280h-126zM386 470q0 38 -16 59.5t-38 33t-43.5 14.5t-32.5 3h-18.5h-25t-23.5 -0.5t-14 -0.5v-226 q2 0 14.5 -0.5t26.5 -0.5h38q26 0 50 7t42 21.5t29 37t11 52.5z" />
<glyph unicode="S" horiz-adv-x="481" d="M451 199q0 -56 -23.5 -98.5t-65.5 -68.5q-65 -42 -155 -42q-29 0 -55.5 5t-47.5 12t-36 14.5l-23 11.5l9 94q29 -16 71 -29t88 -13q25 0 48 5.5t42 17.5q18 12 29.5 31t11.5 45q0 28 -15 46.5t-39 32.5q-35 20 -81.5 35.5t-87.5 40.5q-30 18 -47.5 39t-26 41.5 t-10.5 38.5t-2 30q0 42 17 77.5t47.5 61t72.5 40t93 14.5q35 0 75.5 -10t82.5 -36l-20 -85q-35 18 -72.5 28t-66.5 10q-60 0 -92 -26t-32 -64q0 -34 23.5 -54t58.5 -37q39 -19 83 -36.5t84 -45.5q8 -6 19 -15.5t20.5 -24.5t16 -36t6.5 -50z" />
<glyph unicode="T" horiz-adv-x="506" d="M294 577v-577h-101v577h-192v94h485v-94h-192z" />
<glyph unicode="U" horiz-adv-x="632" d="M558 251q0 -83 -28.5 -140t-80.5 -87q-56 -34 -137 -34t-133.5 31t-79.5 85q-14 28 -19.5 60.5t-5.5 68.5v436h101v-432q0 -26 3.5 -48.5t13.5 -39.5q17 -31 46.5 -49.5t76.5 -18.5q74 0 113 49q29 37 29 116v423h101v-420z" />
<glyph unicode="V" horiz-adv-x="550" d="M303 -5h-63l-254 676h110l177 -489l181 489h107z" />
<glyph unicode="W" horiz-adv-x="817" d="M618 -5h-67l-105 345q-2 8 -8 26.5t-12 39.5t-11 39.5t-6 25.5h-3q-1 -7 -6 -25.5t-11 -39t-12 -38.5t-8 -26l-104 -347h-67l-205 676h106l73 -267q6 -20 16.5 -57.5t20.5 -75.5q12 -44 26 -93q8 33 16 68q8 32 17.5 67.5t19.5 71.5l81 286h73l81 -272q8 -25 18 -59.5 t19.5 -67.5t17 -59t8.5 -34q9 31 19 66q10 33 20.5 70.5t21.5 79.5l75 276h102z" />
<glyph unicode="X" horiz-adv-x="530" d="M412 0l-149 254l-149 -254h-118l206 346l-194 325h117l138 -242l136 242h117l-193 -324l210 -347h-121z" />
<glyph unicode="Y" horiz-adv-x="498" d="M298 255v-255h-101v255l-216 416h114l77 -156q15 -30 28.5 -58.5t24.5 -51.5q13 -26 24 -50q11 24 24 51q12 25 26.5 54l30.5 61l76 150h111z" />
<glyph unicode="Z" horiz-adv-x="499" d="M47 0v48l224 434q7 14 16 30t18 31q9 16 19 33h-30q-18 -1 -44 -1h-66h-130v96h397v-46l-231 -445q-9 -17 -18 -32t-16 -27q-8 -13 -16 -25q15 0 37 1h48.5h69.5h127v-97h-405z" />
<glyph unicode="[" horiz-adv-x="335" d="M74 -183v957h210v-89h-112v-777h112v-91h-210z" />
<glyph unicode="\" horiz-adv-x="434" d="M330 0l-310 671h83l311 -671h-84z" />
<glyph unicode="]" horiz-adv-x="335" d="M50 -183v91h113v777h-113v89h210v-957h-210z" />
<glyph unicode="^" horiz-adv-x="608" d="M475 340l-180 216l-179 -216l-49 35l199 296h59l202 -296z" />
<glyph unicode="_" horiz-adv-x="480" d="M-24 -182v91h528v-91h-528z" />
<glyph unicode="`" horiz-adv-x="470" d="M325 590l-209 151l70 78l173 -188z" />
<glyph unicode="a" horiz-adv-x="575" d="M427 0l-16 76q-17 -24 -40 -42q-22 -18 -51 -30.5t-69 -12.5q-45 0 -83 18t-66 51t-43.5 79.5t-15.5 103.5q0 61 18.5 112t51.5 87.5t78 56.5t98 20q31 0 68 -7t63 -29l18 26h62v-408l8 -101h-81zM403 259q0 66 -7.5 104t-15.5 44q-20 15 -41.5 20t-45.5 5q-33 0 -60 -14 t-46 -38.5t-29 -58.5t-10 -74q0 -26 6.5 -55.5t20.5 -54.5t37 -41.5t57 -16.5q21 0 44.5 10.5t43.5 33t33 56.5t13 80z" />
<glyph unicode="b" horiz-adv-x="564" d="M524 267q0 -61 -17.5 -112t-49.5 -87.5t-76.5 -56.5t-97.5 -20q-41 0 -75 12.5t-62 35.5l-25 -39h-47v754h100v-218q0 -6 -0.5 -22t-1.5 -33q-1 -20 -2 -44q15 23 37 41q19 17 47 29t67 12q45 0 82.5 -18t64 -51t41.5 -79.5t15 -103.5zM419 263q0 26 -5.5 55.5t-19 54.5 t-35.5 41.5t-56 16.5q-21 0 -44 -10.5t-41.5 -33t-31 -56t-12.5 -80.5q0 -66 7.5 -104t15.5 -44q20 -15 39 -20t43 -5q33 0 59 14t44 38.5t27.5 58.5t9.5 74z" />
<glyph unicode="c" horiz-adv-x="447" d="M432 56q-29 -29 -72 -47t-94 -18t-94.5 18.5t-74.5 55.5q-27 32 -43 77.5t-16 103.5q0 71 24.5 128t69.5 94q30 24 67 37.5t82 13.5q44 0 82.5 -16t68.5 -44l-39 -67q-27 22 -60 31q-22 7 -49 7q-65 0 -103 -50q-37 -49 -37 -128q0 -36 8.5 -67.5t26 -54.5t43 -36 t59.5 -13q31 0 62.5 10t51.5 32z" />
<glyph unicode="d" horiz-adv-x="564" d="M414 0l-16 68q-8 -9 -21.5 -22.5t-32.5 -25.5t-43.5 -20.5t-54.5 -8.5q-45 0 -82.5 18t-64 51t-41.5 79.5t-15 103.5q0 61 17.5 112t49.5 87.5t76.5 56.5t97.5 20q62 0 109 -29q-1 18 -1 34q-1 15 -1.5 27.5t-0.5 18.5v184h100v-754h-76zM393 259q0 66 -7.5 104t-15.5 44 q-20 15 -39 20t-43 5q-33 0 -59 -14t-44 -38.5t-27.5 -58.5t-9.5 -74q0 -26 5.5 -55.5t19 -54.5t35.5 -41.5t56 -16.5q21 0 44 10.5t41.5 33t31 56.5t12.5 80z" />
<glyph unicode="e" horiz-adv-x="539" d="M493 279q-1 -6 -1 -13t-2 -15h-345v-9q0 -66 31 -107q20 -27 51 -42t75 -15q42 0 78 14.5t62 31.5l33 -72q-35 -27 -83 -44.5t-102 -17.5q-121 0 -186.5 70t-65.5 192q0 61 19 112t55 87q30 32 72 50t93 18q82 0 138 -45q42 -32 62 -83t16 -112zM386 329q0 5 -0.5 11 t-1.5 11q-6 38 -34 61t-74 23q-42 0 -75.5 -26.5t-46.5 -79.5h232z" />
<glyph unicode="f" horiz-adv-x="405" d="M408 653q-17 6 -37.5 10.5t-42.5 4.5q-44 0 -68 -27.5t-24 -90.5v-41h147v-90h-147v-419h-100v419h-112v90h112v43q0 57 16.5 98.5t47.5 67.5q45 39 114 39q33 0 60.5 -7t47.5 -15z" />
<glyph unicode="g" horiz-adv-x="564" d="M490 5q0 -77 -23 -124.5t-57 -74t-73 -35.5t-71 -9q-67 0 -105.5 12.5t-60.5 27.5l11 86q8 -4 23 -11t34.5 -13.5t41.5 -11.5t43 -5q20 0 44 5.5t44.5 22t34.5 45.5t14 76q0 8 0.5 20t0.5 24q0 13 1 28q-13 -22 -33 -38q-19 -16 -46 -27.5t-67 -11.5q-45 0 -82.5 18 t-64 51t-41.5 79.5t-15 103.5q0 61 17.5 112t49.5 87.5t76.5 56.5t97.5 20q31 0 67.5 -11.5t58.5 -38.5l18 40h62v-504zM393 259q0 66 -7.5 104t-15.5 44q-20 15 -39 20t-43 5q-33 0 -59 -14t-44 -38.5t-27.5 -58.5t-9.5 -74q0 -26 5.5 -55.5t19 -54.5t35.5 -41.5t56 -16.5 q21 0 44 10.5t41.5 33t31 56.5t12.5 80z" />
<glyph unicode="h" d="M404 0v301q0 63 -25 95.5t-73 32.5q-27 0 -51 -12t-42 -33.5t-28.5 -50.5t-10.5 -62v-271h-100v754h100v-213q0 -6 -0.5 -23t-1.5 -34q-1 -21 -2 -46q15 23 33 37q25 20 57 32.5t67 12.5q57 0 99 -28q32 -20 55.5 -62t23.5 -114v-316h-101z" />
<glyph unicode="i" horiz-adv-x="248" d="M187 680q0 -26 -18.5 -44t-44.5 -18t-44.5 18t-18.5 44t18.5 44t44.5 18t44.5 -18t18.5 -44zM74 0v509h100v-509h-100z" />
<glyph unicode="j" horiz-adv-x="251" d="M190 680q0 -26 -18 -44t-44 -18t-45 18t-19 44t19 44t45 18t44 -18t18 -44zM177 -35q0 -47 -11 -88q-17 -55 -54.5 -85t-102.5 -30q-48 0 -87 25l11 74q15 -6 30.5 -10t32.5 -4q41 0 61 24.5t20 87.5v550h100v-544z" />
<glyph unicode="k" horiz-adv-x="532" d="M386 0l-212 248v-248h-100v754h100v-468l202 223h126l-220 -238l239 -271h-135z" />
<glyph unicode="l" horiz-adv-x="248" d="M74 0v754h100v-754h-100z" />
<glyph unicode="m" horiz-adv-x="781" d="M606 0v335q0 44 -16.5 68.5t-51.5 24.5q-23 0 -43 -13t-34 -36q-9 -15 -14.5 -34t-6.5 -42v-303h-100v335q0 44 -16 69q-18 24 -52 24q-20 0 -38 -9.5t-31.5 -27t-21 -41t-7.5 -51.5v-299h-100v509h76l14 -66q23 40 61 58t68 18q48 0 79 -22.5t45 -60.5q3 5 13 18.5 t27 27.5t42 25.5t59 11.5q67 0 108 -43.5t41 -128.5v-347h-101z" />
<glyph unicode="n" d="M404 0v301q0 63 -25 95.5t-73 32.5q-27 0 -51 -12t-42 -33.5t-28.5 -50.5t-10.5 -62v-271h-100v509h76l16 -74q7 9 20 23.5t32.5 28t46.5 23t62 9.5q29 0 53.5 -7.5t45.5 -20.5q29 -18 54 -63.5t25 -111.5v-316h-101z" />
<glyph unicode="o" horiz-adv-x="558" d="M519 259q0 -43 -15 -90.5t-45 -87.5t-76.5 -65.5t-109.5 -25.5q-51 0 -94 18t-74.5 52t-49.5 82.5t-18 109.5q0 56 18 104.5t50.5 84.5t78 57t99.5 21q51 0 94.5 -18t75 -51.5t49 -82t17.5 -108.5zM414 256q0 35 -8.5 66.5t-25.5 55.5t-42 38t-59 14q-40 0 -66.5 -19 t-42 -46t-21.5 -57t-6 -51q0 -27 6.5 -58.5t22 -57.5t42 -43.5t65.5 -17.5q42 0 68 20t41 48.5t20.5 58.5t5.5 49z" />
<glyph unicode="p" horiz-adv-x="564" d="M524 267q0 -61 -17.5 -112t-49.5 -87.5t-76.5 -56.5t-97.5 -20q-59 0 -109 28v-254h-100v744h76l16 -74q16 24 39 42q20 17 48.5 29.5t67.5 12.5q45 0 82.5 -18t64 -51t41.5 -79.5t15 -103.5zM419 263q0 26 -5.5 55.5t-19 54.5t-35.5 41.5t-56 16.5q-21 0 -44 -10.5 t-41.5 -33t-31 -56t-12.5 -80.5q0 -66 7.5 -104t15.5 -44q20 -15 39 -20t43 -5q33 0 59 14t44 38.5t27.5 58.5t9.5 74z" />
<glyph unicode="q" horiz-adv-x="564" d="M390 -235v218v16t0.5 25.5t1 25.5t1.5 18q-7 -9 -20 -22.5t-31.5 -25.5t-43.5 -20.5t-55 -8.5q-45 0 -82.5 18t-64 51t-41.5 79.5t-15 103.5q0 61 17.5 112t49.5 87.5t76.5 56.5t97.5 20q31 0 67.5 -9.5t63.5 -38.5l19 38h59v-744h-100zM390 259q0 66 -7.5 104t-15.5 44 q-20 15 -39 20t-43 5q-33 0 -59 -14t-44 -38.5t-27.5 -58.5t-9.5 -74q0 -26 5.5 -55.5t19 -54.5t35.5 -41.5t56 -16.5q21 0 44 10.5t41.5 33t31 56.5t12.5 80z" />
<glyph unicode="r" horiz-adv-x="351" d="M327 398q-78 15 -115.5 -15t-37.5 -112v-271h-100v509h76l16 -73q7 11 17 21t20 18q25 20 57 32.5t67 12.5v-122z" />
<glyph unicode="s" horiz-adv-x="442" d="M399 152q0 -37 -15.5 -67t-43.5 -51.5t-66 -33t-82 -11.5q-37 0 -72.5 9t-63.5 25l7 87q30 -13 64 -24t69 -11q39 0 69 17t30 49q0 16 -7 27t-20 19q-15 11 -37 18.5t-45.5 15t-46.5 17.5t-42 25q-18 15 -27.5 30t-14 29t-5.5 25.5t-1 19.5q0 33 14 61t39.5 48t61.5 31.5 t80 11.5q47 0 77.5 -12.5t56.5 -25.5l-17 -79q-26 13 -54 23t-65 10q-44 0 -67 -17t-23 -43q0 -10 7 -24t32 -28q17 -9 38 -16.5t43 -15.5t43.5 -18t38.5 -24q20 -16 32.5 -39.5t12.5 -57.5z" />
<glyph unicode="t" horiz-adv-x="415" d="M223 419v-236q0 -61 19.5 -84t57.5 -23q17 0 33.5 4t32.5 9l6 -72q-21 -12 -47 -19t-53 -7q-54 0 -91 26q-58 43 -58 152v250h-101v90h101v172l5 7l95 9v-188h153v-90h-153z" />
<glyph unicode="u" d="M423 0l-16 73q-7 -11 -17 -21t-20 -18q-25 -20 -57 -32.5t-67 -12.5q-57 0 -99 28q-32 20 -55.5 62t-23.5 114v316h101v-301q0 -63 25 -95.5t73 -32.5q27 0 51 12t42 33.5t28.5 50.5t10.5 62v271h100v-509h-76z" />
<glyph unicode="v" horiz-adv-x="473" d="M268 0h-65l-202 509h110l80 -214q7 -20 15 -41.5t14 -39.5q8 -22 15 -42h2q3 9 6 19q2 8 5.5 17.5t6.5 18.5l108 282h108z" />
<glyph unicode="w" horiz-adv-x="738" d="M555 -5h-70l-88 242q-5 12 -10.5 29t-10.5 33q-6 18 -12 37q-5 -18 -10 -35q-5 -16 -10 -32.5t-10 -29.5l-87 -244h-68l-185 514h106l96 -271q4 -11 8 -23.5t7 -23.5q3 -13 7 -25q8 23 16 47l14.5 43.5t14.5 41.5l73 211h65l75 -201q5 -12 12.5 -35.5t14.5 -47.5 q9 -27 18 -59q3 15 7 29q3 12 7 24.5t7 21.5l95 268h106z" />
<glyph unicode="x" horiz-adv-x="489" d="M359 0l-117 182l-118 -182h-116l177 260l-165 249h116l109 -170l111 170h111l-164 -247l175 -262h-119z" />
<glyph unicode="y" horiz-adv-x="470" d="M174 -238h-104l114 281l-182 466h110l75 -198q7 -19 15.5 -42.5t16.5 -44.5q8 -25 17 -50q14 37 27 72q12 31 22.5 60.5t17.5 47.5l57 155h108z" />
<glyph unicode="z" horiz-adv-x="453" d="M41 0v41l224 374q-11 0 -39 -0.5t-82 -0.5h-98v95h362v-44l-222 -369h17.5t29.5 0.5t37 0.5h39h99v-97h-367z" />
<glyph unicode="{" horiz-adv-x="400" d="M293 -127q-60 0 -97.5 37t-37.5 115v162q0 36 -10.5 57.5t-22.5 33.5q-15 13 -34 18v72q19 5 34 19q13 12 23 33t10 57v162q0 78 37.5 115t97.5 37h43v-73h-21q-32 0 -45 -27t-13 -66v-169q0 -37 -13 -60.5t-28 -37.5q-19 -17 -42 -25q23 -9 42 -26q16 -15 28.5 -38.5 t12.5 -60.5v-169q0 -39 13 -66t45 -27h21v-73h-43z" />
<glyph unicode="|" horiz-adv-x="258" d="M83 -236v1000h91v-1000h-91z" />
<glyph unicode="}" horiz-adv-x="400" d="M310 296q-19 -5 -33 -18t-24 -34t-10 -57v-162q0 -78 -37.5 -115t-97.5 -37h-43v73h21q32 0 45 27t13 66v169q0 37 13 61t29 38q18 17 41 26q-23 8 -41 25q-17 14 -29.5 37.5t-12.5 60.5v169q0 39 -13 66t-45 27h-21v73h43q60 0 97.5 -37t37.5 -115v-162 q0 -36 10.5 -57.5t23.5 -32.5q14 -14 33 -19v-72z" />
<glyph unicode="~" horiz-adv-x="575" d="M521 337q-9 -36 -25.5 -61t-37.5 -41t-43.5 -23t-42.5 -7t-44.5 10t-50.5 22.5t-51.5 22.5t-47.5 10q-17 0 -28.5 -6.5t-20 -15.5t-13.5 -19t-10 -17l-53 28q9 31 25.5 54.5t36.5 39.5t42.5 24t44.5 8t46.5 -10t49.5 -22t49 -22t45 -10q18 0 31 8t22 18.5t14.5 21.5 t9.5 17z" />
<glyph unicode="&#xa1;" horiz-adv-x="324" d="M217 474q0 -28 -19.5 -47t-47.5 -19t-47.5 19t-19.5 47q0 27 19.5 46.5t47.5 19.5t47.5 -19.5t19.5 -46.5zM88 -215l26 546h71l26 -546h-123z" />
<glyph unicode="&#xa2;" horiz-adv-x="457" d="M437 115q-24 -24 -56 -40.5t-68 -22.5v-141h-91v144q-85 17 -134 83t-49 165q0 47 13 88.5t37 74.5t58 56t75 32v138h91v-132q69 -11 123 -60l-37 -67q-23 20 -52 30t-60 10q-63 0 -103 -45.5t-40 -122.5q0 -35 9.5 -65t27.5 -52.5t44.5 -35t60.5 -12.5q32 0 63 10t51 32 z" />
<glyph unicode="&#xa3;" horiz-adv-x="532" d="M60 0v89q33 3 60 18q24 14 41.5 41.5t17.5 79.5q0 11 -0.5 26t-0.5 29q-1 16 -2 33h-115v90h111q-2 15 -3.5 34t-1.5 32q0 106 52.5 160.5t139.5 54.5q16 0 32 -3t30 -7q15 -4 30 -10l-25 -80q-10 3 -23 6q-11 2 -25 4t-31 2q-20 0 -34.5 -8.5t-23.5 -22t-13.5 -30.5 t-6.5 -35q-4 -43 4 -97h170v-90h-167q1 -5 1.5 -16t1 -23.5t0.5 -23v-13.5q0 -39 -12 -73.5t-35 -73.5q11 1 28 1q14 0 34.5 0.5t49.5 0.5h137v-95h-421z" />
<glyph unicode="&#xa4;" horiz-adv-x="577" d="M542 71q-37 -37 -89.5 -58.5t-109.5 -21.5q-56 0 -101.5 15.5t-80.5 43.5t-59 67.5t-37 86.5h-57v95h42q-1 7 -1 13.5v13.5v14t1 14h-42v95h56q14 51 39 93.5t61.5 73t84 47.5t105.5 17q36 0 87.5 -17.5t96.5 -56.5l-40 -73q-47 32 -84 41.5t-62 9.5q-53 0 -92.5 -24.5 t-64.5 -69.5q-11 -21 -18 -41h322v-95h-339v-20v-18t1 -17h338v-95h-317l2 -4q23 -55 67.5 -84t104.5 -29q32 0 72.5 12t73.5 44z" />
<glyph unicode="&#xa5;" horiz-adv-x="498" d="M372 395h133v-93h-181l-26 -47v-31h207v-93h-207v-131h-101v131h-206v93h206v31l-24 47h-182v93h133l-143 276h114l77 -156q17 -33 32 -65t26 -55h38q11 24 27.5 57l34.5 69l76 150h111z" />
<glyph unicode="&#xa7;" horiz-adv-x="477" d="M412 256q0 -40 -14.5 -64.5t-28.5 -38.5q16 -22 20 -46.5t4 -45.5q0 -43 -16.5 -72t-43 -47t-59.5 -26t-66 -8q-62 0 -120 35l9 87q33 -16 60.5 -24.5t53.5 -8.5q38 0 63.5 18.5t25.5 50.5q0 29 -26 52t-61 47q-25 17 -51 35t-48 41q-24 25 -39.5 55.5t-15.5 69.5 q0 32 12 59t32 46q-11 16 -18 37.5t-7 44.5q0 33 13 62t37 50.5t59 34t78 12.5q32 0 60.5 -8.5t59.5 -28.5l-20 -79q-26 13 -51 21t-50 8q-41 0 -61.5 -18t-20.5 -48q0 -15 9 -27t23.5 -24t32.5 -24t37 -26q36 -27 60.5 -51t39.5 -48t21.5 -49t6.5 -54zM330 242q0 29 -14 53 t-35 47q-13 14 -28 28t-31 29l-71 -16q0 -29 13 -50.5t28 -38.5q17 -20 36.5 -38.5t31.5 -28.5z" />
<glyph unicode="&#xa8;" horiz-adv-x="614" d="M466 666q0 -26 -17 -43t-43 -17q-25 0 -42.5 17t-17.5 43q0 25 17.5 42.5t42.5 17.5q26 0 43 -17.5t17 -42.5zM259 666q0 -26 -17.5 -43t-42.5 -17t-42.5 17t-17.5 43q0 25 17.5 42.5t42.5 17.5t42.5 -17.5t17.5 -42.5z" />
<glyph unicode="&#xa9;" horiz-adv-x="830" d="M810 335q0 -82 -31 -154t-85 -126t-126 -85t-154 -31q-83 0 -155 31t-125.5 84.5t-84.5 125.5t-31 154t31 154t85 125.5t126 84.5t154 31t154 -31t126 -84.5t85 -125t31 -153.5zM728 334q0 65 -24.5 122.5t-67.5 100.5t-100.5 68t-122.5 25t-122.5 -25t-100 -67.5 t-67.5 -100t-25 -122.5t25 -123t67.5 -101t100 -68t122.5 -25t122.5 25t100.5 68t67.5 100.5t24.5 122.5zM560 192q-63 -63 -138 -63q-46 0 -81.5 15.5t-60 43t-37 64.5t-12.5 79t13 80t38 66.5t62 45.5t86 17q40 0 69.5 -14.5t58.5 -45.5l-35 -61q-15 12 -39 25t-53 13 q-48 0 -74 -34.5t-26 -89.5q0 -57 26 -88.5t72 -31.5q27 0 52 10t43 28z" />
<glyph unicode="&#xab;" horiz-adv-x="706" d="M601 16l-285 273l287 275l49 -35l-189 -239l189 -238zM334 15l-281 274l282 276l50 -35l-185 -240l185 -239z" />
<glyph unicode="&#xac;" horiz-adv-x="5329" d="M4366 762q0 -15 -6 -29.5t-17 -26t-26 -18.5t-33 -7q-35 0 -60 23t-25 58q0 38 25 60.5t60 22.5q36 0 59 -24t23 -59zM1199 634v-158h243v-138h-243v-338h-151v772h445v-138h-294zM5193 -178v894h-150v56h211v-950h-61zM107 -178v950h62v-896h311v-54h-373zM2002 258 q0 -36 -10.5 -81t-36.5 -85t-70.5 -67.5t-113.5 -27.5q-47 0 -88 15.5t-71 47t-47.5 80.5t-17.5 115q0 62 17 111t47.5 83t72.5 52t92 18q51 0 92.5 -17.5t71.5 -51.5t46 -82t16 -110zM4965 293q0 -28 -5 -51h-318v-25q0 -16 5.5 -33t19.5 -34q17 -21 40 -31.5t55 -10.5 q35 0 69 9.5t75 31.5l49 -82q-46 -38 -97.5 -55.5t-105.5 -17.5q-63 0 -111.5 18.5t-81.5 53t-50 84t-17 110.5q0 63 23 111t51 81q35 35 77.5 51t96.5 16q44 0 81.5 -10.5t66.5 -36.5q30 -25 53.5 -71.5t23.5 -107.5zM3948 0l-123 167h-5v-167h-131v509h90q11 0 32.5 0.5 t48.5 -1t55 -6.5t52 -16q23 -10 38 -25t24 -32t12.5 -35.5t3.5 -34.5q0 -11 -2 -28t-12 -36.5t-29 -40t-54 -38.5l164 -212v-4h-164zM3241 0v509h306v-108h-175v-72h170v-110h-170v-111h175v-108h-306zM3118 257q0 -64 -22.5 -110t-60.5 -82q-37 -32 -85.5 -48.5 t-106.5 -16.5h-149v509h160q51 0 95 -9.5t76 -35.5q45 -34 69 -82t24 -125zM2420 0l-151 228q-4 6 -7.5 13l-6.5 13q-3 7 -5 13h-4q1 -7 2 -28t2 -44q1 -27 2 -59v-136h-126v509h118l162 -238q1 -2 3.5 -6.5t4.5 -8.5l6 -12q-2 25 -3 51q-2 23 -3 47t-1 46v121h129v-509 h-122zM800 0l-14 102q-14 -21 -33.5 -41.5t-44.5 -36t-55.5 -25.5t-66.5 -10q-45 0 -82.5 18.5t-64.5 51.5t-42 80t-15 104q0 59 18.5 109.5t51 87.5t77.5 58t98 21q32 0 71 -10t81 -38l28 38h25v-422l6 -87h-38zM4212 -183v493h142v-493h-142zM4819 331v10t-0.5 10t-1.5 9 q-11 57 -70 57q-15 0 -31 -6t-29 -17t-22.5 -27t-11.5 -36h166zM3915 356q0 17 -7.5 27t-18 15t-22.5 7t-20 2h-27v-107h27q26 0 47 12t21 44zM1863 258q0 23 -3.5 50t-13 50.5t-27 39t-45.5 15.5q-27 0 -44.5 -16t-27.5 -39.5t-14 -50.5t-4 -49q0 -29 4.5 -57t15 -50 t28 -35.5t42.5 -13.5q23 0 39.5 13.5t27.5 35.5t16.5 50t5.5 57zM2978 254q0 44 -12.5 72t-31 45t-41 23.5t-43.5 6.5h-23v-293h18q58 0 95.5 36t37.5 110zM781 262q0 42 -2 71t-5 47t-7 27t-8 12q-28 24 -62.5 37.5t-66.5 13.5q-42 0 -76.5 -15.5t-59 -44.5t-38.5 -70 t-14 -93q0 -33 7.5 -70t26.5 -68t50 -51t79 -20q29 0 60 16t56.5 45t42.5 70.5t17 92.5z" />
<glyph unicode="&#xae;" horiz-adv-x="733" d="M704 432q0 -69 -26.5 -130.5t-72.5 -107.5t-107.5 -72.5t-131.5 -26.5t-131.5 26.5t-107.5 72t-72.5 107t-26.5 131.5t26.5 131.5t72.5 107t107.5 72t131.5 26.5t131.5 -26.5t107.5 -72t72.5 -107t26.5 -131.5zM628 431q0 54 -20.5 102.5t-56.5 84.5t-84 57t-102 21 t-102 -20.5t-84 -56.5t-56.5 -84t-20.5 -102t20.5 -102.5t56.5 -84.5t84 -57t102 -21t102 21t84 56.5t56.5 83.5t20.5 102zM428 247l-97 133h1v-133h-80v367h57h21.5t32 -1.5t36 -5.5t33.5 -11t25 -19t16.5 -25.5t9.5 -26.5t3 -22t-1.5 -23t-8 -29t-20.5 -30t-39 -26 l112 -148h-101zM408 497q0 14 -6.5 22t-14.5 12t-16.5 5t-12.5 1h-26v-85q6 0 16 1h9q20 1 35.5 11t15.5 33z" />
<glyph unicode="&#xaf;" horiz-adv-x="533" d="M126 669v89h278v-89h-278z" />
<glyph unicode="&#xb0;" horiz-adv-x="418" d="M366 553q0 -40 -17.5 -72t-46.5 -53q-42 -31 -96 -31q-34 0 -62.5 11.5t-49.5 32.5t-33 49.5t-12 61.5q0 34 13 62.5t35.5 49.5t51.5 32.5t60 11.5q37 0 67 -13.5t51 -36.5q39 -44 39 -105zM279 552q0 30 -20 52q-19 22 -51 22t-52 -23q-8 -10 -13.5 -22.5t-5.5 -28.5 q0 -34 24 -56q9 -8 20.5 -12.5t25.5 -4.5q19 0 34 8t24 22q14 19 14 43z" />
<glyph unicode="&#xb1;" horiz-adv-x="628" d="M363 292v-167h-99v167h-210v93h210v166h99v-166h210v-93h-210zM57 -31v93h514v-93h-514z" />
<glyph unicode="&#xb4;" horiz-adv-x="480" d="M149 590l-33 41l173 188l69 -77z" />
<glyph unicode="&#xb5;" d="M423 0l-16 73q-7 -11 -17 -21t-20 -18q-25 -20 -57 -32.5t-67 -12.5q-20 0 -40.5 5t-36.5 11v-205h-101v709h101v-301q0 -63 25 -95.5t73 -32.5q27 0 51 12t42 33.5t28.5 50.5t10.5 62v271h100v-509h-76z" />
<glyph unicode="&#xb6;" horiz-adv-x="516" d="M377 -98v718h-41v-718h-72v337h-10q-45 0 -84.5 17t-69.5 47t-47 71t-17 89q0 97 57 152.5t175 55.5h181v-769h-72z" />
<glyph unicode="&#xb7;" horiz-adv-x="291" d="M218 327q0 -30 -21 -51t-52 -21q-30 0 -51 21t-21 51t21 51.5t51 21.5q31 0 52 -21.5t21 -51.5z" />
<glyph unicode="&#xb8;" horiz-adv-x="541" d="M353 -164q0 -24 -11 -44.5t-29 -35t-42 -22.5t-50 -8q-32 0 -62.5 14t-42.5 28l31 45q13 -7 27 -13t37 -6q24 0 36 16t12 31q0 18 -7.5 27t-16.5 14q-11 5 -24 5l30 123h67l-9 -98q23 -7 38.5 -27t15.5 -49z" />
<glyph unicode="&#xbb;" horiz-adv-x="706" d="M371 15l-50 35l185 240l-185 240l51 35l281 -274zM104 16l-50 36l189 238l-189 239l51 35l286 -273z" />
<glyph unicode="&#xbf;" horiz-adv-x="497" d="M354 479q0 -27 -19.5 -46.5t-47.5 -19.5t-47 19.5t-19 46.5t19 46.5t47 19.5t47.5 -19.5t19.5 -46.5zM463 -103q-27 -38 -71 -57.5t-86 -19.5q-203 0 -203 195q0 34 11.5 59.5t29 47t37.5 40.5t37.5 39.5t29 45t11.5 56.5v61h85q2 -13 3 -25l2 -24t1 -23q0 -45 -23.5 -79 t-51 -64t-51 -59.5t-23.5 -64.5q0 -60 29 -91.5t88 -31.5q28 0 54.5 14t46.5 36z" />
<glyph unicode="&#xc0;" horiz-adv-x="593" d="M463 0l-50 158h-247l-51 -158h-99l226 671h102l228 -671h-109zM300 509q-3 8 -4.5 15.5t-3.5 12.5q-1 7 -2 12h-2q-1 -5 -3 -12q-1 -6 -3 -13t-5 -16l-87 -277h198zM321 737l-209 151l70 78l173 -188z" />
<glyph unicode="&#xc1;" horiz-adv-x="593" d="M463 0l-50 158h-247l-51 -158h-99l226 671h102l228 -671h-109zM300 509q-3 8 -4.5 15.5t-3.5 12.5q-1 7 -2 12h-2q-1 -5 -3 -12q-1 -6 -3 -13t-5 -16l-87 -277h198zM264 736l-33 41l173 188l69 -77z" />
<glyph unicode="&#xc2;" horiz-adv-x="593" d="M463 0l-50 158h-247l-51 -158h-99l226 671h102l228 -671h-109zM300 509q-3 8 -4.5 15.5t-3.5 12.5q-1 7 -2 12h-2q-1 -5 -3 -12q-1 -6 -3 -13t-5 -16l-87 -277h198zM437 743l-143 103l-142 -103l-32 42l164 168h29l158 -167z" />
<glyph unicode="&#xc3;" horiz-adv-x="593" d="M463 0l-50 158h-247l-51 -158h-99l226 671h102l228 -671h-109zM300 509q-3 8 -4.5 15.5t-3.5 12.5q-1 7 -2 12h-2q-1 -5 -3 -12q-1 -6 -3 -13t-5 -16l-87 -277h198zM487 891q-11 -38 -29 -68q-16 -28 -39 -48t-56 -20q-22 0 -41.5 10.5t-38.5 23t-39.5 23t-45.5 10.5 q-11 0 -21 -6.5t-17.5 -15t-13.5 -18t-10 -15.5l-34 19q4 25 16.5 47.5t29 40t36 28t37.5 10.5t38 -10t40 -22.5t40.5 -22.5t39.5 -10q15 0 28 10t22 22q11 13 19 31z" />
<glyph unicode="&#xc4;" horiz-adv-x="593" d="M463 0l-50 158h-247l-51 -158h-99l226 671h102l228 -671h-109zM300 509q-3 8 -4.5 15.5t-3.5 12.5q-1 7 -2 12h-2q-1 -5 -3 -12q-1 -6 -3 -13t-5 -16l-87 -277h198zM461 807q0 -26 -17 -43t-43 -17q-25 0 -42.5 17t-17.5 43q0 25 17.5 42.5t42.5 17.5q26 0 43 -17.5 t17 -42.5zM254 807q0 -26 -17.5 -43t-42.5 -17t-42.5 17t-17.5 43q0 25 17.5 42.5t42.5 17.5t42.5 -17.5t17.5 -42.5z" />
<glyph unicode="&#xc5;" horiz-adv-x="593" d="M463 0l-50 158h-247l-51 -158h-99l226 671h102l228 -671h-109zM300 509q-3 8 -4.5 15.5t-3.5 12.5q-1 7 -2 12h-2q-1 -5 -3 -12q-1 -6 -3 -13t-5 -16l-87 -277h198zM435 829q0 -28 -11 -53t-30 -44t-44.5 -29.5t-54.5 -10.5t-54.5 10.5t-44.5 29t-30 43.5t-11 54t11 54.5 t30 44.5t44.5 29.5t54.5 10.5t54.5 -10.5t44.5 -29.5t30 -44.5t11 -54.5zM360 829q0 27 -19 46.5t-46 19.5q-26 0 -45 -19.5t-19 -46.5q0 -26 19 -45t45 -19q27 0 46 19t19 45z" />
<glyph unicode="&#xc6;" horiz-adv-x="751" d="M351 0v158h-187l-73 -158h-99l306 671h53h340v-93h-239v-175h233v-92h-233v-217h239v-94h-340zM351 578h-6q-3 -9 -7 -20l-9 -22.5t-12 -27.5l-123 -277h157v347z" />
<glyph unicode="&#xc7;" horiz-adv-x="577" d="M542 71q-37 -37 -89.5 -58.5t-109.5 -21.5q-72 0 -127 26t-92 71t-56 106t-19 132q0 74 20 138.5t58.5 112.5t95.5 75.5t131 27.5q36 0 87.5 -17.5t96.5 -56.5l-40 -73q-47 32 -84 41.5t-62 9.5q-53 0 -92.5 -24.5t-64.5 -69.5q-35 -64 -35 -156q0 -80 24 -134 q23 -55 67.5 -84t104.5 -29q32 0 72.5 12t73.5 44zM405 -136q0 -24 -11 -44.5t-29 -35t-42 -22.5t-50 -8q-32 0 -62.5 14t-42.5 28l31 45q13 -7 27 -13t37 -6q24 0 36 16t12 31q0 18 -7.5 27t-16.5 14q-11 5 -24 5l30 123h67l-9 -98q23 -7 38.5 -27t15.5 -49z" />
<glyph unicode="&#xc8;" horiz-adv-x="480" d="M74 0v671h340v-93h-239v-175h233v-92h-233v-217h239v-94h-340zM287 743l-209 151l70 78l173 -188z" />
<glyph unicode="&#xc9;" horiz-adv-x="480" d="M74 0v671h340v-93h-239v-175h233v-92h-233v-217h239v-94h-340zM194 736l-33 41l173 188l69 -77z" />
<glyph unicode="&#xca;" horiz-adv-x="480" d="M74 0v671h340v-93h-239v-175h233v-92h-233v-217h239v-94h-340zM385 746l-143 103l-142 -103l-32 42l164 168h29l158 -167z" />
<glyph unicode="&#xcb;" horiz-adv-x="480" d="M74 0v671h340v-93h-239v-175h233v-92h-233v-217h239v-94h-340zM412 807q0 -26 -17 -43t-43 -17q-25 0 -42.5 17t-17.5 43q0 25 17.5 42.5t42.5 17.5q26 0 43 -17.5t17 -42.5zM205 807q0 -26 -17.5 -43t-42.5 -17t-42.5 17t-17.5 43q0 25 17.5 42.5t42.5 17.5t42.5 -17.5 t17.5 -42.5z" />
<glyph unicode="&#xcc;" horiz-adv-x="361" d="M74 0v73l55 3v519l-55 3v73h212v-73l-55 -3v-519l55 -3v-73h-212zM237 706l-209 151l70 78l173 -188z" />
<glyph unicode="&#xcd;" horiz-adv-x="361" d="M74 0v73l55 3v519l-55 3v73h212v-73l-55 -3v-519l55 -3v-73h-212zM145 714l-33 41l173 188l69 -77z" />
<glyph unicode="&#xce;" horiz-adv-x="361" d="M74 0v73l55 3v519l-55 3v73h212v-73l-55 -3v-519l55 -3v-73h-212zM324 704l-143 103l-142 -103l-32 42l164 168h29l158 -167z" />
<glyph unicode="&#xcf;" horiz-adv-x="361" d="M74 0v73l55 3v519l-55 3v73h212v-73l-55 -3v-519l55 -3v-73h-212zM345 778q0 -26 -17 -43t-43 -17q-25 0 -42.5 17t-17.5 43q0 25 17.5 42.5t42.5 17.5q26 0 43 -17.5t17 -42.5zM138 778q0 -26 -17.5 -43t-42.5 -17t-42.5 17t-17.5 43q0 25 17.5 42.5t42.5 17.5 t42.5 -17.5t17.5 -42.5z" />
<glyph unicode="&#xd1;" horiz-adv-x="639" d="M463 0l-214 348q-6 9 -18.5 30t-25.5 43.5t-24.5 42.5t-15.5 28q1 -9 1 -32.5t0.5 -55t1 -67.5t1 -69t0.5 -59.5v-40.5v-168h-95v671h102l215 -348q6 -9 18 -29t25 -42t24.5 -42t15.5 -29q0 11 -0.5 36t-1 57.5t-1 69.5t-0.5 71v61.5v41.5v153h94v-671h-102zM513 888 q-11 -38 -29 -68q-16 -28 -39 -48t-56 -20q-22 0 -41.5 10.5t-38.5 23t-39.5 23t-45.5 10.5q-11 0 -21 -6.5t-17.5 -15t-13.5 -18t-10 -15.5l-34 19q4 25 16.5 47.5t29 40t36 28t37.5 10.5t38 -10t40 -22.5t40.5 -22.5t39.5 -10q15 0 28 10t22 22q11 13 19 31z" />
<glyph unicode="&#xd2;" horiz-adv-x="638" d="M591 339q0 -45 -12 -105.5t-43 -114.5t-84.5 -91.5t-137.5 -37.5q-56 0 -105 21t-85 63.5t-56.5 106.5t-20.5 150q0 78 20.5 143t57 111t87.5 71.5t112 25.5q62 0 111 -24.5t84 -69.5t53.5 -108t18.5 -141zM483 334q0 41 -8 85.5t-27 81.5t-50.5 61t-78.5 24 q-46 0 -77.5 -25t-50.5 -62.5t-27.5 -81t-8.5 -79.5q0 -51 10 -96.5t30.5 -80t51 -55t71.5 -20.5q39 0 69.5 20t52 54.5t32.5 79.5t11 94zM344 743l-209 151l70 78l173 -188z" />
<glyph unicode="&#xd3;" horiz-adv-x="638" d="M591 339q0 -45 -12 -105.5t-43 -114.5t-84.5 -91.5t-137.5 -37.5q-56 0 -105 21t-85 63.5t-56.5 106.5t-20.5 150q0 78 20.5 143t57 111t87.5 71.5t112 25.5q62 0 111 -24.5t84 -69.5t53.5 -108t18.5 -141zM483 334q0 41 -8 85.5t-27 81.5t-50.5 61t-78.5 24 q-46 0 -77.5 -25t-50.5 -62.5t-27.5 -81t-8.5 -79.5q0 -51 10 -96.5t30.5 -80t51 -55t71.5 -20.5q39 0 69.5 20t52 54.5t32.5 79.5t11 94zM289 744l-33 41l173 188l69 -77z" />
<glyph unicode="&#xd4;" horiz-adv-x="638" d="M591 339q0 -45 -12 -105.5t-43 -114.5t-84.5 -91.5t-137.5 -37.5q-56 0 -105 21t-85 63.5t-56.5 106.5t-20.5 150q0 78 20.5 143t57 111t87.5 71.5t112 25.5q62 0 111 -24.5t84 -69.5t53.5 -108t18.5 -141zM483 334q0 41 -8 85.5t-27 81.5t-50.5 61t-78.5 24 q-46 0 -77.5 -25t-50.5 -62.5t-27.5 -81t-8.5 -79.5q0 -51 10 -96.5t30.5 -80t51 -55t71.5 -20.5q39 0 69.5 20t52 54.5t32.5 79.5t11 94zM470 748l-143 103l-142 -103l-32 42l164 168h29l158 -167z" />
<glyph unicode="&#xd5;" horiz-adv-x="638" d="M591 339q0 -45 -12 -105.5t-43 -114.5t-84.5 -91.5t-137.5 -37.5q-56 0 -105 21t-85 63.5t-56.5 106.5t-20.5 150q0 78 20.5 143t57 111t87.5 71.5t112 25.5q62 0 111 -24.5t84 -69.5t53.5 -108t18.5 -141zM483 334q0 41 -8 85.5t-27 81.5t-50.5 61t-78.5 24 q-46 0 -77.5 -25t-50.5 -62.5t-27.5 -81t-8.5 -79.5q0 -51 10 -96.5t30.5 -80t51 -55t71.5 -20.5q39 0 69.5 20t52 54.5t32.5 79.5t11 94zM512 889q-11 -38 -29 -68q-16 -28 -39 -48t-56 -20q-22 0 -41.5 10.5t-38.5 23t-39.5 23t-45.5 10.5q-11 0 -21 -6.5t-17.5 -15 t-13.5 -18t-10 -15.5l-34 19q4 25 16.5 47.5t29 40t36 28t37.5 10.5t38 -10t40 -22.5t40.5 -22.5t39.5 -10q15 0 28 10t22 22q11 13 19 31z" />
<glyph unicode="&#xd6;" horiz-adv-x="638" d="M591 339q0 -45 -12 -105.5t-43 -114.5t-84.5 -91.5t-137.5 -37.5q-56 0 -105 21t-85 63.5t-56.5 106.5t-20.5 150q0 78 20.5 143t57 111t87.5 71.5t112 25.5q62 0 111 -24.5t84 -69.5t53.5 -108t18.5 -141zM483 334q0 41 -8 85.5t-27 81.5t-50.5 61t-78.5 24 q-46 0 -77.5 -25t-50.5 -62.5t-27.5 -81t-8.5 -79.5q0 -51 10 -96.5t30.5 -80t51 -55t71.5 -20.5q39 0 69.5 20t52 54.5t32.5 79.5t11 94zM480 807q0 -26 -17 -43t-43 -17q-25 0 -42.5 17t-17.5 43q0 25 17.5 42.5t42.5 17.5q26 0 43 -17.5t17 -42.5zM273 807 q0 -26 -17.5 -43t-42.5 -17t-42.5 17t-17.5 43q0 25 17.5 42.5t42.5 17.5t42.5 -17.5t17.5 -42.5z" />
<glyph unicode="&#xd8;" horiz-adv-x="638" d="M533 569q28 -44 43 -102t15 -128q0 -45 -12 -105.5t-43 -114.5t-84.5 -91.5t-137.5 -37.5q-45 0 -84.5 13.5t-79.5 44.5l-35 -48h-97l81 111q-23 41 -37.5 96.5t-14.5 123.5q0 78 20.5 143t57 111t87.5 71.5t112 25.5q91 0 156 -54l43 58h96zM418 544q-18 20 -42.5 31 t-56.5 11q-46 0 -77.5 -25t-50.5 -62.5t-27.5 -81t-8.5 -79.5q0 -71 18 -127zM483 334q0 33 -5 69t-17 68l-246 -336q20 -23 45.5 -36t57.5 -13q39 0 69.5 20t52 54.5t32.5 79.5t11 94z" />
<glyph unicode="&#xd9;" horiz-adv-x="632" d="M558 251q0 -83 -28.5 -140t-80.5 -87q-56 -34 -137 -34t-133.5 31t-79.5 85q-14 28 -19.5 60.5t-5.5 68.5v436h101v-432q0 -26 3.5 -48.5t13.5 -39.5q17 -31 46.5 -49.5t76.5 -18.5q74 0 113 49q29 37 29 116v423h101v-420zM340 742l-209 151l70 78l173 -188z" />
<glyph unicode="&#xda;" horiz-adv-x="632" d="M558 251q0 -83 -28.5 -140t-80.5 -87q-56 -34 -137 -34t-133.5 31t-79.5 85q-14 28 -19.5 60.5t-5.5 68.5v436h101v-432q0 -26 3.5 -48.5t13.5 -39.5q17 -31 46.5 -49.5t76.5 -18.5q74 0 113 49q29 37 29 116v423h101v-420zM294 741l-33 41l173 188l69 -77z" />
<glyph unicode="&#xdb;" horiz-adv-x="632" d="M558 251q0 -83 -28.5 -140t-80.5 -87q-56 -34 -137 -34t-133.5 31t-79.5 85q-14 28 -19.5 60.5t-5.5 68.5v436h101v-432q0 -26 3.5 -48.5t13.5 -39.5q17 -31 46.5 -49.5t76.5 -18.5q74 0 113 49q29 37 29 116v423h101v-420zM459 743l-143 103l-142 -103l-32 42l164 168 h29l158 -167z" />
<glyph unicode="&#xdc;" horiz-adv-x="632" d="M558 251q0 -83 -28.5 -140t-80.5 -87q-56 -34 -137 -34t-133.5 31t-79.5 85q-14 28 -19.5 60.5t-5.5 68.5v436h101v-432q0 -26 3.5 -48.5t13.5 -39.5q17 -31 46.5 -49.5t76.5 -18.5q74 0 113 49q29 37 29 116v423h101v-420zM476 807q0 -26 -17 -43t-43 -17 q-25 0 -42.5 17t-17.5 43q0 25 17.5 42.5t42.5 17.5q26 0 43 -17.5t17 -42.5zM269 807q0 -26 -17.5 -43t-42.5 -17t-42.5 17t-17.5 43q0 25 17.5 42.5t42.5 17.5t42.5 -17.5t17.5 -42.5z" />
<glyph unicode="&#xdf;" horiz-adv-x="582" d="M549 165q0 -47 -22.5 -84.5t-60.5 -60.5q-46 -30 -113 -30q-64 0 -109 25l10 88q23 -11 49.5 -17t49.5 -6q46 0 71 23.5t25 55.5q0 23 -11 39.5t-28 29t-37.5 22.5t-40.5 20q-12 6 -23 11t-20 9q-10 4 -18 7v111q14 6 36.5 15t35.5 18q21 16 35.5 37t14.5 50 q0 41 -28.5 65.5t-71.5 24.5q-27 0 -48 -10t-38 -27q-14 -14 -20.5 -34.5t-9.5 -39.5q-3 -22 -3 -46v-461h-100v481q0 9 1.5 24t4.5 32.5t8.5 34.5t13.5 29q34 51 82.5 79t110.5 28q41 0 77 -13t63.5 -37t43.5 -57t16 -74q0 -24 -11 -49t-30 -47.5t-44.5 -42t-54.5 -31.5 q13 -5 30 -13t35 -17.5t35 -20t29 -19.5q26 -20 45.5 -49t19.5 -73z" />
<glyph unicode="&#xe0;" horiz-adv-x="575" d="M427 0l-16 76q-17 -24 -40 -42q-22 -18 -51 -30.5t-69 -12.5q-45 0 -83 18t-66 51t-43.5 79.5t-15.5 103.5q0 61 18.5 112t51.5 87.5t78 56.5t98 20q31 0 68 -7t63 -29l18 26h62v-408l8 -101h-81zM403 259q0 66 -7.5 104t-15.5 44q-20 15 -41.5 20t-45.5 5q-33 0 -60 -14 t-46 -38.5t-29 -58.5t-10 -74q0 -26 6.5 -55.5t20.5 -54.5t37 -41.5t57 -16.5q21 0 44.5 10.5t43.5 33t33 56.5t13 80zM348 590l-209 151l70 78l173 -188z" />
<glyph unicode="&#xe1;" horiz-adv-x="575" d="M427 0l-16 76q-17 -24 -40 -42q-22 -18 -51 -30.5t-69 -12.5q-45 0 -83 18t-66 51t-43.5 79.5t-15.5 103.5q0 61 18.5 112t51.5 87.5t78 56.5t98 20q31 0 68 -7t63 -29l18 26h62v-408l8 -101h-81zM403 259q0 66 -7.5 104t-15.5 44q-20 15 -41.5 20t-45.5 5q-33 0 -60 -14 t-46 -38.5t-29 -58.5t-10 -74q0 -26 6.5 -55.5t20.5 -54.5t37 -41.5t57 -16.5q21 0 44.5 10.5t43.5 33t33 56.5t13 80zM235 590l-33 41l173 188l69 -77z" />
<glyph unicode="&#xe2;" horiz-adv-x="575" d="M427 0l-16 76q-17 -24 -40 -42q-22 -18 -51 -30.5t-69 -12.5q-45 0 -83 18t-66 51t-43.5 79.5t-15.5 103.5q0 61 18.5 112t51.5 87.5t78 56.5t98 20q31 0 68 -7t63 -29l18 26h62v-408l8 -101h-81zM403 259q0 66 -7.5 104t-15.5 44q-20 15 -41.5 20t-45.5 5q-33 0 -60 -14 t-46 -38.5t-29 -58.5t-10 -74q0 -26 6.5 -55.5t20.5 -54.5t37 -41.5t57 -16.5q21 0 44.5 10.5t43.5 33t33 56.5t13 80zM442 592l-143 103l-142 -103l-32 42l164 168h29l158 -167z" />
<glyph unicode="&#xe3;" horiz-adv-x="575" d="M427 0l-16 76q-17 -24 -40 -42q-22 -18 -51 -30.5t-69 -12.5q-45 0 -83 18t-66 51t-43.5 79.5t-15.5 103.5q0 61 18.5 112t51.5 87.5t78 56.5t98 20q31 0 68 -7t63 -29l18 26h62v-408l8 -101h-81zM403 259q0 66 -7.5 104t-15.5 44q-20 15 -41.5 20t-45.5 5q-33 0 -60 -14 t-46 -38.5t-29 -58.5t-10 -74q0 -26 6.5 -55.5t20.5 -54.5t37 -41.5t57 -16.5q21 0 44.5 10.5t43.5 33t33 56.5t13 80zM469 740q-11 -38 -29 -68q-16 -28 -39 -48t-56 -20q-22 0 -41.5 10.5t-38.5 23t-39.5 23t-45.5 10.5q-11 0 -21 -6.5t-17.5 -15t-13.5 -18t-10 -15.5 l-34 19q4 25 16.5 47.5t29 40t36 28t37.5 10.5t38 -10t40 -22.5t40.5 -22.5t39.5 -10q15 0 28 10t22 22q11 13 19 31z" />
<glyph unicode="&#xe4;" horiz-adv-x="575" d="M427 0l-16 76q-17 -24 -40 -42q-22 -18 -51 -30.5t-69 -12.5q-45 0 -83 18t-66 51t-43.5 79.5t-15.5 103.5q0 61 18.5 112t51.5 87.5t78 56.5t98 20q31 0 68 -7t63 -29l18 26h62v-408l8 -101h-81zM403 259q0 66 -7.5 104t-15.5 44q-20 15 -41.5 20t-45.5 5q-33 0 -60 -14 t-46 -38.5t-29 -58.5t-10 -74q0 -26 6.5 -55.5t20.5 -54.5t37 -41.5t57 -16.5q21 0 44.5 10.5t43.5 33t33 56.5t13 80zM454 660q0 -26 -17 -43t-43 -17q-25 0 -42.5 17t-17.5 43q0 25 17.5 42.5t42.5 17.5q26 0 43 -17.5t17 -42.5zM247 660q0 -26 -17.5 -43t-42.5 -17 t-42.5 17t-17.5 43q0 25 17.5 42.5t42.5 17.5t42.5 -17.5t17.5 -42.5z" />
<glyph unicode="&#xe5;" horiz-adv-x="575" d="M427 0l-16 76q-17 -24 -40 -42q-22 -18 -51 -30.5t-69 -12.5q-45 0 -83 18t-66 51t-43.5 79.5t-15.5 103.5q0 61 18.5 112t51.5 87.5t78 56.5t98 20q31 0 68 -7t63 -29l18 26h62v-408l8 -101h-81zM403 259q0 66 -7.5 104t-15.5 44q-20 15 -41.5 20t-45.5 5q-33 0 -60 -14 t-46 -38.5t-29 -58.5t-10 -74q0 -26 6.5 -55.5t20.5 -54.5t37 -41.5t57 -16.5q21 0 44.5 10.5t43.5 33t33 56.5t13 80zM437 697q0 -28 -11 -53t-30 -44t-44.5 -29.5t-54.5 -10.5t-54.5 10.5t-44.5 29t-30 43.5t-11 54t11 54.5t30 44.5t44.5 29.5t54.5 10.5t54.5 -10.5 t44.5 -29.5t30 -44.5t11 -54.5zM362 697q0 27 -19 46.5t-46 19.5q-26 0 -45 -19.5t-19 -46.5q0 -26 19 -45t45 -19q27 0 46 19t19 45z" />
<glyph unicode="&#xe6;" horiz-adv-x="890" d="M848 279q-1 -6 -1 -13t-2 -15h-345v-9q0 -66 31 -107q20 -27 51 -42t75 -15q42 0 78 14.5t62 31.5l33 -72q-35 -27 -83 -44.5t-102 -17.5q-38 0 -72.5 8t-67.5 33l3 -31h-81l-16 76q-17 -24 -40 -42q-22 -18 -51 -30.5t-69 -12.5q-45 0 -83 18t-66 51t-43.5 79.5 t-15.5 103.5q0 61 18.5 112t51.5 87.5t78 56.5t98 20q31 0 68 -7t63 -29l18 26h62v-37q27 23 61.5 35t70.5 12q82 0 138 -45q42 -32 62 -83t16 -112zM741 329q0 5 -0.5 11t-1.5 11q-6 38 -34 61t-74 23q-42 0 -75.5 -26.5t-46.5 -79.5h232zM403 259q0 66 -7.5 104t-15.5 44 q-20 15 -41.5 20t-45.5 5q-33 0 -60 -14t-46 -38.5t-29 -58.5t-10 -74q0 -26 6.5 -55.5t20.5 -54.5t37 -41.5t57 -16.5q21 0 44.5 10.5t43.5 33t33 56.5t13 80z" />
<glyph unicode="&#xe7;" horiz-adv-x="447" d="M432 56q-29 -29 -72 -47t-94 -18t-94.5 18.5t-74.5 55.5q-27 32 -43 77.5t-16 103.5q0 71 24.5 128t69.5 94q30 24 67 37.5t82 13.5q44 0 82.5 -16t68.5 -44l-39 -67q-27 22 -60 31q-22 7 -49 7q-65 0 -103 -50q-37 -49 -37 -128q0 -36 8.5 -67.5t26 -54.5t43 -36 t59.5 -13q31 0 62.5 10t51.5 32zM345 -136q0 -24 -11 -44.5t-29 -35t-42 -22.5t-50 -8q-32 0 -62.5 14t-42.5 28l31 45q13 -7 27 -13t37 -6q24 0 36 16t12 31q0 18 -7.5 27t-16.5 14q-11 5 -24 5l30 123h67l-9 -98q23 -7 38.5 -27t15.5 -49z" />
<glyph unicode="&#xe8;" horiz-adv-x="539" d="M493 279q-1 -6 -1 -13t-2 -15h-345v-9q0 -66 31 -107q20 -27 51 -42t75 -15q42 0 78 14.5t62 31.5l33 -72q-35 -27 -83 -44.5t-102 -17.5q-121 0 -186.5 70t-65.5 192q0 61 19 112t55 87q30 32 72 50t93 18q82 0 138 -45q42 -32 62 -83t16 -112zM386 329q0 5 -0.5 11 t-1.5 11q-6 38 -34 61t-74 23q-42 0 -75.5 -26.5t-46.5 -79.5h232zM337 590l-209 151l70 78l173 -188z" />
<glyph unicode="&#xe9;" horiz-adv-x="539" d="M493 279q-1 -6 -1 -13t-2 -15h-345v-9q0 -66 31 -107q20 -27 51 -42t75 -15q42 0 78 14.5t62 31.5l33 -72q-35 -27 -83 -44.5t-102 -17.5q-121 0 -186.5 70t-65.5 192q0 61 19 112t55 87q30 32 72 50t93 18q82 0 138 -45q42 -32 62 -83t16 -112zM386 329q0 5 -0.5 11 t-1.5 11q-6 38 -34 61t-74 23q-42 0 -75.5 -26.5t-46.5 -79.5h232zM238 590l-33 41l173 188l69 -77z" />
<glyph unicode="&#xea;" horiz-adv-x="539" d="M493 279q-1 -6 -1 -13t-2 -15h-345v-9q0 -66 31 -107q20 -27 51 -42t75 -15q42 0 78 14.5t62 31.5l33 -72q-35 -27 -83 -44.5t-102 -17.5q-121 0 -186.5 70t-65.5 192q0 61 19 112t55 87q30 32 72 50t93 18q82 0 138 -45q42 -32 62 -83t16 -112zM386 329q0 5 -0.5 11 t-1.5 11q-6 38 -34 61t-74 23q-42 0 -75.5 -26.5t-46.5 -79.5h232zM419 592l-143 103l-142 -103l-32 42l164 168h29l158 -167z" />
<glyph unicode="&#xeb;" horiz-adv-x="539" d="M493 279q-1 -6 -1 -13t-2 -15h-345v-9q0 -66 31 -107q20 -27 51 -42t75 -15q42 0 78 14.5t62 31.5l33 -72q-35 -27 -83 -44.5t-102 -17.5q-121 0 -186.5 70t-65.5 192q0 61 19 112t55 87q30 32 72 50t93 18q82 0 138 -45q42 -32 62 -83t16 -112zM386 329q0 5 -0.5 11 t-1.5 11q-6 38 -34 61t-74 23q-42 0 -75.5 -26.5t-46.5 -79.5h232zM446 660q0 -26 -17 -43t-43 -17q-25 0 -42.5 17t-17.5 43q0 25 17.5 42.5t42.5 17.5q26 0 43 -17.5t17 -42.5zM239 660q0 -26 -17.5 -43t-42.5 -17t-42.5 17t-17.5 43q0 25 17.5 42.5t42.5 17.5t42.5 -17.5 t17.5 -42.5z" />
<glyph unicode="&#xec;" horiz-adv-x="248" d="M74 0v509h100v-509h-100zM169 562l-209 151l70 78l173 -188z" />
<glyph unicode="&#xed;" horiz-adv-x="248" d="M74 0v509h100v-509h-100zM89 550l-33 41l173 188l69 -77z" />
<glyph unicode="&#xee;" horiz-adv-x="248" d="M74 0v509h100v-509h-100zM265 592l-143 103l-142 -103l-32 42l164 168h29l158 -167z" />
<glyph unicode="&#xef;" horiz-adv-x="248" d="M74 0v509h100v-509h-100zM286 666q0 -26 -17 -43t-43 -17q-25 0 -42.5 17t-17.5 43q0 25 17.5 42.5t42.5 17.5q26 0 43 -17.5t17 -42.5zM79 666q0 -26 -17.5 -43t-42.5 -17t-42.5 17t-17.5 43q0 25 17.5 42.5t42.5 17.5t42.5 -17.5t17.5 -42.5z" />
<glyph unicode="&#xf1;" d="M404 0v301q0 63 -25 95.5t-73 32.5q-27 0 -51 -12t-42 -33.5t-28.5 -50.5t-10.5 -62v-271h-100v509h76l16 -74q7 9 20 23.5t32.5 28t46.5 23t62 9.5q29 0 53.5 -7.5t45.5 -20.5q29 -18 54 -63.5t25 -111.5v-316h-101zM481 740q-11 -38 -29 -68q-16 -28 -39 -48t-56 -20 q-22 0 -41.5 10.5t-38.5 23t-39.5 23t-45.5 10.5q-11 0 -21 -6.5t-17.5 -15t-13.5 -18t-10 -15.5l-34 19q4 25 16.5 47.5t29 40t36 28t37.5 10.5t38 -10t40 -22.5t40.5 -22.5t39.5 -10q15 0 28 10t22 22q11 13 19 31z" />
<glyph unicode="&#xf2;" horiz-adv-x="558" d="M519 259q0 -43 -15 -90.5t-45 -87.5t-76.5 -65.5t-109.5 -25.5q-51 0 -94 18t-74.5 52t-49.5 82.5t-18 109.5q0 56 18 104.5t50.5 84.5t78 57t99.5 21q51 0 94.5 -18t75 -51.5t49 -82t17.5 -108.5zM414 256q0 35 -8.5 66.5t-25.5 55.5t-42 38t-59 14q-40 0 -66.5 -19 t-42 -46t-21.5 -57t-6 -51q0 -27 6.5 -58.5t22 -57.5t42 -43.5t65.5 -17.5q42 0 68 20t41 48.5t20.5 58.5t5.5 49zM319 590l-209 151l70 78l173 -188z" />
<glyph unicode="&#xf3;" horiz-adv-x="558" d="M519 259q0 -43 -15 -90.5t-45 -87.5t-76.5 -65.5t-109.5 -25.5q-51 0 -94 18t-74.5 52t-49.5 82.5t-18 109.5q0 56 18 104.5t50.5 84.5t78 57t99.5 21q51 0 94.5 -18t75 -51.5t49 -82t17.5 -108.5zM414 256q0 35 -8.5 66.5t-25.5 55.5t-42 38t-59 14q-40 0 -66.5 -19 t-42 -46t-21.5 -57t-6 -51q0 -27 6.5 -58.5t22 -57.5t42 -43.5t65.5 -17.5q42 0 68 20t41 48.5t20.5 58.5t5.5 49zM257 590l-33 41l173 188l69 -77z" />
<glyph unicode="&#xf4;" horiz-adv-x="558" d="M519 259q0 -43 -15 -90.5t-45 -87.5t-76.5 -65.5t-109.5 -25.5q-51 0 -94 18t-74.5 52t-49.5 82.5t-18 109.5q0 56 18 104.5t50.5 84.5t78 57t99.5 21q51 0 94.5 -18t75 -51.5t49 -82t17.5 -108.5zM414 256q0 35 -8.5 66.5t-25.5 55.5t-42 38t-59 14q-40 0 -66.5 -19 t-42 -46t-21.5 -57t-6 -51q0 -27 6.5 -58.5t22 -57.5t42 -43.5t65.5 -17.5q42 0 68 20t41 48.5t20.5 58.5t5.5 49zM422 592l-143 103l-142 -103l-32 42l164 168h29l158 -167z" />
<glyph unicode="&#xf5;" horiz-adv-x="558" d="M519 259q0 -43 -15 -90.5t-45 -87.5t-76.5 -65.5t-109.5 -25.5q-51 0 -94 18t-74.5 52t-49.5 82.5t-18 109.5q0 56 18 104.5t50.5 84.5t78 57t99.5 21q51 0 94.5 -18t75 -51.5t49 -82t17.5 -108.5zM414 256q0 35 -8.5 66.5t-25.5 55.5t-42 38t-59 14q-40 0 -66.5 -19 t-42 -46t-21.5 -57t-6 -51q0 -27 6.5 -58.5t22 -57.5t42 -43.5t65.5 -17.5q42 0 68 20t41 48.5t20.5 58.5t5.5 49zM475 740q-11 -38 -29 -68q-16 -28 -39 -48t-56 -20q-22 0 -41.5 10.5t-38.5 23t-39.5 23t-45.5 10.5q-11 0 -21 -6.5t-17.5 -15t-13.5 -18t-10 -15.5l-34 19 q4 25 16.5 47.5t29 40t36 28t37.5 10.5t38 -10t40 -22.5t40.5 -22.5t39.5 -10q15 0 28 10t22 22q11 13 19 31z" />
<glyph unicode="&#xf6;" horiz-adv-x="558" d="M519 259q0 -43 -15 -90.5t-45 -87.5t-76.5 -65.5t-109.5 -25.5q-51 0 -94 18t-74.5 52t-49.5 82.5t-18 109.5q0 56 18 104.5t50.5 84.5t78 57t99.5 21q51 0 94.5 -18t75 -51.5t49 -82t17.5 -108.5zM414 256q0 35 -8.5 66.5t-25.5 55.5t-42 38t-59 14q-40 0 -66.5 -19 t-42 -46t-21.5 -57t-6 -51q0 -27 6.5 -58.5t22 -57.5t42 -43.5t65.5 -17.5q42 0 68 20t41 48.5t20.5 58.5t5.5 49zM445 660q0 -26 -17 -43t-43 -17q-25 0 -42.5 17t-17.5 43q0 25 17.5 42.5t42.5 17.5q26 0 43 -17.5t17 -42.5zM238 660q0 -26 -17.5 -43t-42.5 -17t-42.5 17 t-17.5 43q0 25 17.5 42.5t42.5 17.5t42.5 -17.5t17.5 -42.5z" />
<glyph unicode="&#xf7;" horiz-adv-x="524" d="M325 474q0 -27 -18.5 -45.5t-44.5 -18.5t-45 18.5t-19 45.5q0 26 19 44.5t45 18.5t44.5 -18.5t18.5 -44.5zM54 232v94h415v-94h-415zM325 83q0 -26 -18.5 -45t-44.5 -19t-45 19t-19 45t19 45t45 19t44.5 -19t18.5 -45z" />
<glyph unicode="&#xf8;" horiz-adv-x="558" d="M519 259q0 -43 -15 -90.5t-45 -87.5t-76.5 -65.5t-109.5 -25.5q-16 0 -31.5 1.5t-29.5 5.5l-15 -31h-83l29 61q-49 32 -77.5 89.5t-28.5 135.5q0 56 18 104.5t50.5 84.5t78 57t99.5 21q45 0 81 -13l14 31h82l-30 -67q42 -34 65.5 -87t23.5 -124zM325 422q-22 8 -46 8 q-40 0 -66.5 -19t-42 -46t-21.5 -57t-6 -51q0 -33 9.5 -70t33.5 -65zM414 256q0 69 -29 116l-133 -289q12 -3 27 -3q42 0 68 20t41 48.5t20.5 58.5t5.5 49z" />
<glyph unicode="&#xf9;" d="M423 0l-16 73q-7 -11 -17 -21t-20 -18q-25 -20 -57 -32.5t-67 -12.5q-57 0 -99 28q-32 20 -55.5 62t-23.5 114v316h101v-301q0 -63 25 -95.5t73 -32.5q27 0 51 12t42 33.5t28.5 50.5t10.5 62v271h100v-509h-76zM306 590l-209 151l70 78l173 -188z" />
<glyph unicode="&#xfa;" d="M423 0l-16 73q-7 -11 -17 -21t-20 -18q-25 -20 -57 -32.5t-67 -12.5q-57 0 -99 28q-32 20 -55.5 62t-23.5 114v316h101v-301q0 -63 25 -95.5t73 -32.5q27 0 51 12t42 33.5t28.5 50.5t10.5 62v271h100v-509h-76zM261 590l-33 41l173 188l69 -77z" />
<glyph unicode="&#xfb;" d="M423 0l-16 73q-7 -11 -17 -21t-20 -18q-25 -20 -57 -32.5t-67 -12.5q-57 0 -99 28q-32 20 -55.5 62t-23.5 114v316h101v-301q0 -63 25 -95.5t73 -32.5q27 0 51 12t42 33.5t28.5 50.5t10.5 62v271h100v-509h-76zM421 592l-143 103l-142 -103l-32 42l164 168h29l158 -167z " />
<glyph unicode="&#xfc;" d="M423 0l-16 73q-7 -11 -17 -21t-20 -18q-25 -20 -57 -32.5t-67 -12.5q-57 0 -99 28q-32 20 -55.5 62t-23.5 114v316h101v-301q0 -63 25 -95.5t73 -32.5q27 0 51 12t42 33.5t28.5 50.5t10.5 62v271h100v-509h-76zM446 660q0 -26 -17 -43t-43 -17q-25 0 -42.5 17t-17.5 43 q0 25 17.5 42.5t42.5 17.5q26 0 43 -17.5t17 -42.5zM239 660q0 -26 -17.5 -43t-42.5 -17t-42.5 17t-17.5 43q0 25 17.5 42.5t42.5 17.5t42.5 -17.5t17.5 -42.5z" />
<glyph unicode="&#xff;" horiz-adv-x="470" d="M174 -238h-104l114 281l-182 466h110l75 -198q7 -19 15.5 -42.5t16.5 -44.5q8 -25 17 -50q14 37 27 72q12 31 22.5 60.5t17.5 47.5l57 155h108zM393 660q0 -26 -17 -43t-43 -17q-25 0 -42.5 17t-17.5 43q0 25 17.5 42.5t42.5 17.5q26 0 43 -17.5t17 -42.5zM186 660 q0 -26 -17.5 -43t-42.5 -17t-42.5 17t-17.5 43q0 25 17.5 42.5t42.5 17.5t42.5 -17.5t17.5 -42.5z" />
<glyph unicode="&#x131;" horiz-adv-x="248" d="M74 0v509h100v-509h-100z" />
<glyph unicode="&#x152;" horiz-adv-x="812" d="M479 0h-165q-56 0 -105 19.5t-85 60t-56.5 103t-20.5 148.5q0 78 20.5 141t57 107.5t87.5 68t112 23.5h172h253v-93h-239v-175h233v-92h-233v-217h239v-94h-270zM409 448q0 45 -1.5 70.5t-10 39t-27 17t-51.5 3.5q-46 0 -77.5 -24t-50.5 -60t-27.5 -78t-8.5 -78 q0 -51 10 -95.5t30.5 -78t51 -52.5t71.5 -19q39 0 58 6t26.5 20.5t7 39.5t-0.5 63v226z" />
<glyph unicode="&#x153;" horiz-adv-x="910" d="M867 279q-1 -6 -1 -13t-2 -15h-345v-9q0 -66 31 -107q20 -27 51 -42t75 -15q42 0 78 14.5t62 31.5l33 -72q-35 -27 -83 -44.5t-102 -17.5q-69 0 -120.5 25t-83.5 67q-31 -40 -77 -66t-110 -26q-51 0 -94 18t-74.5 52t-49.5 82.5t-18 109.5q0 56 18 104.5t50.5 84.5t78 57 t99.5 21q58 0 105.5 -23t79.5 -65q4 5 9 10.5t9 9.5q30 32 72 50t93 18q82 0 138 -45q42 -32 62 -83t16 -112zM760 329q0 5 -0.5 11t-1.5 11q-6 38 -34 61t-74 23q-42 0 -75.5 -26.5t-46.5 -79.5h232zM414 256q0 35 -8.5 66.5t-25.5 55.5t-42 38t-59 14q-40 0 -66.5 -19 t-42 -46t-21.5 -57t-6 -51q0 -27 6.5 -58.5t22 -57.5t42 -43.5t65.5 -17.5q42 0 68 20t41 48.5t20.5 58.5t5.5 49z" />
<glyph unicode="&#x178;" horiz-adv-x="498" d="M298 255v-255h-101v255l-216 416h114l77 -156q15 -30 28.5 -58.5t24.5 -51.5q13 -26 24 -50q11 24 24 51q12 25 26.5 54l30.5 61l76 150h111zM405 807q0 -26 -17 -43t-43 -17q-25 0 -42.5 17t-17.5 43q0 25 17.5 42.5t42.5 17.5q26 0 43 -17.5t17 -42.5zM198 807 q0 -26 -17.5 -43t-42.5 -17t-42.5 17t-17.5 43q0 25 17.5 42.5t42.5 17.5t42.5 -17.5t17.5 -42.5z" />
<glyph unicode="&#x192;" horiz-adv-x="777" d="M780 653q-17 6 -37.5 10.5t-42.5 4.5q-44 0 -68 -27.5t-24 -90.5v-41h147v-90h-147v-419h-100v419h-272v-419h-100v419h-112v90h112v43q0 57 16.5 98.5t47.5 67.5q45 39 114 39q33 0 60.5 -7t47.5 -15l-14 -82q-17 6 -37.5 10.5t-42.5 4.5q-44 0 -68 -27.5t-24 -90.5v-41 h272v43q0 57 16.5 98.5t47.5 67.5q45 39 114 39q33 0 60.5 -7t47.5 -15z" />
<glyph unicode="&#x2c6;" horiz-adv-x="557" d="M420 592l-143 103l-142 -103l-32 42l164 168h29l158 -167z" />
<glyph unicode="&#x2c7;" horiz-adv-x="557" d="M286 588l-34 9l-153 158l34 43l144 -104l141 104l33 -41z" />
<glyph unicode="&#x2d8;" horiz-adv-x="541" d="M456 786q-1 -54 -20 -97q-10 -26 -22 -41t-30 -27.5t-43.5 -20.5t-59.5 -8t-59 8.5t-43.5 22t-31 31t-19.5 35.5q-19 43 -19 97h86q0 -29 9 -52q8 -22 26 -37.5t52 -15.5t52 16.5t26 36.5q9 23 9 52h87z" />
<glyph unicode="&#x2d9;" horiz-adv-x="399" d="M248 678q0 -26 -18.5 -44.5t-44.5 -18.5t-44 18.5t-18 44.5t18 44t44 18t44.5 -18t18.5 -44z" />
<glyph unicode="&#x2da;" horiz-adv-x="532" d="M379 686q0 -28 -11 -53t-30 -44t-44.5 -29.5t-54.5 -10.5t-54.5 10.5t-44.5 29t-30 43.5t-11 54t11 54.5t30 44.5t44.5 29.5t54.5 10.5t54.5 -10.5t44.5 -29.5t30 -44.5t11 -54.5zM304 686q0 27 -19 46.5t-46 19.5q-26 0 -45 -19.5t-19 -46.5q0 -26 19 -45t45 -19 q27 0 46 19t19 45z" />
<glyph unicode="&#x2db;" horiz-adv-x="470" d="M347 -240q-20 -20 -50.5 -31.5t-65.5 -11.5q-71 0 -111 37t-40 91q0 25 10 49.5t27 44.5t39.5 35.5t48.5 23.5l33 -53q-3 -2 -6.5 -4t-7.5 -5l-2 -2q-21 -14 -35.5 -36t-14.5 -44q0 -26 22.5 -41.5t68.5 -10.5q13 0 26.5 -4t24.5 4q2 2 3 1t3 0q6 -10 11 -18 q4 -7 8.5 -13.5t6.5 -8.5q0 -1 1 -2v-1z" />
<glyph unicode="&#x2dc;" horiz-adv-x="589" d="M492 740q-11 -38 -29 -68q-16 -28 -39 -48t-56 -20q-22 0 -41.5 10.5t-38.5 23t-39.5 23t-45.5 10.5q-11 0 -21 -6.5t-17.5 -15t-13.5 -18t-10 -15.5l-34 19q4 25 16.5 47.5t29 40t36 28t37.5 10.5t38 -10t40 -22.5t40.5 -22.5t39.5 -10q15 0 28 10t22 22q11 13 19 31z " />
<glyph unicode="&#x2dd;" horiz-adv-x="532" d="M413 698l-112 -116l-41 35l136 214l84 -64zM219 692l-118 -110l-38 38l149 206l79 -68z" />
<glyph unicode="&#x2013;" horiz-adv-x="480" d="M-24 247v95h528v-95h-528z" />
<glyph unicode="&#x2014;" horiz-adv-x="841" d="M-24 247v95h889v-95h-889z" />
<glyph unicode="&#x2018;" horiz-adv-x="295" d="M262 722q-31 -30 -46.5 -57.5t-23.5 -56.5q18 -12 28.5 -36.5t10.5 -47.5q0 -20 -14 -39.5t-40 -19.5q-9 0 -21.5 4t-24 15t-19.5 31t-8 51q0 24 10.5 49.5t28 50t40.5 48t49 44.5z" />
<glyph unicode="&#x2019;" horiz-adv-x="295" d="M220 649q0 -24 -10.5 -49.5t-28 -50t-40.5 -48t-49 -44.5l-30 36q31 30 46.5 57.5t23.5 56.5q-18 12 -28.5 36.5t-10.5 47.5q0 20 14 39.5t40 19.5q9 0 21.5 -4t24 -15t19.5 -30.5t8 -51.5z" />
<glyph unicode="&#x201a;" horiz-adv-x="344" d="M220 17q0 -24 -10.5 -49.5t-28 -50t-40.5 -48t-49 -44.5l-30 36q31 30 46.5 57.5t23.5 56.5q-18 12 -28.5 36.5t-10.5 47.5q0 20 14 39.5t40 19.5q9 0 21.5 -4t24 -15t19.5 -30.5t8 -51.5z" />
<glyph unicode="&#x201c;" horiz-adv-x="557" d="M512 722q-31 -30 -46.5 -57.5t-23.5 -56.5q18 -12 28.5 -36.5t10.5 -47.5q0 -20 -14 -39.5t-40 -19.5q-9 0 -21.5 4t-24 15t-19.5 31t-8 51q0 24 10.5 49.5t28 50t40.5 48t49 44.5zM262 722q-31 -30 -46.5 -57.5t-23.5 -56.5q18 -12 28.5 -36.5t10.5 -47.5 q0 -20 -14 -39.5t-40 -19.5q-9 0 -21.5 4t-24 15t-19.5 31t-8 51q0 24 10.5 49.5t28 50t40.5 48t49 44.5z" />
<glyph unicode="&#x201d;" horiz-adv-x="557" d="M471 650q0 -24 -10.5 -49.5t-28 -50t-40.5 -48t-49 -44.5l-30 36q31 30 46.5 57.5t23.5 56.5q-18 12 -28.5 36.5t-10.5 47.5q0 20 14 39.5t40 19.5q9 0 21.5 -4t24 -15t19.5 -30.5t8 -51.5zM221 650q0 -24 -10.5 -49.5t-28 -50t-40.5 -48t-49 -44.5l-30 36 q31 30 46.5 57.5t23.5 56.5q-18 12 -28.5 36.5t-10.5 47.5q0 20 14 39.5t40 19.5q9 0 21.5 -4t24 -15t19.5 -30.5t8 -51.5z" />
<glyph unicode="&#x201e;" horiz-adv-x="557" d="M472 17q0 -24 -10.5 -49.5t-28 -50t-40.5 -48t-49 -44.5l-30 36q31 30 46.5 57.5t23.5 56.5q-18 12 -28.5 36.5t-10.5 47.5q0 20 14 39.5t40 19.5q9 0 21.5 -4t24 -15t19.5 -30.5t8 -51.5zM220 17q0 -24 -10.5 -49.5t-28 -50t-40.5 -48t-49 -44.5l-30 36q31 30 46.5 57.5 t23.5 56.5q-18 12 -28.5 36.5t-10.5 47.5q0 20 14 39.5t40 19.5q9 0 21.5 -4t24 -15t19.5 -30.5t8 -51.5z" />
<glyph unicode="&#x2020;" horiz-adv-x="520" d="M292 445l38 -177l-46 -380h-50l-44 380l36 176l-224 19v58l212 17l7 216h77l7 -216l212 -17v-58z" />
<glyph unicode="&#x2021;" horiz-adv-x="520" d="M305 108l-7 -219h-77l-7 219l-212 18v57l223 19l-35 123l35 122l-223 19v58l212 17l7 213h77l7 -213l212 -17v-58l-223 -19l35 -122l-35 -123l223 -19v-57z" />
<glyph unicode="&#x2022;" horiz-adv-x="500" d="M419 312q0 -35 -13.5 -66t-37 -54.5t-54.5 -37t-67 -13.5q-35 0 -66 13.5t-54.5 37t-37 54.5t-13.5 66q0 36 13.5 67t37 54.5t54.5 37t66 13.5q36 0 67 -13.5t54.5 -37t37 -54.5t13.5 -67z" />
<glyph unicode="&#x2026;" horiz-adv-x="951" d="M862 60q0 -29 -21 -49.5t-50 -20.5t-49.5 20.5t-20.5 49.5t20.5 50t49.5 21t50 -21t21 -50zM533 60q0 -29 -21 -49.5t-51 -20.5q-29 0 -49.5 20.5t-20.5 49.5t20.5 50t49.5 21q30 0 51 -21t21 -50zM203 60q0 -29 -21 -49.5t-50 -20.5t-50 20.5t-21 49.5t21 50t50 21 t50 -21t21 -50z" />
<glyph unicode="&#x2030;" horiz-adv-x="1143" d="M338 506q0 -46 -15.5 -83t-42.5 -62q-21 -20 -47 -30.5t-55 -10.5q-33 0 -61 12.5t-48.5 35.5t-32 56t-11.5 75q0 41 12.5 75t34 58.5t50.5 38t61 13.5q38 0 69 -15.5t52 -45.5q16 -22 25 -51.5t9 -65.5zM210 -12l-93 24l442 671l94 -24zM1113 173q0 -46 -15.5 -83 t-41.5 -62q-21 -20 -47.5 -30.5t-55.5 -10.5q-33 0 -61 12.5t-48.5 35.5t-32 56t-11.5 75q0 41 12.5 75t34 58.5t50.5 38t61 13.5q78 0 122 -61q33 -46 33 -117zM752 173q0 -46 -16 -83t-42 -62q-21 -20 -47 -30.5t-55 -10.5q-33 0 -61 12.5t-48.5 35.5t-32 56t-11.5 75 q0 41 12.5 75t34 58.5t50.5 38t61 13.5q38 0 69 -15.5t52 -45.5q16 -22 25 -51.5t9 -65.5zM246 503q0 38 -12 62q-17 32 -53 32q-33 0 -51 -34q-14 -25 -14 -60q0 -42 16 -69q17 -28 48 -28q20 0 34.5 12.5t22.5 33.5q9 21 9 51zM1021 170q0 40 -12 62q-17 32 -53 32 q-33 0 -51 -34q-14 -25 -14 -60q0 -42 16 -69q17 -28 48 -28q20 0 35 12.5t23 33.5q8 22 8 51zM660 170q0 38 -12 62q-17 32 -53 32q-33 0 -51 -35q-14 -23 -14 -59q0 -42 16 -69q16 -28 48 -28q20 0 34.5 12.5t22.5 33.5q9 21 9 51z" />
<glyph unicode="&#x2039;" horiz-adv-x="442" d="M338 16l-285 275l283 273l52 -35l-188 -239l188 -239z" />
<glyph unicode="&#x203a;" horiz-adv-x="442" d="M104 16l-50 35l188 239l-188 239l52 35l283 -273z" />
<glyph unicode="&#x2044;" horiz-adv-x="439" d="M180 128l-99 -189l-89 17l105 203l292 553l34 -8l54 -10z" />
<glyph unicode="&#x2122;" horiz-adv-x="857" d="M718 248l-21 253q-2 -7 -4 -12t-4 -9l-81 -202h-50l-77 190q-2 5 -5 13t-7 16l-18 -249h-80l32 422h77l87 -213q3 -6 5.5 -13t5.5 -12q2 -7 5 -14h3q3 8 6 15q2 7 5 14t5 12l86 211h78l32 -422h-80zM238 594v-346h-81v346h-115v76h311v-76h-115z" />
<glyph unicode="&#x2202;" horiz-adv-x="815" d="M327 658q11 -24 0.5 -48.5t-35.5 -35.5t-49 -1t-35 35t-0.5 49.5t35.5 34.5q25 11 49 1t35 -35zM729 348l-160 388l-121 -50l-18 44l169 70l179 -432zM461 245l83 -201l-90 -37l-189 455l263 109l34 -81l-173 -72l39 -92l143 59l33 -81zM355 -200l-318 767l49 20 l299 -723l253 105l18 -44z" />
<glyph unicode="&#x221e;" horiz-adv-x="995" d="M940 298q0 -40 -15 -76t-42 -63t-64.5 -42.5t-82.5 -15.5q-28 0 -58 11.5t-61 30t-61.5 42.5t-59.5 48q-27 -23 -57 -46.5t-61.5 -42.5t-63 -31t-60.5 -12q-45 0 -82 15.5t-63.5 41.5t-40.5 61.5t-14 74.5q0 41 15.5 77t42.5 62.5t64 42t81 15.5q29 0 59.5 -11.5 t61.5 -30.5t62 -43t59 -48q26 23 56 47t61.5 43t63 31t60.5 12q45 0 81.5 -15t63 -41.5t41 -61.5t14.5 -75zM840 296q0 42 -28.5 71t-74.5 29q-23 0 -47 -12t-46.5 -28.5t-41.5 -33t-31 -25.5q13 -10 32 -27t41.5 -33.5t46.5 -28.5t48 -12q45 0 73 29t28 71zM423 295 q-13 10 -32 27t-41 33.5t-46.5 28.5t-47.5 12q-45 0 -73 -29.5t-28 -70.5q0 -42 28 -71t74 -29q23 0 47.5 12t46.5 28t41 33t31 26z" />
<glyph unicode="&#x2248;" horiz-adv-x="513" d="M362 0l-12 62h-3q-26 -29 -63.5 -50t-99.5 -21q-31 0 -56.5 10t-44.5 28t-29.5 43t-10.5 55q0 74 45.5 116.5t128.5 55.5q27 4 48.5 6.5t36.5 4.5q18 1 32 2v16q0 52 -19.5 79t-78.5 27q-35 0 -71.5 -13.5t-67.5 -34.5l-31 76q35 25 85 41t100 16q54 0 89.5 -12t56.5 -34 t29.5 -52.5t8.5 -67.5v-252l8 -101h-81zM334 239q-15 -1 -32 -2q-16 -2 -35 -4.5t-41 -6.5q-23 -4 -38 -14t-24 -22.5t-12.5 -26.5t-3.5 -26q0 -32 22.5 -48t49.5 -16q16 0 33 6.5t33 16.5t28.5 23t19.5 26v94z" />
<glyph unicode="&#x25fc;" horiz-adv-x="510" d="M0 510h510v-510h-510v510z" />
<glyph unicode="&#xfb01;" horiz-adv-x="641" d="M462 0v419h-226v-419h-100v419h-112v90h112v43q0 29 8 54.5t21.5 46.5t30 38t33.5 27q26 17 65.5 28t82.5 11q53 0 91 -7t58 -15l-14 -82q-17 6 -51.5 10.5t-69.5 4.5q-28 0 -55.5 -5.5t-49.5 -19t-36 -36t-14 -57.5v-41h326v-509h-100z" />
<glyph unicode="&#xfb02;" horiz-adv-x="647" d="M470 0v668h-142q-44 0 -68 -27.5t-24 -90.5v-41h147v-90h-147v-419h-100v419h-112v90h112v43q0 57 16.5 98.5t47.5 67.5q23 20 53.5 28t68.5 8h248v-754h-100z" />
</font>
</defs>
</svg>
