<?xml version="1.0" standalone="no"?>
<!DOCTYPE svg PUBLIC "-//W3C//DTD SVG 1.1//EN" "http://www.w3.org/Graphics/SVG/1.1/DTD/svg11.dtd" >
<svg xmlns="http://www.w3.org/2000/svg">
<metadata></metadata>
<defs>
<font id="malcomregularregular" horiz-adv-x="1173" >
<font-face units-per-em="2048" ascent="1638" descent="-410" />
<missing-glyph horiz-adv-x="464" />
<glyph horiz-adv-x="0" />
<glyph horiz-adv-x="0" />
<glyph unicode="&#xd;" horiz-adv-x="512" />
<glyph unicode=" "  horiz-adv-x="464" />
<glyph unicode="&#x09;" horiz-adv-x="464" />
<glyph unicode="&#xa0;" horiz-adv-x="464" />
<glyph unicode="!" horiz-adv-x="663" d="M172 109q0 55 40 95t97 40t96 -40t39 -95t-38.5 -95.5t-96.5 -40.5q-57 0 -97 40t-40 96zM180 1520h258l-55 -1121h-145z" />
<glyph unicode="&#x22;" horiz-adv-x="845" d="M106 1552h234l-61 -575h-113zM504 1552h235l-61 -575h-113z" />
<glyph unicode="#" horiz-adv-x="1396" d="M94 422v180h268l21 303h-260v180h268l19 289h190l-18 -289h264l18 289h193l-19 -289h262v-180h-268l-20 -303h260v-180h-266l-21 -309h-194l20 309h-262l-21 -309h-192l20 309h-262zM555 602h264l21 303h-265z" />
<glyph unicode="$" horiz-adv-x="1085" d="M109 956q0 72 27.5 133.5t75.5 108.5t113.5 80t143.5 45v215h182v-211q74 -8 138.5 -29.5t128.5 -56.5l-39 -172q-63 31 -140 54.5t-153 23.5q-68 0 -116 -15.5t-79 -41t-46 -57.5t-15 -64q0 -63 48 -102.5t121.5 -69t157.5 -58t158 -72.5t122 -112t48 -174 q0 -72 -25.5 -134.5t-71.5 -112.5t-111.5 -86t-143.5 -54v-246h-182v234q-88 4 -161 23.5t-147 57.5l21 189q78 -37 166 -60.5t168 -23.5q51 0 98 11t84 36t59.5 61.5t22.5 88.5q0 66 -48 103.5t-121 64t-158 52t-157.5 69.5t-120.5 115t-48 187z" />
<glyph unicode="%" horiz-adv-x="1742" d="M74 1020q0 86 27.5 155.5t73.5 120t106.5 78t128.5 27.5q78 0 144.5 -32t113.5 -91q35 -47 53 -107.5t18 -136.5q0 -96 -33.5 -172t-89.5 -127q-45 -41 -100 -62.5t-117 -21.5q-68 0 -127 25.5t-103 74t-69.5 116t-25.5 153.5zM264 1028q0 -90 35 -143q37 -55 104 -56 q41 0 73 25t52 66q23 49 23 110q0 80 -31 129q-39 63 -114 64q-70 0 -109 -70q-33 -53 -33 -125zM303 25l930 1374l192 -49l-929 -1375zM991 342q0 86 28 155.5t74 120t107.5 78t128.5 27.5q78 0 143.5 -32t112.5 -93q35 -47 53.5 -107.5t18.5 -134.5q0 -96 -34 -171.5 t-89 -127.5q-90 -84 -215 -84q-70 0 -129.5 26t-103.5 73t-69.5 115.5t-25.5 154.5zM1182 350q0 -90 37 -143q39 -57 104 -57q41 0 72.5 24.5t50.5 67.5q22 49 22 108q0 82 -30 131q-39 63 -113 64q-35 0 -63.5 -18.5t-49.5 -51.5q-31 -49 -30 -125z" />
<glyph unicode="&#x26;" horiz-adv-x="1628" d="M115 381q0 43 7 89t36.5 100.5t86 118t154.5 138.5q-53 55 -94 117q-39 55 -67.5 122t-28.5 138q0 72 27.5 130.5t75.5 98.5t114 61.5t141 21.5q43 0 101.5 -9.5t109.5 -40t87 -87t36 -148.5q0 -80 -27.5 -142.5t-65.5 -109.5t-78 -82t-66 -59q78 -82 155 -160 q45 -45 77 -75t66.5 -60.5t68.5 -59t65 -51.5q41 68 73 148q31 72 52.5 157.5t21.5 184.5h203q-12 -102 -28.5 -187.5t-41 -157t-57.5 -136t-76 -126.5q35 -29 76 -57q39 -25 87 -53.5t107 -52.5l-104 -170q-133 66 -200.5 111.5t-106.5 80.5q-66 -53 -154 -96 q-80 -39 -184.5 -67.5t-241.5 -28.5t-218 46t-123 110.5t-54 132t-12 110.5zM328 410q0 -115 56 -181.5t167 -66.5q72 0 132 12t111.5 30.5t91 40.5t72.5 40q-78 66 -157 137q-74 66 -153 139.5t-152 149.5q-25 -20 -54.5 -49t-54.5 -66t-42 -83t-17 -103zM401 1192 q0 -41 21.5 -84t50.5 -80q31 -41 70 -82q20 14 47.5 37t53.5 52.5t44.5 65.5t18.5 79q0 86 -46.5 121.5t-103.5 35.5q-59 0 -107.5 -31.5t-48.5 -113.5z" />
<glyph unicode="'" horiz-adv-x="446" d="M106 1552h234l-61 -575h-113z" />
<glyph unicode="(" horiz-adv-x="665" d="M113 631q0 203 61.5 377t163.5 331q49 74 105.5 142.5t115.5 136.5l141 -72q-78 -94 -151.5 -198.5t-126.5 -225.5q-47 -109 -76 -229.5t-29 -255.5q0 -197 52.5 -355.5t136.5 -293.5q45 -72 94 -137.5t102 -129.5l-145 -71q-59 68 -114.5 135.5t-104.5 138.5 q-104 160 -164.5 332t-60.5 375z" />
<glyph unicode=")" horiz-adv-x="665" d="M-29 -279q53 63 102.5 129t94.5 138q84 135 136 293.5t52 355.5q0 135 -28.5 256t-75.5 229q-53 121 -127 225.5t-152 198.5l142 72q59 -68 115.5 -136.5t105.5 -142.5q102 -158 163.5 -331.5t61.5 -376.5t-60.5 -375t-164.5 -332q-49 -72 -104.5 -139.5t-114.5 -134.5z " />
<glyph unicode="*" horiz-adv-x="1081" d="M57 1182l49 102l351 -117l24 377h115l22 -377l353 117l47 -102l-354 -160l194 -330l-78 -57l-254 287l-286 -267l-70 86l231 279z" />
<glyph unicode="+" horiz-adv-x="1273" d="M92 475v191h443v452h200v-452h447v-191h-447v-452h-200v452h-443z" />
<glyph unicode="," horiz-adv-x="704" d="M127 -285q63 61 95 117.5t48 116.5q-37 25 -58.5 75t-21.5 97q0 41 29 81t82 40q18 0 44 -8.5t49.5 -31t40 -62t16.5 -105.5q0 -49 -21.5 -101.5t-57.5 -102.5t-83 -98t-101 -91z" />
<glyph unicode="-" horiz-adv-x="808" d="M113 469v188h581v-188h-581z" />
<glyph unicode="." horiz-adv-x="589" d="M125 125q0 59 44 103t103 44t102.5 -44t43.5 -103t-43 -102t-103 -43q-59 0 -103 43t-44 102z" />
<glyph unicode="/" horiz-adv-x="899" d="M37 0l635 1374h196l-632 -1374h-199z" />
<glyph unicode="0" horiz-adv-x="1275" d="M104 522q0 131 43 234.5t117 176.5t171 110.5t208 37.5q133 0 232.5 -42t165 -113.5t98 -169.5t32.5 -213q0 -133 -42 -239.5t-115.5 -180.5t-173 -114t-213.5 -40q-111 0 -206 33t-166 101.5t-111 173t-40 245.5zM311 526q0 -80 20.5 -149.5t61.5 -120.5t103.5 -80 t146.5 -29q68 0 126 27t102 77t69 120.5t25 158.5q0 80 -21.5 149t-63.5 119t-103.5 78.5t-143.5 28.5q-68 0 -127.5 -26.5t-102.5 -75.5t-67.5 -120t-24.5 -157z" />
<glyph unicode="1" horiz-adv-x="759" d="M92 954l270 119h162v-917l111 -6v-150h-434v150l112 6v692l-188 -41z" />
<glyph unicode="2" horiz-adv-x="1007" d="M88 922q37 47 92 86q51 33 120 58.5t167 25.5q195 0 293 -92.5t98 -239.5q0 -117 -64.5 -214t-199.5 -208l-195 -158q41 0 81 1t95.5 2t134 2t195.5 1v-186h-796v162l274 231q61 51 108.5 93t80 80t49 77t16.5 84q0 82 -52.5 135t-156.5 53q-51 0 -95 -18t-77 -39 q-39 -27 -70 -59z" />
<glyph unicode="3" horiz-adv-x="964" d="M66 942q39 41 92 74q47 29 111.5 50t150.5 21q96 0 171 -26.5t126 -72.5t77.5 -106.5t26.5 -127.5q0 -113 -60.5 -200t-158.5 -134v-8q117 -29 183.5 -120t66.5 -218q0 -100 -35 -187.5t-101.5 -152t-164.5 -101t-227 -36.5q-49 0 -91.5 6t-72.5 14q-37 8 -68 21l43 167 q33 -8 68 -14q33 -6 67.5 -10t69.5 -4q154 0 223.5 78.5t69.5 193.5q0 74 -29 121t-78 74.5t-114.5 39t-137.5 11.5h-110v170h100q61 0 123 16.5t111 49t78.5 79.5t29.5 111q0 92 -58.5 143t-160.5 51q-47 0 -88 -15t-70 -32q-37 -23 -65 -49z" />
<glyph unicode="4" horiz-adv-x="1134" d="M33 0v164l573 911h254v-889h246v-186h-246v-393h-203v393h-624zM240 184h29.5t28.5 1t44 1h72h245v654h-8z" />
<glyph unicode="5" horiz-adv-x="976" d="M92 -362l43 167q33 -8 68 -14q33 -6 67.5 -10t69.5 -4q78 0 136.5 26.5t99 69.5t61 98.5t20.5 110.5q0 152 -85 225.5t-291 73.5h-121v692h671v-201h-477v-323l45 -2q121 -6 210 -44t147.5 -98.5t88 -137t29.5 -156.5q0 -115 -40.5 -209.5t-114.5 -162t-175.5 -105 t-219.5 -37.5q-49 0 -91.5 6t-72.5 14q-37 8 -68 21z" />
<glyph unicode="6" horiz-adv-x="1212" d="M135 580q0 442 209 663t596 221q16 0 46 -1t58 -3v-182q-37 6 -65.5 7t-56.5 1q-127 0 -226.5 -36t-170 -100.5t-111.5 -153.5t-54 -193l5 -6q47 57 127.5 92t185.5 35q102 0 182 -32t136.5 -90.5t86 -139.5t29.5 -181q0 -111 -37 -203t-103.5 -158.5t-159.5 -103 t-206 -36.5q-244 0 -357.5 158.5t-113.5 441.5zM367 469q0 -51 15 -106.5t48 -101.5t83 -74.5t118 -28.5q123 0 193.5 79.5t70.5 208.5q0 135 -67.5 215t-190.5 80q-61 0 -111.5 -23.5t-86.5 -61.5t-54 -87t-18 -100z" />
<glyph unicode="7" horiz-adv-x="960" d="M51 872v201h850v-168q-61 -139 -123.5 -290.5t-119 -313.5t-103.5 -336t-80 -358h-229q41 211 91 387t105.5 329.5t115.5 291t118 270.5q-29 -2 -79 -7.5t-142 -5.5h-404z" />
<glyph unicode="8" horiz-adv-x="1148" d="M115 344q0 86 30.5 150.5t73.5 110.5t89 77t77 49q-43 23 -87 58.5t-81 83t-59.5 105.5t-22.5 124t25.5 131t80 118.5t139.5 87.5t202 34q68 0 142.5 -16.5t137 -55.5t102.5 -105.5t40 -167.5q0 -76 -26 -134t-65 -103t-84 -76t-84 -51q43 -27 93.5 -58.5t93.5 -75.5 t70.5 -106.5t27.5 -150.5q0 -100 -42 -174t-109.5 -123t-153.5 -72.5t-172 -23.5t-166 20t-140.5 65.5t-96 114t-35.5 164.5zM332 369q0 -57 21.5 -97.5t55 -66t76.5 -36.5t86 -11t87 11t79 33.5t57.5 59.5t22.5 88q0 61 -26.5 109.5t-66.5 85.5t-85 62.5t-82 39.5 q-39 -14 -80 -43t-72.5 -65.5t-52 -79.5t-20.5 -90zM346 1104q0 -47 25.5 -88t61.5 -74t76 -56.5t69 -35.5q37 16 75.5 42t69.5 59.5t51.5 75.5t20.5 87q0 78 -58.5 133.5t-163.5 55.5q-45 0 -86 -13.5t-72.5 -39t-50 -62.5t-18.5 -84z" />
<glyph unicode="9" horiz-adv-x="1212" d="M92 588q0 111 37 203t103.5 158.5t159.5 103.5t206 37q244 0 357.5 -159t113.5 -442q0 -442 -209 -663t-596 -221q-16 0 -46 1t-58 3v182q37 -6 65.5 -7t57.5 -1q127 0 229 38t175 104.5t113 154.5t44 186l-4 6q-47 -57 -128 -92t-186 -35q-100 0 -181 32t-137 90.5 t-86 139t-30 181.5zM309 623q0 -135 67.5 -215t190.5 -80q61 0 111.5 23.5t86.5 62.5t54.5 87t18.5 99q0 53 -15.5 107.5t-48.5 100.5t-83 74.5t-118 28.5q-123 0 -193.5 -79.5t-70.5 -208.5z" />
<glyph unicode=":" horiz-adv-x="618" d="M139 125q0 59 44 103t104 44q59 0 103 -44t44 -103t-44 -102t-103 -43t-103.5 43t-44.5 102zM139 793q0 61 44 104t104 43q59 0 103 -43t44 -104q0 -59 -44 -102.5t-103 -43.5t-103.5 43t-44.5 103z" />
<glyph unicode=";" horiz-adv-x="733" d="M143 -285q63 61 95 117.5t49 116.5q-37 25 -58.5 75t-21.5 97q0 41 28.5 81t81.5 40q18 0 44 -8.5t49.5 -31t40 -62t16.5 -105.5q0 -49 -21.5 -101.5t-57.5 -102.5t-83 -98t-100 -91zM188 793q0 61 43 104t105 43q59 0 103 -43t44 -104q0 -59 -44 -102.5t-103 -43.5 q-61 0 -104.5 43t-43.5 103z" />
<glyph unicode="&#x3c;" horiz-adv-x="1097" d="M111 596l784 674l92 -92l-547 -580l547 -573l-92 -97z" />
<glyph unicode="=" horiz-adv-x="1071" d="M137 270v189h795v-189h-795zM137 674v188h795v-188h-795z" />
<glyph unicode="&#x3e;" horiz-adv-x="1097" d="M109 23l546 579l-546 574l92 94l784 -668l-782 -672z" />
<glyph unicode="?" horiz-adv-x="1017" d="M113 1300q55 78 145 118t176 40q416 0 416 -399q0 -70 -23.5 -122t-59.5 -96t-77 -83t-76.5 -81t-59.5 -92t-24 -116v-125h-174q-4 27 -6 53q-2 23 -4 47.5t-2 47.5q0 92 48 161.5t104.5 131t104.5 122t48 131.5q0 123 -59.5 187.5t-179.5 64.5q-57 0 -111.5 -28.5 t-95.5 -73.5zM336 109q0 55 40 95t97 40t96 -40t39 -95t-39 -95.5t-96 -40.5t-97 40t-40 96z" />
<glyph unicode="@" horiz-adv-x="1777" d="M98 623q0 186 70 346.5t189.5 279.5t280.5 186.5t341 67.5q166 0 299 -53t227 -145q92 -90 140.5 -210t48.5 -261q0 -147 -47.5 -262t-124.5 -191q-59 -59 -131 -93t-150 -34l-115 94q-12 -14 -36.5 -35.5t-59.5 -41t-76 -34t-84 -14.5q-76 0 -140 31t-110.5 86t-73 134 t-26.5 173q0 102 31 187.5t86 146.5t131 95t166 34q47 0 106.5 -10t104.5 -45l26 39h117v-701q49 0 95.5 32t82 88t58 136t22.5 176q0 104 -30 191q-49 154 -183 241q-139 98 -340 99q-147 0 -274 -56.5t-222.5 -154.5t-149.5 -229.5t-54 -280.5q0 -166 57.5 -295 t163.5 -213q78 -61 178.5 -94t220.5 -33q147 0 250 38t189 87l30 -125q-119 -72 -245.5 -106.5t-243.5 -34.5q-156 0 -287 45t-233 127q-129 104 -202 254.5t-73 337.5zM713 653q0 -41 9 -87t31.5 -86t58.5 -65.5t89 -25.5q33 0 70 16.5t67.5 52.5t51 89t20.5 127 q0 104 -11.5 163.5t-23.5 69.5q-29 23 -63.5 31t-71.5 8q-104 0 -165.5 -82t-61.5 -211z" />
<glyph unicode="A" horiz-adv-x="1214" d="M33 0l463 1374h209l466 -1374h-223l-102 324h-506l-104 -324h-203zM389 473h406l-181 569q-6 16 -9 32t-7 26q-2 14 -4 24h-4q-2 -10 -6 -24q-2 -12 -6.5 -26.5t-10.5 -33.5z" />
<glyph unicode="B" horiz-adv-x="1167" d="M152 0v1374h448q98 0 180 -28.5t146 -104.5q73 -87 73 -208q0 -95 -50 -167.5t-126 -113.5q6 -4 44 -21.5t81 -55.5t78 -99.5t35 -153.5q0 -94 -46 -191.5t-151 -158.5q-55 -35 -125.5 -53.5t-181.5 -18.5h-178h-78h-60.5h-53h-35.5zM358 186h215q127 0 202 62.5 t75 171.5q0 70 -29.5 112.5t-74 66.5t-94.5 32t-91 8h-94h-71.5h-37.5v-453zM358 823h156q145 0 209.5 52.5t64.5 138.5q0 27 -9 57.5t-31.5 57t-63.5 43t-106 16.5h-220v-365z" />
<glyph unicode="C" horiz-adv-x="1181" d="M100 668q0 152 41 283.5t120 230t195.5 155t268.5 56.5q74 0 179.5 -36t197.5 -116l-82 -149q-96 66 -172 85t-127 19q-109 0 -189.5 -50t-132.5 -142q-71 -129 -71 -315v-5q0 -164 49 -274q47 -113 138 -172.5t214 -59.5q66 0 149 24.5t150 90.5l82 -148 q-76 -76 -183.5 -119.5t-224.5 -43.5q-147 0 -259.5 53t-188.5 145t-115 217t-39 271z" />
<glyph unicode="D" horiz-adv-x="1280" d="M152 0v1374h366q254 0 420 -129q115 -86 178.5 -225.5t63.5 -325.5q0 -168 -57.5 -300t-157.5 -224q-186 -170 -480 -170h-333zM358 190h138q98 0 182 31t145.5 93.5t96 155.5t34.5 218q0 147 -44 243.5t-109.5 152t-144 78t-146.5 22.5h-152v-994z" />
<glyph unicode="E" horiz-adv-x="983" d="M152 0v1374h696v-190h-490v-359h478v-188h-478v-444h490v-193h-696z" />
<glyph unicode="F" horiz-adv-x="950" d="M152 0v1374h716v-190h-510v-363h496v-190h-496v-631h-206z" />
<glyph unicode="G" horiz-adv-x="1284" d="M100 668q0 152 41 283.5t120 230t195.5 155t268.5 56.5q74 0 179.5 -36t197.5 -116l-82 -149q-96 66 -172 85t-127 19q-109 0 -189.5 -50t-132.5 -142q-71 -129 -71 -315v-5q0 -164 49 -274q47 -113 138 -172.5t214 -59.5q45 0 101.5 11.5t109.5 39.5v334l-115 12v119 h322v-233v-461h-154l-26 47q-53 -23 -129 -44t-136 -21q-147 0 -259.5 53t-188.5 145t-115 217t-39 271z" />
<glyph unicode="H" horiz-adv-x="1300" d="M152 0v1374h206v-545h582v545h209v-1374h-209v637h-582v-637h-206z" />
<glyph unicode="I" horiz-adv-x="739" d="M152 0v150l112 6v1063l-112 6v149h434v-149l-113 -6v-1063l113 -6v-150h-434z" />
<glyph unicode="J" horiz-adv-x="692" d="M-78 41l51 172q35 -16 77 -27.5t85 -11.5q88 0 143.5 58.5t55.5 203.5v938h209v-944q0 -125 -37 -217q-12 -33 -38 -73t-68 -75.5t-105.5 -59t-153.5 -23.5q-63 0 -117.5 15t-101.5 44z" />
<glyph unicode="K" horiz-adv-x="1181" d="M152 0v1374h206v-641l502 641h254l-532 -667l555 -707h-269l-510 672v-672h-206z" />
<glyph unicode="L" horiz-adv-x="792" d="M152 0v1374h206v-1179h443v-195h-649z" />
<glyph unicode="M" horiz-adv-x="1609" d="M113 0l102 1374h209l289 -708q8 -18 20 -49t24.5 -63t24 -60.5t13.5 -44.5h10q4 18 16.5 47.5t25.5 63.5t26.5 64.5t19.5 49.5l289 700h209l104 -1374h-207l-80 987q-16 -47 -32 -88q-14 -39 -26.5 -72.5t-21.5 -52.5l-270 -672h-123l-256 631q-6 20 -20.5 55t-29.5 72 t-27.5 71t-16.5 50l-68 -981h-204z" />
<glyph unicode="N" horiz-adv-x="1308" d="M152 0v1374h208l441 -712q12 -18 36.5 -59.5t51 -86.5t50.5 -86t32 -59q0 23 -1 74t-2 117.5t-2 142t-1 145.5v126v85v313h192v-1374h-209l-438 713q-12 18 -38 61t-52.5 89t-50 87t-31.5 58q2 -18 2 -66.5t1 -113t2 -138.5t2 -141.5t1 -121.5v-83v-344h-194z" />
<glyph unicode="O" horiz-adv-x="1306" d="M96 678q0 160 42 293t117 227t179.5 146.5t229.5 52.5q127 0 227 -50.5t172 -142.5t109.5 -221t37.5 -289q0 -92 -24.5 -216t-88 -234.5t-173 -187t-281.5 -76.5q-115 0 -215 43t-174 130t-116 218t-42 307zM317 692q0 -104 20.5 -197.5t62.5 -164t104.5 -112.5 t146.5 -42q80 0 142.5 41t106.5 111.5t66.5 163t22.5 192.5q0 84 -16.5 175t-55 167t-103 125t-161.5 49q-94 0 -158.5 -51t-103.5 -128t-56.5 -166t-17.5 -163z" />
<glyph unicode="P" horiz-adv-x="1120" d="M152 0v1374h419q242 0 359 -113.5t117 -312.5q0 -98 -36 -183t-100.5 -146.5t-155.5 -96.5q-86 -33 -192 -33h-12h-90q-37 0 -66.5 1.5t-36.5 1.5v-492h-206zM358 686q6 -2 38 -3t67 -1q41 -2 90 -2h12q38 0 80 10q49 12 91 43t70 81t28 124q0 113 -68 176 q-72 72 -205 72h-203v-500z" />
<glyph unicode="Q" horiz-adv-x="1306" d="M96 678q0 160 42 293t117 227t179.5 146.5t229.5 52.5q127 0 227 -50.5t172 -142.5t109.5 -221t37.5 -289q0 -86 -21.5 -200.5t-75.5 -221t-148.5 -187.5t-239.5 -99q35 -8 76 -16.5t78 -8.5q35 0 73.5 4t71.5 8q39 6 78 13v-158q-27 -8 -62 -14q-29 -6 -65.5 -10.5 t-81.5 -4.5q-66 0 -122 13.5t-97 29.5q-47 20 -86 45l22 93q-109 6 -203 52t-162.5 133t-108.5 215t-40 298zM317 692q0 -104 20.5 -197.5t62.5 -164t104.5 -112.5t146.5 -42q80 0 142.5 41t106.5 111.5t66.5 163t22.5 192.5q0 84 -16.5 175t-55 167t-103 125t-161.5 49 q-94 0 -158.5 -51t-103.5 -128t-56.5 -166t-17.5 -163z" />
<glyph unicode="R" horiz-adv-x="1150" d="M152 0v1374h174h84t123.5 -5t140 -19.5t129.5 -44.5q51 -27 87 -68t57.5 -86t31.5 -90t10 -80t-7 -89t-38 -112.5t-95.5 -114t-180.5 -92.5l436 -573h-258l-400 539h-88v-539h-206zM358 723q4 0 30 -1t54 -1h78q53 0 102.5 14.5t86 44t59.5 76t23 107.5q0 78 -33 121.5 t-78 67.5t-89 30t-67 6h-37.5h-51t-48 -1t-29.5 -1v-463z" />
<glyph unicode="S" horiz-adv-x="985" d="M72 999q0 86 34.5 159t97 125t148.5 82t191 30q72 0 154.5 -20.5t168.5 -74.5l-41 -174q-72 37 -148.5 57.5t-135.5 20.5q-123 0 -188.5 -53t-65.5 -131q0 -70 48 -111t120 -75q80 -39 170 -75t172 -93q16 -12 38.5 -32t42 -50.5t33 -73.5t13.5 -102q0 -115 -48.5 -202 t-134.5 -140q-133 -86 -317 -86q-59 0 -113.5 10t-97.5 24.5t-73.5 29.5t-47.5 24l19 192q59 -33 145 -59.5t180 -26.5q51 0 98.5 11.5t86.5 35.5q37 25 60.5 64t23.5 92q0 57 -31 95t-80 67q-72 41 -167 72.5t-179 82.5q-61 37 -97 80t-53.5 85t-21.5 79t-4 61z" />
<glyph unicode="T" horiz-adv-x="1036" d="M2 1182v192h993v-192h-393v-1182h-207v1182h-393z" />
<glyph unicode="U" horiz-adv-x="1294" d="M152 481v893h206v-885q0 -53 7.5 -99t27.5 -81q35 -63 95.5 -101t156.5 -38q152 0 232 100q59 76 59 238v866h207v-860q0 -170 -58.5 -286.5t-164.5 -178.5q-113 -69 -276 -69h-5q-166 0 -273.5 63t-162.5 174q-29 57 -40 124t-11 140z" />
<glyph unicode="V" horiz-adv-x="1126" d="M-29 1374h226l362 -1001l371 1001h219l-528 -1384h-129z" />
<glyph unicode="W" horiz-adv-x="1673" d="M-14 1374h217l149 -547q12 -41 34 -117.5t42 -154.5q25 -90 53 -190q16 68 33 139q16 66 35.5 138.5t40.5 145.5l166 586h149l166 -557q16 -51 36.5 -121.5t40 -138.5t35 -121t17.5 -69q18 63 39 135q20 68 42 144.5t44 162.5l154 565h209l-422 -1384h-138l-215 706 q-4 16 -16 54t-24.5 81t-22.5 81t-12 53h-7q-2 -14 -12 -52.5t-22.5 -80t-24.5 -78.5t-16 -54l-213 -710h-137z" />
<glyph unicode="X" horiz-adv-x="1085" d="M-8 0l422 709l-398 665h240l283 -495l278 495h240l-395 -663l430 -711h-248l-305 520l-306 -520h-241z" />
<glyph unicode="Y" horiz-adv-x="1019" d="M-39 1374h234l157 -319q31 -61 58.5 -119.5t50.5 -106.5q27 -53 49 -102q23 49 49 104q25 51 54.5 110.5t62.5 125.5l155 307h228l-449 -852v-522h-207v522z" />
<glyph unicode="Z" horiz-adv-x="1021" d="M96 0v98l459 889q14 29 32.5 61.5t37.5 63.5q18 33 39 68h-62q-37 -2 -90 -2h-135h-266v196h813v-94l-473 -911q-18 -35 -37 -66t-33 -55q-16 -27 -33 -51q31 0 76 2h99.5h142.5h260v-199h-830z" />
<glyph unicode="[" horiz-adv-x="686" d="M152 -375v1960h430v-182h-230v-1591h230v-187h-430z" />
<glyph unicode="\" horiz-adv-x="888" d="M41 1374h170l637 -1374h-172z" />
<glyph unicode="]" horiz-adv-x="686" d="M102 -188h232v1591h-232v182h430v-1960h-430v187z" />
<glyph unicode="^" horiz-adv-x="1245" d="M137 768l408 606h121l413 -606l-106 -72l-369 443l-366 -443z" />
<glyph unicode="_" horiz-adv-x="983" d="M-49 -186h1081v-187h-1081v187z" />
<glyph unicode="`" horiz-adv-x="962" d="M238 1518l143 159l354 -385l-69 -84z" />
<glyph unicode="a" horiz-adv-x="1177" d="M88 498q0 125 38 229t105.5 179t159.5 116t201 41q63 0 139 -14.5t129 -59.5l37 53h127v-835l16 -207h-166l-32 156q-35 -49 -82 -86q-45 -37 -104.5 -62.5t-141.5 -25.5q-92 0 -170 36.5t-135 104t-89 163t-32 212.5zM303 506q0 -53 13.5 -113.5t42 -112t75.5 -85 t117 -33.5q43 0 91 21.5t89 67.5t67.5 115.5t26.5 163.5q0 135 -15 213t-32 91q-41 31 -85 41t-93 10q-68 0 -123 -29t-94 -79t-59.5 -119.5t-20.5 -151.5z" />
<glyph unicode="b" horiz-adv-x="1155" d="M152 0v1544h204v-446q0 -12 -1 -45t-3 -68q-2 -41 -4 -90q31 47 76 84q39 35 96.5 59.5t136.5 24.5q92 0 169 -37t131.5 -104.5t85 -162.5t30.5 -212q0 -125 -36 -229.5t-101.5 -179.5t-156.5 -115.5t-199 -40.5q-84 0 -154 25.5t-127 72.5l-51 -80h-96zM356 514 q0 -135 15.5 -213t31.5 -90q41 -31 80 -41t88 -10q68 0 121 28.5t90 78.5t56.5 120t19.5 152q0 53 -11 113.5t-39 111.5t-73 85t-114 34q-43 0 -90.5 -21.5t-85 -67.5t-63.5 -115t-26 -165z" />
<glyph unicode="c" horiz-adv-x="915" d="M78 504q0 145 50 262t142 192q61 49 137 77t168 28q90 0 169 -33t141 -90l-80 -137q-55 45 -123 63q-45 14 -100 15q-133 0 -211 -103q-76 -100 -76 -262q0 -74 17.5 -138.5t53 -111.5t88 -73.5t121.5 -26.5q63 0 128 20.5t106 65.5l76 -137q-59 -59 -147.5 -96 t-192.5 -37t-193.5 37.5t-152.5 113.5q-55 66 -88 159t-33 212z" />
<glyph unicode="d" horiz-adv-x="1155" d="M88 498q0 125 36 229t101.5 179t156.5 116t200 41q127 0 223 -59q-2 37 -2 69q-2 31 -3 56.5t-1 37.5v377h205v-1544h-156l-33 139q-16 -18 -44 -45.5t-66.5 -52.5t-89 -42t-111.5 -17q-92 0 -169 36.5t-131 104t-85 163t-31 212.5zM303 506q0 -53 11.5 -113.5t39 -112 t72.5 -85t115 -33.5q43 0 90 21.5t85 67.5t63.5 115.5t25.5 163.5q0 135 -15.5 213t-31.5 91q-41 31 -80 41t-88 10q-68 0 -121 -29t-90 -79t-56.5 -119.5t-19.5 -151.5z" />
<glyph unicode="e" horiz-adv-x="1103" d="M78 516q0 125 39 229.5t112 178.5q61 66 147.5 102.5t190.5 36.5q168 0 283 -92q86 -67 127 -171q34 -87 34 -189q0 -20 -1 -40q-2 -12 -2 -26.5t-4 -30.5h-707v-18q0 -135 63 -220q41 -55 104.5 -85.5t153.5 -30.5q86 0 160 29.5t127 64.5l68 -148q-72 -55 -170 -90.5 t-209 -35.5q-248 0 -382 143t-134 393zM315 674h476q0 10 -1.5 22.5t-3.5 22.5q-12 78 -69.5 125t-151.5 47q-86 0 -154.5 -54.5t-95.5 -162.5z" />
<glyph unicode="f" horiz-adv-x="829" d="M49 858v184h230v88q0 117 33.5 202t97.5 138q92 80 233 80q68 0 124 -14t97 -31l-28 -168q-35 12 -77 21.5t-87 9.5q-90 0 -139.5 -56.5t-49.5 -185.5v-84h301v-184h-301v-858h-204v858h-230z" />
<glyph unicode="g" horiz-adv-x="1155" d="M88 498q0 125 36 229t101.5 179t156.5 116t200 41q63 0 138 -23.5t120 -78.5l37 81h127v-1032q0 -158 -47.5 -255t-117 -151.5t-149.5 -72.5t-145 -18q-137 0 -216 25.5t-124 55.5l22 177q16 -8 47 -22.5t71 -28t85 -23.5t88 -10q41 0 90 11t91 45t71 93.5t29 155.5 q0 16 1 40.5t1 49.5q0 27 2 57q-27 -45 -68 -78q-39 -33 -94 -56t-137 -23q-92 0 -169 36.5t-131 104t-85 163t-31 212.5zM303 506q0 -53 11.5 -113.5t39 -112t72.5 -85t115 -33.5q43 0 90 21.5t85 67.5t63.5 115.5t25.5 163.5q0 135 -15.5 213t-31.5 91q-41 31 -80 41 t-88 10q-68 0 -121 -29t-90 -79t-56.5 -119.5t-19.5 -151.5z" />
<glyph unicode="h" d="M152 0v1544h204v-436q0 -12 -1 -47t-3 -70q-2 -43 -4 -94q31 47 68 76q51 41 116.5 66.5t137.5 25.5q117 0 202 -57q66 -41 114 -127t48 -234v-647h-207v616q0 129 -51 196t-149 67q-55 0 -104.5 -25t-86.5 -69t-58.5 -103t-21.5 -127v-555h-204z" />
<glyph unicode="i" horiz-adv-x="507" d="M125 1393q0 53 38 90t91 37t91 -37t38 -90t-38 -90t-91 -37t-91 36.5t-38 90.5zM152 0v1042h204v-1042h-204z" />
<glyph unicode="j" horiz-adv-x="514" d="M-160 -436l23 151q31 -12 62.5 -20t66.5 -8q84 0 125 50t41 179v1126h204v-1114q0 -96 -22 -180q-35 -113 -111.5 -174t-210.5 -61q-98 0 -178 51zM131 1393q0 53 39 90t92 37t90 -37t37 -90t-37 -90t-90 -37t-92 36.5t-39 90.5z" />
<glyph unicode="k" horiz-adv-x="1089" d="M152 0v1544h204v-958l414 456h258l-450 -487l489 -555h-276l-435 508v-508h-204z" />
<glyph unicode="l" horiz-adv-x="507" d="M152 0v1544h204v-1544h-204z" />
<glyph unicode="m" horiz-adv-x="1599" d="M152 0v1042h155l29 -135q47 82 125 119t139 37q98 0 161.5 -46t92.5 -124q6 10 26.5 37.5t55.5 56.5t86 52.5t121 23.5q137 0 221 -89t84 -263v-711h-207v686q0 90 -33.5 140.5t-105.5 50.5q-47 0 -88 -27t-70 -74q-18 -31 -29.5 -69.5t-13.5 -85.5v-621h-205v686 q0 90 -32 141q-37 49 -107 50q-41 0 -78 -19.5t-64.5 -55.5t-43 -84t-15.5 -106v-612h-204z" />
<glyph unicode="n" d="M152 0v1042h155l33 -151q14 18 41 48t66.5 57.5t95 47t127.5 19.5q59 0 109 -15.5t93 -41.5q59 -37 110.5 -130.5t51.5 -228.5v-647h-207v616q0 129 -51 196t-149 67q-55 0 -104.5 -25t-86.5 -69t-58.5 -103t-21.5 -127v-555h-204z" />
<glyph unicode="o" horiz-adv-x="1142" d="M76 516q0 115 37 214t103.5 173t159.5 117t204 43q104 0 193 -37t153.5 -105.5t100.5 -168t36 -222.5q0 -88 -31 -185t-92 -179t-156.5 -134t-224.5 -52q-104 0 -192 36.5t-152.5 106.5t-101.5 169t-37 224zM293 526q0 -55 13 -119.5t45 -117.5t86.5 -89t133.5 -36 q86 0 139.5 41t84 99t42 119.5t11.5 100.5q0 72 -17.5 136.5t-52.5 113.5t-86 78t-121 29q-82 0 -136 -39t-86 -94.5t-44 -117t-12 -104.5z" />
<glyph unicode="p" horiz-adv-x="1155" d="M152 -481v1523h155l33 -151q33 49 80 86q41 35 99.5 60.5t137.5 25.5q92 0 169 -37t131.5 -104.5t85 -162.5t30.5 -212q0 -125 -36 -229.5t-101.5 -179.5t-156.5 -115.5t-199 -40.5q-121 0 -224 57v-520h-204zM356 514q0 -135 15.5 -213t31.5 -90q41 -31 80 -41t88 -10 q68 0 121 28.5t90 78.5t56.5 120t19.5 152q0 53 -11 113.5t-39 111.5t-73 85t-114 34q-43 0 -90.5 -21.5t-85 -67.5t-63.5 -115t-26 -165z" />
<glyph unicode="q" horiz-adv-x="1155" d="M82 498q0 125 36 229t101.5 179t156.5 116t199 41q63 0 138 -19.5t131 -78.5l39 77h121v-1523h-205v446v33t1 52.5t2 52t3 36.5q-14 -18 -41 -45.5t-64.5 -52.5t-89 -42t-112.5 -17q-92 0 -169 36.5t-131.5 104t-85 163t-30.5 212.5zM297 506q0 -53 11 -113.5t39 -112 t73 -85t115 -33.5q43 0 90 21.5t85 67.5t63.5 115.5t25.5 163.5q0 135 -15.5 213t-31.5 91q-41 31 -80 41t-88 10q-68 0 -121 -29t-90 -79t-56.5 -119.5t-19.5 -151.5z" />
<glyph unicode="r" horiz-adv-x="718" d="M152 0v1042h155l33 -149q14 23 34.5 43t41.5 37q51 41 116.5 66.5t137.5 25.5v-250q-54 10 -98 10q-88 -1 -139 -41q-77 -62 -77 -229v-555h-204z" />
<glyph unicode="s" horiz-adv-x="905" d="M100 752q0 68 29 125t81 98t126 64.5t164 23.5q96 0 158.5 -25.5t115.5 -52.5l-35 -162q-53 27 -110.5 47.5t-132.5 20.5q-90 0 -137.5 -35t-47.5 -88q0 -20 14.5 -49t65.5 -57q35 -18 78 -34t88 -32t89 -36.5t79 -49.5q41 -33 66.5 -81t25.5 -118q0 -76 -31.5 -137 t-89 -105t-135.5 -68t-168 -24q-76 0 -148.5 18.5t-129.5 51.5l14 178q61 -27 131 -49t141 -22q80 0 141.5 34.5t61.5 100.5q0 33 -14.5 55.5t-40.5 38.5q-31 23 -76 38t-93 30.5t-95 36t-86 51.5q-37 31 -56.5 61.5t-29 59t-11.5 52t-2 40.5z" />
<glyph unicode="t" horiz-adv-x="849" d="M45 858v184h207v353l10 14l195 18v-385h313v-184h-313v-483q0 -125 40 -172t117 -47q35 0 69 8t67 18l12 -147q-43 -25 -96.5 -39t-108.5 -14q-111 0 -186 53q-119 88 -119 311v512h-207z" />
<glyph unicode="u" d="M139 395v647h207v-616q0 -129 51.5 -195.5t149.5 -66.5q55 0 104 24.5t86 68.5t58.5 103.5t21.5 126.5v555h205v-1042h-156l-32 150q-14 -23 -35 -43.5t-41 -36.5q-51 -41 -117 -67t-137 -26q-117 0 -203 58q-66 41 -114 127t-48 233z" />
<glyph unicode="v" horiz-adv-x="968" d="M2 1042h225l164 -438q14 -41 30.5 -85t29.5 -81q16 -45 30 -86h4l13 39q4 16 11 35.5t13 38.5l221 577h222l-416 -1042h-133z" />
<glyph unicode="w" horiz-adv-x="1511" d="M-12 1042h217l196 -555q8 -23 16.5 -48t14.5 -48q6 -27 14 -51q16 47 33 96q14 43 29.5 89t30.5 85l149 432h133l154 -411q10 -25 25.5 -73t29.5 -97q18 -55 37 -121q6 31 14 59q6 25 14.5 50.5t14.5 44.5l195 548h217l-385 -1052h-144l-180 495q-10 25 -21.5 60 t-21.5 67q-12 37 -25 76q-10 -37 -20 -72q-10 -33 -20.5 -66.5t-20.5 -60.5l-178 -499h-139z" />
<glyph unicode="x" horiz-adv-x="1001" d="M16 0l363 532l-338 510h238l223 -348l227 348h227l-335 -505l358 -537h-244l-239 373l-242 -373h-238z" />
<glyph unicode="y" horiz-adv-x="962" d="M4 1042h225l154 -405q14 -39 31.5 -87t34.5 -91q16 -51 34 -103q29 76 56 148q25 63 46 123.5t36 97.5l116 317h221l-602 -1529h-213l234 575z" />
<glyph unicode="z" horiz-adv-x="927" d="M84 0v84l459 766q-23 0 -80 -1t-168 -1h-201v194h742v-90l-455 -755h35.5t60.5 1t76 1h80h203v-199h-752z" />
<glyph unicode="{" horiz-adv-x="819" d="M186 606v148q39 10 70 39q27 25 47.5 67.5t20.5 116.5v332q0 160 76.5 235.5t199.5 75.5h88v-150h-43q-66 0 -92.5 -55t-26.5 -135v-346q0 -76 -26.5 -124t-57.5 -77q-39 -35 -86 -51q47 -18 86 -53q33 -31 58.5 -79t25.5 -124v-346q0 -80 27 -135.5t92 -55.5h43v-149 h-88q-123 0 -199.5 75.5t-76.5 235.5v332q0 74 -21.5 118t-46.5 68q-31 27 -70 37z" />
<glyph unicode="|" horiz-adv-x="528" d="M170 -483v2048h186v-2048h-186z" />
<glyph unicode="}" horiz-adv-x="819" d="M133 -111h43q66 0 92.5 55.5t26.5 135.5v346q0 76 26.5 125t59.5 78q37 35 84 53q-47 16 -84 51q-35 29 -60.5 77t-25.5 124v346q0 80 -26.5 135t-92.5 55h-43v150h88q123 0 200 -76t77 -235v-332q0 -74 21.5 -118t47.5 -66q29 -29 68 -39v-148q-39 -10 -68 -37 t-49 -69.5t-20 -116.5v-332q0 -160 -77 -235.5t-200 -75.5h-88v149z" />
<glyph unicode="~" horiz-adv-x="1177" d="M109 492q18 63 52 111t74.5 81t87 49.5t91.5 16.5t95 -20.5t101.5 -45.5t100.5 -45.5t92 -20.5q37 0 63.5 16.5t45 38t29.5 44t20 35.5l106 -62q-18 -74 -52 -125t-77 -83.5t-89 -47t-87 -14.5t-91 20.5t-103.5 46t-105.5 46t-97 20.5q-35 0 -58.5 -13.5t-41 -32 t-28 -38.5t-20.5 -35z" />
<glyph unicode="&#xa1;" horiz-adv-x="663" d="M170 971q0 55 40 95t97 40t97 -40t40 -95q0 -57 -39.5 -96t-97.5 -39q-57 0 -97 38.5t-40 96.5zM180 -440l53 1118h146l53 -1118h-252z" />
<glyph unicode="&#xa2;" horiz-adv-x="935" d="M80 621q0 96 26.5 181t75.5 152.5t119 114.5t154 66v282h186v-270q141 -23 252 -123l-76 -137q-47 41 -106.5 61.5t-122.5 20.5q-129 0 -211 -93.5t-82 -250.5q0 -72 19.5 -133.5t56.5 -107.5t91 -71.5t124 -25.5q66 0 129 20.5t104 65.5l76 -137q-49 -49 -114.5 -83 t-139.5 -47v-288h-186v295q-174 35 -274.5 170t-100.5 338z" />
<glyph unicode="&#xa3;" horiz-adv-x="1089" d="M123 0v182q68 6 123 37q49 29 85 85t36 163q0 23 -1 53.5t-1 59.5q-2 33 -5 67h-235v184h227q-4 31 -7 70t-3 66q0 217 107.5 328.5t285.5 111.5q33 0 66 -6t61 -15q31 -8 62 -20l-52 -164q-20 6 -47 12q-23 4 -51.5 8.5t-62.5 4.5q-41 0 -71 -17.5t-48.5 -45 t-27.5 -62.5t-13 -72q-8 -88 8 -199h348v-184h-342q2 -10 3 -32.5t2 -48t1 -47v-27.5q0 -80 -24.5 -151t-71.5 -151q23 2 57 3q29 0 71 1t102 1h280v-195h-862z" />
<glyph unicode="&#xa4;" horiz-adv-x="1181" d="M16 418v194h86q-2 14 -2 27.5v28.5v28.5t2 28.5h-86v195h115q29 104 80 191t126 149.5t172 97.5t216 35q74 0 179.5 -36t197.5 -116l-82 -149q-96 66 -172 85t-127 19q-109 0 -189.5 -50t-132.5 -142q-23 -43 -37 -84h660v-195h-694v-41v-36.5t2 -35.5h692v-194h-649 l4 -8q47 -113 138 -172.5t214 -59.5q66 0 149 24.5t150 90.5l82 -148q-76 -76 -183.5 -119.5t-224.5 -43.5q-115 0 -208 31.5t-164.5 89t-120.5 138.5t-76 177h-117z" />
<glyph unicode="&#xa5;" horiz-adv-x="1019" d="M-39 1374h234l157 -319q35 -68 66 -133.5t53 -112.5h78q23 49 56.5 116.5t70.5 141.5l155 307h228l-297 -565h272v-191h-370l-54 -96v-63h424v-191h-424v-268h-207v268h-421v191h421v63l-49 96h-372v191h272z" />
<glyph unicode="&#xa7;" horiz-adv-x="976" d="M121 750q0 66 24.5 121t65.5 94q-23 33 -37 76.5t-14 91.5q0 68 26.5 127t75.5 103t121 69.5t160 25.5q66 0 124 -17.5t121 -58.5l-40 -161q-53 27 -104.5 43t-102.5 16q-84 0 -126 -37t-42 -98q0 -31 18.5 -55.5t48 -49t66.5 -49t76 -53.5q74 -55 124 -104.5t80.5 -98.5 t44 -100.5t13.5 -110.5q0 -82 -30 -132t-58 -79q33 -45 41 -95t8 -93q0 -88 -34 -147.5t-88 -96.5t-121.5 -53t-135.5 -16q-127 0 -246 71l19 178q68 -33 124 -50t109 -17q78 0 130 38t52 103q0 59 -53 106.5t-125 96.5q-51 35 -104 71.5t-99 84.5q-49 51 -80.5 113.5 t-31.5 142.5zM309 784q0 -59 26.5 -103t57.5 -79q35 -41 75 -79t64 -58l144 31q0 59 -29 108t-72 96q-27 29 -57.5 57.5t-62.5 59.5z" />
<glyph unicode="&#xa8;" horiz-adv-x="1257" d="M285 1364q0 51 35.5 87t87.5 36q51 0 86.5 -36t35.5 -87q0 -53 -35.5 -88t-86.5 -35t-87 35t-36 88zM709 1364q0 51 35.5 87t86.5 36q53 0 88 -36t35 -87q0 -53 -34.5 -88t-88.5 -35q-51 0 -86.5 35t-35.5 88z" />
<glyph unicode="&#xa9;" horiz-adv-x="1699" d="M37 684q0 168 63.5 315.5t174 257t258 173t315.5 63.5t315.5 -63.5t258 -173t174 -256t63.5 -314.5t-63.5 -315.5t-174 -258t-258 -174t-315.5 -63.5q-170 0 -317.5 63.5t-257 173t-173 257t-63.5 315.5zM201 686q0 -133 51 -252t138 -207t205 -139t251 -51t250.5 51 t206 139t138.5 206t50 251t-50 251t-138.5 206t-206 139t-250.5 51t-251 -51t-205 -138t-138 -205t-51 -251zM473 678q0 86 26.5 164t78 136t127 93t176.5 35q82 0 142 -29.5t120 -93.5l-72 -125q-31 25 -80 51.5t-108 26.5q-98 0 -151.5 -70.5t-53.5 -183.5 q0 -117 53 -181.5t148 -64.5q55 0 106 20.5t88 57.5l74 -121q-129 -129 -283 -129q-94 0 -166.5 32t-123 88t-76 132t-25.5 162z" />
<glyph unicode="&#xab;" horiz-adv-x="1445" d="M109 592l577 565l102 -72l-378 -491l378 -490l-104 -73zM647 592l588 563l100 -72l-387 -489l387 -488l-104 -73z" />
<glyph unicode="&#xac;" horiz-adv-x="10913" d="M219 -365v1946h127v-1835h637v-111h-764zM782 498q0 121 38 224t104.5 179t159 119t200.5 43q66 0 145.5 -20.5t165.5 -77.5l58 77h51v-864l12 -178h-78l-28 209q-29 -43 -69 -85t-91 -74t-113.5 -52.5t-136.5 -20.5q-92 0 -169 38t-132 105.5t-86 164t-31 213.5z M905 506q0 -68 15.5 -143.5t54.5 -139t102.5 -104.5t161.5 -41q59 0 122.5 32.5t116 92t87 145t34.5 189.5q0 86 -4 145t-10 96t-14 55.5t-17 24.5q-57 49 -127.5 77t-136.5 28q-86 0 -156.5 -32t-120.5 -91.5t-79 -143.5t-29 -190zM2146 0v1581h912v-283h-602v-323h497 v-283h-497v-692h-310zM3168 522q0 127 35 227.5t97.5 170t148.5 106.5t188 37q104 0 189.5 -36t147 -105.5t94 -168t32.5 -225.5q0 -74 -21.5 -166t-74.5 -174t-144.5 -138t-232.5 -56q-96 0 -180 31.5t-145.5 96t-97.5 165t-36 235.5zM3449 528q0 -59 9 -116.5t30.5 -102.5 t57.5 -72.5t87 -27.5q47 0 81 27.5t56.5 72.5t33.5 102.5t11 116.5q0 47 -7 102.5t-26.5 103.5t-55.5 80t-93 32q-55 0 -91 -33t-56.5 -81t-28.5 -103.5t-8 -100.5zM4354 0v1042h242l331 -487q2 -4 7.5 -13.5t9.5 -17.5l12 -24q-4 51 -6 104q-4 47 -6 96.5t-2 94.5v247h264 v-1042h-250l-309 467q-8 12 -15.5 26.5t-13.5 26.5q-6 14 -10 27h-8q2 -14 4 -57.5t4 -90.5q2 -55 4 -120v-279h-258zM5517 0v1042h328q104 0 194.5 -19t155.5 -73q92 -70 141.5 -168t49.5 -256q0 -131 -46 -225t-124 -168q-76 -66 -175.5 -99.5t-218.5 -33.5h-305z M5790 221h37q119 0 195.5 73.5t76.5 225.5q0 90 -25.5 147.5t-63.5 92.5t-84 48t-89 13h-47v-600zM6638 0v1042h626v-221h-358v-147h348v-225h-348v-228h358v-221h-626zM7555 0v1042h184q23 0 67 1t99.5 -2t112.5 -13t106 -33q47 -20 78 -51t49.5 -65.5t25.5 -72.5t7 -71 q0 -23 -4 -57.5t-24.5 -74.5t-59.5 -82t-110 -79l335 -434v-8h-335l-252 342h-11v-342h-268zM7823 614h56q53 0 96 24.5t43 90.5q0 35 -15.5 55.5t-37 30.5t-46 14.5t-40.5 4.5h-56v-220zM8600 1561q0 78 51 124t123 46q74 0 121 -49t47 -121q0 -31 -12.5 -61t-35 -53.5 t-53.5 -37.5t-67 -14q-72 0 -123 47t-51 119zM8626 -375v1010h291v-1010h-291zM9200 532q0 129 47 227.5t104 166.5q72 72 159 104.5t198 32.5q90 0 166.5 -21.5t136.5 -74.5q61 -51 109 -146.5t48 -220.5q0 -57 -10 -104h-651v-52q0 -33 11 -67.5t40 -69.5q35 -43 82 -64.5 t113 -21.5q72 0 141.5 19.5t152.5 64.5l101 -168q-94 -78 -199.5 -113.5t-216.5 -35.5q-129 0 -228.5 37.5t-167 108.5t-102 172.5t-34.5 225.5zM9529 678h340v20t-1 20.5t-3 18.5q-23 117 -143 117q-31 0 -63.5 -12.5t-59.5 -35t-46.5 -55t-23.5 -73.5zM10328 1466v115h432 v-1946h-125v1831h-307z" />
<glyph unicode="&#xad;" horiz-adv-x="808" d="M113 469v188h581v-188h-581z" />
<glyph unicode="&#xae;" horiz-adv-x="1501" d="M57 885q0 143 54.5 269t148.5 219t220 147.5t270 54.5q143 0 269 -54.5t220 -147.5t148.5 -219t54.5 -269q0 -141 -54.5 -267t-148.5 -220.5t-220 -148.5t-269 -54t-269.5 54t-220.5 147t-148.5 219t-54.5 270zM209 887q0 -111 42 -210t115.5 -173t172 -117t209.5 -43 t209 43t171.5 115.5t115.5 171t42 209.5t-42 210t-115.5 172.5t-172 116.5t-208.5 43q-111 0 -209.5 -42t-172 -115.5t-115.5 -172t-42 -208.5zM516 506v751h117h44t65.5 -3t73.5 -11t69 -22t51 -39t33.5 -52.5t19.5 -54t6 -45.5q0 -18 -3 -47t-16 -59.5t-42 -61.5t-80 -53 l229 -303h-206l-199 272h2v-272h-164zM680 926q12 0 33 2h18q41 2 73 22.5t32 67.5q0 29 -13.5 45t-30 24.5t-34 10.5t-25.5 2h-53v-174z" />
<glyph unicode="&#xaf;" horiz-adv-x="1091" d="M258 1370v182h569v-182h-569z" />
<glyph unicode="&#xb0;" horiz-adv-x="856" d="M100 1130q0 70 27 128.5t73 101.5t105.5 66.5t122.5 23.5q76 0 137.5 -27.5t104.5 -74.5q80 -90 80 -215q0 -82 -36 -147.5t-96 -108.5q-86 -63 -196 -64q-70 0 -128 23.5t-101 66.5t-68 101.5t-25 125.5zM281 1130q0 -70 49 -114q18 -16 41.5 -25.5t52.5 -9.5 q39 0 69.5 16.5t49.5 44.5q28 39 28 88q0 61 -41 107q-39 45 -104 45q-66 0 -107 -47q-16 -20 -27 -46t-11 -59z" />
<glyph unicode="&#xb1;" horiz-adv-x="1286" d="M111 598v190h430v340h202v-340h431v-190h-431v-342h-202v342h-430zM117 -63v190h1052v-190h-1052z" />
<glyph unicode="&#xb4;" horiz-adv-x="983" d="M238 1292l354 385l141 -157l-428 -312z" />
<glyph unicode="&#xb5;" d="M139 -410v1452h207v-616q0 -129 51.5 -195.5t149.5 -66.5q55 0 104 24.5t86 68.5t58.5 103.5t21.5 126.5v555h205v-1042h-156l-32 150q-14 -23 -35 -43.5t-41 -36.5q-51 -41 -117 -67t-137 -26q-41 0 -83 10.5t-75 22.5v-420h-207z" />
<glyph unicode="&#xb6;" horiz-adv-x="1056" d="M74 948q0 199 116.5 312.5t358.5 113.5h371v-1575h-148v1471h-84v-1471h-147v690h-21q-92 0 -173 35t-142.5 96.5t-96 145.5t-34.5 182z" />
<glyph unicode="&#xb7;" horiz-adv-x="595" d="M150 670q0 61 43 105t104 44q63 0 106 -44t43 -105t-43 -104.5t-106 -43.5q-61 0 -104 43t-43 105z" />
<glyph unicode="&#xb8;" horiz-adv-x="1107" d="M238 -475l63 92q27 -14 55.5 -26.5t75.5 -12.5q49 0 73.5 33t24.5 63q0 37 -15 55.5t-34 28.5q-23 10 -49 11l62 251h137l-19 -200q47 -14 79 -55.5t32 -100.5q0 -49 -22.5 -91t-59.5 -71.5t-86 -46t-102 -16.5q-66 0 -128.5 28.5t-86.5 57.5z" />
<glyph unicode="&#xbb;" horiz-adv-x="1445" d="M111 106l387 488l-387 489l104 72l586 -559l-588 -563zM657 102l379 492l-379 491l105 72l575 -561l-577 -565z" />
<glyph unicode="&#xbf;" horiz-adv-x="1017" d="M211 31q0 70 23.5 122t59.5 96t77 83t76.5 81t59 92t23.5 116v124h175q4 -27 6 -51q2 -25 4 -49t2 -47q0 -92 -48 -161.5t-104.5 -131t-104.5 -122t-48 -132.5q0 -123 59 -187.5t180 -64.5q57 0 111.5 29t95.5 74l90 -113q-55 -78 -145 -118t-176 -40q-416 0 -416 400z M453 981q0 55 38.5 95t96.5 40q57 0 97 -40t40 -95t-40 -95t-97 -40t-96 40t-39 95z" />
<glyph unicode="&#xc0;" horiz-adv-x="1214" d="M33 0l463 1374h209l466 -1374h-223l-102 324h-506l-104 -324h-203zM230 1819l143 159l354 -385l-69 -84zM389 473h406l-181 569q-6 16 -9 32t-7 26q-2 14 -4 24h-4q-2 -10 -6 -24q-2 -12 -6.5 -26.5t-10.5 -33.5z" />
<glyph unicode="&#xc1;" horiz-adv-x="1214" d="M33 0l463 1374h209l466 -1374h-223l-102 324h-506l-104 -324h-203zM389 473h406l-181 569q-6 16 -9 32t-7 26q-2 14 -4 24h-4q-2 -10 -6 -24q-2 -12 -6.5 -26.5t-10.5 -33.5zM474 1591l354 385l141 -157l-428 -312z" />
<glyph unicode="&#xc2;" horiz-adv-x="1214" d="M33 0l463 1374h209l466 -1374h-223l-102 324h-506l-104 -324h-203zM246 1607l336 344h59l324 -342l-70 -88l-293 211l-291 -211zM389 473h406l-181 569q-6 16 -9 32t-7 26q-2 14 -4 24h-4q-2 -10 -6 -24q-2 -12 -6.5 -26.5t-10.5 -33.5z" />
<glyph unicode="&#xc3;" horiz-adv-x="1214" d="M33 0l463 1374h209l466 -1374h-223l-102 324h-506l-104 -324h-203zM209 1609q8 51 34 97.5t59.5 82.5t73.5 57.5t77 21.5t78 -20.5t82 -46.5t83 -46.5t80 -20.5q31 0 57.5 20.5t45.5 45.5q23 27 39 63l80 -38q-23 -78 -60 -140q-33 -57 -80 -98t-114 -41q-45 0 -85 21.5 t-79 47t-81 47t-93 21.5q-23 0 -43.5 -13t-35.5 -30.5t-27.5 -37t-20.5 -31.5zM389 473h406l-181 569q-6 16 -9 32t-7 26q-2 14 -4 24h-4q-2 -10 -6 -24q-2 -12 -6.5 -26.5t-10.5 -33.5z" />
<glyph unicode="&#xc4;" horiz-adv-x="1214" d="M33 0l463 1374h209l466 -1374h-223l-102 324h-506l-104 -324h-203zM275 1653q0 51 35.5 87t87.5 36q51 0 86.5 -36t35.5 -87q0 -53 -35.5 -88t-86.5 -35t-87 35t-36 88zM389 473h406l-181 569q-6 16 -9 32t-7 26q-2 14 -4 24h-4q-2 -10 -6 -24q-2 -12 -6.5 -26.5 t-10.5 -33.5zM699 1653q0 51 35.5 87t86.5 36q53 0 88 -36t35 -87q0 -53 -34.5 -88t-88.5 -35q-51 0 -86.5 35t-35.5 88z" />
<glyph unicode="&#xc5;" horiz-adv-x="1214" d="M33 0l463 1374h209l466 -1374h-223l-102 324h-506l-104 -324h-203zM318 1698q0 59 22.5 111.5t61.5 91.5t91 60.5t111 21.5t111.5 -21.5t91.5 -60.5t61.5 -91.5t22.5 -111.5q0 -57 -22.5 -108.5t-61.5 -90.5t-91 -60.5t-112 -21.5q-59 0 -111 21.5t-91 59.5t-61.5 89.5 t-22.5 110.5zM389 473h406l-181 569q-6 16 -9 32t-7 26q-2 14 -4 24h-4q-2 -10 -6 -24q-2 -12 -6.5 -26.5t-10.5 -33.5zM473 1698q0 -53 39 -92t92 -39q55 0 94.5 39t39.5 92q0 55 -39 95t-95 40q-53 0 -92 -40t-39 -95z" />
<glyph unicode="&#xc6;" horiz-adv-x="1538" d="M-16 0l626 1374h109h696v-190h-489v-359h477v-188h-477v-444h489v-193h-696v324h-383l-150 -324h-202zM397 473h322v711h-12q-6 -18 -15 -41q-8 -20 -18 -46t-25 -57z" />
<glyph unicode="&#xc7;" horiz-adv-x="1181" d="M100 668q0 152 41 283.5t120 230t195.5 155t268.5 56.5q74 0 179.5 -36t197.5 -116l-82 -149q-96 66 -172 85t-127 19q-109 0 -189.5 -50t-132.5 -142q-72 -131 -71 -320q0 -164 49 -274q47 -113 138 -172.5t214 -59.5q66 0 149 24.5t150 90.5l82 -148 q-76 -76 -183.5 -119.5t-224.5 -43.5q-147 0 -259.5 53t-188.5 145t-115 217t-39 271zM344 -418l63 92q27 -14 55.5 -26.5t75.5 -12.5q49 0 73.5 33t24.5 63q0 37 -15 55.5t-34 28.5q-23 10 -49 11l62 251h137l-19 -200q47 -14 79 -55.5t32 -100.5q0 -49 -22.5 -91 t-59.5 -71.5t-86 -46t-102 -16.5q-66 0 -128.5 28.5t-86.5 57.5z" />
<glyph unicode="&#xc8;" horiz-adv-x="983" d="M152 0v1374h696v-190h-490v-359h478v-188h-478v-444h490v-193h-696zM160 1831l143 159l354 -385l-69 -84z" />
<glyph unicode="&#xc9;" horiz-adv-x="983" d="M152 0v1374h696v-190h-490v-359h478v-188h-478v-444h490v-193h-696zM330 1591l354 385l141 -157l-428 -312z" />
<glyph unicode="&#xca;" horiz-adv-x="983" d="M139 1613l336 344h59l324 -342l-70 -88l-293 211l-291 -211zM152 0v1374h696v-190h-490v-359h478v-188h-478v-444h490v-193h-696z" />
<glyph unicode="&#xcb;" horiz-adv-x="983" d="M152 0v1374h696v-190h-490v-359h478v-188h-478v-444h490v-193h-696zM174 1653q0 51 35.5 87t87.5 36q51 0 86.5 -36t35.5 -87q0 -53 -35.5 -88t-86.5 -35t-87 35t-36 88zM598 1653q0 51 35.5 87t86.5 36q53 0 88 -36t35 -87q0 -53 -34.5 -88t-88.5 -35q-51 0 -86.5 35 t-35.5 88z" />
<glyph unicode="&#xcc;" horiz-adv-x="739" d="M58 1756l143 159l354 -385l-69 -84zM152 0v150l112 6v1063l-112 6v149h434v-149l-113 -6v-1063l113 -6v-150h-434z" />
<glyph unicode="&#xcd;" horiz-adv-x="739" d="M152 0v150l112 6v1063l-112 6v149h434v-149l-113 -6v-1063l113 -6v-150h-434zM230 1546l354 385l141 -157l-428 -312z" />
<glyph unicode="&#xce;" horiz-adv-x="739" d="M14 1527l336 344h59l324 -342l-70 -88l-293 211l-291 -211zM152 0v150l112 6v1063l-112 6v149h434v-149l-113 -6v-1063l113 -6v-150h-434z" />
<glyph unicode="&#xcf;" horiz-adv-x="739" d="M37 1593q0 51 35.5 87t87.5 36q51 0 86.5 -36t35.5 -87q0 -53 -35.5 -88t-86.5 -35t-87 35t-36 88zM152 0v150l112 6v1063l-112 6v149h434v-149l-113 -6v-1063l113 -6v-150h-434zM461 1593q0 51 35.5 87t86.5 36q53 0 88 -36t35 -87q0 -53 -34.5 -88t-88.5 -35 q-51 0 -86.5 35t-35.5 88z" />
<glyph unicode="&#xd1;" horiz-adv-x="1308" d="M152 0v1374h208l441 -712q12 -18 36.5 -59.5t51 -86.5t50.5 -86t32 -59q0 23 -1 74t-2 117.5t-2 142t-1 145.5v126v85v313h192v-1374h-209l-438 713q-12 18 -38 61t-52.5 89t-50 87t-31.5 58q2 -18 2 -66.5t1 -113t2 -138.5t2 -141.5t1 -121.5v-83v-344h-194zM262 1603 q8 51 34 97.5t59.5 82.5t73.5 57.5t77 21.5t78 -20.5t82 -46.5t83 -46.5t80 -20.5q31 0 57.5 20.5t45.5 45.5q23 27 39 63l80 -38q-23 -78 -60 -140q-33 -57 -80 -98t-114 -41q-45 0 -85 21.5t-79 47t-81 47t-93 21.5q-23 0 -43.5 -13t-35.5 -30.5t-27.5 -37t-20.5 -31.5z " />
<glyph unicode="&#xd2;" horiz-adv-x="1306" d="M96 678q0 160 42 293t117 227t179.5 146.5t229.5 52.5q127 0 227 -50.5t172 -142.5t109.5 -221t37.5 -289q0 -92 -24.5 -216t-88 -234.5t-173 -187t-281.5 -76.5q-115 0 -215 43t-174 130t-116 218t-42 307zM277 1831l143 159l354 -385l-69 -84zM317 692 q0 -104 20.5 -197.5t62.5 -164t104.5 -112.5t146.5 -42q80 0 142.5 41t106.5 111.5t66.5 163t22.5 192.5q0 84 -16.5 175t-55 167t-103 125t-161.5 49q-94 0 -158.5 -51t-103.5 -128t-56.5 -166t-17.5 -163z" />
<glyph unicode="&#xd3;" horiz-adv-x="1306" d="M96 678q0 160 42 293t117 227t179.5 146.5t229.5 52.5q127 0 227 -50.5t172 -142.5t109.5 -221t37.5 -289q0 -92 -24.5 -216t-88 -234.5t-173 -187t-281.5 -76.5q-115 0 -215 43t-174 130t-116 218t-42 307zM317 692q0 -104 20.5 -197.5t62.5 -164t104.5 -112.5 t146.5 -42q80 0 142.5 41t106.5 111.5t66.5 163t22.5 192.5q0 84 -16.5 175t-55 167t-103 125t-161.5 49q-94 0 -158.5 -51t-103.5 -128t-56.5 -166t-17.5 -163zM525 1607l354 385l141 -157l-428 -312z" />
<glyph unicode="&#xd4;" horiz-adv-x="1306" d="M96 678q0 160 42 293t117 227t179.5 146.5t229.5 52.5q127 0 227 -50.5t172 -142.5t109.5 -221t37.5 -289q0 -92 -24.5 -216t-88 -234.5t-173 -187t-281.5 -76.5q-115 0 -215 43t-174 130t-116 218t-42 307zM313 1617l336 344h59l324 -342l-70 -88l-293 211l-291 -211z M317 692q0 -104 20.5 -197.5t62.5 -164t104.5 -112.5t146.5 -42q80 0 142.5 41t106.5 111.5t66.5 163t22.5 192.5q0 84 -16.5 175t-55 167t-103 125t-161.5 49q-94 0 -158.5 -51t-103.5 -128t-56.5 -166t-17.5 -163z" />
<glyph unicode="&#xd5;" horiz-adv-x="1306" d="M96 678q0 160 42 293t117 227t179.5 146.5t229.5 52.5q127 0 227 -50.5t172 -142.5t109.5 -221t37.5 -289q0 -92 -24.5 -216t-88 -234.5t-173 -187t-281.5 -76.5q-115 0 -215 43t-174 130t-116 218t-42 307zM260 1605q8 51 34 97.5t59.5 82.5t73.5 57.5t77 21.5t78 -20.5 t82 -46.5t83 -46.5t80 -20.5q31 0 57.5 20.5t45.5 45.5q23 27 39 63l80 -38q-23 -78 -60 -140q-33 -57 -80 -98t-114 -41q-45 0 -85 21.5t-79 47t-81 47t-93 21.5q-23 0 -43.5 -13t-35.5 -30.5t-27.5 -37t-20.5 -31.5zM317 692q0 -104 20.5 -197.5t62.5 -164t104.5 -112.5 t146.5 -42q80 0 142.5 41t106.5 111.5t66.5 163t22.5 192.5q0 84 -16.5 175t-55 167t-103 125t-161.5 49q-94 0 -158.5 -51t-103.5 -128t-56.5 -166t-17.5 -163z" />
<glyph unicode="&#xd6;" horiz-adv-x="1306" d="M96 678q0 160 42 293t117 227t179.5 146.5t229.5 52.5q127 0 227 -50.5t172 -142.5t109.5 -221t37.5 -289q0 -92 -24.5 -216t-88 -234.5t-173 -187t-281.5 -76.5q-115 0 -215 43t-174 130t-116 218t-42 307zM314 1653q0 51 35.5 87t87.5 36q51 0 86.5 -36t35.5 -87 q0 -53 -35.5 -88t-86.5 -35t-87 35t-36 88zM317 692q0 -104 20.5 -197.5t62.5 -164t104.5 -112.5t146.5 -42q80 0 142.5 41t106.5 111.5t66.5 163t22.5 192.5q0 84 -16.5 175t-55 167t-103 125t-161.5 49q-94 0 -158.5 -51t-103.5 -128t-56.5 -166t-17.5 -163zM738 1653 q0 51 35.5 87t86.5 36q53 0 88 -36t35 -87q0 -53 -34.5 -88t-88.5 -35q-51 0 -86.5 35t-35.5 88z" />
<glyph unicode="&#xd8;" horiz-adv-x="1306" d="M37 0l166 227q-47 84 -77 198t-30 253q0 160 42 293t117 227t179.5 146.5t229.5 52.5q186 0 319 -111l88 119h197l-176 -240q57 -90 87.5 -208.5t30.5 -262.5q0 -92 -24.5 -216t-88 -234.5t-173 -187t-281.5 -76.5q-92 0 -173 27.5t-163 90.5l-71 -98h-199zM317 692 q0 -145 37 -260l502 682q-37 41 -87 63.5t-116 22.5q-94 0 -158.5 -51t-103.5 -128t-56.5 -166t-17.5 -163zM440 276q41 -47 93.5 -73.5t117.5 -26.5q80 0 142.5 41t106.5 111.5t66.5 163t22.5 192.5q0 68 -10 141.5t-35 139.5z" />
<glyph unicode="&#xd9;" horiz-adv-x="1294" d="M152 481v893h206v-885q0 -53 7.5 -99t27.5 -81q35 -63 95.5 -101t156.5 -38q152 0 232 100q59 76 59 238v866h207v-860q0 -170 -58.5 -286.5t-164.5 -178.5q-115 -70 -281 -69q-166 0 -273.5 63t-162.5 174q-29 57 -40 124t-11 140zM269 1829l143 159l354 -385l-69 -84z " />
<glyph unicode="&#xda;" horiz-adv-x="1294" d="M152 481v893h206v-885q0 -53 7.5 -99t27.5 -81q35 -63 95.5 -101t156.5 -38q152 0 232 100q59 76 59 238v866h207v-860q0 -170 -58.5 -286.5t-164.5 -178.5q-115 -70 -281 -69q-166 0 -273.5 63t-162.5 174q-29 57 -40 124t-11 140zM535 1601l354 385l141 -157l-428 -312 z" />
<glyph unicode="&#xdb;" horiz-adv-x="1294" d="M152 481v893h206v-885q0 -53 7.5 -99t27.5 -81q35 -63 95.5 -101t156.5 -38q152 0 232 100q59 76 59 238v866h207v-860q0 -170 -58.5 -286.5t-164.5 -178.5q-115 -70 -281 -69q-166 0 -273.5 63t-162.5 174q-29 57 -40 124t-11 140zM291 1607l336 344h59l324 -342 l-70 -88l-293 211l-291 -211z" />
<glyph unicode="&#xdc;" horiz-adv-x="1294" d="M152 481v893h206v-885q0 -53 7.5 -99t27.5 -81q35 -63 95.5 -101t156.5 -38q152 0 232 100q59 76 59 238v866h207v-860q0 -170 -58.5 -286.5t-164.5 -178.5q-115 -70 -281 -69q-166 0 -273.5 63t-162.5 174q-29 57 -40 124t-11 140zM305 1653q0 51 35.5 87t87.5 36 q51 0 86.5 -36t35.5 -87q0 -53 -35.5 -88t-86.5 -35t-87 35t-36 88zM729 1653q0 51 35.5 87t86.5 36q53 0 88 -36t35 -87q0 -53 -34.5 -88t-88.5 -35q-51 0 -86.5 35t-35.5 88z" />
<glyph unicode="&#xdf;" horiz-adv-x="1191" d="M152 0v985q0 18 3 49t9 67t17.5 70.5t27.5 59.5q70 104 169 161.5t226 57.5q84 0 158 -26.5t130 -76t89 -117t33 -151.5q0 -49 -22.5 -100t-61.5 -97t-91.5 -86t-111.5 -65q27 -10 61.5 -26.5t71.5 -36t72 -41t59 -39.5q53 -41 93 -100.5t40 -149.5q0 -96 -46 -173 t-124 -124q-94 -61 -231 -61q-131 0 -223 51l20 180q47 -23 101.5 -35t101.5 -12q94 0 145.5 48t51.5 114q0 47 -23 80.5t-57.5 59.5t-76.5 46t-83 41q-25 12 -47.5 22.5t-40.5 18.5q-20 8 -37 14v228q29 12 75 30.5t72 36.5q43 33 73 76t30 102q0 84 -58.5 134.5 t-146.5 50.5q-55 0 -98 -20.5t-78 -55.5q-29 -29 -42 -71t-20 -81q-6 -45 -6 -94v-944h-204z" />
<glyph unicode="&#xe0;" horiz-adv-x="1177" d="M88 498q0 125 38 229t105.5 179t159.5 116t201 41q63 0 139 -14.5t129 -59.5l37 53h127v-835l16 -207h-166l-32 156q-35 -49 -82 -86q-45 -37 -104.5 -62.5t-141.5 -25.5q-92 0 -170 36.5t-135 104t-89 163t-32 212.5zM285 1518l143 159l354 -385l-69 -84zM303 506 q0 -53 13.5 -113.5t42 -112t75.5 -85t117 -33.5q43 0 91 21.5t89 67.5t67.5 115.5t26.5 163.5q0 135 -15 213t-32 91q-41 31 -85 41t-93 10q-68 0 -123 -29t-94 -79t-59.5 -119.5t-20.5 -151.5z" />
<glyph unicode="&#xe1;" horiz-adv-x="1177" d="M88 498q0 125 38 229t105.5 179t159.5 116t201 41q63 0 139 -14.5t129 -59.5l37 53h127v-835l16 -207h-166l-32 156q-35 -49 -82 -86q-45 -37 -104.5 -62.5t-141.5 -25.5q-92 0 -170 36.5t-135 104t-89 163t-32 212.5zM303 506q0 -53 13.5 -113.5t42 -112t75.5 -85 t117 -33.5q43 0 91 21.5t89 67.5t67.5 115.5t26.5 163.5q0 135 -15 213t-32 91q-41 31 -85 41t-93 10q-68 0 -123 -29t-94 -79t-59.5 -119.5t-20.5 -151.5zM414 1292l354 385l141 -157l-428 -312z" />
<glyph unicode="&#xe2;" horiz-adv-x="1177" d="M88 498q0 125 38 229t105.5 179t159.5 116t201 41q63 0 139 -14.5t129 -59.5l37 53h127v-835l16 -207h-166l-32 156q-35 -49 -82 -86q-45 -37 -104.5 -62.5t-141.5 -25.5q-92 0 -170 36.5t-135 104t-89 163t-32 212.5zM256 1298l336 344h59l324 -342l-70 -88l-293 211 l-291 -211zM303 506q0 -53 13.5 -113.5t42 -112t75.5 -85t117 -33.5q43 0 91 21.5t89 67.5t67.5 115.5t26.5 163.5q0 135 -15 213t-32 91q-41 31 -85 41t-93 10q-68 0 -123 -29t-94 -79t-59.5 -119.5t-20.5 -151.5z" />
<glyph unicode="&#xe3;" horiz-adv-x="1177" d="M88 498q0 125 38 229t105.5 179t159.5 116t201 41q63 0 139 -14.5t129 -59.5l37 53h127v-835l16 -207h-166l-32 156q-35 -49 -82 -86q-45 -37 -104.5 -62.5t-141.5 -25.5q-92 0 -170 36.5t-135 104t-89 163t-32 212.5zM172 1300q8 51 34 97.5t59.5 82.5t73.5 57.5 t77 21.5t78 -20.5t82 -46.5t83 -46.5t80 -20.5q31 0 57.5 20.5t45.5 45.5q23 27 39 63l80 -38q-23 -78 -60 -140q-33 -57 -80 -98t-114 -41q-45 0 -85 21.5t-79 47t-81 47t-93 21.5q-23 0 -43.5 -13t-35.5 -30.5t-27.5 -37t-20.5 -31.5zM303 506q0 -53 13.5 -113.5t42 -112 t75.5 -85t117 -33.5q43 0 91 21.5t89 67.5t67.5 115.5t26.5 163.5q0 135 -15 213t-32 91q-41 31 -85 41t-93 10q-68 0 -123 -29t-94 -79t-59.5 -119.5t-20.5 -151.5z" />
<glyph unicode="&#xe4;" horiz-adv-x="1177" d="M88 498q0 125 38 229t105.5 179t159.5 116t201 41q63 0 139 -14.5t129 -59.5l37 53h127v-835l16 -207h-166l-32 156q-35 -49 -82 -86q-45 -37 -104.5 -62.5t-141.5 -25.5q-92 0 -170 36.5t-135 104t-89 163t-32 212.5zM260 1352q0 51 35.5 87t87.5 36q51 0 86.5 -36 t35.5 -87q0 -53 -35.5 -88t-86.5 -35t-87 35t-36 88zM303 506q0 -53 13.5 -113.5t42 -112t75.5 -85t117 -33.5q43 0 91 21.5t89 67.5t67.5 115.5t26.5 163.5q0 135 -15 213t-32 91q-41 31 -85 41t-93 10q-68 0 -123 -29t-94 -79t-59.5 -119.5t-20.5 -151.5zM684 1352 q0 51 35.5 87t86.5 36q53 0 88 -36t35 -87q0 -53 -34.5 -88t-88.5 -35q-51 0 -86.5 35t-35.5 88z" />
<glyph unicode="&#xe5;" horiz-adv-x="1177" d="M88 498q0 125 38 229t105.5 179t159.5 116t201 41q63 0 139 -14.5t129 -59.5l37 53h127v-835l16 -207h-166l-32 156q-35 -49 -82 -86q-45 -37 -104.5 -62.5t-141.5 -25.5q-92 0 -170 36.5t-135 104t-89 163t-32 212.5zM303 506q0 -53 13.5 -113.5t42 -112t75.5 -85 t117 -33.5q43 0 91 21.5t89 67.5t67.5 115.5t26.5 163.5q0 135 -15 213t-32 91q-41 31 -85 41t-93 10q-68 0 -123 -29t-94 -79t-59.5 -119.5t-20.5 -151.5zM322 1428q0 59 22.5 111.5t61.5 91.5t91 60.5t111 21.5t111.5 -21.5t91.5 -60.5t61.5 -91.5t22.5 -111.5 q0 -57 -22.5 -108.5t-61.5 -90.5t-91 -60.5t-112 -21.5q-59 0 -111 21.5t-91 59.5t-61.5 89.5t-22.5 110.5zM477 1428q0 -53 39 -92t92 -39q55 0 94.5 39t39.5 92q0 55 -39 95t-95 40q-53 0 -92 -40t-39 -95z" />
<glyph unicode="&#xe6;" horiz-adv-x="1822" d="M88 498q0 125 38 229t105.5 179t159.5 116t201 41q63 0 139 -14.5t129 -59.5l37 53h127v-75q55 47 126 71.5t144 24.5q168 0 283 -92q86 -66 127 -170.5t33 -229.5q-2 -12 -2 -26.5t-4 -30.5h-707v-18q0 -135 63 -220q41 -55 104.5 -85.5t154.5 -30.5q86 0 159.5 29.5 t126.5 64.5l68 -148q-72 -55 -170 -90.5t-209 -35.5q-78 0 -148.5 16t-138.5 67l6 -63h-166l-32 156q-35 -49 -82 -86q-45 -37 -104.5 -62.5t-141.5 -25.5q-92 0 -170 36.5t-135 104t-89 163t-32 212.5zM303 506q0 -53 13.5 -113.5t42 -112t75.5 -85t117 -33.5q43 0 91 21.5 t89 67.5t67.5 115.5t26.5 163.5q0 135 -15 213t-32 91q-41 31 -85 41t-93 10q-68 0 -123 -29t-94 -79t-59.5 -119.5t-20.5 -151.5zM1042 674h476q0 10 -1 22.5t-4 22.5q-12 78 -69.5 125t-151.5 47q-86 0 -154.5 -54.5t-95.5 -162.5z" />
<glyph unicode="&#xe7;" horiz-adv-x="915" d="M78 504q0 145 50 262t142 192q61 49 137 77t168 28q90 0 169 -33t141 -90l-80 -137q-55 45 -123 63q-45 14 -100 15q-133 0 -211 -103q-76 -100 -76 -262q0 -74 17.5 -138.5t53 -111.5t88 -73.5t121.5 -26.5q63 0 128 20.5t106 65.5l76 -137q-59 -59 -147.5 -96 t-192.5 -37t-193.5 37.5t-152.5 113.5q-55 66 -88 159t-33 212zM222 -418l63 92q27 -14 55.5 -26.5t75.5 -12.5q49 0 73.5 33t24.5 63q0 37 -15 55.5t-34 28.5q-23 10 -49 11l62 251h137l-19 -200q47 -14 79 -55.5t32 -100.5q0 -49 -22.5 -91t-59.5 -71.5t-86 -46 t-102 -16.5q-66 0 -128.5 28.5t-86.5 57.5z" />
<glyph unicode="&#xe8;" horiz-adv-x="1103" d="M78 516q0 125 39 229.5t112 178.5q61 66 147.5 102.5t190.5 36.5q168 0 283 -92q86 -66 127 -170.5t33 -229.5q-2 -12 -2 -26.5t-4 -30.5h-707v-18q0 -135 63 -220q41 -55 104.5 -85.5t153.5 -30.5q86 0 160 29.5t127 64.5l68 -148q-72 -55 -170 -90.5t-209 -35.5 q-248 0 -382 143t-134 393zM263 1518l143 159l354 -385l-69 -84zM315 674h476q0 10 -1.5 22.5t-3.5 22.5q-12 78 -69.5 125t-151.5 47q-86 0 -154.5 -54.5t-95.5 -162.5z" />
<glyph unicode="&#xe9;" horiz-adv-x="1103" d="M78 516q0 125 39 229.5t112 178.5q61 66 147.5 102.5t190.5 36.5q168 0 283 -92q86 -66 127 -170.5t33 -229.5q-2 -12 -2 -26.5t-4 -30.5h-707v-18q0 -135 63 -220q41 -55 104.5 -85.5t153.5 -30.5q86 0 160 29.5t127 64.5l68 -148q-72 -55 -170 -90.5t-209 -35.5 q-248 0 -382 143t-134 393zM315 674h476q0 10 -1.5 22.5t-3.5 22.5q-12 78 -69.5 125t-151.5 47q-86 0 -154.5 -54.5t-95.5 -162.5zM420 1292l354 385l141 -157l-428 -312z" />
<glyph unicode="&#xea;" horiz-adv-x="1103" d="M78 516q0 125 39 229.5t112 178.5q61 66 147.5 102.5t190.5 36.5q168 0 283 -92q86 -66 127 -170.5t33 -229.5q-2 -12 -2 -26.5t-4 -30.5h-707v-18q0 -135 63 -220q41 -55 104.5 -85.5t153.5 -30.5q86 0 160 29.5t127 64.5l68 -148q-72 -55 -170 -90.5t-209 -35.5 q-248 0 -382 143t-134 393zM209 1298l336 344h59l324 -342l-70 -88l-293 211l-291 -211zM315 674h476q0 10 -1.5 22.5t-3.5 22.5q-12 78 -69.5 125t-151.5 47q-86 0 -154.5 -54.5t-95.5 -162.5z" />
<glyph unicode="&#xeb;" horiz-adv-x="1103" d="M78 516q0 125 39 229.5t112 178.5q61 66 147.5 102.5t190.5 36.5q168 0 283 -92q86 -66 127 -170.5t33 -229.5q-2 -12 -2 -26.5t-4 -30.5h-707v-18q0 -135 63 -220q41 -55 104.5 -85.5t153.5 -30.5q86 0 160 29.5t127 64.5l68 -148q-72 -55 -170 -90.5t-209 -35.5 q-248 0 -382 143t-134 393zM244 1352q0 51 35.5 87t87.5 36q51 0 86.5 -36t35.5 -87q0 -53 -35.5 -88t-86.5 -35t-87 35t-36 88zM315 674h476q0 10 -1.5 22.5t-3.5 22.5q-12 78 -69.5 125t-151.5 47q-86 0 -154.5 -54.5t-95.5 -162.5zM668 1352q0 51 35.5 87t86.5 36 q53 0 88 -36t35 -87q0 -53 -34.5 -88t-88.5 -35q-51 0 -86.5 35t-35.5 88z" />
<glyph unicode="&#xec;" horiz-adv-x="507" d="M-81 1461l143 159l354 -385l-69 -84zM152 0v1042h204v-1042h-204z" />
<glyph unicode="&#xed;" horiz-adv-x="507" d="M115 1210l354 385l141 -157l-428 -312zM152 0v1042h204v-1042h-204z" />
<glyph unicode="&#xee;" horiz-adv-x="507" d="M-106 1298l336 344h59l324 -342l-70 -88l-293 211l-291 -211zM152 0v1042h204v-1042h-204z" />
<glyph unicode="&#xef;" horiz-adv-x="507" d="M-84 1364q0 51 35.5 87t87.5 36q51 0 86.5 -36t35.5 -87q0 -53 -35.5 -88t-86.5 -35t-87 35t-36 88zM152 0v1042h204v-1042h-204zM340 1364q0 51 35.5 87t86.5 36q53 0 88 -36t35 -87q0 -53 -34.5 -88t-88.5 -35q-51 0 -86.5 35t-35.5 88z" />
<glyph unicode="&#xf1;" d="M152 0v1042h155l33 -151q14 18 41 48t66.5 57.5t95 47t127.5 19.5q59 0 109 -15.5t93 -41.5q59 -37 110.5 -130.5t51.5 -228.5v-647h-207v616q0 129 -51 196t-149 67q-55 0 -104.5 -25t-86.5 -69t-58.5 -103t-21.5 -127v-555h-204zM196 1300q8 51 34 97.5t59.5 82.5 t73.5 57.5t77 21.5t78 -20.5t82 -46.5t83 -46.5t80 -20.5q31 0 57.5 20.5t45.5 45.5q23 27 39 63l80 -38q-23 -78 -60 -140q-33 -57 -80 -98t-114 -41q-45 0 -85 21.5t-79 47t-81 47t-93 21.5q-23 0 -43.5 -13t-35.5 -30.5t-27.5 -37t-20.5 -31.5z" />
<glyph unicode="&#xf2;" horiz-adv-x="1142" d="M76 516q0 115 37 214t103.5 173t159.5 117t204 43q104 0 193 -37t153.5 -105.5t100.5 -168t36 -222.5q0 -88 -31 -185t-92 -179t-156.5 -134t-224.5 -52q-104 0 -192 36.5t-152.5 106.5t-101.5 169t-37 224zM226 1518l143 159l354 -385l-69 -84zM293 526q0 -55 13 -119.5 t45 -117.5t86.5 -89t133.5 -36q86 0 139.5 41t84 99t42 119.5t11.5 100.5q0 72 -17.5 136.5t-52.5 113.5t-86 78t-121 29q-82 0 -136 -39t-86 -94.5t-44 -117t-12 -104.5z" />
<glyph unicode="&#xf3;" horiz-adv-x="1142" d="M76 516q0 115 37 214t103.5 173t159.5 117t204 43q104 0 193 -37t153.5 -105.5t100.5 -168t36 -222.5q0 -88 -31 -185t-92 -179t-156.5 -134t-224.5 -52q-104 0 -192 36.5t-152.5 106.5t-101.5 169t-37 224zM293 526q0 -55 13 -119.5t45 -117.5t86.5 -89t133.5 -36 q86 0 139.5 41t84 99t42 119.5t11.5 100.5q0 72 -17.5 136.5t-52.5 113.5t-86 78t-121 29q-82 0 -136 -39t-86 -94.5t-44 -117t-12 -104.5zM459 1292l354 385l141 -157l-428 -312z" />
<glyph unicode="&#xf4;" horiz-adv-x="1142" d="M76 516q0 115 37 214t103.5 173t159.5 117t204 43q104 0 193 -37t153.5 -105.5t100.5 -168t36 -222.5q0 -88 -31 -185t-92 -179t-156.5 -134t-224.5 -52q-104 0 -192 36.5t-152.5 106.5t-101.5 169t-37 224zM215 1298l336 344h59l324 -342l-70 -88l-293 211l-291 -211z M293 526q0 -55 13 -119.5t45 -117.5t86.5 -89t133.5 -36q86 0 139.5 41t84 99t42 119.5t11.5 100.5q0 72 -17.5 136.5t-52.5 113.5t-86 78t-121 29q-82 0 -136 -39t-86 -94.5t-44 -117t-12 -104.5z" />
<glyph unicode="&#xf5;" horiz-adv-x="1142" d="M76 516q0 115 37 214t103.5 173t159.5 117t204 43q104 0 193 -37t153.5 -105.5t100.5 -168t36 -222.5q0 -88 -31 -185t-92 -179t-156.5 -134t-224.5 -52q-104 0 -192 36.5t-152.5 106.5t-101.5 169t-37 224zM184 1300q8 51 34 97.5t59.5 82.5t73.5 57.5t77 21.5t78 -20.5 t82 -46.5t83 -46.5t80 -20.5q31 0 57.5 20.5t45.5 45.5q23 27 39 63l80 -38q-23 -78 -60 -140q-33 -57 -80 -98t-114 -41q-45 0 -85 21.5t-79 47t-81 47t-93 21.5q-23 0 -43.5 -13t-35.5 -30.5t-27.5 -37t-20.5 -31.5zM293 526q0 -55 13 -119.5t45 -117.5t86.5 -89 t133.5 -36q86 0 139.5 41t84 99t42 119.5t11.5 100.5q0 72 -17.5 136.5t-52.5 113.5t-86 78t-121 29q-82 0 -136 -39t-86 -94.5t-44 -117t-12 -104.5z" />
<glyph unicode="&#xf6;" horiz-adv-x="1142" d="M76 516q0 115 37 214t103.5 173t159.5 117t204 43q104 0 193 -37t153.5 -105.5t100.5 -168t36 -222.5q0 -88 -31 -185t-92 -179t-156.5 -134t-224.5 -52q-104 0 -192 36.5t-152.5 106.5t-101.5 169t-37 224zM242 1352q0 51 35.5 87t87.5 36q51 0 86.5 -36t35.5 -87 q0 -53 -35.5 -88t-86.5 -35t-87 35t-36 88zM293 526q0 -55 13 -119.5t45 -117.5t86.5 -89t133.5 -36q86 0 139.5 41t84 99t42 119.5t11.5 100.5q0 72 -17.5 136.5t-52.5 113.5t-86 78t-121 29q-82 0 -136 -39t-86 -94.5t-44 -117t-12 -104.5zM666 1352q0 51 35.5 87t86.5 36 q53 0 88 -36t35 -87q0 -53 -34.5 -88t-88.5 -35q-51 0 -86.5 35t-35.5 88z" />
<glyph unicode="&#xf7;" horiz-adv-x="1073" d="M111 475v193h850v-193h-850zM406 170q0 53 38.5 92t92.5 39q53 0 91 -39t38 -92t-38 -92t-91 -39t-92 39t-39 92zM406 971q0 53 38.5 91t92.5 38q53 0 91 -38t38 -91q0 -55 -38 -93t-91 -38t-92 37.5t-39 93.5z" />
<glyph unicode="&#xf8;" horiz-adv-x="1142" d="M76 516q0 115 37 214t103.5 173t159.5 117t204 43q92 0 165 -27l29 64h168l-61 -137q86 -70 134 -179t48 -254q0 -88 -31 -185t-92 -179t-156.5 -134t-224.5 -52q-33 0 -64.5 3t-60.5 11l-31 -64h-170l60 125q-100 66 -158.5 183.5t-58.5 277.5zM293 526 q0 -68 19.5 -143.5t68.5 -132.5l285 614q-45 16 -95 17q-82 0 -136 -39t-86 -94.5t-44 -117t-12 -104.5zM516 170q25 -6 55 -6q86 0 139.5 41t84 99t42 119.5t11.5 100.5q0 141 -60 238z" />
<glyph unicode="&#xf9;" d="M139 395v647h207v-616q0 -129 51.5 -195.5t149.5 -66.5q55 0 104 24.5t86 68.5t58.5 103.5t21.5 126.5v555h205v-1042h-156l-32 150q-14 -23 -35 -43.5t-41 -36.5q-51 -41 -117 -67t-137 -26q-117 0 -203 58q-66 41 -114 127t-48 233zM199 1518l143 159l354 -385l-69 -84 z" />
<glyph unicode="&#xfa;" d="M139 395v647h207v-616q0 -129 51.5 -195.5t149.5 -66.5q55 0 104 24.5t86 68.5t58.5 103.5t21.5 126.5v555h205v-1042h-156l-32 150q-14 -23 -35 -43.5t-41 -36.5q-51 -41 -117 -67t-137 -26q-117 0 -203 58q-66 41 -114 127t-48 233zM467 1292l354 385l141 -157 l-428 -312z" />
<glyph unicode="&#xfb;" d="M139 395v647h207v-616q0 -129 51.5 -195.5t149.5 -66.5q55 0 104 24.5t86 68.5t58.5 103.5t21.5 126.5v555h205v-1042h-156l-32 150q-14 -23 -35 -43.5t-41 -36.5q-51 -41 -117 -67t-137 -26q-117 0 -203 58q-66 41 -114 127t-48 233zM213 1298l336 344h59l324 -342 l-70 -88l-293 211l-291 -211z" />
<glyph unicode="&#xfc;" d="M139 395v647h207v-616q0 -129 51.5 -195.5t149.5 -66.5q55 0 104 24.5t86 68.5t58.5 103.5t21.5 126.5v555h205v-1042h-156l-32 150q-14 -23 -35 -43.5t-41 -36.5q-51 -41 -117 -67t-137 -26q-117 0 -203 58q-66 41 -114 127t-48 233zM244 1352q0 51 35.5 87t87.5 36 q51 0 86.5 -36t35.5 -87q0 -53 -35.5 -88t-86.5 -35t-87 35t-36 88zM668 1352q0 51 35.5 87t86.5 36q53 0 88 -36t35 -87q0 -53 -34.5 -88t-88.5 -35q-51 0 -86.5 35t-35.5 88z" />
<glyph unicode="&#xff;" horiz-adv-x="962" d="M4 1042h225l154 -405q14 -39 31.5 -87t34.5 -91q16 -51 34 -103q29 76 56 148q25 63 46 123.5t36 97.5l116 317h221l-602 -1529h-213l234 575zM135 1352q0 51 35.5 87t87.5 36q51 0 86.5 -36t35.5 -87q0 -53 -35.5 -88t-86.5 -35t-87 35t-36 88zM559 1352q0 51 35.5 87 t86.5 36q53 0 88 -36t35 -87q0 -53 -34.5 -88t-88.5 -35q-51 0 -86.5 35t-35.5 88z" />
<glyph unicode="&#x152;" horiz-adv-x="1662" d="M96 678q0 160 42 289t117 220t179.5 139t229.5 48h352h518v-190h-490v-359h478v-188h-478v-444h490v-193h-553h-338q-115 0 -215 40t-174 123t-116 211t-42 304zM317 692q0 -104 20.5 -195t62.5 -160t104.5 -108t146.5 -39q80 0 119 12.5t54.5 42t14.5 81t-1 129.5v463 q0 92 -3.5 144t-20.5 79.5t-55 35t-106 7.5q-94 0 -158.5 -49.5t-103.5 -123t-56.5 -159.5t-17.5 -160z" />
<glyph unicode="&#x153;" horiz-adv-x="1863" d="M76 516q0 115 37 214t103.5 173t159.5 117t204 43q119 0 216 -47t162 -133q8 10 18.5 21t18.5 20q61 66 147.5 102.5t190.5 36.5q168 0 283 -92q86 -66 127 -170.5t33 -229.5q-2 -12 -2 -26.5t-5 -30.5h-706v-18q0 -135 63 -220q41 -55 104.5 -85.5t153.5 -30.5 q86 0 160 29.5t127 64.5l68 -148q-72 -55 -170.5 -90.5t-208.5 -35.5q-141 0 -246.5 51t-171.5 137q-63 -82 -157.5 -135t-225.5 -53q-104 0 -192 36.5t-152.5 106.5t-101.5 169t-37 224zM293 526q0 -55 13 -119.5t45 -117.5t86.5 -89t133.5 -36q86 0 139.5 41t84 99 t42 119.5t11.5 100.5q0 72 -17.5 136.5t-52.5 113.5t-86 78t-121 29q-82 0 -136 -39t-86 -94.5t-44 -117t-12 -104.5zM1081 674h475q0 10 -1 22.5t-3 22.5q-12 78 -69.5 125t-151.5 47q-86 0 -154.5 -54.5t-95.5 -162.5z" />
<glyph unicode="&#x178;" horiz-adv-x="1019" d="M-39 1374h234l157 -319q31 -61 58.5 -119.5t50.5 -106.5q27 -53 49 -102q23 49 49 104q25 51 54.5 110.5t62.5 125.5l155 307h228l-449 -852v-522h-207v522zM160 1653q0 51 35.5 87t87.5 36q51 0 86.5 -36t35.5 -87q0 -53 -35.5 -88t-86.5 -35t-87 35t-36 88zM584 1653 q0 51 35.5 87t86.5 36q53 0 88 -36t35 -87q0 -53 -34.5 -88t-88.5 -35q-51 0 -86.5 35t-35.5 88z" />
<glyph unicode="&#x2c6;" horiz-adv-x="1140" d="M211 1298l336 344h59l324 -342l-70 -88l-293 211l-291 -211z" />
<glyph unicode="&#x2dc;" horiz-adv-x="1206" d="M219 1300q8 51 34 97.5t59.5 82.5t73.5 57.5t77 21.5t78 -20.5t82 -46.5t83 -46.5t80 -20.5q31 0 57.5 20.5t45.5 45.5q23 27 39 63l80 -38q-23 -78 -60 -140q-33 -57 -80 -98t-114 -41q-45 0 -85 21.5t-79 47t-81 47t-93 21.5q-23 0 -43.5 -13t-35.5 -30.5t-27.5 -37 t-20.5 -31.5z" />
<glyph unicode="&#x2000;" horiz-adv-x="996" />
<glyph unicode="&#x2001;" horiz-adv-x="1992" />
<glyph unicode="&#x2002;" horiz-adv-x="996" />
<glyph unicode="&#x2003;" horiz-adv-x="1992" />
<glyph unicode="&#x2004;" horiz-adv-x="664" />
<glyph unicode="&#x2005;" horiz-adv-x="498" />
<glyph unicode="&#x2006;" horiz-adv-x="332" />
<glyph unicode="&#x2007;" horiz-adv-x="332" />
<glyph unicode="&#x2008;" horiz-adv-x="249" />
<glyph unicode="&#x2009;" horiz-adv-x="398" />
<glyph unicode="&#x200a;" horiz-adv-x="110" />
<glyph unicode="&#x2010;" horiz-adv-x="808" d="M113 469v188h581v-188h-581z" />
<glyph unicode="&#x2011;" horiz-adv-x="808" d="M113 469v188h581v-188h-581z" />
<glyph unicode="&#x2012;" horiz-adv-x="808" d="M113 469v188h581v-188h-581z" />
<glyph unicode="&#x2013;" horiz-adv-x="983" d="M-49 506v194h1081v-194h-1081z" />
<glyph unicode="&#x2014;" horiz-adv-x="1722" d="M-49 506v194h1821v-194h-1821z" />
<glyph unicode="&#x2018;" horiz-adv-x="604" d="M213 1159q0 49 21.5 101.5t57.5 102.5t83 98t100 91l62 -73q-63 -61 -95 -117.5t-49 -116.5q37 -25 58.5 -75t21.5 -97q0 -41 -28.5 -81t-82.5 -40q-18 0 -43.5 8.5t-49 31t-40 63.5t-16.5 104z" />
<glyph unicode="&#x2019;" horiz-adv-x="604" d="M127 1010q63 61 95 117.5t48 115.5q-37 25 -58.5 75t-21.5 97q0 41 29 81t82 40q18 0 44 -8t49.5 -30.5t40 -62.5t16.5 -106q0 -49 -21.5 -101t-57.5 -102.5t-83 -98.5t-101 -91z" />
<glyph unicode="&#x201a;" horiz-adv-x="704" d="M127 -285q63 61 95 117.5t48 116.5q-37 25 -58.5 75t-21.5 97q0 41 29 81t82 40q18 0 44 -8.5t49.5 -31t40 -62t16.5 -105.5q0 -49 -21.5 -101.5t-57.5 -102.5t-83 -98t-101 -91z" />
<glyph unicode="&#x201c;" horiz-adv-x="1140" d="M213 1159q0 49 21.5 101.5t57.5 102.5t83 98t100 91l62 -73q-63 -61 -95 -117.5t-49 -116.5q37 -25 58.5 -75t21.5 -97q0 -41 -28.5 -81t-82.5 -40q-18 0 -43.5 8.5t-49 31t-40 63.5t-16.5 104zM725 1159q0 49 21.5 101.5t57.5 102.5t83 98t100 91l62 -73 q-63 -61 -95 -117.5t-49 -116.5q37 -25 58.5 -75t21.5 -97q0 -41 -28.5 -81t-82.5 -40q-18 0 -43.5 8.5t-49 31t-40 63.5t-16.5 104z" />
<glyph unicode="&#x201d;" horiz-adv-x="1140" d="M129 1012q63 61 95 117.5t48 115.5q-37 25 -58 75t-21 97q0 41 28.5 81t81.5 40q18 0 44 -8t49.5 -30.5t40 -62.5t16.5 -106q0 -49 -21.5 -101t-57.5 -102.5t-83 -98.5t-101 -91zM641 1012q63 61 95 117.5t48 115.5q-37 25 -58 75t-21 97q0 41 28.5 81t81.5 40 q18 0 44 -8t49.5 -30.5t40 -62.5t16.5 -106q0 -49 -21.5 -101t-57.5 -102.5t-83 -98.5t-101 -91z" />
<glyph unicode="&#x201e;" horiz-adv-x="1140" d="M127 -285q63 61 95 117.5t48 116.5q-37 25 -58.5 75t-21.5 97q0 41 29 81t82 40q18 0 44 -8.5t49.5 -31t40 -62t16.5 -105.5q0 -49 -21.5 -101.5t-57.5 -102.5t-83 -98t-101 -91zM643 -285q63 61 95 117.5t48 116.5q-37 25 -58 75t-21 97q0 41 28.5 81t81.5 40 q18 0 44 -8.5t49.5 -31t40 -62t16.5 -105.5q0 -49 -21.5 -101.5t-57.5 -102.5t-83 -98t-100 -91z" />
<glyph unicode="&#x2022;" horiz-adv-x="1024" d="M156 639q0 74 27.5 137.5t75.5 111.5t111.5 75.5t135.5 27.5q74 0 137.5 -27.5t111.5 -75.5t75.5 -111.5t27.5 -137.5q0 -72 -27.5 -135.5t-75.5 -111.5t-111.5 -75.5t-137.5 -27.5q-72 0 -135.5 27.5t-111.5 75.5t-75.5 111.5t-27.5 135.5z" />
<glyph unicode="&#x2026;" horiz-adv-x="1947" d="M125 123q0 59 43 102t102 43t102.5 -43t43.5 -102t-43 -101t-103 -42q-59 0 -102 41.5t-43 101.5zM801 123q0 59 42 102t101 43q61 0 104.5 -43t43.5 -102t-43 -101t-105 -42q-59 0 -101 41.5t-42 101.5zM1477 123q0 59 42 102t101 43t102 -43t43 -102t-43 -101t-102 -42 t-101 41.5t-42 101.5z" />
<glyph unicode="&#x202f;" horiz-adv-x="398" />
<glyph unicode="&#x2039;" horiz-adv-x="905" d="M109 596l579 559l107 -72l-385 -489l385 -490l-103 -71z" />
<glyph unicode="&#x203a;" horiz-adv-x="905" d="M111 104l385 490l-385 489l106 72l580 -559l-584 -563z" />
<glyph unicode="&#x205f;" horiz-adv-x="498" />
<glyph unicode="&#x2122;" horiz-adv-x="1755" d="M86 1217v155h637v-155h-236v-709h-165v709h-236zM760 508l65 864h158l178 -436q6 -12 11.5 -26.5t11.5 -24.5q4 -14 10 -29h6q6 16 12 31q4 14 10.5 28.5t10.5 24.5l176 432h160l65 -864h-164l-43 518q-4 -14 -8 -24.5t-8 -18.5l-166 -414h-102l-158 389q-4 10 -10 26.5 t-14 33.5l-37 -510h-164z" />
<glyph unicode="&#x25fc;" horiz-adv-x="1044" d="M0 0v1044h1044v-1044h-1044z" />
<glyph unicode="&#xfb01;" horiz-adv-x="1312" d="M49 858v184h230v88q0 59 16 111.5t44 95.5t61.5 78t68.5 55q53 35 134 57.5t169 22.5q109 0 186.5 -14t118.5 -31l-28 -168q-35 12 -106 21.5t-142 9.5q-57 0 -113.5 -11t-101.5 -39t-74 -74t-29 -118v-84h668v-1042h-205v858h-463v-858h-204v858h-230z" />
<glyph unicode="&#xfb02;" horiz-adv-x="1325" d="M49 858v184h230v88q0 117 33.5 202t97.5 138q47 41 109.5 57.5t139.5 16.5h508v-1544h-204v1368h-291q-90 0 -139.5 -56.5t-49.5 -185.5v-84h301v-184h-301v-858h-204v858h-230z" />
</font>
</defs>
</svg>
