<?xml version="1.0" encoding="utf-8"?>
<!-- Generator: Adobe Illustrator 18.1.0, SVG Export Plug-In . SVG Version: 6.00 Build 0)  -->
<svg version="1.1" id="Calque_3" xmlns="http://www.w3.org/2000/svg" xmlns:xlink="http://www.w3.org/1999/xlink" x="0px" y="0px"
	 viewBox="443.5 6 310.5 155" style="enable-background:new 443.5 6 310.5 155;" xml:space="preserve">
<style type="text/css">
	.st0{enable-background:new    ;}
	.st1{fill:#015C66;}
	.st2{fill:#FFFFFF;}
</style>
<g class="st0">
	<path class="st1" d="M499.1,68.9h40.2v36.3h-40v44.6h-43.5V18.1h88.9v37h-45.6V68.9z"/>
	<path class="st1" d="M590.5,18.1h47.1l51.3,131.7h-48.2l-6.9-19.3h-41.9l-6.5,19.3h-46.9L590.5,18.1z M613.3,64.1l-10.8,32.6h21.4
		L613.3,64.1z"/>
	<path class="st1" d="M698.1,18.1h44.6v131.7h-44.6V18.1z"/>
</g>
<g class="st0">
	<path class="st2" d="M700.7,143.4c0-1.2,0.4-2.3,1.1-3.2c0,0,0.1,0,0.2,0c0.2,0,0.6,0.6,0.7,0.6c0.1,0,0.3-0.1,0.3-0.2
		c1.1,0.6,2.3,1.1,3.6,1.1c2,0,3.3-0.5,3.3-2.6c0-1.1-0.5-1.8-1.1-2.7c0.1-0.1,0.1-0.1,0.1-0.1c0-0.7-4.5-1.2-4.5-1.6c0,0,0,0,0-0.1
		c-0.1,0-0.3,0.1-0.4,0.2c-0.5-0.1-1.1-0.2-1.1-0.6c0-0.3,0.5-1.7,0.7-1.9c0,0,0.5,0,1.1,0c1.7,0,4.6-0.2,4.6-1.8c0-1.4-0.8-2.4-2-3
		c-0.2,0-1-0.1-1.1-0.1c-1.3,0-2.5,0.6-3.8,0.6c0-0.7-0.8-1.3-0.8-2.1c0-0.5,4.9-1.1,5.9-1.1c3,0,4.6,2.5,4.6,5.3c0,0.3,0,0.7-0.2,1
		c-0.2,0.4-1.2,1.7-1.2,2.3c0,0.1,0.5,0.4,0.7,0.6c1.7,1.5,1.8,3.6,1.8,5.8c0,0.8-0.4,0.7-0.4,1.1c0,0.1,0,0.3,0,0.4
		c0,0.8-2.2,3-3.3,3c-0.1,0-2.4,0.1-2.8,0.1c-0.7,0-2.6-0.1-2.7-0.1c-0.9-0.1-3-0.5-3-0.7v-0.1H700.7z M702.2,143
		c0.3,0,0.7-0.4,0.9-0.8h-0.5c0.1-0.4,0.5-0.3,0.7-0.6c-0.2-0.3-0.7-0.5-0.9-0.5c-0.6,0-0.9,1.3-0.9,1.7
		C701.6,143,702.1,143,702.2,143z M703,143.9v-0.2h-0.7L703,143.9z M702.5,126.6c0,0.1,0.1,0.2,0.1,0.2s0.1-0.1,0.1-0.2
		s-0.1-0.2-0.1-0.2S702.5,126.5,702.5,126.6z M702.9,143.4c0.6,0,1.2-0.3,1.5-0.9c-0.2,0.2-0.2,0.4-0.2,0.7h0.2l0.9-0.9
		c-0.1,0-0.8-0.3-0.9-0.3C703.9,142,702.9,142.9,702.9,143.4z M708.2,143.6c1,0,0.8-0.4,1.1-1l0.2,0.2c0.2-0.2,0.4-0.6,0.5-0.7
		c0,0,0,0.1,0,0.2c-0.3,0.7-0.4,0.5-0.4,1.2c0.9,0,2.7-1.8,2.7-2.8c0-0.3,0-0.5-0.2-0.7h0.6c0-2.7-0.1-5.5-3.2-5.5
		c-0.2,0-0.3,0-0.5,0c0.1,0,0.7-0.1,0.9-0.4c0,0-0.2-0.2-0.2-0.2c-0.2,0-0.3,0.1-0.3,0.2l-1.1-0.3c0.9-0.2,2.7-1.1,2.7-2.3
		c0-0.3-0.6-0.6-0.9-0.6c0,0.9-0.8,1.5-1.6,1.8c0.1,0.1,0.1,0.2,0.1,0.3c0,0.3-0.9,0.4-1.4,0.7l0.2,0.2h-1.1l0.2-0.2h-0.7l0.3-0.4
		h-0.9V133c-0.2,0-1.4,0-1.4,0.6c0,0.7,2.3,0.5,2.7,0.6c1.1,0.3,2,1.1,3.2,1.1c0,0.4-0.1,0.3-0.1,0.5c0,0.1,0.1,0.3,0.1,0.3l0.4-0.1
		l-0.2-0.2h1.2c-0.1,0.5-0.8-0.1-1.1,0.5c0.3,0,0.4,2,0.5,2.3c0.1,0.2,0.7,0.6,0.9,0.7h-0.7v1.6c-0.2,0.1-0.5,0.5-0.6,0.7v-0.4
		c-0.5,0.4-1.5,0.9-1.9,1.4v-0.4c-0.5,0-0.7,0.2-1.1,0.2c0,0-1-0.2-1.1-0.2c-0.4,0-1.3,0.5-1.3,1.1c0.5,0,0.9-0.4,1.3-0.4v0.6
		c0.5,0,1.7-0.1,1.8-0.9C708,142.9,707.8,143.6,708.2,143.6z M703.9,126.8c0.2,0,0.3,0,0.5,0c0.4,0,0.6-0.1,0.6-0.5
		C704.6,126.4,704.1,126.4,703.9,126.8z M704.6,127.3c0,0.1,0.1,0.2,0.1,0.2s0.1-0.1,0.1-0.2c0-0.1-0.1-0.2-0.1-0.2
		S704.6,127.2,704.6,127.3z M706.2,126.6c0.1,0,0.2-0.1,0.2-0.1h-0.5C705.8,126.5,706.1,126.6,706.2,126.6z M707.1,125.7
		c-0.1,0-0.3,0-0.3,0.1c0,0.1,0.1,0.1,0.3,0.1c0.1,0,0.2,0,0.3-0.1C707.4,125.7,707.3,125.7,707.1,125.7z M706.9,133.2
		c0.1,0,0.1,0,0.2,0c0.2,0,0.5,0,0.7-0.2c-0.1,0-0.2,0-0.3,0C707.2,133,707.1,133,706.9,133.2z M708.1,126.8
		c0.6-0.1,1.7-0.3,1.8-0.3c-0.1-0.2-0.3-0.4-0.5-0.4C708.8,126.1,708.1,126.5,708.1,126.8z M711.2,130.9c0.2,0,0.4-1.5,0.4-1.8
		c0-0.3-0.1-0.4-0.3-0.4c-0.1,0-0.3,0.1-0.4,0.1c-0.1,0-0.2-0.1-0.2-0.2c0.1,0,0.1,0,0.2,0c0.3,0,0.3-0.2,0.3-0.4c0-0.1,0-0.3,0-0.3
		l-0.9-1.1c0,0-0.1,0-0.2,0c-0.6,0-0.9,0.3-1.8,0.3c0,0.3,1.1,0.5,1.1,0.5l-0.4,0.1c0.4,0.2,0.8,1.6,1,1.9L710,130l0.3,0.2
		c-0.2,0-0.2,0.3-0.2,0.3C710.5,130.6,711.2,130.9,711.2,130.9z M710.9,137.7c0.1,0,0.7,0.2,1.1,0.3c-0.1,0-0.3,0-0.4,0
		c-0.3,0-0.6,0-0.8-0.3C710.8,137.7,710.9,137.7,710.9,137.7z M710.9,141.1c0.1,0.2,0.4,0.6,0.4,0.6c0,0,0,0,0,0.1
		c-0.3-0.1-0.4-0.3-0.4-0.5C710.9,141.2,710.9,141.1,710.9,141.1z M711.6,138.8l-0.2,0.2l-0.5-0.5
		C711.2,138.5,711.4,138.5,711.6,138.8z M711.4,137h0.4c-0.1,0.2-0.3,0.2-0.5,0.2c0,0-0.2,0-0.3,0c0-0.2,0.1-0.4,0.3-0.4V137z"/>
	<path class="st2" d="M716.9,141.1c0.3,0,1.8,0.3,1.8,0.5v2.3h-2.1l-0.3-0.2c0,0,0-0.2,0-0.3C716.2,142.8,716.1,141.1,716.9,141.1z
		 M717.1,142.9c0,0,0.2,0,0.3,0c0.3,0,0.4-0.3,0.4-0.7l0-0.1l-0.7-0.2c0,0,0,0.1,0,0.1c0,0.2,0.2,0.2,0.2,0.4
		C717.3,142.6,717.3,142.8,717.1,142.9z"/>
	<path class="st2" d="M726.1,142.6l-0.3-0.2c-1.8-2.3-2.7-5-2.7-8c0-3.4,1.7-7.3,4.8-9c1.3-0.6,2-1.1,3.2-1.1c2.4,0,5.4,2.2,6.9,4.1
		c0.7,0.9,1.9,4.6,1.9,5.5c0,0.2-0.1,1.2-0.3,1.6v2.3c-0.5,0.4-0.8,1-0.8,1.6c0,0.2,0,0.3,0.1,0.5c-0.9,0.3-0.3,1.3-1,1.6
		c0-0.1,0.1-0.3,0.1-0.5c-0.1,0.1-0.5,0.7-0.7,0.7c0,0,0,0,0,0c-0.3,0.7-0.8,1.3-1.6,1.6l0.5-0.5c-0.6,0-0.8,0.4-1.3,0.5
		c-0.3,0.1-1.9,0.3-2.3,0.4c-0.1,0-0.3,0-0.4,0c-0.1,0-0.3,0-0.3,0.2c0.2,0,0.4,0,0.7,0c0.3,0,0.6,0.1,0.6,0.2
		c-0.9,0.2-2.3,0.3-3.3,0.3C728.5,143.9,727,143,726.1,142.6z M723.8,135.3c0,0.2,0,0.3,0.2,0.4c0.6-0.3,1.4-0.7,1.4-1.1l-1.4-0.4
		c-0.2,0-0.2,0.5-0.2,0.8C723.9,135.1,723.8,135.2,723.8,135.3z M723.9,134.1c0.5-0.2,1.8-0.8,1.8-1.4c0-0.4-0.9-0.5-1.1-0.5
		c-0.1,0-0.3,0.1-0.4,0.2C724.1,132.8,723.9,134.1,723.9,134.1z M724.2,136.4h1.5c0-0.2-0.1-1.1-0.3-1.1
		C724.9,135.3,724.3,136,724.2,136.4z M724.7,138c0.4,0,1-0.7,1-1.1l-1.1-0.2c-0.1,0-0.4,0.3-0.4,0.4
		C724.2,137.4,724.5,138,724.7,138z M725.3,132c0-0.2-0.2-0.3-0.5-0.3c-0.1,0-0.3,0.1-0.5,0.2C724.7,131.9,725.1,132,725.3,132z
		 M724.6,133.9v0.2h1.1v-0.6C725.4,133.5,724.6,133.7,724.6,133.9z M724.7,138.5h1.1c0-0.3-0.1-0.7-0.2-0.7l-0.9,0.5V138.5z
		 M724.9,139.3c0,0.3,0,0.9,0.3,0.9c0,0,0.1,0,0.1,0l0.7-0.9c0-0.2-0.7-0.3-1.1-0.3C724.9,139,724.9,139.1,724.9,139.3z
		 M725.2,129.7c0.4,0,1.1-0.1,1.1-0.4l-0.5-0.7C725.5,128.9,725.2,129.3,725.2,129.7z M726,130.8c0.2,0,0.3,0,0.3-0.4
		c-0.3,0-0.5,0-0.7,0.2C725.7,130.8,725.8,130.8,726,130.8z M726.4,140.3c0-0.1,0-0.3-0.1-0.3c-0.1,0-0.1,0.1-0.2,0.3l-0.5-0.2
		C725.7,140.4,726.3,140.3,726.4,140.3z M726.6,141.7c0.1,0,0.4-0.2,0.4-0.4c0-0.5-0.6-0.5-0.9-0.5c-0.1,0-0.5,0-0.5,0
		C725.8,141.1,726.1,141.7,726.6,141.7z M731.8,141.9c3.6,0,5.3-3.3,5.3-6.6c0,0-0.1-0.6-0.2-0.7c0-0.2-0.2-1.4-0.3-1.9
		c-0.1-0.2-1.4-3.7-1.4-3.7c-0.8-0.9-1.9-1.9-3.2-1.9c-1.3,0-1.8,1.2-2.9,1.2c-2,1.3-2.7,4.5-2.7,6.7
		C726.3,139,727.2,141.9,731.8,141.9z M727.1,128.8c0,0,0.3-0.1,0.3-0.2l-0.5-0.2c0,0.1,0,0.1,0,0.1
		C726.9,128.7,727,128.8,727.1,128.8z M727,141.9c0.1,0,0.3-0.1,0.5-0.2H727V141.9z M727.8,142.6c0.2-0.2,0.4-0.3,0.4-0.6
		c-0.1,0-0.7,0-0.8,0.3L727.8,142.6z M728.7,127.4c0-0.3-0.2-0.9-0.5-0.9c-0.2,0-0.5,0.2-0.6,0.3
		C727.8,127.2,728.3,127.4,728.7,127.4z M728.3,142.6c0.2,0,0.4,0,0.5-0.2c0,0-0.1,0-0.2,0C728.5,142.4,728.4,142.4,728.3,142.6z
		 M729.9,143.3c0.5,0,0.9-0.1,1.2-0.5c-0.2,0-1.3-0.2-1.6-0.2c0,0,0,0-0.1,0c-0.1,0-0.2,0-0.3,0c-0.2,0-0.4,0-0.4,0.3
		c0,0,0,0.1,0,0.1C729.2,143.3,729.5,143.3,729.9,143.3z M729.5,126.3c0.2-0.1,0.2-0.5,0.4-0.7c-0.3,0-0.5,0-0.5,0.3
		C729.3,126.1,729.3,126.2,729.5,126.3z M733.9,126.8l0.4-0.3c-0.5-0.7-1.1-0.8-1.8-0.8c0,0,0-0.1,0-0.2s0-0.2-0.2-0.2
		c0,0-0.3,0.2-0.4,0.2c-0.2-0.1,0.1-0.2-0.5-0.2c-0.4,0-1.1,0.1-1.2,0.4h0.9c-0.1,0.1-0.4,0.3-0.4,0.5h1.1l0.1-0.4
		C732.4,126.4,733.4,126.5,733.9,126.8z M731.1,143.1c0.1,0,0.2,0,0.4,0c0.3,0,0.8-0.1,1-0.4c0,0-0.4,0-0.5,0
		C731.7,142.7,731.2,142.7,731.1,143.1z M733.4,143.1c0.8,0,3-0.9,3-1.1v-0.6c0.1,0,0.3,0.1,0.5,0.1c0.2,0,0.4-0.1,0.4-0.3
		c0-0.3-0.2-0.3-0.2-0.6c0,0,0-0.3,0-0.3c0.2,0,0.4,0.2,0.5,0.2c0.4,0,1.5-3.2,1.5-3.7c0-0.4-0.2-0.5-0.2-0.9c0,0,0.2-0.1,0.2-0.1
		c0.3-0.3,0.2-1.6,0.2-2.5H739c0-1.7-1.1-4.4-3-4.4c-0.1,0-0.2,0-0.2,0.1c0,0.3,0.3,0.3,0.5,0.3c0.2,0,0.4,0,0.4-0.1l-0.3,0.5
		c0.3,0.1,0.1,1.3,0.5,1.3c0.1,0,0.1,0,0.2-0.1l-0.3,0.5c0.3,0.3,0.1,1,0.7,1c0.2,0,0.3,0,0.4-0.1c-0.4,0.3-0.4,0.8-0.4,1.1
		c0,0.2,0,0.5,0.2,0.5c0.1,0,0.3-0.1,0.3-0.2c-0.1,0.3-0.3,0.8-0.3,1.1c0,0.5,0.3,1.3,0.3,1.8c0,1-1.5,4.7-2.6,4.9
		c0.1,0.1,0.2,0.2,0.2,0.3s-1.5,0.3-1.6,1c0-0.1-0.2-0.3-0.3-0.3c-0.2,0-0.8,0.4-0.9,0.5C732.8,143,733.3,143.1,733.4,143.1z
		 M735,143.6v0.2c0,0.1-1.2,0.3-1.4,0.3v-0.2C734.1,143.9,734.5,143.6,735,143.6z M734.6,127.2c0.1,0,0.3-0.1,0.3-0.2
		c-0.1-0.2-0.3-0.4-0.5-0.4C734.4,126.7,734.4,127.2,734.6,127.2z M735.5,127.8c0.2,0,0.3,0,0.5,0c-0.2-0.4-0.7-0.4-1.1-0.4
		C734.9,127.7,735.2,127.8,735.5,127.8z M736.4,128.5c0,0,0.4-0.1,0.5-0.1c0-0.1-0.6-0.4-0.7-0.5c-0.1,0-0.4,0.3-0.4,0.3
		C735.9,128.5,736.2,128.5,736.4,128.5z"/>
</g>
<g>
	<path class="st2" d="M484.6,44.8l-1.3-3.3c0-0.1,0-0.1,0-0.2c0-0.8-1.4-2.1-1.4-3c0-0.1,0-0.2,0-0.2l-2.2-5.3
		c0-0.2,0.1-0.2,0.3-0.4l-0.5-0.2c-0.1-0.3-1.3-3.1-1.8-3.1c-0.2,0-0.6,1.3-1.2,3.3c-0.8,2-4.7,13.2-6.1,13.2
		c-0.3,0-2.2-0.2-2.2-0.4c0,0-0.6,0.3-1.2,0.3c-0.9,0-2.6-3.9-3.1-5.5l-1.3-3.7c0,0,0-0.1,0-0.2c0-0.8-1.5-2.6-1.5-3.7
		c0-0.1,0-0.1,0-0.2c-0.3-0.6-1.3-3.3-1.6-3.9c-0.4-1.1-1.4-2.5-1.4-3.7c0-0.6,1.4-0.7,2.6-0.7c0.9,0,2.2,0,2.2,0.5
		c0,0,0,0.8-0.3,1.1c0,0,0.3,0.2,0.3,0.6c0.9,3.9,2.6,6.5,3.8,9.7c0,0,0,0.2,0,0.2l2.2,5.1c0,0,0,0.1,0,0.1c0.1,0,0.7-0.5,0.7-0.7
		l3.5-9.5v-0.8c0-0.1,0.9-2.5,1.3-3.5c0.3-0.8,0.4-1.2,0.9-2.2c0.6-0.4,1.3-0.5,2.2-0.5c0.7,0,3.6,0,3.6,0.5c0,0.5-0.8,0.6-0.8,1.2
		c0,1.2,1.5,3.2,1.9,4.3c0.8,1.2,2.4,3.8,2.4,5.3l1.6,3.3c0,0.1,0,0.1,0,0.2c0,0.5,0.7,1.3,1.1,1.5c2.1-2.7,3.7-16,5-16.2
		c0.6,0,0.7,0.2,1.6,0.2c0.7,0,1.2-0.4,1.7-0.4c0.5,0,1,0.7,1,1c0,0.2-0.5,0.9-0.6,1.1c-0.4,1.2-0.9,3.3-0.9,4.8c0,0.3,0,0.5,0,0.7
		c-0.3,0.6-1.3,3.5-1.6,4.1c-0.7,1.9-3.7,10.6-4.9,10.6c-1.3,0-2.6-0.5-3.8-0.5C485.2,45.1,484.7,44.8,484.6,44.8z M462.4,32.3
		c0,0.1,0.2,0.3,0.3,0.4c0.6-0.3,1.3-0.8,1.3-1.5c0,0-0.3-0.6-0.5-0.9c-0.9-1-0.5-5-2.9-5V25c-0.1,0-0.7,0.1-1.1,0.2
		c0.5,0.5,0.7,1.4,1.1,2c0.2,0.2,0.5,1.2,0.5,1.4c0,0,0.6,0,1.1-0.4c-0.1,0.1-0.9,0.7-1.1,0.8v0.1c0,0.3,0.4,1.5,1.1,1.5
		c0.2,0,0.6-0.2,0.8-0.2c-0.3,0.1-0.6,0.5-0.6,0.7c0,0.3,0.3,0.4,0.6,0.4c0.1,0,0.1,0,0.2,0C463,31.7,462.4,32.1,462.4,32.3
		L462.4,32.3z M464.3,37c0.9,0,1.5-1.2,1.5-1.3H464v-0.3h1.3v-0.9c-0.4,0-0.6,0.4-1,0.4c0-0.5,0.5-0.9,0.5-1.4c0-0.1,0-0.2,0-0.2
		c-0.1-0.3-0.5-1.3-0.7-1.3c-0.5,0-1,1.1-1.2,1.3c0,0.1-0.1,0.3-0.1,0.3h1.4c-0.4,0.2-1,0.3-1,0.7C463.2,35.2,463.7,36.3,464.3,37z
		 M466,39.7c0.5,0,1,0,1-0.5c0-0.2-0.2-0.7-0.6-0.8c-0.1,0.2-0.6,0.6-0.6,0.6c0,0-0.1,0-0.1,0c0.2-0.5,0.6-0.9,0.6-1.4
		c0-0.2,0-1-0.5-1c-0.8,0.4-1.3,1-1.3,1.1c0,0,0,0,0,0h1.2l-1,0.5C465.1,38.9,464.7,39.7,466,39.7z M465.3,40.6c0,0.2,0,0.5,0.3,0.5
		c0.6,0,1.4-0.7,1.4-1.1c0-0.1,0-0.1,0-0.1l-1.6,0.2c0,0,0,0.2,0,0.3C465.3,40.4,465.3,40.5,465.3,40.6z M466,42c0.2,0,0.3,0,0.5,0
		c0.7,0,1.1-0.1,1.1-1.1c0-0.2,0-0.4-0.3-0.4C466.5,40.8,466,41.3,466,42z M467.5,43.5c0,0,0.2,0,0.3,0c1,0,2-0.5,2.9-0.8
		c1-2.2,2-4.3,3-6.3c0-0.1,0-0.2,0-0.5c-1.7,0.4-1.9,4.5-3,5.7c-0.2,0.2-1.1,1.1-1.7,1.1c-0.8,0-0.6-0.7-1.3-0.7
		c-0.4,0-1.3,0-1.3,0.3c0,0.1,0.4,0.6,0.6,0.7c0,0,0.3,0,1-0.2L467.5,43.5z M469.9,44.4c0.5-0.2,0.6-0.7,0.6-1
		c-0.8,0-1.7,0.3-2.4,0.6C468.2,44.2,469.2,44.4,469.9,44.4z M473.1,35.8c1-0.4,1.4-0.9,1.4-1.8C473.2,34,473.1,35,473.1,35.8z
		 M473.9,33.8c0.6-0.4,1.1-0.9,1.3-1.4c-0.4,0-1.1,0-1.1,0.4c0,0.2,0,0.4,0.3,0.4c-0.2,0-0.8,0.2-0.8,0.3
		C473.6,33.5,473.7,33.7,473.9,33.8z M474.1,32.1c0.5,0,1.4-0.1,1.4-0.6l-0.6-0.2c0.1,0,0.2,0.1,0.3,0.1c0.7,0,0.8-0.9,0.8-1.2
		C474.9,30.2,474.1,31.3,474.1,32.1z M474.7,30.1c0.3,0,1.3-0.1,1.3-0.5c0-0.1-0.3-0.1-0.5-0.1C474.9,29.5,474.7,29.5,474.7,30.1z
		 M475.2,28.5c0.2,0,0.6-0.2,1.4-0.5c-0.1-0.2-0.3-0.2-0.6-0.2C475.6,27.9,475.4,28.2,475.2,28.5z M475.2,29.1h1.1v-0.4
		C475.9,28.6,475.5,28.8,475.2,29.1z M480.6,28.6c0-0.8-0.9-3.2-2-3.2c-0.6,0-1,0.1-1.5,0.4l0.6-0.4c0-0.1-0.4-0.2-0.6-0.2
		c-0.9,0-0.9,1-0.9,1.4h0.6c-0.2,0.1-0.9,0.5-0.9,0.9c0.4,0,0.9-0.2,1.1-0.5c0.1,0.4,0.9,0.8,1.4,0.8c0.4,0,0.6-0.3,0.8-0.6
		c0,0,0.3,0.3,0.3,0.3c0,0.1-0.6,0.6-0.9,0.7C478.7,28.6,480.1,28.6,480.6,28.6z M479.5,29.3c0.2,0,0.7-0.3,0.8-0.4c0,0-0.2,0-0.3,0
		c-0.3,0-0.5,0-0.8,0.2C479.3,29.2,479.4,29.3,479.5,29.3z M480.6,31c0.5,0,0.9-0.5,0.9-0.9c0-0.5-0.3-0.9-0.6-1.2
		c-0.3,0.2-1.1,0.8-1.1,0.9c0,0.3,0.4,0.4,0.8,0.4c0.3,0,0.5,0,0.6,0c-0.3,0.1-0.8,0.4-1,0.6C480.2,31,480.4,31,480.6,31z
		 M480.8,31.9h1.4c0,0,0-0.8-0.4-1C481.3,30.9,480.8,31.6,480.8,31.9z M481.4,33c0.1-0.1,0.7-0.5,0.8-0.6c-0.1,0-0.4-0.1-0.5-0.1
		c-0.4,0-0.8,0-0.8,0.4C480.8,32.9,481.3,33,481.4,33z M481.3,34.5c0,0,0.6,0.5,0.9,0.7c0.6-0.3,0.8-0.4,0.8-0.8
		c0-0.2,0-0.4-0.3-0.4c0.1-0.1,0.2-0.2,0.2-0.3c0-0.2-0.2-0.7-0.6-0.7c-0.3,0-1,0.6-1,0.7c0,0.1,0.3,0.4,0.3,0.5
		C481.6,34.3,481.4,34.4,481.3,34.5L481.3,34.5z M482.4,36.9c1.1,0,0.5-0.6,1.7-0.7l-0.6-1.4c-0.5,0-1.1,0.8-1.3,1
		c0.2,0.2,0.6,0.3,0.8,0.4C482.6,36.4,482.4,36.6,482.4,36.9z M483,37.4c1,0,1.6-0.1,1.6-0.9C483.8,36.6,483.5,36.9,483,37.4z
		 M483.4,38.9c0.6,0,1.4-0.8,1.4-1.3c-0.6,0-1.8,0-1.8,0.7C483,38.4,483.2,38.9,483.4,38.9z M484.1,39.7c0.6,0,1.3,0.1,1.3-0.5
		c0-0.3-0.1-0.7-0.6-1c-0.3,0.3-1.1,1-1.1,1.2C483.8,39.5,483.9,39.6,484.1,39.7z M484.6,41.1c0.5-0.4,1.1-1,1.1-1.4
		c-0.3,0.1-1.6,0.3-1.6,0.5C484.1,40.5,484.2,40.9,484.6,41.1z M485.9,42.9c0,0,0.4,0,0.5,0l-0.5-0.2c0.2-0.2,0.6-0.6,0.6-0.9
		c-0.6,0-1.1,0.1-1.6,0.2C484.9,42.9,485.2,42.9,485.9,42.9z M484.9,41.5c0.6,0,1.3,0,1.3-0.5c0-0.2,0-0.5-0.3-0.5
		C485.4,40.7,484.9,41.1,484.9,41.5z M486.3,44.4c0,0,0.1,0,0.1,0l1.6-1v-0.3c-0.8,0-1.6,0.3-2.4,0.3
		C485.6,43.5,485.9,44.4,486.3,44.4z M487.7,44.6c1.3,0,1.4-0.6,1.4-1.4C488.3,43.2,487.7,44,487.7,44.6z M488,42.5
		c1.3,0,1.9-0.5,2.2-1.4C489.8,41.2,488.7,42,488,42.5z M488.8,41.3c1.4,0,2.2-1.5,2.2-2.3c-0.9,0.5-1.9,1.2-1.9,1.4
		c0,0.1,0.4,0.3,0.6,0.3c-0.3,0-0.9,0.2-1,0.4C488.6,41.2,488.8,41.3,488.8,41.3z M489.4,39.4c0.7,0,1.4-0.7,1.6-1h-1.6V39.4z
		 M490.6,38.1c1.3,0,1.5-0.9,1.5-1.6c-0.6,0.1-2.1,0.8-2.1,1.4C490,38,490.3,38.1,490.6,38.1z M490.2,36.8l0.1,0
		c0.3,0,0.8-0.4,0.8-0.7C490.6,36.2,490.3,36.5,490.2,36.8z M491,35.8c1.6,0,2.2-0.6,2.2-1.8c-1,0.3-1.9,1.2-2.5,1.6
		C490.7,35.6,491,35.8,491,35.8z M491,34.8c0.5-0.5,1.3-0.7,1.9-1.2c0,0-0.2,0-0.3,0C491.3,33.6,491,33.7,491,34.8z M491.2,33.2
		c1.9,0,2.7-0.1,2.7-1.9C492.9,31.9,491.2,32.8,491.2,33.2z M491.3,32c1,0,1.6-0.7,2.4-1.1c-0.1,0-0.6,0-0.8,0
		C491.7,30.9,491.3,31.5,491.3,32z M492.1,28.7c-0.3,0-0.6,0.6-0.6,0.8c0,0,0,0.2,0,0.2c0.8-0.2,2.3-0.9,2.4-1H492.1z M492.3,30.5
		c1.6,0,2.2-0.5,2.2-1.6h-0.3l-2.4,1.4C491.9,30.4,492.2,30.5,492.3,30.5z M492.2,27.1c0,0,0,0.3,0,0.4c0.6-0.3,1.6-0.8,2.2-1.3
		c0,0-0.1,0-0.1,0C493.5,26.2,492.2,26.3,492.2,27.1z M492.6,26.1c0,0,1.7,0,2.2-0.2v-0.8c-0.6,0-1.4-0.1-1.9-0.2
		c-0.3,0.1-0.3,0.3-0.3,0.4c0,0.3,0.3,0.2,0.3,0.4C492.9,25.7,492.7,26,492.6,26.1z M492.6,28.3c1.3,0,2.5-0.2,2.5-1.4
		c0-0.1-0.2-0.3-0.3-0.3C494.1,27.1,492.6,27.5,492.6,28.3z"/>
	<path class="st2" d="M502.6,45.9c-0.6,0-1.9-0.1-2.2-0.7c0-2,0.3-4,0.3-6c0-2.1,0.1-4.4-0.6-6.4v-8.7h5.4c0.8,0.2,1.4,0.2,2.4,0.2
		c0.3,0,0.6,0,0.8-0.2c2.2,0,4.9-0.2,5.6-0.2c0.5,0,2.9,0.2,3.4,0.2c0.1,0,0.3,0.3,0.3,0.4c0,0.9-0.4,1.1-0.4,1.8c0,0.1,0,0.2,0,0.4
		l-1,0.2c-1.2-0.1-2.4-0.1-3.7-0.1c-2.9,0-5.8,0.2-8.6,0.7c-0.3,0.5-0.3,0.8-0.3,1.3c0,0.7,0.3,1.4,0.3,2.1c0,0-0.2,1.4-0.3,1.9
		l0.5,0.4c0.1,0,1.1,0.1,1.4,0.1c1.9,0,2.4-0.3,3.2-0.3c0.1,0.1,0.3,0.2,0.4,0.2c0,0,0,0,0,0s0,0,0.1,0c0.1,0,0.3-0.1,0.3-0.3h4.8
		c0.1,0.1,0.4,0.4,0.5,0.7l0.5-0.2c-0.3,0.2-0.3,0.4-0.3,0.9c0,0.4,0,1.2,0,1.4l-0.6,0.4c-3.5,0-6.6,0.1-10.2,0.3
		c-0.1,0-0.3,0-0.4,0s-0.3,0-0.3,0.2v6.1l0.3,0.4c0,0.1,2.9,0.2,4.4,0.2c1.1,0,3.1-0.6,4.4-0.6c0.6,0,2.1,0.1,2.2,0.2l0.3,0.2
		c0-0.2,0.3-0.2,0.5-0.2c0.1,0,0.3,0,0.6,0l-0.5,0.2c0,0,0.3,0,0.6,0c0.6,0,0.7,0,0.9,0.3c0.1,0,0.5-0.2,0.6-0.2
		c0.5,0.2,0.6,0.6,0.6,1.1c0,0.8,0,1.9-0.6,2.4c-0.2,0-1,0-1.2,0c-1.3,0-2,0-3.4-0.5H502.6z M502,26.5c0,0,0.3,0,0.3,0
		c0.4,0,3.4-1,3.5-1.2c-0.6-0.2-1.4-0.2-2.2-0.2c-0.3,0-2.1,0-2.1,0l-0.3,1c0.3,0,0.9-0.2,1.4-0.4L502,26.5z M501.5,27.6
		c0.6,0,1.1-0.3,1.3-0.7c0,0-0.1,0-0.2,0C502.1,26.9,501.5,27.1,501.5,27.6z M501.5,29.5c0,0.1,0,0.3,0,0.3c0.9-0.6,1.3-0.9,1.3-1.7
		c0-0.1,0-0.4,0-0.5c-0.3,0.3-1.3,0.7-1.3,0.8c0,0.2,0.4,0.3,0.7,0.3c0.2,0,0.3,0,0.4,0C502.2,29,501.5,28.8,501.5,29.5z
		 M501.5,31.2v1.3c0.6,0,1.6-0.7,1.6-1.3c0-0.1-0.6-0.2-0.9-0.2C502.1,31,501.5,31.1,501.5,31.2z M502,34.9l1.4-1.1v-0.3
		c-0.4,0-1.7,0-1.7,0.4C501.7,34.3,501.8,34.5,502,34.9z M501.8,30.6c1.5,0,1.5-0.1,1.5-1.1C502.6,29.5,502,30.2,501.8,30.6z
		 M501.9,41c0,0.2,0,0.4,0,0.4h0.4c0.1,0,0.5-0.6,0.5-0.9c0-0.2-0.1-0.6-0.3-0.6l0,0C502,39.9,501.9,40.5,501.9,41z M502,33.3
		c0.8,0,1.4-0.2,1.4-0.9C502.8,32.4,502,32.7,502,33.3z M502,37.1c0.6,0,0.9-0.1,0.9-0.6l0-0.2C502.5,36.5,502,36.8,502,37.1z
		 M502,35.9c0.4,0,0.9-0.1,0.9-0.5C502.5,35.4,502,35.5,502,35.9z M502.3,38.3c0.3-0.1,0.3-0.5,0.3-0.7c-0.1,0-0.6,0-0.6,0.3
		C502,38,502.2,38.3,502.3,38.3z M502,43.2c0.5,0,0.6-0.4,0.6-0.6H502V43.2z M502.3,44.9c0.4-0.3,1.2-0.9,1.2-1.1h-0.7v-0.4
		c-0.3,0.1-0.7,0.9-0.8,1v0.1C502,44.7,502.1,44.7,502.3,44.9z M502.2,39.7c0.6,0,0.6-0.6,0.6-1C502.1,38.7,502.2,39.3,502.2,39.7z
		 M503.1,44.9c0.7,0,0.9-0.1,1.4-0.6C504,44.4,503.5,44.6,503.1,44.9z M505,35.3c0.5,0,1.7-0.3,1.7-0.8h-3c-0.3,0-0.3,0.3-0.3,0.4
		h1.6V35.3z M505,44.9c0.1,0,0.2,0,0.3,0c0.2,0,0.4-0.1,0.5-0.3c0,0-0.1,0-0.1,0C505.6,44.6,505.2,44.7,505,44.9z M506.3,26.2
		c0,0.1,0.1,0.1,0.1,0.1c0.3,0,0.5-0.1,0.5-0.4c0-0.1,0-0.2,0-0.2C506.5,25.8,506.3,26.2,506.3,26.2z M506.8,35.5
		c0.9,0,2.2-0.6,2.7-1.2c-0.1,0-0.5,0-0.6,0C507.9,34.2,506.8,34.7,506.8,35.5z M506.9,44.9c0.1,0,0.6,0,0.8,0c0.7,0,1.3,0,1.6-0.7
		c0,0-0.4,0-0.5,0C508,44.2,507.3,44.4,506.9,44.9z M508.2,25.3h0.3v-0.2L508.2,25.3z M509,35.3h1.3c0.2,0,0.3-0.9,0.3-1h-0.3
		L509,35.3z M510.3,44.9c0.2,0,0.8-0.3,1-0.6c0,0-0.1,0-0.1,0C511.1,44.2,510.6,44.6,510.3,44.9z M512.2,35h2.2
		c-0.3-0.3-0.6-0.6-0.8-1C513,34.2,512.4,34.6,512.2,35z M512.2,44c0,0,0.7,0,0.8-0.2c0,0-0.2,0-0.3,0
		C512.5,43.8,512.3,43.8,512.2,44z M512.2,44.6c0.9,0,1.1,0,1.6-0.4v0.4l2.1-0.6h-2.7L512.2,44.6z M513.2,25.1
		c0,0.4,0.3,0.4,0.7,0.4c0.5,0,1.3-0.2,1.3-0.7h-1.9C513.2,25,513.2,25.1,513.2,25.1z M514.6,44.9v0.3c0.6,0,1.3-0.3,1.6-0.8
		c0,0-0.3,0-0.3,0C515.6,44.4,514.6,44.7,514.6,44.9z M516.4,45.5c1.1,0,1.2-0.8,1.2-1.5h-1.2V45.5z"/>
	<path class="st2" d="M522.8,33.1c-0.2-0.1-0.3-0.1-0.3-0.4c0.6-3,0.3-5.9,1.1-7.1c0.6,0.3,0.6,0.7,0.6,1.2c0,0.6-0.3,1.2-0.3,1.9
		c0,0.3,0.3,0.7,0.3,0.7c0,0.2-0.3,0.9-0.3,2.8c0,0.2,0.2,0.6,0.2,0.6h1.3l0.3-0.4c-0.2-1.3-0.6-2.9-0.6-4.2c0-1,0.3-1.1,0.3-1.6
		c0-0.1-0.2-0.4-0.3-0.4c0.5-0.1,1.5-0.7,1.6-0.7c0,0.2,0.1,0.4,0.3,0.5c0.5,0,2.6-0.1,2.9-0.2c0.1,0,0.4-0.2,0.5-0.2
		c0,0,0,0.1,0,0.1c0,0.5,2.2,0.5,2.6,0.5c0.2,0,2-0.4,2-0.6v-0.2l-1-0.1h-6.7v-0.1c-0.7,0-1.3,0.1-2.2,0.1c-0.2,0-1.6-0.1-1.8-0.2
		c0-0.4,0.4-0.8,0.6-0.8c0.1,0,1,0.2,1.1,0.2c1,0,2.4-0.4,3.5-0.4c0,0,0.6,0.2,1,0.2c0,0,0.5-0.2,0.5-0.2c0.2,0,1,0.2,1.1,0.2
		c0.2,0,1.2-0.2,1.3-0.2c1.2,0,3.9,0.3,5.1,0.8c1.9,0.9,3.2,4.4,3.2,6.1c0,1.2-1.2,2.6-1.9,3.5c1.4,1.2,3.2,1.5,3.2,4.2
		c0,0.4,0.3,0.5,0.3,1.2c0,3.4-3.9,5-5.1,5.8c-0.3,0.3-1.2,0.3-1.9,0.3c-0.3,0-0.7,0-0.9,0c-0.3,0-0.8,0.3-3.3,0.3
		c0,0-0.5-0.2-0.6-0.2c-2,0-4,0.2-6,0.2c-0.3,0-1.2,0-1.2,0l-0.5-0.4V33.1z M524.3,45.1l1.6-0.2v-0.2h-0.8c0-0.4,0.5-0.6,0.5-0.9
		c0-0.5-0.6-0.8-1.1-0.9c0.3-0.1,0.5-0.5,0.5-0.5c0-0.1-0.3-0.5-0.5-0.5h0.6c0-0.5-0.3-1-0.3-1.4c0-0.2,0.2-0.1,0.2-0.7
		c0-0.5-0.2-0.5-0.2-1c0,0,0.1,0.1,0.1,0.1c0.1-0.1,0.3-0.3,0.3-0.4v-2.7c0.8-0.3,2.2-1.1,2.9-1.8l-0.5-0.4c-0.6-0.2-3-0.5-4.1-0.5
		c0,0,0,0,0,0.1c0,0.1,0.3,0.4,0.3,0.6c0,0.8-0.3,1-0.3,2.4c0,1.1,0.3,2.1,0.3,3.3c0,0.2,0,0.5,0,0.7l0.3,0.2
		c-0.3,0.1-0.3,0.4-0.3,0.6c0,0.7,0.3,1,0.3,1.5s-0.3,0.6-0.3,1.6C524,44.7,524.2,45,524.3,45.1z M527.8,42.8c1.9,0,3.8,0.3,5.7,0.3
		c1.1,0,4-0.1,4.5-1.5c0.3-1.1,0.3-1.5,0.3-2.5c0-2.9-2.7-3-5.1-3c-2,0-4.2,0-6.3,0.6c-0.6,0.1-0.6,3.4-0.6,4.2
		c0,0.7,0.1,1.3,0.6,1.9C527.1,42.9,527.5,42.8,527.8,42.8z M528.8,32.8c0.9,0,7.8,0.3,7.8-2.1c0,0-0.3-0.4-0.3-0.4
		c0,0,0.3-0.4,0.3-0.4c0-0.7-0.6-1.5-1.1-2c-1.3-1.4-7.9-0.5-8.5-1.4c-0.5,0.4-0.6,0.8-0.6,1.3c0,1.5,0.3,3.1,0.3,4.6
		C527.4,32.7,527.9,32.8,528.8,32.8z M526.5,44.3c0.3,0,0.7-0.1,1.1-0.2h-1.1V44.3z M526.8,44.9v0.3c0.8,0,1.7-0.5,2.1-0.5
		c0.1,0,1,0.2,1,0.2h0.2c0.1,0,0.6-0.4,0.6-0.6c0.1,0.3,0.3,0.8,0.5,0.8h2.1l0.3,0.2l0.3-0.4c0.3,0,0.5,0,0.7,0
		c0.6,0,1.3-0.4,1.4-0.4c3.4-0.8,5.1-1.5,5.1-4.5c0-0.4-1-4.1-1.6-4.3c-0.1,0-1-0.1-1-0.2c-0.8-0.2-0.6-0.4-2.2-0.4
		c-0.3,0-0.6,0-0.6,0.2c0.5,0.3,1.4,0.3,1.9,0.4c0,0,0,0.1,0,0.1c0,0.4,1.3,0.9,1.4,1.2c0.1,0.2,0.6,1.2,0.8,1.4
		c-0.3,0.2-0.6,0.4-0.6,0.6c0.1,0,0.6,0.1,0.6,0.2s-0.3,1-0.5,1l0.3,0.2l1-0.4c0,0.6-1.1,0.2-1.1,1.4c0,0.1,0,0.5,0,0.6
		c0-0.1,0.4-0.2,0.5-0.2c0.1,0,0.3,0.1,0.3,0.2c-0.4,0.3-1.1,0.3-1.6,0.3c0,0.3-0.1,0.6-0.3,0.8c-1.3,0.4-3.1,0.8-4.5,0.8
		c-1,0-0.7-0.3-0.9-0.3c-0.1,0-1,0.2-1,0.2c-0.5,0-2.6,0.1-3,0.1v0.3C529.1,44.3,526.8,44.6,526.8,44.9z M527.3,35.6
		c1.2-0.4,2.8-0.9,3.8-1.4l-1.3,1v0.2c1.5,0,1.1-0.6,2.1-1.1c0.7-0.3,1.8,0,2.4-0.8c0,0-0.2-0.2-0.2-0.2c-0.2,0-1.3,0.2-1.4,0.4
		C532.4,33.7,527.3,33.7,527.3,35.6z M531.8,35.2c0.2,0,0.6,0,0.7,0c1,0,1.5-0.2,2-1.1c0,0.4-0.3,0.7-0.3,0.9c0.8,0,2.8-0.7,2.8-1.2
		c0-0.1-1.2-0.5-1.4-0.5C535.1,33.3,533.2,34.3,531.8,35.2z M533.9,26.6c0.7,0,1.3-0.3,1.6-0.8c0,0-0.3,0-0.3,0
		C534.5,25.7,533.9,26,533.9,26.6z M535.3,26.8c0.3,0,2.2,0,2.2-0.3c0-0.4-0.7-0.8-1.1-0.8C535.7,25.7,535.3,26.4,535.3,26.8z
		 M536.7,27.4c0.3,0,0.7-0.2,1-0.4c-0.1,0-0.4,0-0.5,0c-0.4,0-0.7,0-1.1,0.2C536.2,27.3,536.6,27.4,536.7,27.4z M536.7,33.4
		c0.6,0,2.1-0.3,2.1-1c0,0,0-0.1,0-0.1l-2.1,0.9V33.4z M538.2,31.7c1.7,0,1.4-0.3,1.4-1.2c0-0.6-0.3-3.3-1.6-3.3
		c-0.6,0-1.3,0.6-1.3,1c0.4,0,0.8,0.1,1.3,0.2l-0.3,0.2c0,0,0.2,0,0.3,0c0.2,0,0.4,0,0.6-0.3c0,0.6-0.9,0.8-0.9,1.5
		c0,0.2,0.9,0.4,0.9,0.4c-0.3,0.1-0.6,0.2-0.9,0.4c0.6,0,0.8-0.2,1.3-0.2l-1.3,1C537.7,31.7,538,31.7,538.2,31.7z M537.2,32.5
		c0.3-0.1,0.6-0.2,0.8-0.4h-0.8V32.5z"/>
</g>
</svg>
